  0
SECTION
  2
HEADER
  9
$ACADVER
  1
AC1009
  9
$DWGCODEPAGE
  3
ansi_1252
  9
$INSBASE
 10
0.0
 20
0.0
 30
0.0
  9
$EXTMIN
 10
6.853285263093321
 20
8.278947101641544
 30
0.0
  9
$EXTMAX
 10
325.1694532923283
 20
235.0660221016416
 30
0.0
  9
$LIMMIN
 10
0.0
 20
0.0
  9
$LIMMAX
 10
12.0
 20
9.0
  9
$ORTHOMODE
 70
     0
  9
$REGENMODE
 70
     1
  9
$FILLMODE
 70
     1
  9
$QTEXTMODE
 70
     0
  9
$MIRRTEXT
 70
     1
  9
$DRAGMODE
 70
     2
  9
$LTSCALE
 40
1.0
  9
$OSMODE
 70
    37
  9
$ATTMODE
 70
     1
  9
$TEXTSIZE
 40
0.2
  9
$TRACEWID
 40
0.05
  9
$TEXTSTYLE
  7
STANDARD
  9
$CLAYER
  8
0
  9
$CELTYPE
  6
BYLAYER
  9
$CECOLOR
 62
   256
  9
$DIMSCALE
 40
1.0
  9
$DIMASZ
 40
0.18
  9
$DIMEXO
 40
0.0625
  9
$DIMDLI
 40
0.38
  9
$DIMRND
 40
0.0
  9
$DIMDLE
 40
0.0
  9
$DIMEXE
 40
0.18
  9
$DIMTP
 40
0.0
  9
$DIMTM
 40
0.0
  9
$DIMTXT
 40
0.18
  9
$DIMCEN
 40
0.09
  9
$DIMTSZ
 40
0.0
  9
$DIMTOL
 70
     0
  9
$DIMLIM
 70
     0
  9
$DIMTIH
 70
     1
  9
$DIMTOH
 70
     1
  9
$DIMSE1
 70
     0
  9
$DIMSE2
 70
     0
  9
$DIMTAD
 70
     0
  9
$DIMZIN
 70
     0
  9
$DIMBLK
  1

  9
$DIMASO
 70
     1
  9
$DIMSHO
 70
     1
  9
$DIMPOST
  1

  9
$DIMAPOST
  1

  9
$DIMALT
 70
     0
  9
$DIMALTD
 70
     2
  9
$DIMALTF
 40
25.4
  9
$DIMLFAC
 40
1.0
  9
$DIMTOFL
 70
     0
  9
$DIMTVP
 40
0.0
  9
$DIMTIX
 70
     0
  9
$DIMSOXD
 70
     0
  9
$DIMSAH
 70
     0
  9
$DIMBLK1
  1

  9
$DIMBLK2
  1

  9
$DIMSTYLE
  2
STANDARD
  9
$DIMCLRD
 70
     0
  9
$DIMCLRE
 70
     0
  9
$DIMCLRT
 70
     0
  9
$DIMTFAC
 40
1.0
  9
$DIMGAP
 40
0.09
  9
$LUNITS
 70
     2
  9
$LUPREC
 70
     4
  9
$SKETCHINC
 40
0.1
  9
$FILLETRAD
 40
0.5
  9
$AUNITS
 70
     0
  9
$AUPREC
 70
     0
  9
$MENU
  1
.
  9
$ELEVATION
 40
0.0
  9
$PELEVATION
 40
0.0
  9
$THICKNESS
 40
0.0
  9
$LIMCHECK
 70
     0
  9
$CHAMFERA
 40
0.5
  9
$CHAMFERB
 40
0.5
  9
$SKPOLY
 70
     0
  9
$TDCREATE
 40
2454910.5
  9
$TDUPDATE
 40
2456638.035216458
  9
$TDINDWG
 40
0.0000000116
  9
$TDUSRTIMER
 40
0.0000000116
  9
$USRTIMER
 70
     1
  9
$ANGBASE
 50
0.0
  9
$ANGDIR
 70
     0
  9
$PDMODE
 70
     0
  9
$PDSIZE
 40
0.0
  9
$PLINEWID
 40
0.0
  9
$COORDS
 70
     1
  9
$SPLFRAME
 70
     0
  9
$SPLINETYPE
 70
     6
  9
$SPLINESEGS
 70
     8
  9
$ATTDIA
 70
     0
  9
$ATTREQ
 70
     1
  9
$HANDLING
 70
     1
  9
$HANDSEED
  5
3AE
  9
$SURFTAB1
 70
     6
  9
$SURFTAB2
 70
     6
  9
$SURFTYPE
 70
     6
  9
$SURFU
 70
     6
  9
$SURFV
 70
     6
  9
$UCSNAME
  2

  9
$UCSORG
 10
0.0
 20
0.0
 30
0.0
  9
$UCSXDIR
 10
1.0
 20
0.0
 30
0.0
  9
$UCSYDIR
 10
0.0
 20
1.0
 30
0.0
  9
$PUCSNAME
  2

  9
$PUCSORG
 10
0.0
 20
0.0
 30
0.0
  9
$PUCSXDIR
 10
1.0
 20
0.0
 30
0.0
  9
$PUCSYDIR
 10
0.0
 20
1.0
 30
0.0
  9
$USERI1
 70
     0
  9
$USERI2
 70
     0
  9
$USERI3
 70
     0
  9
$USERI4
 70
     0
  9
$USERI5
 70
     0
  9
$USERR1
 40
0.0
  9
$USERR2
 40
0.0
  9
$USERR3
 40
0.0
  9
$USERR4
 40
0.0
  9
$USERR5
 40
0.0
  9
$WORLDVIEW
 70
     1
  9
$SHADEDGE
 70
     3
  9
$SHADEDIF
 70
    70
  9
$TILEMODE
 70
     1
  9
$MAXACTVP
 70
    64
  9
$PLIMCHECK
 70
     0
  9
$PEXTMIN
 10
1.000000000000000E+20
 20
1.000000000000000E+20
 30
1.000000000000000E+20
  9
$PEXTMAX
 10
-1.000000000000000E+20
 20
-1.000000000000000E+20
 30
-1.000000000000000E+20
  9
$PLIMMIN
 10
0.0
 20
0.0
  9
$PLIMMAX
 10
12.0
 20
9.0
  9
$UNITMODE
 70
     0
  9
$VISRETAIN
 70
     1
  9
$PLINEGEN
 70
     0
  9
$PSLTSCALE
 70
     1
  0
ENDSEC
  0
SECTION
  2
TABLES
  0
TABLE
  2
VPORT
 70
     1
  0
VPORT
  2
*ACTIVE
 70
     0
 10
0.0
 20
0.0
 11
1.0
 21
1.0
 12
10.42990654205607
 22
4.5
 13
0.0
 23
0.0
 14
0.5
 24
0.5
 15
0.5
 25
0.5
 16
0.0
 26
0.0
 36
1.0
 17
0.0
 27
0.0
 37
0.0
 40
9.0
 41
1.972972972850329
 42
50.0
 43
0.0
 44
0.0
 50
0.0
 51
0.0
 71
     0
 72
   100
 73
     1
 74
     3
 75
     0
 76
     0
 77
     0
 78
     0
  0
ENDTAB
  0
TABLE
  2
LTYPE
 70
     2
  0
LTYPE
  2
CONTINUOUS
 70
     0
  3
Solid line
 72
    65
 73
     0
 40
0.0
  0
LTYPE
  2
CONTINUOUS2
 70
     0
  3
Solid Line
 72
    65
 73
     0
 40
0.0
  0
ENDTAB
  0
TABLE
  2
LAYER
 70
     4
  0
LAYER
  2
0
 70
     0
 62
     7
  6
CONTINUOUS
  0
LAYER
  2
LAYER_1
 70
     0
 62
    18
  6
CONTINUOUS
  0
LAYER
  2
ENGRAVE
 70
     0
 62
    40
  6
CONTINUOUS
  0
LAYER
  2
HOLE
 70
     0
 62
     1
  6
CONTINUOUS
  0
ENDTAB
  0
TABLE
  2
STYLE
 70
     1
  0
STYLE
  2
STANDARD
 70
     0
 40
0.0
 41
1.0
 50
0.0
 71
     0
 42
0.2
  3
txt
  4

  0
ENDTAB
  0
TABLE
  2
VIEW
 70
     0
  0
ENDTAB
  0
TABLE
  2
UCS
 70
     0
  0
ENDTAB
  0
TABLE
  2
APPID
 70
     1
  0
APPID
  2
ACAD
 70
     0
  0
ENDTAB
  0
TABLE
  2
DIMSTYLE
 70
     1
  0
DIMSTYLE
  2
STANDARD
 70
     0
  3

  4

  5

  6

  7

 40
1.0
 41
0.18
 42
0.0625
 43
0.38
 44
0.18
 45
0.0
 46
0.0
 47
0.0
 48
0.0
140
0.18
141
0.09
142
0.0
143
25.4
144
1.0
145
0.0
146
1.0
147
0.09
 71
     0
 72
     0
 73
     1
 74
     1
 75
     0
 76
     0
 77
     0
 78
     0
170
     0
171
     2
172
     0
173
     0
174
     0
175
     0
176
     0
177
     0
178
     0
  0
ENDTAB
  0
ENDSEC
  0
SECTION
  2
BLOCKS
  0
BLOCK
  8
0
  2
$MODEL_SPACE
 70
     0
 10
0.0
 20
0.0
 30
0.0
  3
$MODEL_SPACE
  1

  0
ENDBLK
  5
21
  8
0
  0
BLOCK
 67
     1
  8
0
  2
$PAPER_SPACE
 70
     0
 10
0.0
 20
0.0
 30
0.0
  3
$PAPER_SPACE
  1

  0
ENDBLK
  5
1D
 67
     1
  8
0
  0
ENDSEC
  0
SECTION
  2
ENTITIES
  0
POLYLINE
  5
41
  8
LAYER_1
 66
     1
 10
0.0
 20
0.0
 30
0.0
 70
     1
  0
VERTEX
  5
74
  8
LAYER_1
 10
15.91563384788386
 20
48.69316932386377
 30
0.0
  0
VERTEX
  5
75
  8
LAYER_1
 10
15.91563384788386
 20
36.08206932386377
 30
0.0
  0
VERTEX
  5
76
  8
LAYER_1
 10
12.91525884788386
 20
36.08206932386377
 30
0.0
  0
VERTEX
  5
77
  8
LAYER_1
 10
12.91525884788386
 20
21.72577765719709
 30
0.0
  0
VERTEX
  5
78
  8
LAYER_1
 10
15.91563384788386
 20
21.72577765719709
 30
0.0
  0
VERTEX
  5
79
  8
LAYER_1
 10
15.91563384788386
 20
11.72382210164154
 30
0.0
  0
VERTEX
  5
7A
  8
LAYER_1
 10
23.89017551455053
 20
11.72382210164154
 30
0.0
  0
VERTEX
  5
7B
  8
LAYER_1
 10
23.89017551455053
 20
42.30648043497489
 30
0.0
  0
VERTEX
  5
7C
  8
LAYER_1
 10
101.8780532923283
 20
42.30648043497489
 30
0.0
  0
VERTEX
  5
7D
  8
LAYER_1
 10
101.8780532923283
 20
11.72382210164154
 30
0.0
  0
VERTEX
  5
7E
  8
LAYER_1
 10
112.9679755145505
 20
11.72382210164154
 30
0.0
  0
VERTEX
  5
7F
  8
LAYER_1
 10
112.9679755145505
 20
21.72577765719709
 30
0.0
  0
VERTEX
  5
80
  8
LAYER_1
 10
115.9683505145505
 20
21.72577765719709
 30
0.0
  0
VERTEX
  5
81
  8
LAYER_1
 10
115.9683505145505
 20
36.08206932386377
 30
0.0
  0
VERTEX
  5
82
  8
LAYER_1
 10
112.9679755145505
 20
36.08206932386377
 30
0.0
  0
VERTEX
  5
83
  8
LAYER_1
 10
112.9679755145505
 20
47.38859710164155
 30
0.0
  0
VERTEX
  5
84
  8
LAYER_1
 10
105.629844958995
 20
50.57911932386377
 30
0.0
  0
VERTEX
  5
85
  8
LAYER_1
 10
106.8264671812172
 20
53.33078599053043
 30
0.0
  0
VERTEX
  5
86
  8
LAYER_1
 10
99.48833662566163
 20
56.52130821275265
 30
0.0
  0
VERTEX
  5
87
  8
LAYER_1
 10
98.29206718121719
 20
53.76928876830821
 30
0.0
  0
VERTEX
  5
88
  8
LAYER_1
 10
77.61752551455052
 20
62.75806654608597
 30
0.0
  0
VERTEX
  5
89
  8
LAYER_1
 10
78.81379495899496
 20
65.5100859905304
 30
0.0
  0
VERTEX
  5
8A
  8
LAYER_1
 10
71.47601718121719
 20
68.70025543497484
 30
0.0
  0
VERTEX
  5
8B
  8
LAYER_1
 10
70.27939495899497
 20
65.94894154608595
 30
0.0
  0
VERTEX
  5
8C
  8
LAYER_1
 10
64.44162829232829
 20
68.48682487941929
 30
0.0
  0
VERTEX
  5
8D
  8
LAYER_1
 10
64.44162829232829
 20
65.13825821275262
 30
0.0
  0
VERTEX
  5
8E
  8
LAYER_1
 10
61.44125329232829
 20
65.13825821275262
 30
0.0
  0
VERTEX
  5
8F
  8
LAYER_1
 10
61.44125329232829
 20
68.48682487941929
 30
0.0
  0
VERTEX
  5
90
  8
LAYER_1
 10
55.60348662566162
 20
65.94894154608595
 30
0.0
  0
VERTEX
  5
91
  8
LAYER_1
 10
54.40686440343941
 20
68.70025543497484
 30
0.0
  0
VERTEX
  5
92
  8
LAYER_1
 10
47.06908662566163
 20
65.5100859905304
 30
0.0
  0
VERTEX
  5
93
  8
LAYER_1
 10
48.26535607010607
 20
62.75806654608597
 30
0.0
  0
VERTEX
  5
94
  8
LAYER_1
 10
30.59154218121719
 20
55.07386099053043
 30
0.0
  0
VERTEX
  5
95
  8
LAYER_1
 10
29.39527273677275
 20
57.82552765719709
 30
0.0
  0
VERTEX
  5
96
  8
LAYER_1
 10
22.05714218121719
 20
54.63535821275265
 30
0.0
  0
VERTEX
  5
97
  8
LAYER_1
 10
23.25341162566163
 20
51.88333876830822
 30
0.0
  0
SEQEND
  5
98
  8
LAYER_1
  0
POLYLINE
  5
42
  8
LAYER_1
 66
     1
 10
0.0
 20
0.0
 30
0.0
 70
     1
  0
VERTEX
  5
99
  8
LAYER_1
 10
53.17849218121719
 20
16.78900543497487
 30
0.0
  0
VERTEX
  5
9A
  8
LAYER_1
 10
54.82702273677274
 20
15.19691932386376
 30
0.0
  0
VERTEX
  5
9B
  8
LAYER_1
 10
55.55374495899496
 20
14.59790265719709
 30
0.0
  0
VERTEX
  5
9C
  8
LAYER_1
 10
56.36478107010608
 20
14.1198887683082
 30
0.0
  0
VERTEX
  5
9D
  8
LAYER_1
 10
57.24108107010607
 20
13.77487210164154
 30
0.0
  0
VERTEX
  5
9E
  8
LAYER_1
 10
58.16041995899496
 20
13.5706137683082
 30
0.0
  0
VERTEX
  5
9F
  8
LAYER_1
 10
59.10057273677274
 20
13.51311099053042
 30
0.0
  0
VERTEX
  5
A0
  8
LAYER_1
 10
60.0379032923283
 20
13.60342210164153
 30
0.0
  0
VERTEX
  5
A1
  8
LAYER_1
 10
60.94948107010607
 20
13.83907765719709
 30
0.0
  0
VERTEX
  5
A2
  8
LAYER_1
 10
61.81308107010607
 20
14.21478599053043
 30
0.0
  0
VERTEX
  5
A3
  8
LAYER_1
 10
62.60753662566163
 20
14.72066932386376
 30
0.0
  0
VERTEX
  5
A4
  8
LAYER_1
 10
63.31273940343942
 20
15.34438043497487
 30
0.0
  0
VERTEX
  5
A5
  8
LAYER_1
 10
64.21585051455052
 20
16.27994710164154
 30
0.0
  0
VERTEX
  5
A6
  8
LAYER_1
 10
58.19993107010608
 20
22.09160821275264
 30
0.0
  0
VERTEX
  5
A7
  8
LAYER_1
 10
60.28449495899496
 20
24.24990265719709
 30
0.0
  0
VERTEX
  5
A8
  8
LAYER_1
 10
66.3007671812172
 20
18.4378887683082
 30
0.0
  0
VERTEX
  5
A9
  8
LAYER_1
 10
67.01478940343941
 20
18.4378887683082
 30
0.0
  0
VERTEX
  5
AA
  8
LAYER_1
 10
67.01478940343941
 20
21.24952765719708
 30
0.0
  0
VERTEX
  5
AB
  8
LAYER_1
 10
70.01551718121719
 20
21.24952765719708
 30
0.0
  0
VERTEX
  5
AC
  8
LAYER_1
 10
70.01551718121719
 20
18.4378887683082
 30
0.0
  0
VERTEX
  5
AD
  8
LAYER_1
 10
70.72953940343942
 20
18.4378887683082
 30
0.0
  0
VERTEX
  5
AE
  8
LAYER_1
 10
76.74581162566163
 20
24.24990265719709
 30
0.0
  0
VERTEX
  5
AF
  8
LAYER_1
 10
78.83037551455052
 20
22.09160821275264
 30
0.0
  0
VERTEX
  5
B0
  8
LAYER_1
 10
72.8141032923283
 20
16.27994710164154
 30
0.0
  0
VERTEX
  5
B1
  8
LAYER_1
 10
73.71756718121719
 20
15.34438043497487
 30
0.0
  0
VERTEX
  5
B2
  8
LAYER_1
 10
74.42312273677274
 20
14.72066932386376
 30
0.0
  0
VERTEX
  5
B3
  8
LAYER_1
 10
75.21722551455052
 20
14.21478599053043
 30
0.0
  0
VERTEX
  5
B4
  8
LAYER_1
 10
76.08082551455053
 20
13.83907765719709
 30
0.0
  0
VERTEX
  5
B5
  8
LAYER_1
 10
76.99240329232829
 20
13.60342210164153
 30
0.0
  0
VERTEX
  5
B6
  8
LAYER_1
 10
77.92973384788385
 20
13.51311099053042
 30
0.0
  0
VERTEX
  5
B7
  8
LAYER_1
 10
78.86988662566164
 20
13.5706137683082
 30
0.0
  0
VERTEX
  5
B8
  8
LAYER_1
 10
79.78922551455052
 20
13.77487210164154
 30
0.0
  0
VERTEX
  5
B9
  8
LAYER_1
 10
80.66552551455052
 20
14.1198887683082
 30
0.0
  0
VERTEX
  5
BA
  8
LAYER_1
 10
81.47656162566163
 20
14.59790265719709
 30
0.0
  0
VERTEX
  5
BB
  8
LAYER_1
 10
82.20328384788385
 20
15.19691932386376
 30
0.0
  0
VERTEX
  5
BC
  8
LAYER_1
 10
85.3617032923283
 20
18.24879987941931
 30
0.0
  0
VERTEX
  5
BD
  8
LAYER_1
 10
91.5751782923283
 20
18.24879987941931
 30
0.0
  0
VERTEX
  5
BE
  8
LAYER_1
 10
92.51391995899498
 20
18.32253043497487
 30
0.0
  0
VERTEX
  5
BF
  8
LAYER_1
 10
93.42973107010609
 20
18.5426637683082
 30
0.0
  0
VERTEX
  5
C0
  8
LAYER_1
 10
94.29968107010609
 20
18.90284987941931
 30
0.0
  0
VERTEX
  5
C1
  8
LAYER_1
 10
95.10260329232831
 20
19.39497487941931
 30
0.0
  0
VERTEX
  5
C2
  8
LAYER_1
 10
95.81874218121719
 20
20.0063387683082
 30
0.0
  0
VERTEX
  5
C3
  8
LAYER_1
 10
96.43010607010608
 20
20.72247765719708
 30
0.0
  0
VERTEX
  5
C4
  8
LAYER_1
 10
96.92223107010608
 20
21.52539987941931
 30
0.0
  0
VERTEX
  5
C5
  8
LAYER_1
 10
97.28276995899496
 20
22.39534987941931
 30
0.0
  0
VERTEX
  5
C6
  8
LAYER_1
 10
97.50219773677274
 20
23.31116099053042
 30
0.0
  0
VERTEX
  5
C7
  8
LAYER_1
 10
97.57628107010606
 20
24.24990265719709
 30
0.0
  0
VERTEX
  5
C8
  8
LAYER_1
 10
91.5751782923283
 20
24.24990265719709
 30
0.0
  0
VERTEX
  5
C9
  8
LAYER_1
 10
91.5751782923283
 20
27.25063043497488
 30
0.0
  0
VERTEX
  5
CA
  8
LAYER_1
 10
81.4582171812172
 20
37.72495543497488
 30
0.0
  0
VERTEX
  5
CB
  8
LAYER_1
 10
55.57208940343941
 20
37.72495543497488
 30
0.0
  0
VERTEX
  5
CC
  8
LAYER_1
 10
45.4551282923283
 20
27.25063043497488
 30
0.0
  0
VERTEX
  5
CD
  8
LAYER_1
 10
45.4551282923283
 20
24.24990265719709
 30
0.0
  0
VERTEX
  5
CE
  8
LAYER_1
 10
29.39880051455053
 20
24.24990265719709
 30
0.0
  0
VERTEX
  5
CF
  8
LAYER_1
 10
29.35435051455053
 20
24.18358043497487
 30
0.0
  0
VERTEX
  5
D0
  8
LAYER_1
 10
29.05872273677275
 20
23.58385821275264
 30
0.0
  0
VERTEX
  5
D1
  8
LAYER_1
 10
28.84388107010608
 20
22.95062210164154
 30
0.0
  0
VERTEX
  5
D2
  8
LAYER_1
 10
28.7133532923283
 20
22.29516099053042
 30
0.0
  0
VERTEX
  5
D3
  8
LAYER_1
 10
28.66960884788386
 20
21.62805821275264
 30
0.0
  0
VERTEX
  5
D4
  8
LAYER_1
 10
28.7133532923283
 20
20.96095543497486
 30
0.0
  0
VERTEX
  5
D5
  8
LAYER_1
 10
28.84388107010608
 20
20.30549432386375
 30
0.0
  0
VERTEX
  5
D6
  8
LAYER_1
 10
29.05872273677275
 20
19.67225821275264
 30
0.0
  0
VERTEX
  5
D7
  8
LAYER_1
 10
29.35435051455053
 20
19.07253599053042
 30
0.0
  0
VERTEX
  5
D8
  8
LAYER_1
 10
29.72582551455053
 20
18.51691099053042
 30
0.0
  0
VERTEX
  5
D9
  8
LAYER_1
 10
30.16644495899497
 20
18.01455543497487
 30
0.0
  0
VERTEX
  5
DA
  8
LAYER_1
 10
30.66880051455052
 20
17.57358321275265
 30
0.0
  0
VERTEX
  5
DB
  8
LAYER_1
 10
31.22513107010608
 20
17.20210821275264
 30
0.0
  0
VERTEX
  5
DC
  8
LAYER_1
 10
31.82450051455053
 20
16.90648043497486
 30
0.0
  0
VERTEX
  5
DD
  8
LAYER_1
 10
32.45738384788386
 20
16.6916387683082
 30
0.0
  0
VERTEX
  5
DE
  8
LAYER_1
 10
33.11319773677275
 20
16.56111099053042
 30
0.0
  0
VERTEX
  5
DF
  8
LAYER_1
 10
33.78030051455053
 20
16.51736654608598
 30
0.0
  0
VERTEX
  5
E0
  8
LAYER_1
 10
51.32640884788385
 20
16.78900543497487
 30
0.0
  0
SEQEND
  5
E1
  8
LAYER_1
  0
POLYLINE
  5
43
  8
LAYER_1
 66
     1
 10
0.0
 20
0.0
 30
0.0
 70
     1
  0
VERTEX
  5
E2
  8
LAYER_1
 10
38.01892551455052
 20
224.594166546086
 30
0.0
  0
VERTEX
  5
E3
  8
LAYER_1
 10
38.8003282923283
 20
226.1795498794193
 30
0.0
  0
VERTEX
  5
E4
  8
LAYER_1
 10
39.78210884788386
 20
227.6488693238638
 30
0.0
  0
VERTEX
  5
E5
  8
LAYER_1
 10
40.94768662566163
 20
228.9777832127527
 30
0.0
  0
VERTEX
  5
E6
  8
LAYER_1
 10
42.27624773677275
 20
230.1430082127527
 30
0.0
  0
VERTEX
  5
E7
  8
LAYER_1
 10
43.74591995899497
 20
231.1247887683082
 30
0.0
  0
VERTEX
  5
E8
  8
LAYER_1
 10
45.33059773677275
 20
231.9065443238638
 30
0.0
  0
VERTEX
  5
E9
  8
LAYER_1
 10
47.0045282923283
 20
232.474516546086
 30
0.0
  0
VERTEX
  5
EA
  8
LAYER_1
 10
48.73772551455052
 20
232.8195332127527
 30
0.0
  0
VERTEX
  5
EB
  8
LAYER_1
 10
50.50161440343941
 20
232.934891546086
 30
0.0
  0
VERTEX
  5
EC
  8
LAYER_1
 10
52.26479773677273
 20
232.8195332127527
 30
0.0
  0
VERTEX
  5
ED
  8
LAYER_1
 10
53.99834773677274
 20
232.474516546086
 30
0.0
  0
VERTEX
  5
EE
  8
LAYER_1
 10
55.67192551455052
 20
231.9065443238638
 30
0.0
  0
VERTEX
  5
EF
  8
LAYER_1
 10
57.25695607010608
 20
231.1247887683082
 30
0.0
  0
VERTEX
  5
F0
  8
LAYER_1
 10
58.72627551455052
 20
230.1430082127527
 30
0.0
  0
VERTEX
  5
F1
  8
LAYER_1
 10
60.05518940343941
 20
228.9777832127527
 30
0.0
  0
VERTEX
  5
F2
  8
LAYER_1
 10
61.22041440343941
 20
227.6488693238638
 30
0.0
  0
VERTEX
  5
F3
  8
LAYER_1
 10
62.20219495899497
 20
226.1795498794193
 30
0.0
  0
VERTEX
  5
F4
  8
LAYER_1
 10
62.98430329232828
 20
224.594166546086
 30
0.0
  0
VERTEX
  5
F5
  8
LAYER_1
 10
63.55227551455052
 20
222.920941546086
 30
0.0
  0
VERTEX
  5
F6
  8
LAYER_1
 10
63.89693940343941
 20
221.187391546086
 30
0.0
  0
VERTEX
  5
F7
  8
LAYER_1
 10
64.00912273677275
 20
219.4743026571971
 30
0.0
  0
VERTEX
  5
F8
  8
LAYER_1
 10
64.00912273677275
 20
186.9294943238638
 30
0.0
  0
VERTEX
  5
F9
  8
LAYER_1
 10
59.47592829232829
 20
186.9294943238638
 30
0.0
  0
VERTEX
  5
FA
  8
LAYER_1
 10
59.47592829232829
 20
219.3254304349749
 30
0.0
  0
VERTEX
  5
FB
  8
LAYER_1
 10
59.39267273677275
 20
220.5943721016416
 30
0.0
  0
VERTEX
  5
FC
  8
LAYER_1
 10
59.16371995899497
 20
221.7447804349749
 30
0.0
  0
VERTEX
  5
FD
  8
LAYER_1
 10
58.78695329232829
 20
222.8556776571971
 30
0.0
  0
VERTEX
  5
FE
  8
LAYER_1
 10
58.26801718121718
 20
223.9080137683082
 30
0.0
  0
VERTEX
  5
FF
  8
LAYER_1
 10
57.61643662566163
 20
224.883091546086
 30
0.0
  0
VERTEX
  5
100
  8
LAYER_1
 10
56.84279495899496
 20
225.7653887683082
 30
0.0
  0
VERTEX
  5
101
  8
LAYER_1
 10
55.96085051455051
 20
226.5386776571971
 30
0.0
  0
VERTEX
  5
102
  8
LAYER_1
 10
54.98541995899497
 20
227.1906109905304
 30
0.0
  0
VERTEX
  5
103
  8
LAYER_1
 10
53.93343662566163
 20
227.7091943238638
 30
0.0
  0
VERTEX
  5
104
  8
LAYER_1
 10
52.82253940343941
 20
228.0863137683083
 30
0.0
  0
VERTEX
  5
105
  8
LAYER_1
 10
51.6717782923283
 20
228.315266546086
 30
0.0
  0
VERTEX
  5
106
  8
LAYER_1
 10
50.50161440343941
 20
228.3918193238638
 30
0.0
  0
VERTEX
  5
107
  8
LAYER_1
 10
49.33074495899497
 20
228.315266546086
 30
0.0
  0
VERTEX
  5
108
  8
LAYER_1
 10
48.18033662566162
 20
228.0863137683083
 30
0.0
  0
VERTEX
  5
109
  8
LAYER_1
 10
47.0694394034394
 20
227.7091943238638
 30
0.0
  0
VERTEX
  5
10A
  8
LAYER_1
 10
46.01745607010608
 20
227.1906109905304
 30
0.0
  0
VERTEX
  5
10B
  8
LAYER_1
 10
45.04202551455052
 20
226.5386776571971
 30
0.0
  0
VERTEX
  5
10C
  8
LAYER_1
 10
44.16008107010608
 20
225.7653887683082
 30
0.0
  0
VERTEX
  5
10D
  8
LAYER_1
 10
43.38643940343942
 20
224.883091546086
 30
0.0
  0
VERTEX
  5
10E
  8
LAYER_1
 10
42.73485884788386
 20
223.9080137683082
 30
0.0
  0
VERTEX
  5
10F
  8
LAYER_1
 10
42.21592273677275
 20
222.8556776571971
 30
0.0
  0
VERTEX
  5
110
  8
LAYER_1
 10
41.83880329232831
 20
221.7447804349749
 30
0.0
  0
VERTEX
  5
111
  8
LAYER_1
 10
41.6102032923283
 20
220.5943721016416
 30
0.0
  0
VERTEX
  5
112
  8
LAYER_1
 10
41.52694773677275
 20
219.3254304349749
 30
0.0
  0
VERTEX
  5
113
  8
LAYER_1
 10
41.52694773677275
 20
186.9294943238638
 30
0.0
  0
VERTEX
  5
114
  8
LAYER_1
 10
36.99340051455053
 20
186.9294943238638
 30
0.0
  0
VERTEX
  5
115
  8
LAYER_1
 10
36.99340051455053
 20
219.4743026571971
 30
0.0
  0
VERTEX
  5
116
  8
LAYER_1
 10
37.10593662566163
 20
221.187391546086
 30
0.0
  0
VERTEX
  5
117
  8
LAYER_1
 10
37.45060051455052
 20
222.920941546086
 30
0.0
  0
SEQEND
  5
118
  8
LAYER_1
  0
POLYLINE
  5
44
  8
LAYER_1
 66
     1
 10
0.0
 20
0.0
 30
0.0
 70
     1
  0
VERTEX
  5
119
  8
LAYER_1
 10
7.893819958994972
 20
208.7410387683082
 30
0.0
  0
VERTEX
  5
11A
  8
LAYER_1
 10
7.893819958994972
 20
234.6370443238638
 30
0.0
  0
VERTEX
  5
11B
  8
LAYER_1
 10
24.06903384788386
 20
234.6370443238638
 30
0.0
  0
VERTEX
  5
11C
  8
LAYER_1
 10
24.06903384788386
 20
224.6347359905304
 30
0.0
  0
VERTEX
  5
11D
  8
LAYER_1
 10
27.06940884788386
 20
224.6347359905304
 30
0.0
  0
VERTEX
  5
11E
  8
LAYER_1
 10
27.06940884788386
 20
214.6331332127527
 30
0.0
  0
VERTEX
  5
11F
  8
LAYER_1
 10
24.06903384788386
 20
214.6331332127527
 30
0.0
  0
VERTEX
  5
120
  8
LAYER_1
 10
24.06903384788386
 20
202.8489443238638
 30
0.0
  0
VERTEX
  5
121
  8
LAYER_1
 10
27.06940884788386
 20
202.8489443238638
 30
0.0
  0
VERTEX
  5
122
  8
LAYER_1
 10
27.06940884788386
 20
192.8469887683082
 30
0.0
  0
VERTEX
  5
123
  8
LAYER_1
 10
16.89529773677275
 20
192.8469887683082
 30
0.0
  0
VERTEX
  5
124
  8
LAYER_1
 10
16.89529773677275
 20
213.742016546086
 30
0.0
  0
VERTEX
  5
125
  8
LAYER_1
 10
13.89492273677275
 20
213.742016546086
 30
0.0
  0
VERTEX
  5
126
  8
LAYER_1
 10
13.89492273677275
 20
203.7400609905305
 30
0.0
  0
VERTEX
  5
127
  8
LAYER_1
 10
12.89479773677275
 20
203.7400609905305
 30
0.0
  0
VERTEX
  5
128
  8
LAYER_1
 10
11.91901440343942
 20
203.8363693238638
 30
0.0
  0
VERTEX
  5
129
  8
LAYER_1
 10
10.98097829232831
 20
204.1207082127527
 30
0.0
  0
VERTEX
  5
12A
  8
LAYER_1
 10
10.11631995899497
 20
204.5828471016416
 30
0.0
  0
VERTEX
  5
12B
  8
LAYER_1
 10
9.358553292328306
 20
205.2047943238638
 30
0.0
  0
VERTEX
  5
12C
  8
LAYER_1
 10
8.736606070106081
 20
205.9625609905304
 30
0.0
  0
VERTEX
  5
12D
  8
LAYER_1
 10
8.274114403439416
 20
206.8272193238638
 30
0.0
  0
VERTEX
  5
12E
  8
LAYER_1
 10
7.989775514550527
 20
207.7652554349749
 30
0.0
  0
SEQEND
  5
12F
  8
LAYER_1
  0
POLYLINE
  5
45
  8
LAYER_1
 66
     1
 10
0.0
 20
0.0
 30
0.0
 70
     1
  0
VERTEX
  5
130
  8
LAYER_1
 10
151.924519958995
 20
132.1385193238638
 30
0.0
  0
VERTEX
  5
131
  8
LAYER_1
 10
122.3419866256616
 20
132.1385193238638
 30
0.0
  0
VERTEX
  5
132
  8
LAYER_1
 10
122.3419866256616
 20
128.137666546086
 30
0.0
  0
VERTEX
  5
133
  8
LAYER_1
 10
119.3412588478839
 20
128.137666546086
 30
0.0
  0
VERTEX
  5
134
  8
LAYER_1
 10
119.3412588478839
 20
231.1914637683082
 30
0.0
  0
VERTEX
  5
135
  8
LAYER_1
 10
122.3419866256616
 20
231.1914637683082
 30
0.0
  0
VERTEX
  5
136
  8
LAYER_1
 10
122.3419866256616
 20
227.1906109905304
 30
0.0
  0
VERTEX
  5
137
  8
LAYER_1
 10
151.924519958995
 20
227.1906109905304
 30
0.0
  0
SEQEND
  5
138
  8
LAYER_1
  0
POLYLINE
  5
46
  8
LAYER_1
 66
     1
 10
0.0
 20
0.0
 30
0.0
 70
     1
  0
VERTEX
  5
139
  8
LAYER_1
 10
123.7344005145505
 20
44.24499432386377
 30
0.0
  0
VERTEX
  5
13A
  8
LAYER_1
 10
145.799944958995
 20
44.24499432386377
 30
0.0
  0
VERTEX
  5
13B
  8
LAYER_1
 10
145.799944958995
 20
8.590097101641541
 30
0.0
  0
VERTEX
  5
13C
  8
LAYER_1
 10
123.7344005145505
 20
8.590097101641541
 30
0.0
  0
SEQEND
  5
13D
  8
LAYER_1
  0
POLYLINE
  5
47
  8
LAYER_1
 66
     1
 10
0.0
 20
0.0
 30
0.0
 70
     1
  0
VERTEX
  5
13E
  8
LAYER_1
 10
163.1241560701061
 20
23.24942487941931
 30
0.0
  0
VERTEX
  5
13F
  8
LAYER_1
 10
160.5068977367727
 20
21.78186932386375
 30
0.0
  0
VERTEX
  5
140
  8
LAYER_1
 10
155.6152810701061
 20
30.50571099053043
 30
0.0
  0
VERTEX
  5
141
  8
LAYER_1
 10
158.2321866256616
 20
31.97326654608599
 30
0.0
  0
VERTEX
  5
142
  8
LAYER_1
 10
146.1939977367727
 20
53.44296932386378
 30
0.0
  0
VERTEX
  5
143
  8
LAYER_1
 10
143.5770921812172
 20
51.97541376830821
 30
0.0
  0
VERTEX
  5
144
  8
LAYER_1
 10
138.6851227367727
 20
60.69925543497487
 30
0.0
  0
VERTEX
  5
145
  8
LAYER_1
 10
141.3023810701061
 20
62.16681099053041
 30
0.0
  0
VERTEX
  5
146
  8
LAYER_1
 10
136.4104116256616
 20
70.89100543497484
 30
0.0
  0
VERTEX
  5
147
  8
LAYER_1
 10
142.0936616256616
 20
81.64614154608594
 30
0.0
  0
VERTEX
  5
148
  8
LAYER_1
 10
127.3708338478839
 20
81.64614154608594
 30
0.0
  0
VERTEX
  5
149
  8
LAYER_1
 10
127.3708338478839
 20
84.64686932386373
 30
0.0
  0
VERTEX
  5
14A
  8
LAYER_1
 10
124.3701060701061
 20
84.64686932386373
 30
0.0
  0
VERTEX
  5
14B
  8
LAYER_1
 10
124.3701060701061
 20
92.69796376830817
 30
0.0
  0
VERTEX
  5
14C
  8
LAYER_1
 10
159.5208838478839
 20
92.69796376830817
 30
0.0
  0
VERTEX
  5
14D
  8
LAYER_1
 10
159.5208838478839
 20
95.69833876830818
 30
0.0
  0
VERTEX
  5
14E
  8
LAYER_1
 10
149.5189282923283
 20
95.69833876830818
 30
0.0
  0
VERTEX
  5
14F
  8
LAYER_1
 10
159.8401477367727
 20
115.2309387683082
 30
0.0
  0
VERTEX
  5
150
  8
LAYER_1
 10
157.1484532923283
 20
116.6533387683082
 30
0.0
  0
VERTEX
  5
151
  8
LAYER_1
 10
161.8217005145505
 20
125.4964193238638
 30
0.0
  0
VERTEX
  5
152
  8
LAYER_1
 10
164.5126894034394
 20
124.0743721016415
 30
0.0
  0
VERTEX
  5
153
  8
LAYER_1
 10
169.1855838478838
 20
132.9178054349749
 30
0.0
  0
VERTEX
  5
154
  8
LAYER_1
 10
180.7732755145505
 20
132.9178054349749
 30
0.0
  0
VERTEX
  5
155
  8
LAYER_1
 10
180.7732755145505
 20
135.9181804349749
 30
0.0
  0
VERTEX
  5
156
  8
LAYER_1
 10
190.7748782923283
 20
135.9181804349749
 30
0.0
  0
VERTEX
  5
157
  8
LAYER_1
 10
190.7748782923283
 20
132.9178054349749
 30
0.0
  0
VERTEX
  5
158
  8
LAYER_1
 10
237.8456644034394
 20
132.9178054349749
 30
0.0
  0
VERTEX
  5
159
  8
LAYER_1
 10
237.8456644034394
 20
135.9181804349749
 30
0.0
  0
VERTEX
  5
15A
  8
LAYER_1
 10
247.847619958995
 20
135.9181804349749
 30
0.0
  0
VERTEX
  5
15B
  8
LAYER_1
 10
247.847619958995
 20
132.9178054349749
 30
0.0
  0
VERTEX
  5
15C
  8
LAYER_1
 10
257.8495755145505
 20
132.9178054349749
 30
0.0
  0
VERTEX
  5
15D
  8
LAYER_1
 10
257.8495755145505
 20
122.9158498794194
 30
0.0
  0
VERTEX
  5
15E
  8
LAYER_1
 10
260.8499505145505
 20
122.9158498794194
 30
0.0
  0
VERTEX
  5
15F
  8
LAYER_1
 10
260.8499505145505
 20
112.9138943238637
 30
0.0
  0
VERTEX
  5
160
  8
LAYER_1
 10
257.8495755145505
 20
112.9138943238637
 30
0.0
  0
VERTEX
  5
161
  8
LAYER_1
 10
257.8495755145505
 20
108.5969526571971
 30
0.0
  0
VERTEX
  5
162
  8
LAYER_1
 10
236.9545477367728
 20
108.5969526571971
 30
0.0
  0
VERTEX
  5
163
  8
LAYER_1
 10
236.9545477367728
 20
105.5962248794193
 30
0.0
  0
VERTEX
  5
164
  8
LAYER_1
 10
257.8495755145505
 20
105.5962248794193
 30
0.0
  0
VERTEX
  5
165
  8
LAYER_1
 10
257.8495755145505
 20
84.64686932386373
 30
0.0
  0
VERTEX
  5
166
  8
LAYER_1
 10
236.9545477367728
 20
84.64686932386373
 30
0.0
  0
VERTEX
  5
167
  8
LAYER_1
 10
236.9545477367728
 20
81.64614154608594
 30
0.0
  0
VERTEX
  5
168
  8
LAYER_1
 10
257.8495755145505
 20
81.64614154608594
 30
0.0
  0
VERTEX
  5
169
  8
LAYER_1
 10
257.8495755145505
 20
78.7226721016415
 30
0.0
  0
VERTEX
  5
16A
  8
LAYER_1
 10
260.8499505145505
 20
78.7226721016415
 30
0.0
  0
VERTEX
  5
16B
  8
LAYER_1
 10
260.8499505145505
 20
68.72036376830818
 30
0.0
  0
VERTEX
  5
16C
  8
LAYER_1
 10
257.8495755145505
 20
68.72036376830818
 30
0.0
  0
VERTEX
  5
16D
  8
LAYER_1
 10
257.8495755145505
 20
34.529141546086
 30
0.0
  0
VERTEX
  5
16E
  8
LAYER_1
 10
260.8499505145505
 20
34.529141546086
 30
0.0
  0
VERTEX
  5
16F
  8
LAYER_1
 10
260.8499505145505
 20
24.52718599053042
 30
0.0
  0
VERTEX
  5
170
  8
LAYER_1
 10
257.8495755145505
 20
24.52718599053042
 30
0.0
  0
VERTEX
  5
171
  8
LAYER_1
 10
257.8495755145505
 20
14.52523043497487
 30
0.0
  0
VERTEX
  5
172
  8
LAYER_1
 10
247.847619958995
 20
14.52523043497487
 30
0.0
  0
VERTEX
  5
173
  8
LAYER_1
 10
247.847619958995
 20
11.52485543497487
 30
0.0
  0
VERTEX
  5
174
  8
LAYER_1
 10
237.8456644034394
 20
11.52485543497487
 30
0.0
  0
VERTEX
  5
175
  8
LAYER_1
 10
237.8456644034394
 20
14.52523043497487
 30
0.0
  0
VERTEX
  5
176
  8
LAYER_1
 10
190.7748782923283
 20
14.52523043497487
 30
0.0
  0
VERTEX
  5
177
  8
LAYER_1
 10
190.7748782923283
 20
11.52485543497487
 30
0.0
  0
VERTEX
  5
178
  8
LAYER_1
 10
180.7732755145505
 20
11.52485543497487
 30
0.0
  0
VERTEX
  5
179
  8
LAYER_1
 10
180.7732755145505
 20
14.52523043497487
 30
0.0
  0
VERTEX
  5
17A
  8
LAYER_1
 10
168.0157727367727
 20
14.52523043497487
 30
0.0
  0
SEQEND
  5
17B
  8
LAYER_1
  0
POLYLINE
  5
48
  8
LAYER_1
 66
     1
 10
0.0
 20
0.0
 30
0.0
 70
     1
  0
VERTEX
  5
17C
  8
LAYER_1
 10
46.38716718121718
 20
79.11213876830817
 30
0.0
  0
VERTEX
  5
17D
  8
LAYER_1
 10
35.01149495899497
 20
79.11213876830817
 30
0.0
  0
VERTEX
  5
17E
  8
LAYER_1
 10
31.34789773677275
 20
86.22554987941928
 30
0.0
  0
VERTEX
  5
17F
  8
LAYER_1
 10
28.68019218121719
 20
84.85183321275261
 30
0.0
  0
VERTEX
  5
180
  8
LAYER_1
 10
25.01694773677275
 20
91.9655971016415
 30
0.0
  0
VERTEX
  5
181
  8
LAYER_1
 10
27.68430051455053
 20
93.33966654608594
 30
0.0
  0
VERTEX
  5
182
  8
LAYER_1
 10
15.35189495899497
 20
117.2865748794193
 30
0.0
  0
VERTEX
  5
183
  8
LAYER_1
 10
12.68418940343942
 20
115.9125054349748
 30
0.0
  0
VERTEX
  5
184
  8
LAYER_1
 10
9.020592181217193
 20
123.0262693238638
 30
0.0
  0
VERTEX
  5
185
  8
LAYER_1
 10
11.68829773677275
 20
124.3999859905304
 30
0.0
  0
VERTEX
  5
186
  8
LAYER_1
 10
8.024700514550524
 20
131.5137498794194
 30
0.0
  0
VERTEX
  5
187
  8
LAYER_1
 10
11.68829773677275
 20
138.6275137683082
 30
0.0
  0
VERTEX
  5
188
  8
LAYER_1
 10
9.020592181217193
 20
140.0012304349749
 30
0.0
  0
VERTEX
  5
189
  8
LAYER_1
 10
12.68418940343942
 20
147.1149943238638
 30
0.0
  0
VERTEX
  5
18A
  8
LAYER_1
 10
15.35189495899497
 20
145.7409248794193
 30
0.0
  0
VERTEX
  5
18B
  8
LAYER_1
 10
25.5351782923283
 20
165.5144721016416
 30
0.0
  0
VERTEX
  5
18C
  8
LAYER_1
 10
22.86747273677274
 20
166.888541546086
 30
0.0
  0
VERTEX
  5
18D
  8
LAYER_1
 10
26.5307171812172
 20
174.0019526571971
 30
0.0
  0
VERTEX
  5
18E
  8
LAYER_1
 10
29.19842273677275
 20
172.6282359905304
 30
0.0
  0
VERTEX
  5
18F
  8
LAYER_1
 10
32.86201995899497
 20
179.7416471016416
 30
0.0
  0
VERTEX
  5
190
  8
LAYER_1
 10
42.86397551455052
 20
179.7416471016416
 30
0.0
  0
VERTEX
  5
191
  8
LAYER_1
 10
42.86397551455052
 20
176.7412721016416
 30
0.0
  0
VERTEX
  5
192
  8
LAYER_1
 10
52.86593107010607
 20
176.7412721016416
 30
0.0
  0
VERTEX
  5
193
  8
LAYER_1
 10
52.86593107010607
 20
179.7416471016416
 30
0.0
  0
VERTEX
  5
194
  8
LAYER_1
 10
61.24510884788386
 20
179.7416471016416
 30
0.0
  0
VERTEX
  5
195
  8
LAYER_1
 10
61.24510884788386
 20
176.7412721016416
 30
0.0
  0
VERTEX
  5
196
  8
LAYER_1
 10
71.24706440343942
 20
176.7412721016416
 30
0.0
  0
VERTEX
  5
197
  8
LAYER_1
 10
71.24706440343942
 20
233.8323582127527
 30
0.0
  0
VERTEX
  5
198
  8
LAYER_1
 10
82.55359218121718
 20
233.8323582127527
 30
0.0
  0
VERTEX
  5
199
  8
LAYER_1
 10
82.55359218121718
 20
230.8316304349749
 30
0.0
  0
VERTEX
  5
19A
  8
LAYER_1
 10
96.90953107010607
 20
230.8316304349749
 30
0.0
  0
VERTEX
  5
19B
  8
LAYER_1
 10
96.90953107010607
 20
233.8323582127527
 30
0.0
  0
VERTEX
  5
19C
  8
LAYER_1
 10
106.9114866256616
 20
233.8323582127527
 30
0.0
  0
VERTEX
  5
19D
  8
LAYER_1
 10
106.9114866256616
 20
223.8304026571971
 30
0.0
  0
VERTEX
  5
19E
  8
LAYER_1
 10
109.9122144034394
 20
223.8304026571971
 30
0.0
  0
VERTEX
  5
19F
  8
LAYER_1
 10
109.9122144034394
 20
213.8284471016416
 30
0.0
  0
VERTEX
  5
1A0
  8
LAYER_1
 10
106.9114866256616
 20
213.8284471016416
 30
0.0
  0
VERTEX
  5
1A1
  8
LAYER_1
 10
106.9114866256616
 20
161.4730498794194
 30
0.0
  0
VERTEX
  5
1A2
  8
LAYER_1
 10
109.9122144034394
 20
161.4730498794194
 30
0.0
  0
VERTEX
  5
1A3
  8
LAYER_1
 10
109.9122144034394
 20
151.4710943238638
 30
0.0
  0
VERTEX
  5
1A4
  8
LAYER_1
 10
106.9114866256616
 20
151.4710943238638
 30
0.0
  0
VERTEX
  5
1A5
  8
LAYER_1
 10
106.9114866256616
 20
99.11604987941928
 30
0.0
  0
VERTEX
  5
1A6
  8
LAYER_1
 10
109.9122144034394
 20
99.11604987941928
 30
0.0
  0
VERTEX
  5
1A7
  8
LAYER_1
 10
109.9122144034394
 20
89.11409432386372
 30
0.0
  0
VERTEX
  5
1A8
  8
LAYER_1
 10
106.9114866256616
 20
89.11409432386372
 30
0.0
  0
VERTEX
  5
1A9
  8
LAYER_1
 10
106.9114866256616
 20
79.11213876830817
 30
0.0
  0
VERTEX
  5
1AA
  8
LAYER_1
 10
96.90953107010607
 20
79.11213876830817
 30
0.0
  0
VERTEX
  5
1AB
  8
LAYER_1
 10
96.90953107010607
 20
76.1114109905304
 30
0.0
  0
VERTEX
  5
1AC
  8
LAYER_1
 10
86.90757551455053
 20
76.1114109905304
 30
0.0
  0
VERTEX
  5
1AD
  8
LAYER_1
 10
86.90757551455053
 20
79.11213876830817
 30
0.0
  0
VERTEX
  5
1AE
  8
LAYER_1
 10
56.38912273677274
 20
79.11213876830817
 30
0.0
  0
VERTEX
  5
1AF
  8
LAYER_1
 10
56.38912273677274
 20
76.1114109905304
 30
0.0
  0
VERTEX
  5
1B0
  8
LAYER_1
 10
46.38716718121718
 20
76.1114109905304
 30
0.0
  0
SEQEND
  5
1B1
  8
LAYER_1
  0
POLYLINE
  5
49
  8
LAYER_1
 66
     1
 10
0.0
 20
0.0
 30
0.0
 70
     1
  0
VERTEX
  5
1B2
  8
LAYER_1
 10
267.0098032923283
 20
70.0090609905304
 30
0.0
  0
VERTEX
  5
1B3
  8
LAYER_1
 10
267.0098032923283
 20
92.8944609905304
 30
0.0
  0
VERTEX
  5
1B4
  8
LAYER_1
 10
290.3488755145505
 20
92.8944609905304
 30
0.0
  0
VERTEX
  5
1B5
  8
LAYER_1
 10
290.3488755145505
 20
70.0090609905304
 30
0.0
  0
SEQEND
  5
1B6
  8
LAYER_1
  0
POLYLINE
  5
4A
  8
LAYER_1
 66
     1
 10
0.0
 20
0.0
 30
0.0
 70
     1
  0
VERTEX
  5
1B7
  8
LAYER_1
 10
223.1729310701061
 20
175.0183054349749
 30
0.0
  0
VERTEX
  5
1B8
  8
LAYER_1
 10
162.700469958995
 20
175.0183054349749
 30
0.0
  0
VERTEX
  5
1B9
  8
LAYER_1
 10
162.700469958995
 20
232.572941546086
 30
0.0
  0
VERTEX
  5
1BA
  8
LAYER_1
 10
223.1729310701061
 20
232.572941546086
 30
0.0
  0
VERTEX
  5
1BB
  8
LAYER_1
 10
223.1729310701061
 20
224.5715887683082
 30
0.0
  0
VERTEX
  5
1BC
  8
LAYER_1
 10
226.1736588478839
 20
224.5715887683082
 30
0.0
  0
VERTEX
  5
1BD
  8
LAYER_1
 10
226.1736588478839
 20
216.5698832127527
 30
0.0
  0
VERTEX
  5
1BE
  8
LAYER_1
 10
223.1729310701061
 20
216.5698832127527
 30
0.0
  0
VERTEX
  5
1BF
  8
LAYER_1
 10
223.1729310701061
 20
194.4881109905305
 30
0.0
  0
VERTEX
  5
1C0
  8
LAYER_1
 10
226.1736588478839
 20
194.4881109905305
 30
0.0
  0
VERTEX
  5
1C1
  8
LAYER_1
 10
226.1736588478839
 20
186.4867582127527
 30
0.0
  0
VERTEX
  5
1C2
  8
LAYER_1
 10
223.1729310701061
 20
186.4867582127527
 30
0.0
  0
SEQEND
  5
1C3
  8
LAYER_1
  0
POLYLINE
  5
4B
  8
LAYER_1
 66
     1
 10
0.0
 20
0.0
 30
0.0
 70
     1
  0
VERTEX
  5
1C4
  8
LAYER_1
 10
293.4466171812172
 20
181.8202137683082
 30
0.0
  0
VERTEX
  5
1C5
  8
LAYER_1
 10
293.4466171812172
 20
189.8219193238638
 30
0.0
  0
VERTEX
  5
1C6
  8
LAYER_1
 10
296.4469921812172
 20
189.8219193238638
 30
0.0
  0
VERTEX
  5
1C7
  8
LAYER_1
 10
296.4469921812172
 20
197.8232721016415
 30
0.0
  0
VERTEX
  5
1C8
  8
LAYER_1
 10
293.4466171812172
 20
197.8232721016415
 30
0.0
  0
VERTEX
  5
1C9
  8
LAYER_1
 10
293.4466171812172
 20
219.0629637683082
 30
0.0
  0
VERTEX
  5
1CA
  8
LAYER_1
 10
296.4469921812172
 20
219.0629637683082
 30
0.0
  0
VERTEX
  5
1CB
  8
LAYER_1
 10
296.4469921812172
 20
227.0646693238638
 30
0.0
  0
VERTEX
  5
1CC
  8
LAYER_1
 10
293.4466171812172
 20
227.0646693238638
 30
0.0
  0
VERTEX
  5
1CD
  8
LAYER_1
 10
293.4466171812172
 20
235.0660221016416
 30
0.0
  0
VERTEX
  5
1CE
  8
LAYER_1
 10
232.9741560701061
 20
235.0660221016416
 30
0.0
  0
VERTEX
  5
1CF
  8
LAYER_1
 10
232.9741560701061
 20
174.2189109905305
 30
0.0
  0
VERTEX
  5
1D0
  8
LAYER_1
 10
272.6831755145505
 20
174.2189109905305
 30
0.0
  0
VERTEX
  5
1D1
  8
LAYER_1
 10
272.6831755145505
 20
181.8202137683082
 30
0.0
  0
SEQEND
  5
1D2
  8
LAYER_1
  0
POLYLINE
  5
4C
  8
LAYER_1
 66
     1
 10
0.0
 20
0.0
 30
0.0
 70
     1
  0
VERTEX
  5
1D3
  8
LAYER_1
 10
267.3230699589949
 20
9.836108212752649
 30
0.0
  0
VERTEX
  5
1D4
  8
LAYER_1
 10
267.3230699589949
 20
32.72150821275267
 30
0.0
  0
VERTEX
  5
1D5
  8
LAYER_1
 10
290.6621421812172
 20
32.72150821275267
 30
0.0
  0
VERTEX
  5
1D6
  8
LAYER_1
 10
290.6621421812172
 20
9.836108212752649
 30
0.0
  0
SEQEND
  5
1D7
  8
LAYER_1
  0
POLYLINE
  5
4D
  8
LAYER_1
 66
     1
 10
0.0
 20
0.0
 30
0.0
 70
     1
  0
VERTEX
  5
1D8
  8
LAYER_1
 10
266.3853866256616
 20
99.20883043497484
 30
0.0
  0
VERTEX
  5
1D9
  8
LAYER_1
 10
269.291569958995
 20
96.45928043497484
 30
0.0
  0
VERTEX
  5
1DA
  8
LAYER_1
 10
271.3539088478839
 20
98.6394471016415
 30
0.0
  0
VERTEX
  5
1DB
  8
LAYER_1
 10
271.3539088478839
 20
101.6398221016415
 30
0.0
  0
VERTEX
  5
1DC
  8
LAYER_1
 10
273.3541588478838
 20
101.6398221016415
 30
0.0
  0
VERTEX
  5
1DD
  8
LAYER_1
 10
273.3541588478838
 20
98.6394471016415
 30
0.0
  0
VERTEX
  5
1DE
  8
LAYER_1
 10
278.3156255145505
 20
98.6394471016415
 30
0.0
  0
VERTEX
  5
1DF
  8
LAYER_1
 10
278.3156255145505
 20
101.6398221016415
 30
0.0
  0
VERTEX
  5
1E0
  8
LAYER_1
 10
280.3158755145505
 20
101.6398221016415
 30
0.0
  0
VERTEX
  5
1E1
  8
LAYER_1
 10
280.3158755145505
 20
98.6394471016415
 30
0.0
  0
VERTEX
  5
1E2
  8
LAYER_1
 10
285.2773421812171
 20
98.6394471016415
 30
0.0
  0
VERTEX
  5
1E3
  8
LAYER_1
 10
285.2773421812171
 20
101.6398221016415
 30
0.0
  0
VERTEX
  5
1E4
  8
LAYER_1
 10
287.2775921812171
 20
101.6398221016415
 30
0.0
  0
VERTEX
  5
1E5
  8
LAYER_1
 10
287.2775921812171
 20
98.6394471016415
 30
0.0
  0
VERTEX
  5
1E6
  8
LAYER_1
 10
292.2390588478838
 20
98.6394471016415
 30
0.0
  0
VERTEX
  5
1E7
  8
LAYER_1
 10
292.2390588478838
 20
101.6398221016415
 30
0.0
  0
VERTEX
  5
1E8
  8
LAYER_1
 10
294.2393088478838
 20
101.6398221016415
 30
0.0
  0
VERTEX
  5
1E9
  8
LAYER_1
 10
294.2393088478838
 20
111.3902471016415
 30
0.0
  0
VERTEX
  5
1EA
  8
LAYER_1
 10
307.6928421812171
 20
111.3902471016415
 30
0.0
  0
VERTEX
  5
1EB
  8
LAYER_1
 10
307.6928421812171
 20
119.7553137683082
 30
0.0
  0
VERTEX
  5
1EC
  8
LAYER_1
 10
280.2128644034394
 20
119.7553137683082
 30
0.0
  0
VERTEX
  5
1ED
  8
LAYER_1
 10
280.2128644034394
 20
115.3910998794193
 30
0.0
  0
VERTEX
  5
1EE
  8
LAYER_1
 10
277.2124894034394
 20
115.3910998794193
 30
0.0
  0
VERTEX
  5
1EF
  8
LAYER_1
 10
277.2124894034394
 20
119.7553137683082
 30
0.0
  0
VERTEX
  5
1F0
  8
LAYER_1
 10
265.7369810701061
 20
119.7553137683082
 30
0.0
  0
VERTEX
  5
1F1
  8
LAYER_1
 10
265.7369810701061
 20
103.9522804349749
 30
0.0
  0
VERTEX
  5
1F2
  8
LAYER_1
 10
268.4473727367727
 20
101.3886443238637
 30
0.0
  0
SEQEND
  5
1F3
  8
LAYER_1
  0
POLYLINE
  5
4E
  8
LAYER_1
 66
     1
 10
0.0
 20
0.0
 30
0.0
 70
     1
  0
VERTEX
  5
1F4
  8
LAYER_1
 10
290.8096032923283
 20
139.520041546086
 30
0.0
  0
VERTEX
  5
1F5
  8
LAYER_1
 10
290.8096032923283
 20
166.4704998794194
 30
0.0
  0
VERTEX
  5
1F6
  8
LAYER_1
 10
280.8080005145505
 20
166.4704998794194
 30
0.0
  0
VERTEX
  5
1F7
  8
LAYER_1
 10
280.8080005145505
 20
163.4701248794194
 30
0.0
  0
VERTEX
  5
1F8
  8
LAYER_1
 10
270.8056921812171
 20
163.4701248794194
 30
0.0
  0
VERTEX
  5
1F9
  8
LAYER_1
 10
270.8056921812171
 20
166.4704998794194
 30
0.0
  0
VERTEX
  5
1FA
  8
LAYER_1
 10
227.2288171812172
 20
166.4704998794194
 30
0.0
  0
VERTEX
  5
1FB
  8
LAYER_1
 10
227.2288171812172
 20
163.4701248794194
 30
0.0
  0
VERTEX
  5
1FC
  8
LAYER_1
 10
217.2272144034394
 20
163.4701248794194
 30
0.0
  0
VERTEX
  5
1FD
  8
LAYER_1
 10
217.2272144034394
 20
166.4704998794194
 30
0.0
  0
VERTEX
  5
1FE
  8
LAYER_1
 10
180.3347727367727
 20
166.4704998794194
 30
0.0
  0
VERTEX
  5
1FF
  8
LAYER_1
 10
180.3347727367727
 20
163.4701248794194
 30
0.0
  0
VERTEX
  5
200
  8
LAYER_1
 10
170.3328171812172
 20
163.4701248794194
 30
0.0
  0
VERTEX
  5
201
  8
LAYER_1
 10
170.3328171812172
 20
166.4704998794194
 30
0.0
  0
VERTEX
  5
202
  8
LAYER_1
 10
160.3312144034394
 20
166.4704998794194
 30
0.0
  0
VERTEX
  5
203
  8
LAYER_1
 10
160.3312144034394
 20
163.4701248794194
 30
0.0
  0
VERTEX
  5
204
  8
LAYER_1
 10
157.3304866256616
 20
163.4701248794194
 30
0.0
  0
VERTEX
  5
205
  8
LAYER_1
 10
157.3304866256616
 20
155.4190304349749
 30
0.0
  0
VERTEX
  5
206
  8
LAYER_1
 10
160.3312144034394
 20
155.4190304349749
 30
0.0
  0
VERTEX
  5
207
  8
LAYER_1
 10
160.3312144034394
 20
152.4186554349749
 30
0.0
  0
VERTEX
  5
208
  8
LAYER_1
 10
170.3328171812172
 20
152.4186554349749
 30
0.0
  0
VERTEX
  5
209
  8
LAYER_1
 10
170.3328171812172
 20
155.4190304349749
 30
0.0
  0
VERTEX
  5
20A
  8
LAYER_1
 10
180.3347727367727
 20
155.4190304349749
 30
0.0
  0
VERTEX
  5
20B
  8
LAYER_1
 10
180.3347727367727
 20
152.4186554349749
 30
0.0
  0
VERTEX
  5
20C
  8
LAYER_1
 10
217.2272144034394
 20
152.4186554349749
 30
0.0
  0
VERTEX
  5
20D
  8
LAYER_1
 10
217.2272144034394
 20
155.4190304349749
 30
0.0
  0
VERTEX
  5
20E
  8
LAYER_1
 10
227.2288171812172
 20
155.4190304349749
 30
0.0
  0
VERTEX
  5
20F
  8
LAYER_1
 10
227.2288171812172
 20
152.4186554349749
 30
0.0
  0
VERTEX
  5
210
  8
LAYER_1
 10
237.2311255145505
 20
152.4186554349749
 30
0.0
  0
VERTEX
  5
211
  8
LAYER_1
 10
240.0773366256616
 20
148.8711221016416
 30
0.0
  0
VERTEX
  5
212
  8
LAYER_1
 10
242.4176644034394
 20
150.7489582127527
 30
0.0
  0
VERTEX
  5
213
  8
LAYER_1
 10
246.1733366256616
 20
146.0679498794194
 30
0.0
  0
VERTEX
  5
214
  8
LAYER_1
 10
243.8330088478839
 20
144.190466546086
 30
0.0
  0
VERTEX
  5
215
  8
LAYER_1
 10
247.5805671812172
 20
139.520041546086
 30
0.0
  0
VERTEX
  5
216
  8
LAYER_1
 10
249.0199005145505
 20
139.520041546086
 30
0.0
  0
VERTEX
  5
217
  8
LAYER_1
 10
249.0199005145505
 20
142.520416546086
 30
0.0
  0
VERTEX
  5
218
  8
LAYER_1
 10
259.0218560701061
 20
142.520416546086
 30
0.0
  0
VERTEX
  5
219
  8
LAYER_1
 10
259.0218560701061
 20
139.520041546086
 30
0.0
  0
VERTEX
  5
21A
  8
LAYER_1
 10
270.8056921812171
 20
139.520041546086
 30
0.0
  0
VERTEX
  5
21B
  8
LAYER_1
 10
270.8056921812171
 20
142.520416546086
 30
0.0
  0
VERTEX
  5
21C
  8
LAYER_1
 10
280.8080005145505
 20
142.520416546086
 30
0.0
  0
VERTEX
  5
21D
  8
LAYER_1
 10
280.8080005145505
 20
139.520041546086
 30
0.0
  0
SEQEND
  5
21E
  8
LAYER_1
  0
POLYLINE
  5
4F
  8
LAYER_1
 66
     1
 10
0.0
 20
0.0
 30
0.0
 70
     1
  0
VERTEX
  5
21F
  8
LAYER_1
 10
20.0281241519822
 20
89.713736642066
 30
0.0
  0
VERTEX
  5
220
  8
LAYER_1
 10
17.02774915198221
 20
89.713736642066
 30
0.0
  0
VERTEX
  5
221
  8
LAYER_1
 10
17.02774915198221
 20
85.16537275317711
 30
0.0
  0
VERTEX
  5
222
  8
LAYER_1
 10
9.854013040871099
 20
85.16537275317711
 30
0.0
  0
VERTEX
  5
223
  8
LAYER_1
 10
9.854013040871099
 20
89.713736642066
 30
0.0
  0
VERTEX
  5
224
  8
LAYER_1
 10
6.853285263093321
 20
89.713736642066
 30
0.0
  0
VERTEX
  5
225
  8
LAYER_1
 10
6.853285263093321
 20
95.71483941984377
 30
0.0
  0
VERTEX
  5
226
  8
LAYER_1
 10
9.854013040871099
 20
95.71483941984377
 30
0.0
  0
VERTEX
  5
227
  8
LAYER_1
 10
9.854013040871099
 20
100.2632033087327
 30
0.0
  0
VERTEX
  5
228
  8
LAYER_1
 10
17.02774915198221
 20
100.2632033087327
 30
0.0
  0
VERTEX
  5
229
  8
LAYER_1
 10
17.02774915198221
 20
95.71483941984377
 30
0.0
  0
VERTEX
  5
22A
  8
LAYER_1
 10
20.0281241519822
 20
95.71483941984377
 30
0.0
  0
SEQEND
  5
22B
  8
LAYER_1
  0
POLYLINE
  5
50
  8
LAYER_1
 66
     1
 10
0.0
 20
0.0
 30
0.0
 70
     1
  0
VERTEX
  5
22C
  8
LAYER_1
 10
320.7018755145505
 20
84.90439710164151
 30
0.0
  0
VERTEX
  5
22D
  8
LAYER_1
 10
314.8902144034394
 20
84.90439710164151
 30
0.0
  0
VERTEX
  5
22E
  8
LAYER_1
 10
314.8902144034394
 20
95.35720265719706
 30
0.0
  0
VERTEX
  5
22F
  8
LAYER_1
 10
323.7026032923283
 20
95.35720265719706
 30
0.0
  0
VERTEX
  5
230
  8
LAYER_1
 10
323.7026032923283
 20
42.25673876830822
 30
0.0
  0
VERTEX
  5
231
  8
LAYER_1
 10
323.6563894034394
 20
41.7886026571971
 30
0.0
  0
VERTEX
  5
232
  8
LAYER_1
 10
323.5198644034394
 20
41.33810543497489
 30
0.0
  0
VERTEX
  5
233
  8
LAYER_1
 10
323.2979671812171
 20
40.92323876830822
 30
0.0
  0
VERTEX
  5
234
  8
LAYER_1
 10
322.9995171812171
 20
40.55917210164155
 30
0.0
  0
VERTEX
  5
235
  8
LAYER_1
 10
322.6358032923283
 20
40.26107487941933
 30
0.0
  0
VERTEX
  5
236
  8
LAYER_1
 10
322.2205838478838
 20
40.03882487941933
 30
0.0
  0
VERTEX
  5
237
  8
LAYER_1
 10
321.7700866256616
 20
39.90229987941933
 30
0.0
  0
VERTEX
  5
238
  8
LAYER_1
 10
321.3019505145505
 20
39.85608599053045
 30
0.0
  0
VERTEX
  5
239
  8
LAYER_1
 10
321.2910144034394
 20
39.85608599053045
 30
0.0
  0
VERTEX
  5
23A
  8
LAYER_1
 10
320.8228782923283
 20
39.81022487941933
 30
0.0
  0
VERTEX
  5
23B
  8
LAYER_1
 10
320.3727338478838
 20
39.67369987941932
 30
0.0
  0
VERTEX
  5
23C
  8
LAYER_1
 10
319.9575144034394
 20
39.45180265719711
 30
0.0
  0
VERTEX
  5
23D
  8
LAYER_1
 10
319.5938005145505
 20
39.15299987941933
 30
0.0
  0
VERTEX
  5
23E
  8
LAYER_1
 10
319.2953505145505
 20
38.78963876830822
 30
0.0
  0
VERTEX
  5
23F
  8
LAYER_1
 10
319.0734532923283
 20
38.37441932386378
 30
0.0
  0
VERTEX
  5
240
  8
LAYER_1
 10
318.9369282923283
 20
37.92392210164155
 30
0.0
  0
VERTEX
  5
241
  8
LAYER_1
 10
318.8907144034394
 20
37.45578599053044
 30
0.0
  0
VERTEX
  5
242
  8
LAYER_1
 10
318.8907144034394
 20
10.68136376830821
 30
0.0
  0
VERTEX
  5
243
  8
LAYER_1
 10
318.8445005145505
 20
10.21322765719709
 30
0.0
  0
VERTEX
  5
244
  8
LAYER_1
 10
318.7079755145505
 20
9.762730434974873
 30
0.0
  0
VERTEX
  5
245
  8
LAYER_1
 10
318.4860782923283
 20
9.34751099053043
 30
0.0
  0
VERTEX
  5
246
  8
LAYER_1
 10
318.1876282923283
 20
8.983797101641539
 30
0.0
  0
VERTEX
  5
247
  8
LAYER_1
 10
317.8239144034394
 20
8.684994323863764
 30
0.0
  0
VERTEX
  5
248
  8
LAYER_1
 10
317.4086949589949
 20
8.46344987941932
 30
0.0
  0
VERTEX
  5
249
  8
LAYER_1
 10
316.9589032923283
 20
8.32657210164154
 30
0.0
  0
VERTEX
  5
24A
  8
LAYER_1
 10
316.4904144034394
 20
8.280005434974877
 30
0.0
  0
VERTEX
  5
24B
  8
LAYER_1
 10
314.8902144034394
 20
8.278947101641544
 30
0.0
  0
VERTEX
  5
24C
  8
LAYER_1
 10
314.8902144034394
 20
15.98220265719709
 30
0.0
  0
VERTEX
  5
24D
  8
LAYER_1
 10
311.8894866256616
 20
15.98220265719709
 30
0.0
  0
VERTEX
  5
24E
  8
LAYER_1
 10
311.8894866256616
 20
18.98293043497486
 30
0.0
  0
VERTEX
  5
24F
  8
LAYER_1
 10
308.8887588478838
 20
18.98293043497486
 30
0.0
  0
VERTEX
  5
250
  8
LAYER_1
 10
308.8887588478838
 20
33.85498321275266
 30
0.0
  0
VERTEX
  5
251
  8
LAYER_1
 10
311.8894866256616
 20
33.85498321275266
 30
0.0
  0
VERTEX
  5
252
  8
LAYER_1
 10
311.8894866256616
 20
36.85571099053044
 30
0.0
  0
VERTEX
  5
253
  8
LAYER_1
 10
314.8902144034394
 20
36.85571099053044
 30
0.0
  0
VERTEX
  5
254
  8
LAYER_1
 10
314.8902144034394
 20
48.33898043497489
 30
0.0
  0
VERTEX
  5
255
  8
LAYER_1
 10
311.8894866256616
 20
48.33898043497489
 30
0.0
  0
VERTEX
  5
256
  8
LAYER_1
 10
306.2235227367727
 20
54.11571654608601
 30
0.0
  0
VERTEX
  5
257
  8
LAYER_1
 10
304.0811032923283
 20
52.01492487941933
 30
0.0
  0
VERTEX
  5
258
  8
LAYER_1
 10
299.2727421812172
 20
56.9171248794193
 30
0.0
  0
VERTEX
  5
259
  8
LAYER_1
 10
301.4148088478838
 20
59.01826932386376
 30
0.0
  0
VERTEX
  5
25A
  8
LAYER_1
 10
304.4151838478838
 20
59.01826932386376
 30
0.0
  0
VERTEX
  5
25B
  8
LAYER_1
 10
304.4151838478838
 20
61.01887210164152
 30
0.0
  0
VERTEX
  5
25C
  8
LAYER_1
 10
301.4148088478838
 20
61.01887210164152
 30
0.0
  0
VERTEX
  5
25D
  8
LAYER_1
 10
301.4148088478838
 20
65.9799859905304
 30
0.0
  0
VERTEX
  5
25E
  8
LAYER_1
 10
304.4151838478838
 20
65.9799859905304
 30
0.0
  0
VERTEX
  5
25F
  8
LAYER_1
 10
304.4151838478838
 20
67.98023599053039
 30
0.0
  0
VERTEX
  5
260
  8
LAYER_1
 10
301.4148088478838
 20
67.98023599053039
 30
0.0
  0
VERTEX
  5
261
  8
LAYER_1
 10
301.4148088478838
 20
72.94170265719706
 30
0.0
  0
VERTEX
  5
262
  8
LAYER_1
 10
304.4151838478838
 20
72.94170265719706
 30
0.0
  0
VERTEX
  5
263
  8
LAYER_1
 10
304.4151838478838
 20
74.94230543497484
 30
0.0
  0
VERTEX
  5
264
  8
LAYER_1
 10
301.4148088478838
 20
74.94230543497484
 30
0.0
  0
VERTEX
  5
265
  8
LAYER_1
 10
301.4148088478838
 20
79.90341932386373
 30
0.0
  0
VERTEX
  5
266
  8
LAYER_1
 10
304.4151838478838
 20
79.90341932386373
 30
0.0
  0
VERTEX
  5
267
  8
LAYER_1
 10
304.4151838478838
 20
81.90366932386372
 30
0.0
  0
VERTEX
  5
268
  8
LAYER_1
 10
320.7018755145505
 20
81.90366932386372
 30
0.0
  0
SEQEND
  5
269
  8
LAYER_1
  0
POLYLINE
  5
51
  8
LAYER_1
 66
     1
 10
0.0
 20
0.0
 30
0.0
 70
     1
  0
VERTEX
  5
26A
  8
LAYER_1
 10
320.3575644034394
 20
128.7772526571972
 30
0.0
  0
VERTEX
  5
26B
  8
LAYER_1
 10
320.3575644034394
 20
102.0028304349748
 30
0.0
  0
VERTEX
  5
26C
  8
LAYER_1
 10
320.3117032923283
 20
101.534341546086
 30
0.0
  0
VERTEX
  5
26D
  8
LAYER_1
 10
320.1748255145505
 20
101.0838443238637
 30
0.0
  0
VERTEX
  5
26E
  8
LAYER_1
 10
319.9529282923283
 20
100.6689776571971
 30
0.0
  0
VERTEX
  5
26F
  8
LAYER_1
 10
319.6544782923283
 20
100.3049109905304
 30
0.0
  0
VERTEX
  5
270
  8
LAYER_1
 10
319.2907644034394
 20
100.0064609905304
 30
0.0
  0
VERTEX
  5
271
  8
LAYER_1
 10
318.8758977367727
 20
99.78456376830816
 30
0.0
  0
VERTEX
  5
272
  8
LAYER_1
 10
318.4254005145505
 20
99.64803876830818
 30
0.0
  0
VERTEX
  5
273
  8
LAYER_1
 10
317.9572644034394
 20
99.60147210164149
 30
0.0
  0
VERTEX
  5
274
  8
LAYER_1
 10
316.3567116256616
 20
99.60041376830819
 30
0.0
  0
VERTEX
  5
275
  8
LAYER_1
 10
316.3567116256616
 20
107.3036693238637
 30
0.0
  0
VERTEX
  5
276
  8
LAYER_1
 10
313.3563366256616
 20
107.3036693238637
 30
0.0
  0
VERTEX
  5
277
  8
LAYER_1
 10
313.3563366256616
 20
110.3043971016415
 30
0.0
  0
VERTEX
  5
278
  8
LAYER_1
 10
310.3556088478838
 20
110.3043971016415
 30
0.0
  0
VERTEX
  5
279
  8
LAYER_1
 10
310.3556088478838
 20
125.1764498794193
 30
0.0
  0
VERTEX
  5
27A
  8
LAYER_1
 10
313.3563366256616
 20
125.1764498794193
 30
0.0
  0
VERTEX
  5
27B
  8
LAYER_1
 10
313.3563366256616
 20
128.1768248794194
 30
0.0
  0
VERTEX
  5
27C
  8
LAYER_1
 10
316.3567116256616
 20
128.1768248794194
 30
0.0
  0
VERTEX
  5
27D
  8
LAYER_1
 10
316.3567116256616
 20
139.6604471016416
 30
0.0
  0
VERTEX
  5
27E
  8
LAYER_1
 10
313.3563366256616
 20
139.6604471016416
 30
0.0
  0
VERTEX
  5
27F
  8
LAYER_1
 10
307.6903727367727
 20
145.4371832127527
 30
0.0
  0
VERTEX
  5
280
  8
LAYER_1
 10
305.548306070106
 20
143.3360387683083
 30
0.0
  0
VERTEX
  5
281
  8
LAYER_1
 10
300.7395921812172
 20
148.238591546086
 30
0.0
  0
VERTEX
  5
282
  8
LAYER_1
 10
302.8816588478838
 20
150.3397359905305
 30
0.0
  0
VERTEX
  5
283
  8
LAYER_1
 10
305.8823866256616
 20
150.3397359905305
 30
0.0
  0
VERTEX
  5
284
  8
LAYER_1
 10
305.8823866256616
 20
152.3399859905305
 30
0.0
  0
VERTEX
  5
285
  8
LAYER_1
 10
302.8816588478838
 20
152.3399859905305
 30
0.0
  0
VERTEX
  5
286
  8
LAYER_1
 10
302.8816588478838
 20
157.3014526571972
 30
0.0
  0
VERTEX
  5
287
  8
LAYER_1
 10
305.8823866256616
 20
157.3014526571972
 30
0.0
  0
VERTEX
  5
288
  8
LAYER_1
 10
305.8823866256616
 20
159.3017026571971
 30
0.0
  0
VERTEX
  5
289
  8
LAYER_1
 10
302.8816588478838
 20
159.3017026571971
 30
0.0
  0
VERTEX
  5
28A
  8
LAYER_1
 10
302.8816588478838
 20
164.2631693238638
 30
0.0
  0
VERTEX
  5
28B
  8
LAYER_1
 10
305.8823866256616
 20
164.2631693238638
 30
0.0
  0
VERTEX
  5
28C
  8
LAYER_1
 10
305.8823866256616
 20
166.2634193238638
 30
0.0
  0
VERTEX
  5
28D
  8
LAYER_1
 10
302.8816588478838
 20
166.2634193238638
 30
0.0
  0
VERTEX
  5
28E
  8
LAYER_1
 10
302.8816588478838
 20
171.2248859905305
 30
0.0
  0
VERTEX
  5
28F
  8
LAYER_1
 10
305.8823866256616
 20
171.2248859905305
 30
0.0
  0
VERTEX
  5
290
  8
LAYER_1
 10
305.8823866256616
 20
173.2251359905304
 30
0.0
  0
VERTEX
  5
291
  8
LAYER_1
 10
319.3574394034394
 20
173.2251359905304
 30
0.0
  0
VERTEX
  5
292
  8
LAYER_1
 10
319.3574394034394
 20
176.2258637683083
 30
0.0
  0
VERTEX
  5
293
  8
LAYER_1
 10
316.3567116256616
 20
176.2258637683083
 30
0.0
  0
VERTEX
  5
294
  8
LAYER_1
 10
316.3567116256616
 20
186.6786693238638
 30
0.0
  0
VERTEX
  5
295
  8
LAYER_1
 10
325.1694532923283
 20
186.6786693238638
 30
0.0
  0
VERTEX
  5
296
  8
LAYER_1
 10
325.1694532923283
 20
133.5782054349749
 30
0.0
  0
VERTEX
  5
297
  8
LAYER_1
 10
325.1232394034394
 20
133.109716546086
 30
0.0
  0
VERTEX
  5
298
  8
LAYER_1
 10
324.9867144034394
 20
132.6595721016416
 30
0.0
  0
VERTEX
  5
299
  8
LAYER_1
 10
324.7648171812172
 20
132.2443526571971
 30
0.0
  0
VERTEX
  5
29A
  8
LAYER_1
 10
324.4663671812172
 20
131.8806387683082
 30
0.0
  0
VERTEX
  5
29B
  8
LAYER_1
 10
324.1026532923283
 20
131.5821887683082
 30
0.0
  0
VERTEX
  5
29C
  8
LAYER_1
 10
323.6874338478838
 20
131.360291546086
 30
0.0
  0
VERTEX
  5
29D
  8
LAYER_1
 10
323.2372894034394
 20
131.223766546086
 30
0.0
  0
VERTEX
  5
29E
  8
LAYER_1
 10
322.7688005145505
 20
131.1775526571971
 30
0.0
  0
VERTEX
  5
29F
  8
LAYER_1
 10
322.7582171812172
 20
131.1775526571971
 30
0.0
  0
VERTEX
  5
2A0
  8
LAYER_1
 10
322.2897282923283
 20
131.1313387683083
 30
0.0
  0
VERTEX
  5
2A1
  8
LAYER_1
 10
321.8395838478838
 20
130.9948137683083
 30
0.0
  0
VERTEX
  5
2A2
  8
LAYER_1
 10
321.4243644034394
 20
130.772916546086
 30
0.0
  0
VERTEX
  5
2A3
  8
LAYER_1
 10
321.0606505145505
 20
130.474466546086
 30
0.0
  0
VERTEX
  5
2A4
  8
LAYER_1
 10
320.7622005145505
 20
130.1107526571971
 30
0.0
  0
VERTEX
  5
2A5
  8
LAYER_1
 10
320.5403032923282
 20
129.6955332127527
 30
0.0
  0
VERTEX
  5
2A6
  8
LAYER_1
 10
320.4037782923283
 20
129.2453887683083
 30
0.0
  0
SEQEND
  5
2A7
  8
LAYER_1
  0
POLYLINE
  5
52
  8
LAYER_1
 66
     1
 10
0.0
 20
0.0
 30
0.0
 70
     1
  0
VERTEX
  5
2A8
  8
LAYER_1
 10
292.3420699589949
 20
57.22721654608598
 30
0.0
  0
VERTEX
  5
2A9
  8
LAYER_1
 10
292.3420699589949
 20
47.47714432386378
 30
0.0
  0
VERTEX
  5
2AA
  8
LAYER_1
 10
305.7956032923283
 20
47.47679154608599
 30
0.0
  0
VERTEX
  5
2AB
  8
LAYER_1
 10
305.7956032923283
 20
39.1120776571971
 30
0.0
  0
VERTEX
  5
2AC
  8
LAYER_1
 10
291.381456070106
 20
39.1120776571971
 30
0.0
  0
VERTEX
  5
2AD
  8
LAYER_1
 10
290.4427144034394
 20
39.18616099053044
 30
0.0
  0
VERTEX
  5
2AE
  8
LAYER_1
 10
289.5269032923283
 20
39.40594154608599
 30
0.0
  0
VERTEX
  5
2AF
  8
LAYER_1
 10
288.6569532923283
 20
39.7661276571971
 30
0.0
  0
VERTEX
  5
2B0
  8
LAYER_1
 10
287.854031070106
 20
40.25825265719711
 30
0.0
  0
VERTEX
  5
2B1
  8
LAYER_1
 10
287.1378921812172
 20
40.86996932386377
 30
0.0
  0
VERTEX
  5
2B2
  8
LAYER_1
 10
286.5265282923283
 20
41.58610821275266
 30
0.0
  0
VERTEX
  5
2B3
  8
LAYER_1
 10
286.0344032923282
 20
42.38867765719711
 30
0.0
  0
VERTEX
  5
2B4
  8
LAYER_1
 10
285.6742171812172
 20
43.25862765719711
 30
0.0
  0
VERTEX
  5
2B5
  8
LAYER_1
 10
285.4540838478838
 20
44.17443876830822
 30
0.0
  0
VERTEX
  5
2B6
  8
LAYER_1
 10
285.3800005145505
 20
45.11318043497489
 30
0.0
  0
VERTEX
  5
2B7
  8
LAYER_1
 10
285.3800005145505
 20
51.22646654608599
 30
0.0
  0
VERTEX
  5
2B8
  8
LAYER_1
 10
263.8397421812172
 20
51.22646654608599
 30
0.0
  0
VERTEX
  5
2B9
  8
LAYER_1
 10
263.8397421812172
 20
54.91475821275265
 30
0.0
  0
VERTEX
  5
2BA
  8
LAYER_1
 10
266.5501338478838
 20
57.47874710164155
 30
0.0
  0
VERTEX
  5
2BB
  8
LAYER_1
 10
264.4881477367728
 20
59.65856099053041
 30
0.0
  0
VERTEX
  5
2BC
  8
LAYER_1
 10
267.394331070106
 20
62.40775821275263
 30
0.0
  0
VERTEX
  5
2BD
  8
LAYER_1
 10
269.456669958995
 20
60.22794432386376
 30
0.0
  0
VERTEX
  5
2BE
  8
LAYER_1
 10
269.456669958995
 20
57.22721654608598
 30
0.0
  0
VERTEX
  5
2BF
  8
LAYER_1
 10
271.4569199589949
 20
57.22721654608598
 30
0.0
  0
VERTEX
  5
2C0
  8
LAYER_1
 10
271.4569199589949
 20
60.22794432386376
 30
0.0
  0
VERTEX
  5
2C1
  8
LAYER_1
 10
276.4180338478838
 20
60.22794432386376
 30
0.0
  0
VERTEX
  5
2C2
  8
LAYER_1
 10
276.4180338478838
 20
57.22721654608598
 30
0.0
  0
VERTEX
  5
2C3
  8
LAYER_1
 10
278.4186366256616
 20
57.22721654608598
 30
0.0
  0
VERTEX
  5
2C4
  8
LAYER_1
 10
278.4186366256616
 20
60.22794432386376
 30
0.0
  0
VERTEX
  5
2C5
  8
LAYER_1
 10
283.3797505145505
 20
60.22794432386376
 30
0.0
  0
VERTEX
  5
2C6
  8
LAYER_1
 10
283.3797505145505
 20
57.22721654608598
 30
0.0
  0
VERTEX
  5
2C7
  8
LAYER_1
 10
285.3800005145505
 20
57.22721654608598
 30
0.0
  0
VERTEX
  5
2C8
  8
LAYER_1
 10
285.3800005145505
 20
60.22794432386376
 30
0.0
  0
VERTEX
  5
2C9
  8
LAYER_1
 10
290.3414671812172
 20
60.22794432386376
 30
0.0
  0
VERTEX
  5
2CA
  8
LAYER_1
 10
290.3414671812172
 20
57.22721654608598
 30
0.0
  0
SEQEND
  5
2CB
  8
LAYER_1
  0
POLYLINE
  5
54
  8
ENGRAVE
 66
     1
 10
0.0
 20
0.0
 30
0.0
  0
VERTEX
  5
2CC
  8
ENGRAVE
 10
121.3418616256616
 20
132.1385193238638
 30
0.0
  0
VERTEX
  5
2CD
  8
ENGRAVE
 10
121.3418616256616
 20
227.1906109905304
 30
0.0
  0
SEQEND
  5
2CE
  8
ENGRAVE
  0
POLYLINE
  5
55
  8
ENGRAVE
 66
     1
 10
0.0
 20
0.0
 30
0.0
  0
VERTEX
  5
2CF
  8
ENGRAVE
 10
126.4391477367727
 20
132.1385193238638
 30
0.0
  0
VERTEX
  5
2D0
  8
ENGRAVE
 10
126.4391477367727
 20
227.1906109905304
 30
0.0
  0
SEQEND
  5
2D1
  8
ENGRAVE
  0
POLYLINE
  5
56
  8
ENGRAVE
 66
     1
 10
0.0
 20
0.0
 30
0.0
  0
VERTEX
  5
2D2
  8
ENGRAVE
 10
131.5360810701061
 20
132.1385193238638
 30
0.0
  0
VERTEX
  5
2D3
  8
ENGRAVE
 10
131.5360810701061
 20
227.1906109905304
 30
0.0
  0
SEQEND
  5
2D4
  8
ENGRAVE
  0
POLYLINE
  5
57
  8
ENGRAVE
 66
     1
 10
0.0
 20
0.0
 30
0.0
  0
VERTEX
  5
2D5
  8
ENGRAVE
 10
136.6330144034394
 20
132.1385193238638
 30
0.0
  0
VERTEX
  5
2D6
  8
ENGRAVE
 10
136.6330144034394
 20
227.1906109905304
 30
0.0
  0
SEQEND
  5
2D7
  8
ENGRAVE
  0
POLYLINE
  5
58
  8
ENGRAVE
 66
     1
 10
0.0
 20
0.0
 30
0.0
  0
VERTEX
  5
2D8
  8
ENGRAVE
 10
141.7303005145505
 20
132.1385193238638
 30
0.0
  0
VERTEX
  5
2D9
  8
ENGRAVE
 10
141.7303005145505
 20
227.1906109905304
 30
0.0
  0
SEQEND
  5
2DA
  8
ENGRAVE
  0
POLYLINE
  5
59
  8
ENGRAVE
 66
     1
 10
0.0
 20
0.0
 30
0.0
  0
VERTEX
  5
2DB
  8
ENGRAVE
 10
146.8275866256616
 20
132.1385193238638
 30
0.0
  0
VERTEX
  5
2DC
  8
ENGRAVE
 10
146.8275866256616
 20
227.1906109905304
 30
0.0
  0
SEQEND
  5
2DD
  8
ENGRAVE
  0
POLYLINE
  5
5B
  8
HOLE
 66
     1
 10
0.0
 20
0.0
 30
0.0
 70
     1
  0
VERTEX
  5
2DE
  8
HOLE
 10
63.51417551455051
 20
24.24990265719709
 30
0.0
  0
VERTEX
  5
2DF
  8
HOLE
 10
63.51417551455051
 20
27.25063043497488
 30
0.0
  0
VERTEX
  5
2E0
  8
HOLE
 10
73.51613107010608
 20
27.25063043497488
 30
0.0
  0
VERTEX
  5
2E1
  8
HOLE
 10
73.51613107010608
 20
24.24990265719709
 30
0.0
  0
SEQEND
  5
2E2
  8
HOLE
  0
POLYLINE
  5
5C
  8
HOLE
 66
     1
 10
0.0
 20
0.0
 30
0.0
 70
     1
  0
VERTEX
  5
2E3
  8
HOLE
 10
32.11130884788386
 20
20.34747487941931
 30
0.0
  0
VERTEX
  5
2E4
  8
HOLE
 10
31.95855607010608
 20
20.57642765719709
 30
0.0
  0
VERTEX
  5
2E5
  8
HOLE
 10
31.83649495899497
 20
20.82301932386375
 30
0.0
  0
VERTEX
  5
2E6
  8
HOLE
 10
31.74830051455053
 20
21.08372210164153
 30
0.0
  0
VERTEX
  5
2E7
  8
HOLE
 10
31.6946782923283
 20
21.35359710164153
 30
0.0
  0
VERTEX
  5
2E8
  8
HOLE
 10
31.67668662566164
 20
21.62805821275264
 30
0.0
  0
VERTEX
  5
2E9
  8
HOLE
 10
31.6946782923283
 20
21.90287210164153
 30
0.0
  0
VERTEX
  5
2EA
  8
HOLE
 10
31.74830051455053
 20
22.17239432386376
 30
0.0
  0
VERTEX
  5
2EB
  8
HOLE
 10
31.83649495899497
 20
22.43309710164153
 30
0.0
  0
VERTEX
  5
2EC
  8
HOLE
 10
31.95855607010608
 20
22.68004154608598
 30
0.0
  0
VERTEX
  5
2ED
  8
HOLE
 10
32.11130884788386
 20
22.90864154608598
 30
0.0
  0
VERTEX
  5
2EE
  8
HOLE
 10
32.29263662566164
 20
23.11572210164153
 30
0.0
  0
VERTEX
  5
2EF
  8
HOLE
 10
32.49971718121719
 20
23.29704987941932
 30
0.0
  0
VERTEX
  5
2F0
  8
HOLE
 10
32.72831718121719
 20
23.44980265719709
 30
0.0
  0
VERTEX
  5
2F1
  8
HOLE
 10
32.97526162566164
 20
23.57151099053042
 30
0.0
  0
VERTEX
  5
2F2
  8
HOLE
 10
33.23596440343941
 20
23.66005821275264
 30
0.0
  0
VERTEX
  5
2F3
  8
HOLE
 10
33.50548662566164
 20
23.71368043497487
 30
0.0
  0
VERTEX
  5
2F4
  8
HOLE
 10
33.78030051455053
 20
23.73167210164153
 30
0.0
  0
VERTEX
  5
2F5
  8
HOLE
 10
34.05476162566163
 20
23.71368043497487
 30
0.0
  0
VERTEX
  5
2F6
  8
HOLE
 10
34.32463662566163
 20
23.66005821275264
 30
0.0
  0
VERTEX
  5
2F7
  8
HOLE
 10
34.58533940343941
 20
23.57151099053042
 30
0.0
  0
VERTEX
  5
2F8
  8
HOLE
 10
34.83193107010608
 20
23.44980265719709
 30
0.0
  0
VERTEX
  5
2F9
  8
HOLE
 10
35.06088384788386
 20
23.29704987941932
 30
0.0
  0
VERTEX
  5
2FA
  8
HOLE
 10
35.26761162566164
 20
23.11572210164153
 30
0.0
  0
VERTEX
  5
2FB
  8
HOLE
 10
35.44929218121719
 20
22.90864154608598
 30
0.0
  0
VERTEX
  5
2FC
  8
HOLE
 10
35.60204495899497
 20
22.68004154608598
 30
0.0
  0
VERTEX
  5
2FD
  8
HOLE
 10
35.7237532923283
 20
22.43309710164153
 30
0.0
  0
VERTEX
  5
2FE
  8
HOLE
 10
35.81194773677275
 20
22.17239432386376
 30
0.0
  0
VERTEX
  5
2FF
  8
HOLE
 10
35.86556995899497
 20
21.90287210164153
 30
0.0
  0
VERTEX
  5
300
  8
HOLE
 10
35.88391440343941
 20
21.62805821275264
 30
0.0
  0
VERTEX
  5
301
  8
HOLE
 10
35.86556995899497
 20
21.35359710164153
 30
0.0
  0
VERTEX
  5
302
  8
HOLE
 10
35.81194773677275
 20
21.08372210164153
 30
0.0
  0
VERTEX
  5
303
  8
HOLE
 10
35.7237532923283
 20
20.82301932386375
 30
0.0
  0
VERTEX
  5
304
  8
HOLE
 10
35.60204495899497
 20
20.57642765719709
 30
0.0
  0
VERTEX
  5
305
  8
HOLE
 10
35.44929218121719
 20
20.34747487941931
 30
0.0
  0
VERTEX
  5
306
  8
HOLE
 10
35.26761162566164
 20
20.14074710164153
 30
0.0
  0
VERTEX
  5
307
  8
HOLE
 10
35.06088384788386
 20
19.95906654608598
 30
0.0
  0
VERTEX
  5
308
  8
HOLE
 10
34.83193107010608
 20
19.8063137683082
 30
0.0
  0
VERTEX
  5
309
  8
HOLE
 10
34.58533940343941
 20
19.68460543497486
 30
0.0
  0
VERTEX
  5
30A
  8
HOLE
 10
34.32463662566163
 20
19.59605821275264
 30
0.0
  0
VERTEX
  5
30B
  8
HOLE
 10
34.05476162566163
 20
19.54243599053042
 30
0.0
  0
VERTEX
  5
30C
  8
HOLE
 10
33.78030051455053
 20
19.52444432386375
 30
0.0
  0
VERTEX
  5
30D
  8
HOLE
 10
33.50548662566164
 20
19.54243599053042
 30
0.0
  0
VERTEX
  5
30E
  8
HOLE
 10
33.23596440343941
 20
19.59605821275264
 30
0.0
  0
VERTEX
  5
30F
  8
HOLE
 10
32.97526162566164
 20
19.68460543497486
 30
0.0
  0
VERTEX
  5
310
  8
HOLE
 10
32.72831718121719
 20
19.8063137683082
 30
0.0
  0
VERTEX
  5
311
  8
HOLE
 10
32.49971718121719
 20
19.95906654608598
 30
0.0
  0
VERTEX
  5
312
  8
HOLE
 10
32.29263662566164
 20
20.14074710164153
 30
0.0
  0
SEQEND
  5
313
  8
HOLE
  0
POLYLINE
  5
5D
  8
HOLE
 66
     1
 10
0.0
 20
0.0
 30
0.0
 70
     1
  0
VERTEX
  5
314
  8
HOLE
 10
69.94284495899497
 20
58.87257210164153
 30
0.0
  0
VERTEX
  5
315
  8
HOLE
 10
69.94284495899497
 20
52.44390265719711
 30
0.0
  0
VERTEX
  5
316
  8
HOLE
 10
64.44162829232829
 20
52.44390265719711
 30
0.0
  0
VERTEX
  5
317
  8
HOLE
 10
64.44162829232829
 20
49.44317487941933
 30
0.0
  0
VERTEX
  5
318
  8
HOLE
 10
61.44090051455051
 20
49.44317487941933
 30
0.0
  0
VERTEX
  5
319
  8
HOLE
 10
61.44090051455051
 20
52.44390265719711
 30
0.0
  0
VERTEX
  5
31A
  8
HOLE
 10
55.94003662566163
 20
52.44390265719711
 30
0.0
  0
VERTEX
  5
31B
  8
HOLE
 10
55.94003662566163
 20
58.87257210164153
 30
0.0
  0
SEQEND
  5
31C
  8
HOLE
  0
POLYLINE
  5
5E
  8
HOLE
 66
     1
 10
0.0
 20
0.0
 30
0.0
 70
     1
  0
VERTEX
  5
31D
  8
HOLE
 10
96.90953107010607
 20
176.7412721016416
 30
0.0
  0
VERTEX
  5
31E
  8
HOLE
 10
96.90953107010607
 20
179.7416471016416
 30
0.0
  0
VERTEX
  5
31F
  8
HOLE
 10
86.90757551455053
 20
179.7416471016416
 30
0.0
  0
VERTEX
  5
320
  8
HOLE
 10
86.90757551455053
 20
176.7412721016416
 30
0.0
  0
SEQEND
  5
321
  8
HOLE
  0
POLYLINE
  5
5F
  8
HOLE
 66
     1
 10
0.0
 20
0.0
 30
0.0
 70
     1
  0
VERTEX
  5
322
  8
HOLE
 10
76.3782171812172
 20
225.6602609905304
 30
0.0
  0
VERTEX
  5
323
  8
HOLE
 10
76.64068384788386
 20
225.7495137683082
 30
0.0
  0
VERTEX
  5
324
  8
HOLE
 10
76.88974495899497
 20
225.8722804349749
 30
0.0
  0
VERTEX
  5
325
  8
HOLE
 10
77.12046162566163
 20
226.0264443238638
 30
0.0
  0
VERTEX
  5
326
  8
HOLE
 10
77.3289532923283
 20
226.2095359905305
 30
0.0
  0
VERTEX
  5
327
  8
HOLE
 10
77.51204495899496
 20
226.4180276571971
 30
0.0
  0
VERTEX
  5
328
  8
HOLE
 10
77.66620884788387
 20
226.6490971016416
 30
0.0
  0
VERTEX
  5
329
  8
HOLE
 10
77.78897551455053
 20
226.8978054349749
 30
0.0
  0
VERTEX
  5
32A
  8
HOLE
 10
77.8782282923283
 20
227.1606248794193
 30
0.0
  0
VERTEX
  5
32B
  8
HOLE
 10
77.93255607010609
 20
227.432616546086
 30
0.0
  0
VERTEX
  5
32C
  8
HOLE
 10
77.95054773677275
 20
227.7098998794194
 30
0.0
  0
VERTEX
  5
32D
  8
HOLE
 10
77.93255607010609
 20
227.9868304349749
 30
0.0
  0
VERTEX
  5
32E
  8
HOLE
 10
77.8782282923283
 20
228.2588221016416
 30
0.0
  0
VERTEX
  5
32F
  8
HOLE
 10
77.78897551455053
 20
228.521641546086
 30
0.0
  0
VERTEX
  5
330
  8
HOLE
 10
77.66620884788387
 20
228.7707026571971
 30
0.0
  0
VERTEX
  5
331
  8
HOLE
 10
77.51204495899496
 20
229.0014193238638
 30
0.0
  0
VERTEX
  5
332
  8
HOLE
 10
77.3289532923283
 20
229.2102637683082
 30
0.0
  0
VERTEX
  5
333
  8
HOLE
 10
77.12046162566163
 20
229.3930026571971
 30
0.0
  0
VERTEX
  5
334
  8
HOLE
 10
76.88974495899497
 20
229.547166546086
 30
0.0
  0
VERTEX
  5
335
  8
HOLE
 10
76.64068384788386
 20
229.6699332127527
 30
0.0
  0
VERTEX
  5
336
  8
HOLE
 10
76.3782171812172
 20
229.7591859905305
 30
0.0
  0
VERTEX
  5
337
  8
HOLE
 10
76.10587273677275
 20
229.8131609905305
 30
0.0
  0
VERTEX
  5
338
  8
HOLE
 10
75.8289421812172
 20
229.8315054349749
 30
0.0
  0
VERTEX
  5
339
  8
HOLE
 10
75.55201162566163
 20
229.8131609905305
 30
0.0
  0
VERTEX
  5
33A
  8
HOLE
 10
75.27966718121719
 20
229.7591859905305
 30
0.0
  0
VERTEX
  5
33B
  8
HOLE
 10
75.01684773677275
 20
229.6699332127527
 30
0.0
  0
VERTEX
  5
33C
  8
HOLE
 10
74.76778662566164
 20
229.547166546086
 30
0.0
  0
VERTEX
  5
33D
  8
HOLE
 10
74.53706995899498
 20
229.3930026571971
 30
0.0
  0
VERTEX
  5
33E
  8
HOLE
 10
74.3285782923283
 20
229.2102637683082
 30
0.0
  0
VERTEX
  5
33F
  8
HOLE
 10
74.14548662566163
 20
229.0014193238638
 30
0.0
  0
VERTEX
  5
340
  8
HOLE
 10
73.99132273677274
 20
228.7707026571971
 30
0.0
  0
VERTEX
  5
341
  8
HOLE
 10
73.86855607010608
 20
228.521641546086
 30
0.0
  0
VERTEX
  5
342
  8
HOLE
 10
73.77930329232831
 20
228.2588221016416
 30
0.0
  0
VERTEX
  5
343
  8
HOLE
 10
73.7253282923283
 20
227.9868304349749
 30
0.0
  0
VERTEX
  5
344
  8
HOLE
 10
73.70733662566164
 20
227.7098998794194
 30
0.0
  0
VERTEX
  5
345
  8
HOLE
 10
73.7253282923283
 20
227.432616546086
 30
0.0
  0
VERTEX
  5
346
  8
HOLE
 10
73.77930329232831
 20
227.1606248794193
 30
0.0
  0
VERTEX
  5
347
  8
HOLE
 10
73.86855607010608
 20
226.8978054349749
 30
0.0
  0
VERTEX
  5
348
  8
HOLE
 10
73.99132273677274
 20
226.6490971016416
 30
0.0
  0
VERTEX
  5
349
  8
HOLE
 10
74.14548662566163
 20
226.4180276571971
 30
0.0
  0
VERTEX
  5
34A
  8
HOLE
 10
74.3285782923283
 20
226.2095359905305
 30
0.0
  0
VERTEX
  5
34B
  8
HOLE
 10
74.53706995899498
 20
226.0264443238638
 30
0.0
  0
VERTEX
  5
34C
  8
HOLE
 10
74.76778662566164
 20
225.8722804349749
 30
0.0
  0
VERTEX
  5
34D
  8
HOLE
 10
75.01684773677275
 20
225.7495137683082
 30
0.0
  0
VERTEX
  5
34E
  8
HOLE
 10
75.27966718121719
 20
225.6602609905304
 30
0.0
  0
VERTEX
  5
34F
  8
HOLE
 10
75.55201162566163
 20
225.6062859905304
 30
0.0
  0
VERTEX
  5
350
  8
HOLE
 10
75.8289421812172
 20
225.587941546086
 30
0.0
  0
VERTEX
  5
351
  8
HOLE
 10
76.10587273677275
 20
225.6062859905304
 30
0.0
  0
SEQEND
  5
352
  8
HOLE
  0
POLYLINE
  5
60
  8
HOLE
 66
     1
 10
0.0
 20
0.0
 30
0.0
 70
     1
  0
VERTEX
  5
353
  8
HOLE
 10
126.7351282923283
 20
11.59047210164154
 30
0.0
  0
VERTEX
  5
354
  8
HOLE
 10
142.7992171812172
 20
11.59047210164154
 30
0.0
  0
VERTEX
  5
355
  8
HOLE
 10
142.7992171812172
 20
41.244266546086
 30
0.0
  0
VERTEX
  5
356
  8
HOLE
 10
126.7351282923283
 20
41.244266546086
 30
0.0
  0
SEQEND
  5
357
  8
HOLE
  0
POLYLINE
  5
61
  8
HOLE
 66
     1
 10
0.0
 20
0.0
 30
0.0
 70
     1
  0
VERTEX
  5
358
  8
HOLE
 10
200.7175671812172
 20
46.60931099053044
 30
0.0
  0
VERTEX
  5
359
  8
HOLE
 10
203.718294958995
 20
46.60931099053044
 30
0.0
  0
VERTEX
  5
35A
  8
HOLE
 10
203.718294958995
 20
49.61003876830821
 30
0.0
  0
VERTEX
  5
35B
  8
HOLE
 10
200.7175671812172
 20
49.61003876830821
 30
0.0
  0
VERTEX
  5
35C
  8
HOLE
 10
200.7175671812172
 20
62.91258321275263
 30
0.0
  0
VERTEX
  5
35D
  8
HOLE
 10
184.6534782923283
 20
62.91258321275263
 30
0.0
  0
VERTEX
  5
35E
  8
HOLE
 10
184.6534782923283
 20
49.61003876830821
 30
0.0
  0
VERTEX
  5
35F
  8
HOLE
 10
181.6527505145505
 20
49.61003876830821
 30
0.0
  0
VERTEX
  5
360
  8
HOLE
 10
181.6527505145505
 20
46.60931099053044
 30
0.0
  0
VERTEX
  5
361
  8
HOLE
 10
184.6534782923283
 20
46.60931099053044
 30
0.0
  0
VERTEX
  5
362
  8
HOLE
 10
184.6534782923283
 20
33.25878876830822
 30
0.0
  0
VERTEX
  5
363
  8
HOLE
 10
200.7175671812172
 20
33.25878876830822
 30
0.0
  0
SEQEND
  5
364
  8
HOLE
  0
POLYLINE
  5
62
  8
HOLE
 66
     1
 10
0.0
 20
0.0
 30
0.0
 70
     1
  0
VERTEX
  5
365
  8
HOLE
 10
223.7828838478839
 20
33.2351526571971
 30
0.0
  0
VERTEX
  5
366
  8
HOLE
 10
229.3144394034394
 20
33.2351526571971
 30
0.0
  0
VERTEX
  5
367
  8
HOLE
 10
229.3144394034394
 20
30.23442487941933
 30
0.0
  0
VERTEX
  5
368
  8
HOLE
 10
232.3151671812172
 20
30.23442487941933
 30
0.0
  0
VERTEX
  5
369
  8
HOLE
 10
232.3151671812172
 20
33.2351526571971
 30
0.0
  0
VERTEX
  5
36A
  8
HOLE
 10
237.8467227367728
 20
33.2351526571971
 30
0.0
  0
VERTEX
  5
36B
  8
HOLE
 10
237.8467227367728
 20
62.93621932386373
 30
0.0
  0
VERTEX
  5
36C
  8
HOLE
 10
232.3151671812172
 20
62.93621932386373
 30
0.0
  0
VERTEX
  5
36D
  8
HOLE
 10
232.3151671812172
 20
65.93694710164151
 30
0.0
  0
VERTEX
  5
36E
  8
HOLE
 10
229.3144394034394
 20
65.93694710164151
 30
0.0
  0
VERTEX
  5
36F
  8
HOLE
 10
229.3144394034394
 20
62.93621932386373
 30
0.0
  0
VERTEX
  5
370
  8
HOLE
 10
223.7828838478839
 20
62.93621932386373
 30
0.0
  0
SEQEND
  5
371
  8
HOLE
  0
POLYLINE
  5
63
  8
HOLE
 66
     1
 10
0.0
 20
0.0
 30
0.0
 70
     1
  0
VERTEX
  5
372
  8
HOLE
 10
167.0720921812172
 20
84.64686932386373
 30
0.0
  0
VERTEX
  5
373
  8
HOLE
 10
167.0720921812172
 20
81.64614154608594
 30
0.0
  0
VERTEX
  5
374
  8
HOLE
 10
187.0760032923283
 20
81.64614154608594
 30
0.0
  0
VERTEX
  5
375
  8
HOLE
 10
187.0760032923283
 20
84.64686932386373
 30
0.0
  0
SEQEND
  5
376
  8
HOLE
  0
POLYLINE
  5
64
  8
HOLE
 66
     1
 10
0.0
 20
0.0
 30
0.0
 70
     1
  0
VERTEX
  5
377
  8
HOLE
 10
213.2129560701061
 20
102.0486915460859
 30
0.0
  0
VERTEX
  5
378
  8
HOLE
 10
210.8726282923283
 20
103.926527657197
 30
0.0
  0
VERTEX
  5
379
  8
HOLE
 10
207.1169560701061
 20
99.24587210164151
 30
0.0
  0
VERTEX
  5
37A
  8
HOLE
 10
209.4572838478839
 20
97.36803599053037
 30
0.0
  0
SEQEND
  5
37B
  8
HOLE
  0
POLYLINE
  5
65
  8
HOLE
 66
     1
 10
0.0
 20
0.0
 30
0.0
 70
     1
  0
VERTEX
  5
37C
  8
HOLE
 10
169.0825727367727
 20
224.5715887683082
 30
0.0
  0
VERTEX
  5
37D
  8
HOLE
 10
169.0825727367727
 20
216.5698832127527
 30
0.0
  0
VERTEX
  5
37E
  8
HOLE
 10
172.0829477367728
 20
216.5698832127527
 30
0.0
  0
VERTEX
  5
37F
  8
HOLE
 10
172.0829477367728
 20
224.5715887683082
 30
0.0
  0
SEQEND
  5
380
  8
HOLE
  0
POLYLINE
  5
66
  8
HOLE
 66
     1
 10
0.0
 20
0.0
 30
0.0
 70
     1
  0
VERTEX
  5
381
  8
HOLE
 10
169.0825727367727
 20
197.2976332127527
 30
0.0
  0
VERTEX
  5
382
  8
HOLE
 10
169.0825727367727
 20
189.2962804349749
 30
0.0
  0
VERTEX
  5
383
  8
HOLE
 10
172.0829477367728
 20
189.2962804349749
 30
0.0
  0
VERTEX
  5
384
  8
HOLE
 10
172.0829477367728
 20
197.2976332127527
 30
0.0
  0
SEQEND
  5
385
  8
HOLE
  0
POLYLINE
  5
67
  8
HOLE
 66
     1
 10
0.0
 20
0.0
 30
0.0
 70
     1
  0
VERTEX
  5
386
  8
HOLE
 10
242.3566338478839
 20
227.0646693238638
 30
0.0
  0
VERTEX
  5
387
  8
HOLE
 10
242.3566338478839
 20
219.0629637683082
 30
0.0
  0
VERTEX
  5
388
  8
HOLE
 10
239.3559060701061
 20
219.0629637683082
 30
0.0
  0
VERTEX
  5
389
  8
HOLE
 10
239.3559060701061
 20
227.0646693238638
 30
0.0
  0
SEQEND
  5
38A
  8
HOLE
  0
POLYLINE
  5
68
  8
HOLE
 66
     1
 10
0.0
 20
0.0
 30
0.0
 70
     1
  0
VERTEX
  5
38B
  8
HOLE
 10
242.3566338478839
 20
196.5190526571971
 30
0.0
  0
VERTEX
  5
38C
  8
HOLE
 10
242.3566338478839
 20
188.5173471016415
 30
0.0
  0
VERTEX
  5
38D
  8
HOLE
 10
239.3559060701061
 20
188.5173471016415
 30
0.0
  0
VERTEX
  5
38E
  8
HOLE
 10
239.3559060701061
 20
196.5190526571971
 30
0.0
  0
SEQEND
  5
38F
  8
HOLE
  0
POLYLINE
  5
69
  8
HOLE
 66
     1
 10
0.0
 20
0.0
 30
0.0
 70
     1
  0
VERTEX
  5
390
  8
HOLE
 10
269.0104060701061
 20
90.8942109905304
 30
0.0
  0
VERTEX
  5
391
  8
HOLE
 10
269.0104060701061
 20
85.9330971016415
 30
0.0
  0
VERTEX
  5
392
  8
HOLE
 10
288.3486255145505
 20
85.9330971016415
 30
0.0
  0
VERTEX
  5
393
  8
HOLE
 10
288.3486255145505
 20
90.8942109905304
 30
0.0
  0
SEQEND
  5
394
  8
HOLE
  0
POLYLINE
  5
6A
  8
HOLE
 66
     1
 10
0.0
 20
0.0
 30
0.0
 70
     1
  0
VERTEX
  5
395
  8
HOLE
 10
269.0104060701061
 20
83.93249432386372
 30
0.0
  0
VERTEX
  5
396
  8
HOLE
 10
269.0104060701061
 20
78.97102765719706
 30
0.0
  0
VERTEX
  5
397
  8
HOLE
 10
288.3486255145505
 20
78.97102765719706
 30
0.0
  0
VERTEX
  5
398
  8
HOLE
 10
288.3486255145505
 20
83.93249432386372
 30
0.0
  0
SEQEND
  5
399
  8
HOLE
  0
POLYLINE
  5
6B
  8
HOLE
 66
     1
 10
0.0
 20
0.0
 30
0.0
 70
     1
  0
VERTEX
  5
39A
  8
HOLE
 10
269.0104060701061
 20
72.00966376830817
 30
0.0
  0
VERTEX
  5
39B
  8
HOLE
 10
288.3486255145505
 20
72.00966376830817
 30
0.0
  0
VERTEX
  5
39C
  8
HOLE
 10
288.3486255145505
 20
76.97077765719706
 30
0.0
  0
VERTEX
  5
39D
  8
HOLE
 10
269.0104060701061
 20
76.97077765719706
 30
0.0
  0
SEQEND
  5
39E
  8
HOLE
  0
POLYLINE
  5
6C
  8
HOLE
 66
     1
 10
0.0
 20
0.0
 30
0.0
 70
     1
  0
VERTEX
  5
39F
  8
HOLE
 10
269.3236727367727
 20
30.72125821275265
 30
0.0
  0
VERTEX
  5
3A0
  8
HOLE
 10
269.3236727367727
 20
25.75979154608598
 30
0.0
  0
VERTEX
  5
3A1
  8
HOLE
 10
288.6615394034393
 20
25.75979154608598
 30
0.0
  0
VERTEX
  5
3A2
  8
HOLE
 10
288.6615394034393
 20
30.72125821275265
 30
0.0
  0
SEQEND
  5
3A3
  8
HOLE
  0
POLYLINE
  5
6D
  8
HOLE
 66
     1
 10
0.0
 20
0.0
 30
0.0
 70
     1
  0
VERTEX
  5
3A4
  8
HOLE
 10
269.3236727367727
 20
23.75954154608598
 30
0.0
  0
VERTEX
  5
3A5
  8
HOLE
 10
269.3236727367727
 20
18.79807487941931
 30
0.0
  0
VERTEX
  5
3A6
  8
HOLE
 10
288.6615394034393
 20
18.79807487941931
 30
0.0
  0
VERTEX
  5
3A7
  8
HOLE
 10
288.6615394034393
 20
23.75954154608598
 30
0.0
  0
SEQEND
  5
3A8
  8
HOLE
  0
POLYLINE
  5
6E
  8
HOLE
 66
     1
 10
0.0
 20
0.0
 30
0.0
 70
     1
  0
VERTEX
  5
3A9
  8
HOLE
 10
269.3236727367727
 20
11.83635821275265
 30
0.0
  0
VERTEX
  5
3AA
  8
HOLE
 10
288.6615394034393
 20
11.83635821275265
 30
0.0
  0
VERTEX
  5
3AB
  8
HOLE
 10
288.6615394034393
 20
16.79782487941931
 30
0.0
  0
VERTEX
  5
3AC
  8
HOLE
 10
269.3236727367727
 20
16.79782487941931
 30
0.0
  0
SEQEND
  5
3AD
  8
HOLE
  0
ENDSEC
  0
EOF
