  0
SECTION
  2
HEADER
  9
$ACADVER
  1
AC1032
  9
$ACADMAINTVER
 90
      130
  9
$DWGCODEPAGE
  3
ANSI_1252
  9
$LASTSAVEDBY
  1
roan.venter
  9
$REQUIREDVERSIONS
160
                 0
  9
$INSBASE
 10
0.0
 20
0.0
 30
0.0
  9
$EXTMIN
 10
16.5245875
 20
-462.9489167277358
 30
0.0
  9
$EXTMAX
 10
856.1326623378194
 20
287.5392850017751
 30
0.0
  9
$LIMMIN
 10
0.0
 20
0.0
  9
$LIMMAX
 10
12.0
 20
9.0
  9
$ORTHOMODE
 70
     0
  9
$REGENMODE
 70
     1
  9
$FILLMODE
 70
     1
  9
$QTEXTMODE
 70
     0
  9
$MIRRTEXT
 70
     1
  9
$LTSCALE
 40
1.0
  9
$ATTMODE
 70
     1
  9
$TEXTSIZE
 40
0.2
  9
$TRACEWID
 40
0.05
  9
$TEXTSTYLE
  7
STANDARD
  9
$CLAYER
  8
0
  9
$CELTYPE
  6
ByLayer
  9
$CECOLOR
 62
   256
  9
$CELTSCALE
 40
1.0
  9
$DISPSILH
 70
     0
  9
$DIMSCALE
 40
1.0
  9
$DIMASZ
 40
0.18
  9
$DIMEXO
 40
0.0625
  9
$DIMDLI
 40
0.38
  9
$DIMRND
 40
0.0
  9
$DIMDLE
 40
0.0
  9
$DIMEXE
 40
0.18
  9
$DIMTP
 40
0.0
  9
$DIMTM
 40
0.0
  9
$DIMTXT
 40
0.18
  9
$DIMCEN
 40
0.09
  9
$DIMTSZ
 40
0.0
  9
$DIMTOL
 70
     0
  9
$DIMLIM
 70
     0
  9
$DIMTIH
 70
     1
  9
$DIMTOH
 70
     1
  9
$DIMSE1
 70
     0
  9
$DIMSE2
 70
     0
  9
$DIMTAD
 70
     0
  9
$DIMZIN
 70
     0
  9
$DIMBLK
  1

  9
$DIMASO
 70
     1
  9
$DIMSHO
 70
     1
  9
$DIMPOST
  1

  9
$DIMAPOST
  1

  9
$DIMALT
 70
     0
  9
$DIMALTD
 70
     2
  9
$DIMALTF
 40
25.4
  9
$DIMLFAC
 40
1.0
  9
$DIMTOFL
 70
     0
  9
$DIMTVP
 40
0.0
  9
$DIMTIX
 70
     0
  9
$DIMSOXD
 70
     0
  9
$DIMSAH
 70
     0
  9
$DIMBLK1
  1

  9
$DIMBLK2
  1

  9
$DIMSTYLE
  2
STANDARD
  9
$DIMCLRD
 70
     0
  9
$DIMCLRE
 70
     0
  9
$DIMCLRT
 70
     0
  9
$DIMTFAC
 40
1.0
  9
$DIMGAP
 40
0.09
  9
$DIMJUST
 70
     0
  9
$DIMSD1
 70
     0
  9
$DIMSD2
 70
     0
  9
$DIMTOLJ
 70
     1
  9
$DIMTZIN
 70
     0
  9
$DIMALTZ
 70
     0
  9
$DIMALTTZ
 70
     0
  9
$DIMUPT
 70
     0
  9
$DIMDEC
 70
     4
  9
$DIMTDEC
 70
     4
  9
$DIMALTU
 70
     2
  9
$DIMALTTD
 70
     2
  9
$DIMTXSTY
  7
STANDARD
  9
$DIMAUNIT
 70
     0
  9
$DIMADEC
 70
     0
  9
$DIMALTRND
 40
0.0
  9
$DIMAZIN
 70
     0
  9
$DIMDSEP
 70
    46
  9
$DIMATFIT
 70
     3
  9
$DIMFRAC
 70
     0
  9
$DIMLDRBLK
  1

  9
$DIMLUNIT
 70
     2
  9
$DIMLWD
 70
    -2
  9
$DIMLWE
 70
    -2
  9
$DIMTMOVE
 70
     0
  9
$DIMFXL
 40
1.0
  9
$DIMFXLON
 70
     0
  9
$DIMJOGANG
 40
0.7853981633974483
  9
$DIMTFILL
 70
     0
  9
$DIMTFILLCLR
 70
     0
  9
$DIMARCSYM
 70
     0
  9
$DIMLTYPE
  6

  9
$DIMLTEX1
  6

  9
$DIMLTEX2
  6

  9
$DIMTXTDIRECTION
 70
     0
  9
$LUNITS
 70
     2
  9
$LUPREC
 70
     4
  9
$SKETCHINC
 40
0.1
  9
$FILLETRAD
 40
0.5
  9
$AUNITS
 70
     0
  9
$AUPREC
 70
     0
  9
$MENU
  1
.
  9
$ELEVATION
 40
0.0
  9
$PELEVATION
 40
0.0
  9
$THICKNESS
 40
0.0
  9
$LIMCHECK
 70
     0
  9
$CHAMFERA
 40
0.5
  9
$CHAMFERB
 40
0.5
  9
$CHAMFERC
 40
0.0
  9
$CHAMFERD
 40
0.0
  9
$SKPOLY
 70
     0
  9
$TDCREATE
 40
2454910.500000000
  9
$TDUCREATE
 40
2454910.125000000
  9
$TDUPDATE
 40
2459114.440428241
  9
$TDUUPDATE
 40
2459114.107094907
  9
$TDINDWG
 40
0.0168171412
  9
$TDUSRTIMER
 40
0.0168171412
  9
$USRTIMER
 70
     1
  9
$ANGBASE
 50
0.0
  9
$ANGDIR
 70
     0
  9
$PDMODE
 70
     0
  9
$PDSIZE
 40
0.0
  9
$PLINEWID
 40
0.0
  9
$SPLFRAME
 70
     0
  9
$SPLINETYPE
 70
     6
  9
$SPLINESEGS
 70
     8
  9
$HANDSEED
  5
2B8
  9
$SURFTAB1
 70
     6
  9
$SURFTAB2
 70
     6
  9
$SURFTYPE
 70
     6
  9
$SURFU
 70
     6
  9
$SURFV
 70
     6
  9
$UCSBASE
  2

  9
$UCSNAME
  2

  9
$UCSORG
 10
0.0
 20
0.0
 30
0.0
  9
$UCSXDIR
 10
1.0
 20
0.0
 30
0.0
  9
$UCSYDIR
 10
0.0
 20
1.0
 30
0.0
  9
$UCSORTHOREF
  2

  9
$UCSORTHOVIEW
 70
     0
  9
$UCSORGTOP
 10
0.0
 20
0.0
 30
0.0
  9
$UCSORGBOTTOM
 10
0.0
 20
0.0
 30
0.0
  9
$UCSORGLEFT
 10
0.0
 20
0.0
 30
0.0
  9
$UCSORGRIGHT
 10
0.0
 20
0.0
 30
0.0
  9
$UCSORGFRONT
 10
0.0
 20
0.0
 30
0.0
  9
$UCSORGBACK
 10
0.0
 20
0.0
 30
0.0
  9
$PUCSBASE
  2

  9
$PUCSNAME
  2

  9
$PUCSORG
 10
0.0
 20
0.0
 30
0.0
  9
$PUCSXDIR
 10
1.0
 20
0.0
 30
0.0
  9
$PUCSYDIR
 10
0.0
 20
1.0
 30
0.0
  9
$PUCSORTHOREF
  2

  9
$PUCSORTHOVIEW
 70
     0
  9
$PUCSORGTOP
 10
0.0
 20
0.0
 30
0.0
  9
$PUCSORGBOTTOM
 10
0.0
 20
0.0
 30
0.0
  9
$PUCSORGLEFT
 10
0.0
 20
0.0
 30
0.0
  9
$PUCSORGRIGHT
 10
0.0
 20
0.0
 30
0.0
  9
$PUCSORGFRONT
 10
0.0
 20
0.0
 30
0.0
  9
$PUCSORGBACK
 10
0.0
 20
0.0
 30
0.0
  9
$USERI1
 70
     0
  9
$USERI2
 70
     0
  9
$USERI3
 70
     0
  9
$USERI4
 70
     0
  9
$USERI5
 70
     0
  9
$USERR1
 40
0.0
  9
$USERR2
 40
0.0
  9
$USERR3
 40
0.0
  9
$USERR4
 40
0.0
  9
$USERR5
 40
0.0
  9
$WORLDVIEW
 70
     1
  9
$SHADEDGE
 70
     3
  9
$SHADEDIF
 70
    70
  9
$TILEMODE
 70
     1
  9
$MAXACTVP
 70
    64
  9
$PINSBASE
 10
0.0
 20
0.0
 30
0.0
  9
$PLIMCHECK
 70
     0
  9
$PEXTMIN
 10
1.000000000000000E+20
 20
1.000000000000000E+20
 30
1.000000000000000E+20
  9
$PEXTMAX
 10
-1.000000000000000E+20
 20
-1.000000000000000E+20
 30
-1.000000000000000E+20
  9
$PLIMMIN
 10
0.0
 20
0.0
  9
$PLIMMAX
 10
12.0
 20
9.0
  9
$UNITMODE
 70
     0
  9
$VISRETAIN
 70
     1
  9
$PLINEGEN
 70
     0
  9
$PSLTSCALE
 70
     1
  9
$TREEDEPTH
 70
  3020
  9
$CMLSTYLE
  2
Standard
  9
$CMLJUST
 70
     0
  9
$CMLSCALE
 40
1.0
  9
$PROXYGRAPHICS
 70
     1
  9
$MEASUREMENT
 70
     0
  9
$CELWEIGHT
370
    -1
  9
$ENDCAPS
280
     0
  9
$JOINSTYLE
280
     0
  9
$LWDISPLAY
290
     0
  9
$INSUNITS
 70
     0
  9
$HYPERLINKBASE
  1

  9
$STYLESHEET
  1

  9
$XEDIT
290
     1
  9
$CEPSNTYPE
380
     0
  9
$PSTYLEMODE
290
     1
  9
$FINGERPRINTGUID
  2
{A684F79B-3E50-6541-8FCD-01569FF5FEDA}
  9
$VERSIONGUID
  2
{86EAF983-E091-5145-9C1C-FE49090767C0}
  9
$EXTNAMES
290
     1
  9
$PSVPSCALE
 40
0.0
  9
$OLESTARTUP
290
     0
  9
$SORTENTS
280
   127
  9
$INDEXCTL
280
     0
  9
$HIDETEXT
280
     0
  9
$XCLIPFRAME
280
     2
  9
$HALOGAP
280
     0
  9
$OBSCOLOR
 70
   257
  9
$OBSLTYPE
280
     0
  9
$INTERSECTIONDISPLAY
280
     0
  9
$INTERSECTIONCOLOR
 70
   257
  9
$DIMASSOC
280
     1
  9
$PROJECTNAME
  1

  9
$CAMERADISPLAY
290
     0
  9
$LENSLENGTH
 40
50.0
  9
$CAMERAHEIGHT
 40
0.0
  9
$STEPSPERSEC
 40
2.0
  9
$STEPSIZE
 40
6.0
  9
$3DDWFPREC
 40
2.0
  9
$PSOLWIDTH
 40
0.25
  9
$PSOLHEIGHT
 40
4.0
  9
$LOFTANG1
 40
1.570796326794896
  9
$LOFTANG2
 40
1.570796326794896
  9
$LOFTMAG1
 40
0.0
  9
$LOFTMAG2
 40
0.0
  9
$LOFTPARAM
 70
     7
  9
$LOFTNORMALS
280
     1
  9
$LATITUDE
 40
37.795
  9
$LONGITUDE
 40
-122.394
  9
$NORTHDIRECTION
 40
0.0
  9
$TIMEZONE
 70
 -8000
  9
$LIGHTGLYPHDISPLAY
280
     1
  9
$TILEMODELIGHTSYNCH
280
     1
  9
$CMATERIAL
347
175
  9
$SOLIDHIST
280
     0
  9
$SHOWHIST
280
     1
  9
$DWFFRAME
280
     2
  9
$DGNFRAME
280
     0
  9
$REALWORLDSCALE
290
     1
  9
$INTERFERECOLOR
 62
     1
  9
$INTERFEREOBJVS
345
197
  9
$INTERFEREVPVS
346
194
  9
$CSHADOW
280
     0
  9
$SHADOWPLANELOCATION
 40
0.0
  0
ENDSEC
  0
SECTION
  2
CLASSES
  0
CLASS
  1
ACDBDICTIONARYWDFLT
  2
AcDbDictionaryWithDefault
  3
ObjectDBX Classes
 90
        0
 91
        1
280
     0
281
     0
  0
CLASS
  1
MATERIAL
  2
AcDbMaterial
  3
ObjectDBX Classes
 90
     1153
 91
        3
280
     0
281
     0
  0
CLASS
  1
VISUALSTYLE
  2
AcDbVisualStyle
  3
ObjectDBX Classes
 90
     4095
 91
       24
280
     0
281
     0
  0
CLASS
  1
SCALE
  2
AcDbScale
  3
ObjectDBX Classes
 90
     1153
 91
       17
280
     0
281
     0
  0
CLASS
  1
TABLESTYLE
  2
AcDbTableStyle
  3
ObjectDBX Classes
 90
     4095
 91
        1
280
     0
281
     0
  0
CLASS
  1
MLEADERSTYLE
  2
AcDbMLeaderStyle
  3
ACDB_MLEADERSTYLE_CLASS
 90
     4095
 91
        1
280
     0
281
     0
  0
CLASS
  1
ACDBSECTIONVIEWSTYLE
  2
AcDbSectionViewStyle
  3
ObjectDBX Classes
 90
     1025
 91
        1
280
     0
281
     0
  0
CLASS
  1
ACDBDETAILVIEWSTYLE
  2
AcDbDetailViewStyle
  3
ObjectDBX Classes
 90
     1025
 91
        1
280
     0
281
     0
  0
CLASS
  1
DICTIONARYVAR
  2
AcDbDictionaryVar
  3
ObjectDBX Classes
 90
        0
 91
       27
280
     0
281
     0
  0
CLASS
  1
CELLSTYLEMAP
  2
AcDbCellStyleMap
  3
ObjectDBX Classes
 90
     1152
 91
        1
280
     0
281
     0
  0
ENDSEC
  0
SECTION
  2
TABLES
  0
TABLE
  2
VPORT
  5
16C
330
0
100
AcDbSymbolTable
 70
     1
  0
VPORT
  5
1D7
330
16C
100
AcDbSymbolTableRecord
100
AcDbViewportTableRecord
  2
*ACTIVE
 70
     0
 10
0.0
 20
0.0
 11
1.0
 21
1.0
 12
161.3653849280913
 22
194.2150147402595
 13
0.0
 23
0.0
 14
0.5
 24
0.5
 15
0.5
 25
0.5
 16
0.0
 26
0.0
 36
1.0
 17
0.0
 27
0.0
 37
0.0
 40
757.1085812778648
 41
1.522388059701492
 42
50.0
 43
0.0
 44
0.0
 50
0.0
 51
0.0
 71
     0
 72
   100
 73
     1
 74
     3
 75
     0
 76
     0
 77
     0
 78
     0
281
     0
 65
     1
110
0.0
120
0.0
130
0.0
111
1.0
121
0.0
131
0.0
112
0.0
122
1.0
132
0.0
 79
     0
146
0.0
348
193
 60
     3
 61
     5
292
     1
282
     0
141
0.0
142
0.0
 63
   250
421
  3355443
1001
ACAD_NAV_VCDISPLAY
1070
     3
  0
ENDTAB
  0
TABLE
  2
LTYPE
  5
169
330
0
100
AcDbSymbolTable
 70
     3
  0
LTYPE
  5
1BE
330
169
100
AcDbSymbolTableRecord
100
AcDbLinetypeTableRecord
  2
ByBlock
 70
     0
  3

 72
    65
 73
     0
 40
0.0
  0
LTYPE
  5
1BF
330
169
100
AcDbSymbolTableRecord
100
AcDbLinetypeTableRecord
  2
ByLayer
 70
     0
  3

 72
    65
 73
     0
 40
0.0
  0
LTYPE
  5
1C0
330
169
100
AcDbSymbolTableRecord
100
AcDbLinetypeTableRecord
  2
CONTINUOUS
 70
     0
  3
Solid line
 72
    65
 73
     0
 40
0.0
  0
LTYPE
  5
1D8
330
169
100
AcDbSymbolTableRecord
100
AcDbLinetypeTableRecord
  2
CONTINUOUS2
 70
     0
  3
Solid Line
 72
    65
 73
     0
 40
0.0
  0
ENDTAB
  0
TABLE
  2
LAYER
  5
166
102
{ACAD_XDICTIONARY
360
283
102
}
330
0
100
AcDbSymbolTable
 70
     3
  0
LAYER
  5
1B8
102
{ACAD_XDICTIONARY
360
27A
102
}
330
166
100
AcDbSymbolTableRecord
100
AcDbLayerTableRecord
  2
0
 70
     0
 62
     7
  6
CONTINUOUS
370
    -3
390
173
347
185
348
0
  0
LAYER
  5
1D9
102
{ACAD_XDICTIONARY
360
27C
102
}
330
166
100
AcDbSymbolTableRecord
100
AcDbLayerTableRecord
  2
LAYER_1
 70
     0
 62
    18
  6
CONTINUOUS
370
    -3
390
173
347
185
348
0
  0
LAYER
  5
1DA
102
{ACAD_XDICTIONARY
360
27E
102
}
330
166
100
AcDbSymbolTableRecord
100
AcDbLayerTableRecord
  2
HOLE
 70
     0
 62
     1
  6
CONTINUOUS
370
    -3
390
173
347
185
348
0
  0
ENDTAB
  0
TABLE
  2
STYLE
  5
167
330
0
100
AcDbSymbolTable
 70
     2
  0
STYLE
  5
1B9
330
167
100
AcDbSymbolTableRecord
100
AcDbTextStyleTableRecord
  2
STANDARD
 70
     0
 40
0.0
 41
1.0
 50
0.0
 71
     0
 42
0.2
  3
txt
  4

  0
STYLE
  5
1BD
330
167
100
AcDbSymbolTableRecord
100
AcDbTextStyleTableRecord
  2
Annotative
 70
     0
 40
0.0
 41
1.0
 50
0.0
 71
     0
 42
0.2
  3
txt
  4

1001
AcadAnnotative
1000
AnnotativeData
1002
{
1070
     1
1070
     1
1002
}
  0
ENDTAB
  0
TABLE
  2
VIEW
  5
16A
330
0
100
AcDbSymbolTable
 70
     3
  0
ENDTAB
  0
TABLE
  2
UCS
  5
16B
330
0
100
AcDbSymbolTable
 70
     0
  0
ENDTAB
  0
TABLE
  2
APPID
  5
16D
330
0
100
AcDbSymbolTable
 70
     4
  0
APPID
  5
1BA
330
16D
100
AcDbSymbolTableRecord
100
AcDbRegAppTableRecord
  2
ACAD
 70
     0
  0
APPID
  5
1C1
330
16D
100
AcDbSymbolTableRecord
100
AcDbRegAppTableRecord
  2
AcadAnnotative
 70
     0
  0
APPID
  5
1E2
330
16D
100
AcDbSymbolTableRecord
100
AcDbRegAppTableRecord
  2
ACAD_NAV_VCDISPLAY
 70
     0
  0
APPID
  5
273
330
16D
100
AcDbSymbolTableRecord
100
AcDbRegAppTableRecord
  2
ACAD_EXEMPT_FROM_CAD_STANDARDS
 70
     0
  0
ENDTAB
  0
TABLE
  2
DIMSTYLE
  5
16E
330
0
100
AcDbSymbolTable
 70
     3
100
AcDbDimStyleTable
 71
     0
  0
DIMSTYLE
105
1BB
330
16E
100
AcDbSymbolTableRecord
100
AcDbDimStyleTableRecord
  2
STANDARD
 70
     0
279
     2
340
1B9
  0
DIMSTYLE
105
1BC
330
16E
100
AcDbSymbolTableRecord
100
AcDbDimStyleTableRecord
  2
Annotative
 70
     0
340
1B9
1001
AcadAnnotative
1000
AnnotativeData
1002
{
1070
     1
1070
     1
1002
}
  0
ENDTAB
  0
TABLE
  2
BLOCK_RECORD
  5
165
330
0
100
AcDbSymbolTable
 70
     6
  0
BLOCK_RECORD
  5
1D3
330
165
100
AcDbSymbolTableRecord
100
AcDbBlockTableRecord
  2
*Model_Space
340
1D6
 70
     0
280
     1
281
     0
  0
BLOCK_RECORD
  5
1CF
330
165
100
AcDbSymbolTableRecord
100
AcDbBlockTableRecord
  2
*Paper_Space
340
1D2
 70
     0
280
     1
281
     0
  0
BLOCK_RECORD
  5
1DC
330
165
100
AcDbSymbolTableRecord
100
AcDbBlockTableRecord
  2
$MODEL_SPACE
340
0
 70
     0
280
     1
281
     0
  0
BLOCK_RECORD
  5
1DE
330
165
100
AcDbSymbolTableRecord
100
AcDbBlockTableRecord
  2
$PAPER_SPACE
340
0
 70
     0
280
     1
281
     0
  0
ENDTAB
  0
ENDSEC
  0
SECTION
  2
BLOCKS
  0
BLOCK
  5
1D4
330
1D3
100
AcDbEntity
  8
0
100
AcDbBlockBegin
  2
*Model_Space
 70
     0
 10
0.0
 20
0.0
 30
0.0
  3
*Model_Space
  1

  0
ENDBLK
  5
1D5
330
1D3
100
AcDbEntity
  8
0
100
AcDbBlockEnd
  0
BLOCK
  5
1D0
330
1CF
100
AcDbEntity
 67
     1
  8
0
100
AcDbBlockBegin
  2
*Paper_Space
 70
     0
 10
0.0
 20
0.0
 30
0.0
  3
*Paper_Space
  1

  0
ENDBLK
  5
1D1
330
1CF
100
AcDbEntity
 67
     1
  8
0
100
AcDbBlockEnd
  0
BLOCK
  5
1DD
330
1DC
100
AcDbEntity
  8
0
100
AcDbBlockBegin
  2
$MODEL_SPACE
 70
     0
 10
0.0
 20
0.0
 30
0.0
  3
$MODEL_SPACE
  1

  0
ENDBLK
  5
21
330
1DC
100
AcDbEntity
  8
0
100
AcDbBlockEnd
  0
BLOCK
  5
1DF
330
1DE
100
AcDbEntity
  8
0
100
AcDbBlockBegin
  2
$PAPER_SPACE
 70
     0
 10
0.0
 20
0.0
 30
0.0
  3
$PAPER_SPACE
  1

  0
ENDBLK
  5
1D
330
1DE
100
AcDbEntity
  8
0
100
AcDbBlockEnd
  0
ENDSEC
  0
SECTION
  2
ENTITIES
  0
LWPOLYLINE
  5
1F8
330
1D3
100
AcDbEntity
  8
LAYER_1
100
AcDbPolyline
 90
       54
 70
     1
 43
0.0
 10
150.7644514041308
 20
141.1267356274102
 10
151.5458541819086
 20
142.7121189607435
 10
152.5276347374642
 20
144.181438405188
 10
153.6932125152419
 20
145.5103522940769
 10
155.021773626353
 20
146.6755772940769
 10
156.4914458485753
 20
147.6573578496323
 10
158.0761236263531
 20
148.439113405188
 10
159.7500541819086
 20
149.0070856274102
 10
161.4832514041309
 20
149.3521022940768
 10
163.2471402930197
 20
149.4674606274102
 10
165.010323626353
 20
149.3521022940768
 10
166.7438736263531
 20
149.0070856274102
 10
168.4174514041308
 20
148.439113405188
 10
170.0024819596864
 20
147.6573578496323
 10
171.4718014041308
 20
146.6755772940769
 10
172.8007152930197
 20
145.5103522940769
 10
173.9659402930197
 20
144.181438405188
 10
174.9477208485753
 20
142.7121189607435
 10
175.7298291819086
 20
141.1267356274102
 10
176.2978014041308
 20
139.4535106274102
 10
176.6424652930197
 20
137.7199606274102
 10
176.7546486263531
 20
136.0068717385213
 10
176.7546486263531
 20
103.462063405188
 10
172.2214541819086
 20
103.462063405188
 10
172.2214541819086
 20
135.8579995162991
 10
172.138198626353
 20
137.1269411829658
 10
171.9092458485753
 20
138.2773495162991
 10
171.5324791819086
 20
139.3882467385213
 10
171.0135430707975
 20
140.4405828496324
 10
170.361962515242
 20
141.4156606274102
 10
169.5883208485753
 20
142.2979578496324
 10
168.7063764041309
 20
143.0712467385212
 10
167.7309458485753
 20
143.7231800718545
 10
166.6789625152419
 20
144.241763405188
 10
165.5680652930197
 20
144.6188828496325
 10
164.4173041819087
 20
144.8478356274102
 10
163.2471402930197
 20
144.924388405188
 10
162.0762708485753
 20
144.8478356274102
 10
160.925862515242
 20
144.6188828496325
 10
159.8149652930197
 20
144.241763405188
 10
158.7629819596864
 20
143.7231800718545
 10
157.7875514041308
 20
143.0712467385212
 10
156.9056069596864
 20
142.2979578496324
 10
156.1319652930198
 20
141.4156606274102
 10
155.4803847374642
 20
140.4405828496324
 10
154.9614486263531
 20
139.3882467385213
 10
154.5843291819086
 20
138.2773495162991
 10
154.3557291819086
 20
137.1269411829658
 10
154.272473626353
 20
135.8579995162991
 10
154.272473626353
 20
103.462063405188
 10
149.7389264041309
 20
103.462063405188
 10
149.7389264041309
 20
136.0068717385213
 10
149.8514625152419
 20
137.7199606274102
 10
150.1961264041308
 20
139.4535106274102
  0
LWPOLYLINE
  5
1F9
330
1D3
100
AcDbEntity
  8
LAYER_1
100
AcDbPolyline
 90
       22
 70
     1
 43
0.0
 10
123.8034776337189
 20
120.8252021256711
 10
123.8034776337189
 20
146.7212076812267
 10
139.9786915226078
 20
146.7212076812267
 10
139.9786915226078
 20
136.7188993478933
 10
142.9790665226078
 20
136.7188993478933
 10
142.9790665226078
 20
126.7172965701156
 10
139.9786915226078
 20
126.7172965701156
 10
139.9786915226078
 20
114.9331076812267
 10
142.9790665226078
 20
114.9331076812267
 10
142.9790665226078
 20
104.9311521256711
 10
132.8049554114967
 20
104.9311521256711
 10
132.8049554114967
 20
125.8261799034489
 10
129.8045804114966
 20
125.8261799034489
 10
129.8045804114966
 20
115.8242243478934
 10
128.8044554114967
 20
115.8242243478934
 10
127.8286720781633
 20
115.9205326812267
 10
126.8906359670522
 20
116.2048715701156
 10
126.0259776337188
 20
116.6670104590045
 10
125.2682109670522
 20
117.2889576812268
 10
124.64626374483
 20
118.0467243478933
 10
124.1837720781633
 20
118.9113826812267
 10
123.8994331892744
 20
119.8494187923378
  0
LWPOLYLINE
  5
1FA
330
1D3
100
AcDbEntity
  8
LAYER_1
100
AcDbPolyline
 90
        4
 70
     1
 43
0.0
 10
373.9481399824378
 20
94.38345503794021
 10
396.0136844268823
 20
94.38345503794021
 10
396.0136844268823
 20
58.72855781571797
 10
373.9481399824378
 20
58.72855781571797
  0
LWPOLYLINE
  5
1FB
330
1D3
100
AcDbEntity
  8
LAYER_1
100
AcDbPolyline
 90
        4
 70
     1
 43
0.0
 10
423.2317125270989
 20
124.5659948894065
 10
423.4594644580946
 20
147.4502615854998
 10
446.7973809101871
 20
147.217994779315
 10
446.5696289791913
 20
124.3337280832216
  0
LWPOLYLINE
  5
1FC
330
1D3
100
AcDbEntity
  8
LAYER_1
100
AcDbPolyline
 90
        4
 70
     1
 43
0.0
 10
422.946131840641
 20
64.39290434493944
 10
423.1738837716368
 20
87.27717104103266
 10
446.5118002237293
 20
87.04490423484783
 10
446.2840482927336
 20
64.1606375387546
  0
LWPOLYLINE
  5
1FD
330
1D3
100
AcDbEntity
  8
LAYER_1
100
AcDbPolyline
 90
       27
 70
     1
 43
0.0
 10
422.897918332814
 20
153.7705324344213
 10
425.7765946568406
 20
150.9921967111987
 10
427.8605280955957
 20
153.1517313392857
 10
427.8903873595789
 20
156.1519577582379
 10
429.890538305547
 20
156.1320515822492
 10
429.8606790415638
 20
153.1318251632969
 10
434.8219000123038
 20
153.08244942095
 10
434.851759276287
 20
156.0826758399024
 10
436.8519102222554
 20
156.0627696639135
 10
436.8220509582721
 20
153.0625432449612
 10
441.7832719290122
 20
153.0131675026143
 10
441.8131311929955
 20
156.0133939215666
 10
443.8132821389638
 20
155.9934877455778
 10
443.7834228749806
 20
152.9932613266255
 10
448.7446438457206
 20
152.9438855842787
 10
448.7745031097039
 20
155.9441120032309
 10
450.7746540556722
 20
155.9242058272421
 10
450.8716887643414
 20
165.6741479781444
 10
464.3245558675942
 20
165.5402605129752
 10
464.4078037062268
 20
173.9049129346327
 10
436.9291867596414
 20
174.1783893869827
 10
436.8857547837758
 20
169.8143916175693
 10
433.8855283648236
 20
169.8442508815525
 10
433.928960340689
 20
174.2082486509659
 10
422.4540202840049
 20
174.3224511198795
 10
422.296750961325
 20
158.5202003658068
 10
424.9814955004718
 20
155.9297178129898
  0
LWPOLYLINE
  5
1FE
330
1D3
100
AcDbEntity
  8
LAYER_1
100
AcDbPolyline
 90
       42
 70
     1
 43
0.0
 10
349.8497302669134
 20
114.9547389967069
 10
349.8497302669134
 20
141.9051973300403
 10
339.8481274891356
 20
141.9051973300403
 10
339.8481274891356
 20
138.9048223300403
 10
329.8458191558022
 20
138.9048223300403
 10
329.8458191558022
 20
141.9051973300403
 10
286.2689441558023
 20
141.9051973300403
 10
286.2689441558023
 20
138.9048223300403
 10
276.2673413780244
 20
138.9048223300403
 10
276.2673413780244
 20
141.9051973300403
 10
239.3748997113578
 20
141.9051973300403
 10
239.3748997113578
 20
138.9048223300403
 10
229.3729441558023
 20
138.9048223300403
 10
229.3729441558023
 20
141.9051973300403
 10
219.3713413780244
 20
141.9051973300403
 10
219.3713413780244
 20
138.9048223300403
 10
216.3706136002466
 20
138.9048223300403
 10
216.3706136002466
 20
130.8537278855958
 10
219.3713413780244
 20
130.8537278855958
 10
219.3713413780244
 20
127.8533528855958
 10
229.3729441558023
 20
127.8533528855958
 10
229.3729441558023
 20
130.8537278855958
 10
239.3748997113578
 20
130.8537278855958
 10
239.3748997113578
 20
127.8533528855958
 10
276.2673413780244
 20
127.8533528855958
 10
276.2673413780244
 20
130.8537278855958
 10
286.2689441558023
 20
130.8537278855958
 10
286.2689441558023
 20
127.8533528855958
 10
296.2712524891356
 20
127.8533528855958
 10
299.1174636002467
 20
124.3058195522625
 10
301.4577913780245
 20
126.1836556633736
 10
305.2134636002467
 20
121.5026473300403
 10
302.8731358224689
 20
119.6251639967069
 10
306.6206941558023
 20
114.9547389967069
 10
308.0600274891356
 20
114.9547389967069
 10
308.0600274891356
 20
117.9551139967069
 10
318.0619830446911
 20
117.9551139967069
 10
318.0619830446911
 20
114.9547389967069
 10
329.8458191558022
 20
114.9547389967069
 10
329.8458191558022
 20
117.9551139967069
 10
339.8481274891356
 20
117.9551139967069
 10
339.8481274891356
 20
114.9547389967069
  0
LWPOLYLINE
  5
1FF
330
1D3
100
AcDbEntity
  8
LAYER_1
100
AcDbPolyline
 90
       61
 70
     1
 43
0.0
 10
244.8011236013319
 20
154.7122954044617
 10
244.8300423317737
 20
160.5238845655631
 10
255.2827184786374
 20
160.4718715764292
 10
255.2388681759522
 20
151.6595917874093
 10
202.1390616858382
 20
151.923818825459
 10
201.6711613299384
 20
151.9723615798237
 10
201.2213490311619
 20
152.1111265564
 10
200.8075916576031
 20
152.335085401206
 10
200.4450145804935
 20
152.6353432960772
 10
200.1487308831495
 20
153.0005360089773
 10
199.928549759818
 20
153.4168562252452
 10
199.7942681168307
 20
153.8680272163467
 10
199.7503842376995
 20
154.3363874913539
 10
199.7504386556092
 20
154.3473234670729
 10
199.7069075498881
 20
154.8156819866636
 10
199.5726241514844
 20
155.266500204355
 10
199.3527958015633
 20
155.6828186652064
 10
199.0558065573985
 20
156.0480148889393
 10
198.6939350271096
 20
156.3482692729776
 10
198.2798248801405
 20
156.5722298732
 10
197.830012581364
 20
156.7109948497765
 10
197.3621122254642
 20
156.759537604141
 10
170.5880214781686
 20
156.8927666903139
 10
170.1201211222685
 20
156.9413094446783
 10
169.670308823492
 20
157.0800744212547
 10
169.256198676523
 20
157.304035021477
 10
168.8939743728238
 20
157.6042911609317
 10
168.5969851286592
 20
157.969487384665
 10
168.3775095521482
 20
158.3858040900999
 10
168.2428716249178
 20
158.8362712897973
 10
168.1986367277926
 20
159.3049860936312
 10
168.2055409765363
 20
160.9051715489516
 10
175.9087011636073
 20
160.8668402755555
 10
175.9236327358508
 20
163.8675309034738
 10
178.9243233637692
 20
163.8525993312304
 10
178.9392549360126
 20
166.853289959149
 10
193.811123593567
 20
166.7792868682643
 10
193.7961920213236
 20
163.7785962403457
 10
196.796882649242
 20
163.7636646681023
 10
196.7819510769985
 20
160.7629740401839
 10
208.2650783553165
 20
160.7058334796272
 10
208.2800099275599
 20
163.7065241075456
 10
214.0848682644945
 20
169.3436729059835
 10
211.994763250267
 20
171.4965193315722
 10
216.9208288857281
 20
176.2804276469536
 10
219.0112884287824
 20
174.1279322393586
 10
218.9963586119554
 20
171.1275943848505
 10
220.9969366217044
 20
171.1176394182161
 10
221.0118664385315
 20
174.1179772727242
 10
225.9729189074259
 20
174.0932908513206
 10
225.9579890905988
 20
171.0929529968125
 10
227.9582143269378
 20
171.0829997855945
 10
227.9731441437648
 20
174.0833376401026
 10
232.9345493860695
 20
174.0586494632826
 10
232.9196195692425
 20
171.0583116087745
 10
234.9201975789915
 20
171.0483566421401
 10
234.9351273958185
 20
174.0486944966482
 10
239.8961798647131
 20
174.0240080752446
 10
239.881250047886
 20
171.0236702207365
 10
241.8814752842248
 20
171.0137170095185
 10
241.8004329734135
 20
154.7272269767051
  0
LWPOLYLINE
  5
200
330
1D3
100
AcDbEntity
  8
LAYER_1
100
AcDbPolyline
 90
       61
 70
     1
 43
0.0
 10
288.6751492849621
 20
154.8382916426898
 10
261.9010585376662
 20
154.9715207288627
 10
261.4328036529398
 20
155.0197124652333
 10
260.9829931095796
 20
155.15883021522
 10
260.5692357360208
 20
155.3827890600258
 10
260.2066586589113
 20
155.683046954897
 10
259.9100221881569
 20
156.0482414232137
 10
259.6901920828192
 20
156.4642071106548
 10
259.5559104398319
 20
156.9153781017563
 10
259.5116737872905
 20
157.3837401321801
 10
259.5185797914505
 20
158.9842783609107
 10
267.2217399785215
 20
158.9459470875146
 10
267.2366697953485
 20
161.9462849420226
 10
270.2373604232668
 20
161.9313533697792
 10
270.2522919955103
 20
164.9320439976978
 10
285.1241606530647
 20
164.8580409068131
 10
285.1092290808212
 20
161.8573502788945
 10
288.1095669353296
 20
161.8424204620675
 10
288.0946371185027
 20
158.8420826075595
 10
299.5781171702309
 20
158.7849402915864
 10
299.5930469870578
 20
161.7852781460944
 10
305.3979053239923
 20
167.4224269445323
 10
303.307445780938
 20
169.5749223521272
 10
308.2338659452258
 20
174.3591816855024
 10
310.3243254882801
 20
172.2066862779076
 10
310.3093939160367
 20
169.205995649989
 10
312.3096191523756
 20
169.196042438771
 10
312.324550724619
 20
172.1967330666896
 10
317.2859559669238
 20
172.1720448898695
 10
317.2710243946804
 20
169.171354261951
 10
319.271249631019
 20
169.161401050733
 10
319.2861812032625
 20
172.1620916786515
 10
324.2475864455673
 20
172.1374035018315
 10
324.2326548733239
 20
169.136712873913
 10
326.2328801096628
 20
169.126759662695
 10
326.2478116819062
 20
172.1274502906135
 10
331.209216924211
 20
172.1027621137935
 10
331.1942853519675
 20
169.1020714858749
 10
333.1945105883061
 20
169.092118274657
 10
333.1274589465261
 20
155.6172323218472
 10
336.1281495744447
 20
155.6023007496038
 10
336.1430811466882
 20
158.6029913775222
 10
346.595757293552
 20
158.5509783883884
 10
346.5519052354502
 20
149.7383458259583
 10
293.4520987453361
 20
150.0025728640079
 10
292.983845616026
 20
150.0511173737889
 10
292.5343860906596
 20
150.1898805949489
 10
292.1202759436907
 20
150.4138411951711
 10
291.7580516399913
 20
150.7140973346259
 10
291.461415169237
 20
151.0792918029426
 10
291.2415868193158
 20
151.495610263794
 10
291.107303420912
 20
151.9464284814852
 10
291.0634212971972
 20
152.4151415299027
 10
291.0634739596904
 20
152.4257247322114
 10
291.0195918359758
 20
152.894437780629
 10
290.885308437572
 20
153.3452559983203
 10
290.6654800876507
 20
153.7615744591716
 10
290.3688436168963
 20
154.1267689274883
 10
290.0066193131971
 20
154.427025066943
 10
289.5925091662282
 20
154.6509856671654
 10
289.1430496408618
 20
154.7897488883253
  0
LWPOLYLINE
  5
201
330
1D3
100
AcDbEntity
  8
LAYER_1
100
AcDbPolyline
 90
       35
 70
     1
 43
0.0
 10
448.4355217968798
 20
111.5326806460687
 10
448.3384905989999
 20
101.7830912554746
 10
461.7913541914633
 20
101.6488510299975
 10
461.7081098636202
 20
93.28455136864794
 10
447.2946764418715
 20
93.42799871339696
 10
446.3567185282447
 20
93.51142058869834
 10
445.4431399906625
 20
93.74030426986331
 10
444.5768175872985
 20
94.10913015096065
 10
443.7788326776829
 20
94.60922133723505
 10
443.0688169614309
 20
95.22803461370177
 10
442.4646102503011
 20
95.95022223685953
 10
441.9804966666588
 20
96.7576494886377
 10
441.6289859989614
 20
97.63114092398906
 10
441.4179775761363
 20
98.54909741597328
 10
441.3532401221068
 20
99.48852986115463
 10
441.4140785918971
 20
105.6015132372893
 10
419.8748869499442
 20
105.8158785282419
 10
419.9115922532887
 20
109.5039875476593
 10
422.6473661165973
 20
112.0408760706179
 10
420.6071752845429
 20
114.2411025774594
 10
423.5405742831966
 20
116.9612417739559
 10
425.5811178755591
 20
114.7610117563248
 10
425.5512551007865
 20
111.7604325770644
 10
427.5514060467545
 20
111.7405264010757
 10
427.5812688215271
 20
114.741105580336
 10
432.5421370319595
 20
114.6917333487785
 10
432.512274257187
 20
111.6911541695182
 10
434.5127779634629
 20
111.67124448274
 10
434.5426407382356
 20
114.6718236620003
 10
439.503508948668
 20
114.6224514304428
 10
439.4736461738952
 20
111.6218722511825
 10
441.4737971198635
 20
111.6019660751937
 10
441.5036598946361
 20
114.6025452544541
 10
446.4648808653763
 20
114.5531695121072
 10
446.4350180906037
 20
111.5525903328469
  0
LWPOLYLINE
  5
202
330
1D3
100
AcDbEntity
  8
HOLE
100
AcDbPolyline
 90
        4
 70
     1
 43
0.0
 10
376.9488677602157
 20
61.72893281571798
 10
393.0129566491045
 20
61.72893281571798
 10
393.0129566491045
 20
91.38272726016245
 10
376.9488677602157
 20
91.38272726016245
  0
LWPOLYLINE
  5
203
330
1D3
100
AcDbEntity
  8
HOLE
100
AcDbPolyline
 90
        4
 70
     1
 43
0.0
 10
425.440061988382
 20
145.4302009527532
 10
425.3906897568246
 20
140.4693327423211
 10
444.7279515566727
 20
140.2768817989034
 10
444.7773237882302
 20
145.2377500093355
  0
LWPOLYLINE
  5
204
330
1D3
100
AcDbEntity
  8
HOLE
100
AcDbPolyline
 90
        4
 70
     1
 43
0.0
 10
425.3707800700464
 20
138.4688290360448
 10
425.3214043276995
 20
133.5076080653047
 10
444.6586661275476
 20
133.315157121887
 10
444.7080418698944
 20
138.2763780926271
  0
LWPOLYLINE
  5
205
330
1D3
100
AcDbEntity
  8
HOLE
100
AcDbPolyline
 90
        4
 70
     1
 43
0.0
 10
425.2521259201532
 20
126.5465889089042
 10
444.5893877200014
 20
126.3541379654865
 10
444.6387599515588
 20
131.3150061759188
 10
425.3014981517106
 20
131.5074571193365
  0
LWPOLYLINE
  5
206
330
1D3
100
AcDbEntity
  8
HOLE
100
AcDbPolyline
 90
        4
 70
     1
 43
0.0
 10
425.1544813019241
 20
85.25711040828628
 10
425.1051055595772
 20
80.29588943754617
 10
444.4420145991174
 20
80.10344200491777
 10
444.4913903414642
 20
85.06466297565793
  0
LWPOLYLINE
  5
207
330
1D3
100
AcDbEntity
  8
HOLE
100
AcDbPolyline
 90
        4
 70
     1
 43
0.0
 10
425.0851993835884
 20
78.29573849157788
 10
425.0358236412415
 20
73.33451752083766
 10
444.3727326807817
 20
73.14207008820938
 10
444.4221084231286
 20
78.10329105894954
  0
LWPOLYLINE
  5
208
330
1D3
100
AcDbEntity
  8
HOLE
100
AcDbPolyline
 90
        4
 70
     1
 43
0.0
 10
424.9665417229058
 20
66.37314560412931
 10
444.3034507624461
 20
66.18069817150098
 10
444.3528265047929
 20
71.14191914224107
 10
425.0159174652528
 20
71.33436657486948
  0
LWPOLYLINE
  5
239
330
1D3
100
AcDbEntity
  8
LAYER_1
100
AcDbPolyline
 90
        4
 70
     1
 43
0.0
 10
189.7460430707975
 20
63.21424611288623
 10
166.8602902930198
 20
63.21424611288623
 10
166.8602902930198
 20
76.50338500177511
 10
189.7460430707975
 20
76.50338500177511
  0
LWPOLYLINE
  5
23A
330
1D3
100
AcDbEntity
  8
LAYER_1
100
AcDbPolyline
 90
        4
 70
     1
 43
0.0
 10
410.6220954458835
 20
128.91617306485
 10
410.6220954458835
 20
106.0307730648501
 10
397.3329565569944
 20
106.0307730648501
 10
397.3329565569944
 20
128.91617306485
  0
LWPOLYLINE
  5
23B
330
1D3
100
AcDbEntity
  8
LAYER_1
100
AcDbPolyline
 90
        7
 70
     1
 43
0.0
 10
224.4572597374642
 20
107.6473127795529
 10
209.7570097374642
 20
112.4528516684418
 10
224.4572597374642
 20
122.2103322239974
 10
224.4572597374642
 20
117.065773890664
 10
220.4564069596864
 20
117.065773890664
 10
220.4564069596864
 20
114.0650461128862
 10
224.4572597374642
 20
114.0650461128862
  0
LWPOLYLINE
  5
23C
330
1D3
100
AcDbEntity
  8
LAYER_1
100
AcDbPolyline
 90
       28
 70
     1
 43
0.0
 10
320.0625069596864
 20
74.02688500177513
 10
326.4915291819087
 20
74.02688500177513
 10
326.4915291819087
 20
71.02651000177512
 10
329.4922569596864
 20
71.02651000177512
 10
329.4922569596864
 20
68.02578222399734
 10
333.6282236263532
 20
68.02578222399734
 10
333.6282236263532
 20
66.02517944621955
 10
333.5509652930197
 20
65.24483500177511
 10
333.3234236263531
 20
64.49447666844178
 10
332.9540652930197
 20
63.80267944621955
 10
332.4562958485753
 20
63.19625444621955
 10
331.8498708485754
 20
62.69848500177512
 10
331.1584264041309
 20
62.32912666844177
 10
330.4077152930199
 20
62.10158500177512
 10
329.6273708485754
 20
62.02432666844178
 10
314.4491069596865
 20
62.02432666844178
 10
313.6684097374642
 20
62.10158500177512
 10
312.9180514041309
 20
62.32912666844177
 10
312.2266069596864
 20
62.69848500177512
 10
311.6201819596864
 20
63.19625444621955
 10
311.122412515242
 20
63.80267944621955
 10
310.7527014041309
 20
64.49447666844178
 10
310.5251597374642
 20
65.24483500177511
 10
310.4482541819087
 20
66.02517944621955
 10
310.4482541819087
 20
74.02688500177513
 10
313.7968208485753
 20
74.02688500177513
 10
313.7968208485753
 20
68.02578222399734
 10
320.0625069596864
 20
68.02578222399734
  0
LWPOLYLINE
  5
23D
330
1D3
100
AcDbEntity
  8
LAYER_1
100
AcDbPolyline
 90
        4
 70
     1
 43
0.0
 10
77.12067918190868
 20
71.41703500177512
 10
77.12067918190868
 20
58.98726277955288
 10
57.11676807079758
 20
58.98726277955288
 10
57.11676807079758
 20
71.41703500177512
  0
LWPOLYLINE
  5
23E
330
1D3
100
AcDbEntity
  8
LAYER_1
100
AcDbPolyline
 90
        4
 70
     1
 43
0.0
 10
270.5303902930198
 20
56.44126555733067
 10
247.644637515242
 20
56.44126555733067
 10
247.644637515242
 20
69.73040444621957
 10
270.5303902930198
 20
69.73040444621957
  0
LWPOLYLINE
  5
23F
330
1D3
100
AcDbEntity
  8
LAYER_1
100
AcDbPolyline
 90
        8
 70
     1
 43
0.0
 10
375.9436871125499
 20
100.4674675092946
 10
375.9436871125499
 20
111.9101675092946
 10
382.8108593347723
 20
111.9101675092946
 10
382.8108593347723
 20
114.9105425092945
 10
375.9436871125499
 20
114.9105425092945
 10
375.9436871125499
 20
126.3532425092946
 10
390.9028760014388
 20
122.4254147315168
 10
390.9028760014388
 20
104.3949425092945
  0
LWPOLYLINE
  5
240
330
1D3
100
AcDbEntity
  8
LAYER_1
100
AcDbPolyline
 90
        7
 70
     1
 43
0.0
 10
203.1069018532789
 20
134.0009039445365
 10
188.4066518532789
 20
129.1953650556476
 10
188.4066518532789
 20
135.6134511667588
 10
192.4071518532789
 20
135.6134511667588
 10
192.4071518532789
 20
138.6138261667587
 10
188.4066518532789
 20
138.6138261667587
 10
188.4066518532789
 20
143.758384500092
  0
LWPOLYLINE
  5
241
330
1D3
100
AcDbEntity
  8
LAYER_1
100
AcDbPolyline
 90
       64
 70
     1
 43
0.0
 10
380.5576676681056
 20
175.0933730648501
 10
380.5576676681056
 20
181.3064952870723
 10
380.6321037792168
 20
182.245236953739
 10
380.8518843347723
 20
183.1610480648501
 10
381.2120704458833
 20
184.0313508426279
 10
381.7041954458833
 20
184.8339202870724
 10
382.3155593347723
 20
185.5500591759613
 10
383.031698223661
 20
186.1617758426279
 10
383.8346204458833
 20
186.6539008426279
 10
384.7045704458833
 20
187.014086953739
 10
385.6203815569945
 20
187.2338675092945
 10
386.5591232236611
 20
187.3075980648501
 10
386.5591232236611
 20
181.3064952870723
 10
389.5598510014388
 20
181.3064952870723
 10
400.0341760014388
 20
171.1895341759612
 10
400.0341760014388
 20
145.3037591759612
 10
389.5598510014388
 20
135.1867980648501
 10
386.5591232236611
 20
135.1867980648501
 10
386.5591232236611
 20
129.1853425092945
 10
385.6203815569945
 20
129.2594258426279
 10
384.7045704458833
 20
129.4792063981834
 10
383.8346204458833
 20
129.8397452870722
 10
383.031698223661
 20
130.3315175092946
 10
382.3155593347723
 20
130.9432341759612
 10
381.7041954458833
 20
131.65937306485
 10
381.2120704458833
 20
132.4622952870723
 10
380.8518843347723
 20
133.3322452870723
 10
380.6321037792168
 20
134.2480563981834
 10
380.5576676681056
 20
135.1867980648501
 10
380.5576676681056
 20
141.3999202870723
 10
377.5061398903279
 20
144.5586925092945
 10
376.9071232236612
 20
145.285061953739
 10
376.4291093347722
 20
146.0964508426279
 10
376.0837398903277
 20
146.9727508426279
 10
375.8798343347723
 20
147.8920897315168
 10
375.8223315569944
 20
148.8318897315168
 10
375.9126426681056
 20
149.7692202870723
 10
376.1482982236611
 20
150.6811508426279
 10
376.5236537792166
 20
151.5447508426279
 10
377.02953711255
 20
152.3388536204057
 10
377.6536010014388
 20
153.0440563981834
 10
378.5891676681056
 20
153.94787306485
 10
384.4011815569944
 20
147.93124806485
 10
386.5591232236611
 20
150.015811953739
 10
380.7474621125501
 20
156.0320841759612
 10
380.7474621125501
 20
156.7461063981834
 10
383.5583954458833
 20
156.7461063981834
 10
383.5583954458833
 20
159.7468341759613
 10
380.7474621125501
 20
159.7468341759613
 10
380.7474621125501
 20
160.4612091759612
 10
386.5591232236611
 20
166.4774813981834
 10
384.4011815569944
 20
168.5620452870723
 10
378.5891676681056
 20
162.5457730648501
 10
377.6536010014388
 20
163.449236953739
 10
377.02953711255
 20
164.1544397315168
 10
376.5236537792166
 20
164.9488952870724
 10
376.1482982236611
 20
165.8121425092945
 10
375.9126426681056
 20
166.7240730648501
 10
375.8223315569944
 20
167.6614036204057
 10
375.8798343347723
 20
168.6012036204055
 10
376.0837398903277
 20
169.5205425092945
 10
376.4291093347722
 20
170.3968425092945
 10
376.9071232236612
 20
171.2082313981834
 10
377.5061398903279
 20
171.9349536204057
  0
LWPOLYLINE
  5
242
330
1D3
100
AcDbEntity
  8
LAYER_1
100
AcDbPolyline
 90
        4
 70
     1
 43
0.0
 10
238.9059791819087
 20
70.36046555733067
 10
238.9059791819087
 20
58.39177389066401
 10
198.8618208485753
 20
58.39177389066401
 10
198.8618208485753
 20
70.36046555733067
  0
LWPOLYLINE
  5
243
330
1D3
100
AcDbEntity
  8
LAYER_1
100
AcDbPolyline
 90
       32
 70
     1
 43
0.0
 10
241.9878458485753
 20
109.1067544462195
 10
236.0202569596864
 20
109.1067544462195
 10
236.0202569596864
 20
112.1071294462195
 10
233.0195291819086
 20
112.1071294462195
 10
233.0195291819086
 20
115.1078572239973
 10
229.8191291819086
 20
115.1078572239973
 10
229.8191291819086
 20
116.1083350017751
 10
229.8808652930197
 20
116.8904433351084
 10
230.0636041819086
 20
117.6535016684417
 10
230.3641708485753
 20
118.3784600017752
 10
230.7740986263531
 20
119.0476794462195
 10
231.2838625152419
 20
119.6442266684419
 10
231.8804097374642
 20
120.1539905573306
 10
232.5496291819086
 20
120.5639183351085
 10
233.2745875152419
 20
120.864485001775
 10
234.0376458485753
 20
121.0475766684417
 10
234.8201069596864
 20
121.1089600017752
 10
243.1999902930197
 20
121.1089600017752
 10
243.982098626353
 20
121.0475766684417
 10
244.7455097374641
 20
120.864485001775
 10
245.4704680707975
 20
120.5639183351085
 10
246.1396875152419
 20
120.1539905573306
 10
246.7362347374641
 20
119.6442266684419
 10
247.2459986263529
 20
119.0476794462195
 10
247.6559264041307
 20
118.3784600017752
 10
247.9561402930197
 20
117.6535016684417
 10
248.1395847374641
 20
116.8904433351084
 10
248.2009680707974
 20
116.1083350017751
 10
248.2009680707974
 20
115.1078572239973
 10
244.9882208485753
 20
115.1078572239973
 10
244.9882208485753
 20
112.1071294462195
 10
241.9878458485753
 20
112.1071294462195
  0
LWPOLYLINE
  5
244
330
1D3
100
AcDbEntity
  8
LAYER_1
100
AcDbPolyline
 90
       12
 70
     1
 43
0.0
 10
278.7843319596864
 20
78.38616000177511
 10
281.0509291819087
 20
78.38616000177511
 10
281.0509291819087
 20
81.38653500177511
 10
278.0502014041309
 20
81.38653500177511
 10
278.0502014041309
 20
84.38726277955288
 10
302.000637515242
 20
84.38726277955288
 10
302.000637515242
 20
81.38653500177511
 10
298.9999097374644
 20
81.38653500177511
 10
298.9999097374644
 20
78.38616000177511
 10
301.2665069596863
 20
78.38616000177511
 10
301.2665069596863
 20
64.84584333510844
 10
278.7843319596864
 20
64.84584333510844
  0
LWPOLYLINE
  5
245
330
1D3
100
AcDbEntity
  8
LAYER_1
100
AcDbPolyline
 90
        4
 70
     1
 43
0.0
 10
251.4183014041309
 20
114.8111711128862
 10
270.5942430707975
 20
114.8111711128862
 10
270.5942430707975
 20
94.75787111288623
 10
251.4183014041309
 20
94.75787111288623
  0
LWPOLYLINE
  5
246
330
1D3
100
AcDbEntity
  8
LAYER_1
100
AcDbPolyline
 90
       35
 70
     1
 43
0.0
 10
406.1721565569944
 20
138.6856480648502
 10
405.8765287792168
 20
139.2850175092945
 10
405.66168711255
 20
139.9182536204055
 10
405.53151211255
 20
140.5737147315168
 10
405.4877676681056
 20
141.2408175092946
 10
405.859948223661
 20
165.287561953739
 10
405.1483954458833
 20
166.0167536204056
 10
404.6587398903278
 20
166.6288230648501
 10
404.2985537792166
 20
167.3241480648501
 10
404.0812426681055
 20
168.0759175092946
 10
404.0159787792167
 20
168.8559091759612
 10
404.104526001439
 20
169.6330786204057
 10
404.3437093347722
 20
170.3781452870723
 10
404.7247093347722
 20
171.0625341759613
 10
405.2327093347722
 20
171.659786953739
 10
408.1477121125499
 20
174.4753063981834
 10
412.2812093347723
 20
174.4753063981834
 10
417.4882093347721
 20
169.0862730648501
 10
414.6106010014388
 20
166.306736953739
 10
410.4407676681056
 20
170.6226202870724
 10
408.2824732236611
 20
168.5380563981835
 10
413.2199510014389
 20
163.4277175092946
 10
413.2199510014389
 20
136.8593175092945
 10
413.1532760014388
 20
136.8148675092945
 10
412.5539065569943
 20
136.5192397315168
 10
411.9210232236611
 20
136.3043980648501
 10
411.2652093347722
 20
136.1738702870723
 10
410.5981065569944
 20
136.1304786204056
 10
409.9310037792167
 20
136.1738702870723
 10
409.2755426681056
 20
136.3043980648501
 10
408.6423065569944
 20
136.5192397315168
 10
408.0429371125499
 20
136.8148675092945
 10
407.4869593347722
 20
137.1863425092946
 10
406.9846037792165
 20
137.626961953739
 10
406.5436315569945
 20
138.1296702870724
  0
LWPOLYLINE
  5
247
330
1D3
100
AcDbEntity
  8
LAYER_1
100
AcDbPolyline
 90
       35
 70
     1
 43
0.0
 10
305.538998626353
 20
108.1401433351084
 10
305.538998626353
 20
98.38971833510846
 10
318.9921791819086
 20
98.38971833510846
 10
318.9921791819086
 20
90.02500444621956
 10
304.5783847374642
 20
90.02500444621956
 10
303.6396430707975
 20
90.0987350017751
 10
302.7241847374642
 20
90.31851555733066
 10
301.8538819596864
 20
90.67905444621956
 10
301.0509597374642
 20
91.17082666844178
 10
300.3351736263531
 20
91.78254333510844
 10
299.7234569596864
 20
92.49868222399733
 10
299.2313319596864
 20
93.30160444621956
 10
298.8707930707976
 20
94.17155444621956
 10
298.6513652930198
 20
95.08736555733065
 10
298.5772819596864
 20
96.02610722399735
 10
298.5772819596864
 20
102.1390405573306
 10
277.0370236263531
 20
102.1390405573306
 10
277.0370236263531
 20
105.8276850017751
 10
279.747062515242
 20
108.391673890664
 10
277.6850764041309
 20
110.5711350017751
 10
280.591612515242
 20
113.3206850017751
 10
282.6535986263531
 20
111.1408711128862
 10
282.6535986263531
 20
108.1401433351084
 10
284.6538486263531
 20
108.1401433351084
 10
284.6538486263531
 20
111.1408711128862
 10
289.6153152930199
 20
111.1408711128862
 10
289.6153152930199
 20
108.1401433351084
 10
291.6155652930198
 20
108.1401433351084
 10
291.6155652930198
 20
111.1408711128862
 10
296.5770319596864
 20
111.1408711128862
 10
296.5770319596864
 20
108.1401433351084
 10
298.5772819596864
 20
108.1401433351084
 10
298.5772819596864
 20
111.1408711128862
 10
303.5383958485753
 20
111.1408711128862
 10
303.5383958485753
 20
108.1401433351084
  0
LWPOLYLINE
  5
248
330
1D3
100
AcDbEntity
  8
LAYER_1
100
AcDbPolyline
 90
       51
 70
     1
 43
0.0
 10
339.0564152930197
 20
81.58479611288623
 10
335.0559152930197
 20
81.58479611288623
 10
334.2752180707975
 20
81.6617016684418
 10
333.5245069596865
 20
81.88924333510845
 10
332.8330625152419
 20
82.25895444621954
 10
332.226637515242
 20
82.75637111288622
 10
331.7292208485754
 20
83.36279611288622
 10
331.3595097374642
 20
84.05459333510846
 10
331.1316152930197
 20
84.80495166844178
 10
331.0550625152419
 20
85.58529611288623
 10
331.0550625152419
 20
88.58602389066399
 10
326.6033597374642
 20
88.58602389066399
 10
326.6033597374642
 20
112.5361072239973
 10
355.0968680707975
 20
112.5361072239973
 10
356.659673626353
 20
112.4338016684418
 10
358.1960208485754
 20
112.1282961128862
 10
359.6794514041309
 20
111.6245294462195
 10
361.084212515242
 20
110.9320266684417
 10
362.3866680707976
 20
110.061723890664
 10
363.5642402930198
 20
109.0287905573307
 10
364.597173626353
 20
107.8512183351084
 10
365.4674764041309
 20
106.5487627795529
 10
366.1603319596864
 20
105.1440016684418
 10
366.6637458485753
 20
103.6605711128862
 10
366.9692514041309
 20
102.124223890664
 10
367.0719097374643
 20
100.5614183351084
 10
366.9692514041309
 20
98.99826000177512
 10
366.6637458485753
 20
97.4619127795529
 10
366.1603319596864
 20
95.97848222399733
 10
365.4674764041309
 20
94.57372111288623
 10
364.597173626353
 20
93.27126555733066
 10
363.5642402930198
 20
92.09334055733066
 10
362.3866680707976
 20
91.06076000177512
 10
361.084212515242
 20
90.19045722399733
 10
361.084212515242
 20
85.58529611288623
 10
361.0076597374642
 20
84.80495166844178
 10
360.7797652930197
 20
84.05459333510846
 10
360.4100541819087
 20
83.36279611288622
 10
359.9126375152419
 20
82.75637111288622
 10
359.3062125152421
 20
82.25895444621954
 10
358.6147680707977
 20
81.88924333510845
 10
357.8640569596864
 20
81.6617016684418
 10
357.083712515242
 20
81.58479611288623
 10
353.0828597374642
 20
81.58479611288623
 10
353.0828597374642
 20
84.58552389066401
 10
356.0832347374642
 20
84.58552389066401
 10
356.0832347374642
 20
88.65093500177511
 10
355.0968680707975
 20
88.58602389066399
 10
336.0556875152419
 20
88.58602389066399
 10
336.0556875152419
 20
84.58552389066401
 10
339.0564152930197
 20
84.58552389066401
  0
LWPOLYLINE
  5
249
330
1D3
100
AcDbEntity
  8
LAYER_1
100
AcDbPolyline
 90
       34
 70
     1
 43
0.0
 10
270.8803458485753
 20
80.20508222399733
 10
270.8803458485753
 20
90.37919333510846
 10
248.7322514041309
 20
90.37919333510846
 10
248.7322514041309
 20
91.37931833510844
 10
248.6359430707976
 20
92.35510166844179
 10
248.3516041819087
 20
93.2931377795529
 10
247.8894652930198
 20
94.15779611288622
 10
247.2675180707976
 20
94.91556277955288
 10
246.5093986263531
 20
95.53751000177511
 10
245.6450930707976
 20
95.99964889066402
 10
244.7067041819087
 20
96.28434055733066
 10
243.7312736263531
 20
96.38029611288622
 10
233.7293180707976
 20
96.38029611288622
 10
232.7535347374642
 20
96.28434055733066
 10
231.8154986263531
 20
95.99964889066402
 10
230.9508402930198
 20
95.53751000177511
 10
230.1930736263531
 20
94.91556277955288
 10
229.5711264041309
 20
94.15779611288622
 10
229.108987515242
 20
93.2931377795529
 10
228.8242958485754
 20
92.35510166844179
 10
228.7283402930198
 20
91.37931833510844
 10
228.7283402930198
 20
90.37919333510846
 10
238.7302958485753
 20
90.37919333510846
 10
238.7302958485753
 20
87.37881833510844
 10
193.9804347374642
 20
87.37881833510844
 10
193.9804347374642
 20
80.20508222399733
 10
203.9823902930198
 20
80.20508222399733
 10
203.9823902930198
 20
77.20470722399733
 10
213.9843458485753
 20
77.20470722399733
 10
213.9843458485753
 20
80.20508222399733
 10
250.8764347374642
 20
80.20508222399733
 10
250.8764347374642
 20
77.20470722399733
 10
260.8783902930198
 20
77.20470722399733
 10
260.8783902930198
 20
80.20508222399733
  0
LWPOLYLINE
  5
24A
330
1D3
100
AcDbEntity
  8
LAYER_1
100
AcDbPolyline
 90
       50
 70
     1
 43
0.0
 10
56.27750973746424
 20
75.67365166844178
 10
56.27750973746424
 20
91.84921833510845
 10
66.27981807079757
 20
91.84921833510845
 10
66.27981807079757
 20
94.84959333510843
 10
76.28177362635312
 20
94.84959333510843
 10
76.28177362635312
 20
91.84921833510845
 10
119.8586486263531
 20
91.84921833510845
 10
119.8586486263531
 20
94.84959333510843
 10
129.8606041819087
 20
94.84959333510843
 10
129.8606041819087
 20
91.84921833510845
 10
166.7526930707976
 20
91.84921833510845
 10
166.7526930707976
 20
94.84959333510843
 10
176.7546486263531
 20
94.84959333510843
 10
176.7546486263531
 20
91.84921833510845
 10
186.7566041819087
 20
91.84921833510845
 10
186.7566041819087
 20
84.67548222399733
 10
147.0549930707976
 20
84.67548222399733
 10
147.0549930707976
 20
81.67510722399734
 10
157.0565958485753
 20
81.67510722399734
 10
157.0565958485753
 20
80.67462944621956
 10
156.9609930707975
 20
79.699198890664
 10
156.6759486263531
 20
78.7608100017751
 10
156.2138097374642
 20
77.89615166844177
 10
155.5922152930198
 20
77.1383850017751
 10
154.8340958485753
 20
76.51679055733066
 10
153.9697902930198
 20
76.054298890664
 10
153.0314014041309
 20
75.76960722399732
 10
152.0559708485753
 20
75.67365166844178
 10
142.0540152930198
 20
75.67365166844178
 10
141.0782319596864
 20
75.76960722399732
 10
140.1401958485753
 20
76.054298890664
 10
139.275537515242
 20
76.51679055733066
 10
138.5177708485753
 20
77.1383850017751
 10
137.8958236263531
 20
77.89615166844177
 10
137.4336847374642
 20
78.7608100017751
 10
137.1489930707975
 20
79.699198890664
 10
137.0526847374642
 20
80.67462944621956
 10
137.0526847374642
 20
84.67548222399733
 10
77.17289029301979
 20
84.67548222399733
 10
77.17289029301979
 20
81.67510722399734
 10
87.17484584857535
 20
81.67510722399734
 10
87.17484584857535
 20
80.67462944621956
 10
87.07853751524202
 20
79.699198890664
 10
86.79384584857535
 20
78.7608100017751
 10
86.33170695968647
 20
77.89615166844177
 10
85.70975973746426
 20
77.1383850017751
 10
84.95199307079756
 20
76.51679055733066
 10
84.08733473746423
 20
76.054298890664
 10
83.14929862635313
 20
75.76960722399732
 10
82.1735152930198
 20
75.67365166844178
  0
LWPOLYLINE
  5
24B
330
1D3
100
AcDbEntity
  8
LAYER_1
100
AcDbPolyline
 90
        4
 70
     1
 43
0.0
 10
91.60079584857536
 20
79.46812944621957
 10
127.3033180707975
 20
79.46812944621957
 10
127.3033180707975
 20
59.40283500177511
 10
91.60079584857536
 20
59.40283500177511
  0
LWPOLYLINE
  5
24C
330
1D3
100
AcDbEntity
  8
LAYER_1
100
AcDbPolyline
 90
       28
 70
     1
 43
0.0
 10
200.8917041819085
 20
120.3991711128862
 10
201.867487515242
 20
120.3028627795529
 10
202.8058764041307
 20
120.0185238906639
 10
203.6705347374641
 20
119.5563850017752
 10
204.4283014041309
 20
118.934437779553
 10
205.0502486263531
 20
118.1763183351085
 10
205.5120347374641
 20
117.3120127795529
 10
205.7967264041309
 20
116.373623890664
 10
205.8930347374641
 20
115.3978405573307
 10
205.8930347374641
 20
114.3980683351084
 10
201.8921819596864
 20
114.3980683351084
 10
201.8921819596864
 20
111.3973405573307
 10
198.8914541819086
 20
111.3973405573307
 10
198.8914541819086
 20
108.396612779553
 10
182.8273652930196
 20
108.396612779553
 10
182.8273652930196
 20
111.3973405573307
 10
179.8266375152419
 20
111.3973405573307
 10
179.8266375152419
 20
114.3980683351084
 10
175.8261375152419
 20
114.3980683351084
 10
175.8261375152419
 20
115.3978405573307
 10
175.9220930707974
 20
116.373623890664
 10
176.2064319596863
 20
117.3120127795529
 10
176.6685708485752
 20
118.1763183351085
 10
177.2905180707974
 20
118.934437779553
 10
178.0486375152419
 20
119.5563850017752
 10
178.9132958485752
 20
120.0185238906639
 10
179.8513319596864
 20
120.3028627795529
 10
180.8267625152418
 20
120.3991711128862
  0
LWPOLYLINE
  5
24D
330
1D3
100
AcDbEntity
  8
LAYER_1
100
AcDbPolyline
 90
       28
 70
     1
 43
0.0
 10
365.3962152930197
 20
125.1789572239973
 10
365.3962152930197
 20
122.1782294462195
 10
362.3958402930197
 20
122.1782294462195
 10
362.3958402930197
 20
118.1777294462196
 10
361.395362515242
 20
118.1777294462196
 10
360.4199319596864
 20
118.2736850017751
 10
359.4818958485752
 20
118.5583766684418
 10
358.6172375152419
 20
119.0205155573306
 10
357.8594708485754
 20
119.6424627795529
 10
357.2375236263531
 20
120.4002294462195
 10
356.7753847374642
 20
121.2648877795529
 10
356.4906930707975
 20
122.202923890664
 10
356.394737515242
 20
123.1787072239973
 10
356.394737515242
 20
156.8809794462195
 10
356.4906930707975
 20
157.8564100017751
 10
356.7753847374642
 20
158.794798890664
 10
357.2375236263531
 20
159.6594572239973
 10
357.8594708485754
 20
160.4172238906639
 10
358.6172375152419
 20
161.0388183351084
 10
359.4818958485752
 20
161.5013100017751
 10
360.4199319596864
 20
161.785648890664
 10
361.395362515242
 20
161.8816044462195
 10
362.3958402930197
 20
161.8816044462195
 10
362.3958402930197
 20
157.8811044462195
 10
365.3962152930197
 20
157.8811044462195
 10
365.3962152930197
 20
154.8807294462195
 10
368.3969430707975
 20
154.8807294462195
 10
368.3969430707975
 20
125.1789572239973
  0
LWPOLYLINE
  5
24E
330
1D3
100
AcDbEntity
  8
LAYER_1
100
AcDbPolyline
 90
        4
 70
     1
 43
0.0
 10
158.7834430707975
 20
57.7109127795529
 10
135.8976902930198
 20
57.7109127795529
 10
135.8976902930198
 20
71.00005166844178
 10
158.7834430707975
 20
71.00005166844178
  0
LWPOLYLINE
  5
24F
330
1D3
100
AcDbEntity
  8
LAYER_1
100
AcDbPolyline
 90
        8
 70
     1
 43
0.0
 10
400.0987343347722
 20
72.51123973151679
 10
400.0987343347722
 20
83.9539397315168
 10
406.9659065569943
 20
83.9539397315168
 10
406.9659065569943
 20
86.95431473151682
 10
400.0987343347722
 20
86.95431473151682
 10
400.0987343347722
 20
98.39736750929452
 10
415.0575704458833
 20
94.46953973151684
 10
415.0575704458833
 20
76.43906750929459
  0
LWPOLYLINE
  5
250
330
1D3
100
AcDbEntity
  8
LAYER_1
100
AcDbPolyline
 90
        7
 70
     1
 43
0.0
 10
353.8723764041309
 20
60.93071555733067
 10
339.1717736263532
 20
56.12517666844178
 10
339.1717736263532
 20
62.54326277955289
 10
343.1722736263532
 20
62.54326277955289
 10
343.1722736263532
 20
65.54363777955289
 10
339.1717736263532
 20
65.54363777955289
 10
339.1717736263532
 20
70.68784333510845
  0
LWPOLYLINE
  5
251
330
1D3
100
AcDbEntity
  8
LAYER_1
100
AcDbPolyline
 90
        7
 70
     1
 43
0.0
 10
356.1421486263532
 20
79.17109055733067
 10
370.8427514041309
 20
74.36555166844178
 10
356.1421486263532
 20
64.60842389066401
 10
356.1421486263532
 20
69.75262944621956
 10
360.1430014041309
 20
69.75262944621956
 10
360.1430014041309
 20
72.75335722399734
 10
356.1421486263532
 20
72.75335722399734
  0
LWPOLYLINE
  5
252
330
1D3
100
AcDbEntity
  8
HOLE
100
AcDbPolyline
 90
        4
 70
     1
 43
0.0
 10
60.11749584857535
 20
68.41630722399734
 10
60.11749584857535
 20
61.98763777955289
 10
74.11995140413091
 20
61.98763777955289
 10
74.11995140413091
 20
68.41630722399734
  0
LWPOLYLINE
  5
253
330
1D3
100
AcDbEntity
  8
HOLE
100
AcDbPolyline
 90
        4
 70
     1
 43
0.0
 10
124.3029430707975
 20
76.46740166844178
 10
94.60152362635312
 20
76.46740166844178
 10
94.60152362635312
 20
62.40356277955289
 10
124.3029430707975
 20
62.40356277955289
  0
LWPOLYLINE
  5
254
330
1D3
100
AcDbEntity
  8
HOLE
100
AcDbPolyline
 90
        4
 70
     1
 43
0.0
 10
144.8600097374642
 20
68.99944889066401
 10
144.8600097374642
 20
59.71116277955289
 10
149.8214764041309
 20
59.71116277955289
 10
149.8214764041309
 20
68.99944889066401
  0
LWPOLYLINE
  5
255
330
1D3
100
AcDbEntity
  8
HOLE
100
AcDbPolyline
 90
        4
 70
     1
 43
0.0
 10
137.8982930707975
 20
59.71116277955289
 10
142.8594069596864
 20
59.71116277955289
 10
142.8594069596864
 20
68.99944889066401
 10
137.8982930707975
 20
68.99944889066401
  0
LWPOLYLINE
  5
256
330
1D3
100
AcDbEntity
  8
HOLE
100
AcDbPolyline
 90
        4
 70
     1
 43
0.0
 10
151.8217264041309
 20
68.99944889066401
 10
151.8217264041309
 20
59.71116277955289
 10
156.7831930707975
 20
59.71116277955289
 10
156.7831930707975
 20
68.99944889066401
  0
LWPOLYLINE
  5
257
330
1D3
100
AcDbEntity
  8
HOLE
100
AcDbPolyline
 90
        4
 70
     1
 43
0.0
 10
180.7837236263531
 20
74.50313500177512
 10
175.8226097374642
 20
74.50313500177512
 10
175.8226097374642
 20
65.214848890664
 10
180.7837236263531
 20
65.214848890664
  0
LWPOLYLINE
  5
258
330
1D3
100
AcDbEntity
  8
HOLE
100
AcDbPolyline
 90
        4
 70
     1
 43
0.0
 10
168.8608930707976
 20
65.214848890664
 10
173.8223597374642
 20
65.214848890664
 10
173.8223597374642
 20
74.50313500177512
 10
168.8608930707976
 20
74.50313500177512
  0
LWPOLYLINE
  5
259
330
1D3
100
AcDbEntity
  8
HOLE
100
AcDbPolyline
 90
        4
 70
     1
 43
0.0
 10
187.7454402930198
 20
74.50313500177512
 10
182.7843264041309
 20
74.50313500177512
 10
182.7843264041309
 20
65.214848890664
 10
187.7454402930198
 20
65.214848890664
  0
LWPOLYLINE
  5
25A
330
1D3
100
AcDbEntity
  8
HOLE
100
AcDbPolyline
 90
        4
 70
     1
 43
0.0
 10
235.9052514041309
 20
67.36009055733067
 10
201.8621958485753
 20
67.36009055733067
 10
201.8621958485753
 20
61.39250166844178
 10
235.9052514041309
 20
61.39250166844178
  0
LWPOLYLINE
  5
25B
330
1D3
100
AcDbEntity
  8
HOLE
100
AcDbPolyline
 90
        4
 70
     1
 43
0.0
 10
256.6069569596864
 20
67.73015444621956
 10
256.6069569596864
 20
58.44186833510844
 10
261.5684236263531
 20
58.44186833510844
 10
261.5684236263531
 20
67.73015444621956
  0
LWPOLYLINE
  5
25C
330
1D3
100
AcDbEntity
  8
HOLE
100
AcDbPolyline
 90
        4
 70
     1
 43
0.0
 10
249.6452402930199
 20
58.44186833510844
 10
254.6067069596864
 20
58.44186833510844
 10
254.6067069596864
 20
67.73015444621956
 10
249.6452402930199
 20
67.73015444621956
  0
LWPOLYLINE
  5
25D
330
1D3
100
AcDbEntity
  8
HOLE
100
AcDbPolyline
 90
        4
 70
     1
 43
0.0
 10
263.5686736263531
 20
67.73015444621956
 10
263.5686736263531
 20
58.44186833510844
 10
268.529787515242
 20
58.44186833510844
 10
268.529787515242
 20
67.73015444621956
  0
LWPOLYLINE
  5
25E
330
1D3
100
AcDbEntity
  8
HOLE
100
AcDbPolyline
 90
       48
 70
     1
 43
0.0
 10
344.1593458485753
 20
105.3009877795529
 10
344.355137515242
 20
105.2879350017751
 10
344.5509291819087
 20
105.3009877795529
 10
344.7435458485754
 20
105.3390877795529
 10
344.9294597374642
 20
105.4022350017751
 10
345.1054958485754
 20
105.4890183351084
 10
345.2684791819087
 20
105.5980266684418
 10
345.4162930707975
 20
105.7274961128862
 10
345.5454097374642
 20
105.8749572239973
 10
345.6544180707975
 20
106.0382933351084
 10
345.741201404131
 20
106.2143294462196
 10
345.8043486263532
 20
106.3998905573306
 10
345.8428014041309
 20
106.5925072239973
 10
345.8555014041309
 20
106.788298890664
 10
345.8428014041309
 20
106.9840905573306
 10
345.8043486263532
 20
107.1767072239973
 10
345.741201404131
 20
107.3626211128862
 10
345.6544180707975
 20
107.5383044462195
 10
345.5454097374642
 20
107.7016405573306
 10
345.4162930707975
 20
107.8491016684418
 10
345.2684791819087
 20
107.9785711128862
 10
345.1054958485754
 20
108.0875794462195
 10
344.9294597374642
 20
108.1743627795529
 10
344.7435458485754
 20
108.2375100017751
 10
344.5509291819087
 20
108.2756100017751
 10
344.355137515242
 20
108.2886627795529
 10
344.1593458485753
 20
108.2756100017751
 10
343.9667291819087
 20
108.2375100017751
 10
343.7811680707976
 20
108.1743627795529
 10
343.6051319596864
 20
108.0875794462195
 10
343.4417958485753
 20
107.9785711128862
 10
343.2943347374642
 20
107.8491016684418
 10
343.1648652930197
 20
107.7016405573306
 10
343.0558569596864
 20
107.5383044462195
 10
342.969073626353
 20
107.3626211128862
 10
342.9059264041309
 20
107.1767072239973
 10
342.8678264041309
 20
106.9840905573306
 10
342.8551264041309
 20
106.788298890664
 10
342.8678264041309
 20
106.5925072239973
 10
342.9059264041309
 20
106.3998905573306
 10
342.969073626353
 20
106.2143294462196
 10
343.0558569596864
 20
106.0382933351084
 10
343.1648652930197
 20
105.8749572239973
 10
343.2943347374642
 20
105.7274961128862
 10
343.4417958485753
 20
105.5980266684418
 10
343.6051319596864
 20
105.4890183351084
 10
343.7811680707976
 20
105.4022350017751
 10
343.9667291819087
 20
105.3390877795529
  0
LWPOLYLINE
  5
25F
330
1D3
100
AcDbEntity
  8
HOLE
100
AcDbPolyline
 90
        4
 70
     1
 43
0.0
 10
254.4190291819086
 20
100.758973890664
 10
267.5935152930198
 20
100.758973890664
 10
267.5935152930198
 20
108.8114794462195
 10
254.4190291819086
 20
108.8114794462195
  0
LWPOLYLINE
  5
260
330
1D3
100
AcDbEntity
  8
HOLE
100
AcDbPolyline
 90
        4
 70
     1
 43
0.0
 10
399.3335593347723
 20
114.9927397315168
 10
408.6218454458832
 20
114.9927397315168
 10
408.6218454458832
 20
119.9538536204057
 10
399.3335593347723
 20
119.9538536204057
  0
LWPOLYLINE
  5
261
330
1D3
100
AcDbEntity
  8
HOLE
100
AcDbPolyline
 90
        4
 70
     1
 43
0.0
 10
408.6218454458832
 20
108.0310230648501
 10
408.6218454458832
 20
112.992136953739
 10
399.3335593347723
 20
112.992136953739
 10
399.3335593347723
 20
108.0310230648501
  0
LWPOLYLINE
  5
262
330
1D3
100
AcDbEntity
  8
HOLE
100
AcDbPolyline
 90
        4
 70
     1
 43
0.0
 10
399.3335593347723
 20
121.9544563981835
 10
408.6218454458832
 20
121.9544563981835
 10
408.6218454458832
 20
126.9159230648501
 10
399.3335593347723
 20
126.9159230648501
  0
LWPOLYLINE
  5
263
330
1D3
100
AcDbEntity
  8
HOLE
100
AcDbPolyline
 90
       48
 70
     1
 43
0.0
 10
412.6301065569944
 20
140.6964813981834
 10
412.6837287792166
 20
140.9660036204057
 10
412.7017204458833
 20
141.2408175092946
 10
412.6837287792166
 20
141.5152786204057
 10
412.6301065569944
 20
141.7851536204056
 10
412.5415593347723
 20
142.0458563981834
 10
412.4198510014387
 20
142.2924480648501
 10
412.2670982236611
 20
142.5214008426278
 10
412.0857704458833
 20
142.7284813981835
 10
411.8786898903278
 20
142.9098091759612
 10
411.6500898903278
 20
143.062561953739
 10
411.4031454458833
 20
143.1842702870723
 10
411.1427954458833
 20
143.2728175092945
 10
410.8725676681055
 20
143.3264397315168
 10
410.5981065569944
 20
143.3444313981835
 10
410.3236454458834
 20
143.3264397315168
 10
410.0537704458833
 20
143.2728175092945
 10
409.7930676681055
 20
143.1842702870723
 10
409.5464760014388
 20
143.062561953739
 10
409.317523223661
 20
142.9098091759612
 10
409.1107954458834
 20
142.7284813981835
 10
408.9294676681055
 20
142.5214008426278
 10
408.77636211255
 20
142.2924480648501
 10
408.6546537792167
 20
142.0458563981834
 10
408.5664593347722
 20
141.7851536204056
 10
408.5124843347722
 20
141.5152786204057
 10
408.4944926681055
 20
141.2408175092946
 10
408.5124843347722
 20
140.9660036204057
 10
408.5664593347722
 20
140.6964813981834
 10
408.6546537792167
 20
140.4357786204057
 10
408.77636211255
 20
140.189186953739
 10
408.9294676681055
 20
139.9602341759612
 10
409.1107954458834
 20
139.7531536204055
 10
409.317523223661
 20
139.5721786204057
 10
409.5464760014388
 20
139.41907306485
 10
409.7930676681055
 20
139.2973647315168
 10
410.0537704458833
 20
139.2088175092946
 10
410.3236454458834
 20
139.1551952870724
 10
410.5981065569944
 20
139.1372036204057
 10
410.8725676681055
 20
139.1551952870724
 10
411.1427954458833
 20
139.2088175092946
 10
411.4031454458833
 20
139.2973647315168
 10
411.6500898903278
 20
139.41907306485
 10
411.8786898903278
 20
139.5721786204057
 10
412.0857704458833
 20
139.7531536204055
 10
412.2670982236611
 20
139.9602341759612
 10
412.4198510014387
 20
140.189186953739
 10
412.5415593347723
 20
140.4357786204057
  0
LWPOLYLINE
  5
264
330
1D3
100
AcDbEntity
  8
HOLE
100
AcDbPolyline
 90
        4
 70
     1
 43
0.0
 10
386.5591232236611
 20
153.2458452870723
 10
389.5598510014388
 20
153.2458452870723
 10
389.5598510014388
 20
163.2478008426279
 10
386.5591232236611
 20
163.2478008426279
  0
LWPOLYLINE
  5
26E
330
1D3
100
AcDbEntity
  8
LAYER_1
100
AcDbPolyline
 90
        4
 70
     1
 43
0.0
 10
120.4125014943414
 20
146.421823432722
 10
120.4125014943414
 20
125.5486678771664
 10
81.40515704989695
 20
125.5486678771664
 10
81.40515704989695
 20
146.421823432722
  0
LWPOLYLINE
  5
26F
330
1D3
100
AcDbEntity
  8
LAYER_1
100
AcDbPolyline
 90
        4
 70
     1
 43
0.0
 10
119.5658348276747
 20
118.4821762104998
 10
119.5658348276747
 20
97.60866787716645
 10
80.55849038323026
 20
97.60866787716645
 10
80.55849038323026
 20
118.4821762104998
  0
LWPOLYLINE
  5
270
330
1D3
100
AcDbEntity
  8
LAYER_1
100
AcDbPolyline
 90
       35
 70
     1
 43
0.0
 10
55.61617582602264
 20
106.0339693028674
 10
55.61617582602264
 20
110.995435969534
 10
58.61690360380044
 20
110.995435969534
 10
58.61690360380044
 20
112.9960387473119
 10
55.61617582602264
 20
112.9960387473119
 10
55.61617582602264
 20
117.9571526362007
 10
58.61690360380044
 20
117.9571526362007
 10
58.61690360380044
 20
119.9574026362007
 10
55.61617582602264
 20
119.9574026362007
 10
55.61617582602264
 20
124.9188693028674
 10
58.61690360380044
 20
124.9188693028674
 10
58.61690360380044
 20
126.9191193028674
 10
68.36697582602266
 20
126.9191193028674
 10
68.36697582602266
 20
140.3726526362008
 10
76.73204249268931
 20
140.3726526362008
 10
76.73204249268931
 20
125.9588581917563
 10
76.65795915935598
 20
125.0201165250896
 10
76.43817860380043
 20
124.1043054139785
 10
76.0779924926893
 20
123.2343554139785
 10
75.58586749268932
 20
122.4314331917563
 10
74.97415082602265
 20
121.7152943028674
 10
74.25836471491152
 20
121.1035776362008
 10
73.45544249268932
 20
120.6114526362007
 10
72.58513971491152
 20
120.2512665250896
 10
71.66968138157824
 20
120.0314859695341
 10
70.73093971491153
 20
119.9574026362007
 10
64.6180063815782
 20
119.9574026362007
 10
64.6180063815782
 20
98.41714430286742
 10
60.92936193713376
 20
98.41714430286742
 10
58.36537304824486
 20
101.1271831917563
 10
56.18555915935599
 20
99.0651970806452
 10
53.43636193713376
 20
101.9717331917563
 10
55.61617582602264
 20
104.0337193028674
 10
58.61690360380044
 20
104.0337193028674
 10
58.61690360380044
 20
106.0339693028674
  0
LWPOLYLINE
  5
271
330
1D3
100
AcDbEntity
  8
HOLE
100
AcDbPolyline
 90
        4
 70
     1
 43
0.0
 10
117.4121264943413
 20
128.5490428771664
 10
117.4121264943413
 20
143.421448432722
 10
84.40588482767475
 20
143.421448432722
 10
84.40588482767475
 20
128.5490428771664
  0
LWPOLYLINE
  5
272
330
1D3
100
AcDbEntity
  8
HOLE
100
AcDbPolyline
 90
        4
 70
     1
 43
0.0
 10
116.5654598276747
 20
100.6090428771664
 10
116.5654598276747
 20
115.481448432722
 10
83.55921816100806
 20
115.481448432722
 10
83.55921816100806
 20
100.6090428771664
  0
ENDSEC
  0
SECTION
  2
OBJECTS
  0
DICTIONARY
  5
170
330
0
100
AcDbDictionary
281
     1
  3
ACAD_CIP_PREVIOUS_PRODUCT_INFO
350
1E1
  3
ACAD_COLOR
350
1C6
  3
ACAD_DETAILVIEWSTYLE
350
1CD
  3
ACAD_GROUP
350
171
  3
ACAD_LAYOUT
350
1C5
  3
ACAD_MATERIAL
350
174
  3
ACAD_MLEADERSTYLE
350
1C9
  3
ACAD_MLINESTYLE
350
1C2
  3
ACAD_PLOTSETTINGS
350
1C4
  3
ACAD_PLOTSTYLENAME
350
172
  3
ACAD_SCALELIST
350
1A6
  3
ACAD_SECTIONVIEWSTYLE
350
1CB
  3
ACAD_TABLESTYLE
350
1C7
  3
ACAD_VISUALSTYLE
350
18D
  3
ACDB_RECOMPOSE_DATA
350
2B7
  3
AcDbVariableDictionary
350
2AB
  0
DICTIONARY
  5
283
330
166
100
AcDbDictionary
280
     1
281
     1
  3
ACAD_LAYERSTATES
360
284
  0
DICTIONARY
  5
27A
330
1B8
100
AcDbDictionary
280
     1
281
     1
  3
ADSK_XREC_LAYER_RECONCILED
360
27B
  0
DICTIONARY
  5
27C
330
1D9
100
AcDbDictionary
280
     1
281
     1
  3
ADSK_XREC_LAYER_RECONCILED
360
27D
  0
DICTIONARY
  5
27E
330
1DA
100
AcDbDictionary
280
     1
281
     1
  3
ADSK_XREC_LAYER_RECONCILED
360
27F
  0
XRECORD
  5
1E1
102
{ACAD_REACTORS
330
170
102
}
330
170
100
AcDbXrecord
280
     1
300
ACDMAC
300
2021
300
ACDMAC_F_S
  0
DICTIONARY
  5
1C6
102
{ACAD_REACTORS
330
170
102
}
330
170
100
AcDbDictionary
281
     1
  0
DICTIONARY
  5
1CD
102
{ACAD_REACTORS
330
170
102
}
330
170
100
AcDbDictionary
281
     1
  3
Imperial24
350
1CE
  0
DICTIONARY
  5
171
102
{ACAD_REACTORS
330
170
102
}
330
170
100
AcDbDictionary
281
     1
  0
DICTIONARY
  5
1C5
102
{ACAD_REACTORS
330
170
102
}
330
170
100
AcDbDictionary
281
     1
  3
Layout1
350
1D2
  3
Model
350
1D6
  0
DICTIONARY
  5
174
102
{ACAD_REACTORS
330
170
102
}
330
170
100
AcDbDictionary
281
     1
  3
ByBlock
350
17D
  3
ByLayer
350
175
  3
Global
350
185
  0
DICTIONARY
  5
1C9
102
{ACAD_REACTORS
330
170
102
}
330
170
100
AcDbDictionary
281
     1
  3
Standard
350
1CA
  0
DICTIONARY
  5
1C2
102
{ACAD_REACTORS
330
170
102
}
330
170
100
AcDbDictionary
281
     1
  3
Standard
350
1C3
  0
DICTIONARY
  5
1C4
102
{ACAD_REACTORS
330
170
102
}
330
170
100
AcDbDictionary
281
     1
  0
ACDBDICTIONARYWDFLT
  5
172
102
{ACAD_REACTORS
330
170
102
}
330
170
100
AcDbDictionary
281
     1
  3
Normal
350
173
100
AcDbDictionaryWithDefault
340
173
  0
DICTIONARY
  5
1A6
102
{ACAD_REACTORS
330
170
102
}
330
170
100
AcDbDictionary
281
     1
  3
A0
350
1A7
  3
A1
350
1A8
  3
A2
350
1A9
  3
A3
350
1AA
  3
A4
350
1AB
  3
A5
350
1AC
  3
A6
350
1AD
  3
A7
350
1AE
  3
A8
350
1AF
  3
A9
350
1B0
  3
B0
350
1B1
  3
B1
350
1B2
  3
B2
350
1B3
  3
B3
350
1B4
  3
B4
350
1B5
  3
B5
350
1B6
  3
B6
350
1B7
  0
DICTIONARY
  5
1CB
102
{ACAD_REACTORS
330
170
102
}
330
170
100
AcDbDictionary
281
     1
  3
Imperial24
350
1CC
  0
DICTIONARY
  5
1C7
102
{ACAD_REACTORS
330
170
102
}
330
170
100
AcDbDictionary
281
     1
  3
Standard
350
1C8
  0
DICTIONARY
  5
18D
102
{ACAD_REACTORS
330
170
102
}
330
170
100
AcDbDictionary
281
     1
  3
2dWireframe
350
193
  3
Basic
350
192
  3
Brighten
350
199
  3
ColorChange
350
19D
  3
Conceptual
350
196
  3
Dim
350
198
  3
EdgeColorOff
350
1A5
  3
Facepattern
350
19C
  3
Flat
350
18E
  3
FlatWithEdges
350
18F
  3
Gouraud
350
190
  3
GouraudWithEdges
350
191
  3
Hidden
350
195
  3
JitterOff
350
1A3
  3
Linepattern
350
19B
  3
OverhangOff
350
1A4
  3
Realistic
350
197
  3
Shaded
350
1A2
  3
Shaded with edges
350
1A1
  3
Shades of Gray
350
19E
  3
Sketchy
350
19F
  3
Thicken
350
19A
  3
Wireframe
350
194
  3
X-Ray
350
1A0
  0
XRECORD
  5
2B7
102
{ACAD_REACTORS
330
170
102
}
330
170
100
AcDbXrecord
280
     1
 90
        1
330
1C8
  0
DICTIONARY
  5
2AB
102
{ACAD_REACTORS
330
170
102
}
330
170
100
AcDbDictionary
281
     1
  3
CANNOSCALE
350
2B1
  3
CMLEADERSTYLE
350
2AD
  3
CTABLESTYLE
350
2AC
  3
CVIEWDETAILSTYLE
350
2AE
  3
CVIEWSECTIONSTYLE
350
2AF
  3
LAYEREVAL
350
2B3
  3
LAYERNOTIFY
350
2B4
  3
LIGHTINGUNITS
350
2B2
  3
MSLTSCALE
350
2B0
  0
DICTIONARY
  5
284
102
{ACAD_REACTORS
330
283
102
}
330
283
100
AcDbDictionary
281
     1
  0
XRECORD
  5
27B
102
{ACAD_REACTORS
330
27A
102
}
330
27A
100
AcDbXrecord
280
     1
290
     1
  0
XRECORD
  5
27D
102
{ACAD_REACTORS
330
27C
102
}
330
27C
100
AcDbXrecord
280
     1
290
     1
  0
XRECORD
  5
27F
102
{ACAD_REACTORS
330
27E
102
}
330
27E
100
AcDbXrecord
280
     1
290
     1
  0
ACDBDETAILVIEWSTYLE
  5
1CE
102
{ACAD_REACTORS
330
1CD
102
}
330
1CD
100
AcDbModelDocViewStyle
 70
     0
  3
Imperial24
290
     0
300
Imperial24
 90
        0
100
AcDbDetailViewStyle
 70
     0
 71
     0
 90
        3
 71
     1
340
1B9
 62
   256
 40
0.24
340
0
 62
   256
 40
0.24
300

 40
0.36
280
     3
 71
     2
340
1C0
 90
       25
 62
   256
 71
     3
340
1B9
 62
   256
 40
0.24
 90
        1
 40
0.75
 90
        1
300
%<\AcVar ViewType \f "%tc1">% %<\AcVar ViewDetailId>%\PSCALE %<\AcVar ViewScale \f "%sn">%
 71
     4
340
1C0
 90
       25
 62
   256
340
1C0
 90
       25
 62
   256
280
     0
  0
LAYOUT
  5
1D2
102
{ACAD_REACTORS
330
1C5
102
}
330
1C5
100
AcDbPlotSettings
  1

  2

  4

  6

 40
0.0
 41
0.0
 42
0.0
 43
0.0
 44
0.0
 45
0.0
 46
0.0
 47
0.0
 48
0.0
 49
0.0
140
0.0
141
0.0
142
1.0
143
1.0
 70
   688
 72
     0
 73
     0
 74
     5
  7

 75
    16
147
1.0
 76
     0
 77
     2
 78
   300
148
0.0
149
0.0
100
AcDbLayout
  1
Layout1
 70
     1
 71
     1
 10
0.0
 20
0.0
 11
12.0
 21
9.0
 12
0.0
 22
0.0
 32
0.0
 14
1.000000000000000E+20
 24
1.000000000000000E+20
 34
1.000000000000000E+20
 15
-1.000000000000000E+20
 25
-1.000000000000000E+20
 35
-1.000000000000000E+20
146
0.0
 13
0.0
 23
0.0
 33
0.0
 16
1.0
 26
0.0
 36
0.0
 17
0.0
 27
1.0
 37
0.0
 76
     0
330
1CF
  0
LAYOUT
  5
1D6
102
{ACAD_REACTORS
330
1C5
102
}
330
1C5
100
AcDbPlotSettings
  1

  2

  4

  6

 40
0.0
 41
0.0
 42
0.0
 43
0.0
 44
0.0
 45
0.0
 46
0.0
 47
0.0
 48
0.0
 49
0.0
140
0.0
141
0.0
142
1.0
143
1.0
 70
  1712
 72
     0
 73
     0
 74
     0
  7

 75
     0
147
1.0
 76
     0
 77
     2
 78
   300
148
0.0
149
0.0
100
AcDbLayout
  1
Model
 70
     1
 71
     0
 10
0.0
 20
0.0
 11
12.0
 21
9.0
 12
0.0
 22
0.0
 32
0.0
 14
0.0
 24
0.0
 34
0.0
 15
0.0
 25
0.0
 35
0.0
146
0.0
 13
0.0
 23
0.0
 33
0.0
 16
1.0
 26
0.0
 36
0.0
 17
0.0
 27
1.0
 37
0.0
 76
     0
330
1D3
331
1D7
  0
MATERIAL
  5
17D
102
{ACAD_XDICTIONARY
360
17E
102
}
102
{ACAD_REACTORS
330
174
102
}
330
174
100
AcDbMaterial
  1
ByBlock
 72
     0
 43
0.0208333333333333
 43
0.0
 43
0.0
 43
0.0
 43
0.0
 43
0.0208333333333333
 43
0.0
 43
0.0
 43
0.0
 43
0.0
 43
1.0
 43
0.0
 43
0.0
 43
0.0
 43
0.0
 43
1.0
 77
     0
 47
0.0208333333333333
 47
0.0
 47
0.0
 47
0.0
 47
0.0
 47
0.0208333333333333
 47
0.0
 47
0.0
 47
0.0
 47
0.0
 47
1.0
 47
0.0
 47
0.0
 47
0.0
 47
0.0
 47
1.0
171
     0
 49
0.0208333333333333
 49
0.0
 49
0.0
 49
0.0
 49
0.0
 49
0.0208333333333333
 49
0.0
 49
0.0
 49
0.0
 49
0.0
 49
1.0
 49
0.0
 49
0.0
 49
0.0
 49
0.0
 49
1.0
175
     0
142
0.0208333333333333
142
0.0
142
0.0
142
0.0
142
0.0
142
0.0208333333333333
142
0.0
142
0.0
142
0.0
142
0.0
142
1.0
142
0.0
142
0.0
142
0.0
142
0.0
142
1.0
179
     0
144
0.0208333333333333
144
0.0
144
0.0
144
0.0
144
0.0
144
0.0208333333333333
144
0.0
144
0.0
144
0.0
144
0.0
144
1.0
144
0.0
144
0.0
144
0.0
144
0.0
144
1.0
147
0.0208333333333333
147
0.0
147
0.0
147
0.0
147
0.0
147
0.0208333333333333
147
0.0
147
0.0
147
0.0
147
0.0
147
1.0
147
0.0
147
0.0
147
0.0
147
0.0
147
1.0
  0
MATERIAL
  5
175
102
{ACAD_XDICTIONARY
360
176
102
}
102
{ACAD_REACTORS
330
174
102
}
330
174
100
AcDbMaterial
  1
ByLayer
 72
     0
 43
0.0208333333333333
 43
0.0
 43
0.0
 43
0.0
 43
0.0
 43
0.0208333333333333
 43
0.0
 43
0.0
 43
0.0
 43
0.0
 43
1.0
 43
0.0
 43
0.0
 43
0.0
 43
0.0
 43
1.0
 77
     0
 47
0.0208333333333333
 47
0.0
 47
0.0
 47
0.0
 47
0.0
 47
0.0208333333333333
 47
0.0
 47
0.0
 47
0.0
 47
0.0
 47
1.0
 47
0.0
 47
0.0
 47
0.0
 47
0.0
 47
1.0
171
     0
 49
0.0208333333333333
 49
0.0
 49
0.0
 49
0.0
 49
0.0
 49
0.0208333333333333
 49
0.0
 49
0.0
 49
0.0
 49
0.0
 49
1.0
 49
0.0
 49
0.0
 49
0.0
 49
0.0
 49
1.0
175
     0
142
0.0208333333333333
142
0.0
142
0.0
142
0.0
142
0.0
142
0.0208333333333333
142
0.0
142
0.0
142
0.0
142
0.0
142
1.0
142
0.0
142
0.0
142
0.0
142
0.0
142
1.0
179
     0
144
0.0208333333333333
144
0.0
144
0.0
144
0.0
144
0.0
144
0.0208333333333333
144
0.0
144
0.0
144
0.0
144
0.0
144
1.0
144
0.0
144
0.0
144
0.0
144
0.0
144
1.0
147
0.0208333333333333
147
0.0
147
0.0
147
0.0
147
0.0
147
0.0208333333333333
147
0.0
147
0.0
147
0.0
147
0.0
147
1.0
147
0.0
147
0.0
147
0.0
147
0.0
147
1.0
  0
MATERIAL
  5
185
102
{ACAD_XDICTIONARY
360
186
102
}
102
{ACAD_REACTORS
330
174
102
}
330
174
100
AcDbMaterial
  1
Global
 72
     0
 43
0.0208333333333333
 43
0.0
 43
0.0
 43
0.0
 43
0.0
 43
0.0208333333333333
 43
0.0
 43
0.0
 43
0.0
 43
0.0
 43
1.0
 43
0.0
 43
0.0
 43
0.0
 43
0.0
 43
1.0
 77
     0
 47
0.0208333333333333
 47
0.0
 47
0.0
 47
0.0
 47
0.0
 47
0.0208333333333333
 47
0.0
 47
0.0
 47
0.0
 47
0.0
 47
1.0
 47
0.0
 47
0.0
 47
0.0
 47
0.0
 47
1.0
171
     0
 49
0.0208333333333333
 49
0.0
 49
0.0
 49
0.0
 49
0.0
 49
0.0208333333333333
 49
0.0
 49
0.0
 49
0.0
 49
0.0
 49
1.0
 49
0.0
 49
0.0
 49
0.0
 49
0.0
 49
1.0
175
     0
142
0.0208333333333333
142
0.0
142
0.0
142
0.0
142
0.0
142
0.0208333333333333
142
0.0
142
0.0
142
0.0
142
0.0
142
1.0
142
0.0
142
0.0
142
0.0
142
0.0
142
1.0
179
     0
144
0.0208333333333333
144
0.0
144
0.0
144
0.0
144
0.0
144
0.0208333333333333
144
0.0
144
0.0
144
0.0
144
0.0
144
1.0
144
0.0
144
0.0
144
0.0
144
0.0
144
1.0
147
0.0208333333333333
147
0.0
147
0.0
147
0.0
147
0.0
147
0.0208333333333333
147
0.0
147
0.0
147
0.0
147
0.0
147
1.0
147
0.0
147
0.0
147
0.0
147
0.0
147
1.0
  0
MLEADERSTYLE
  5
1CA
102
{ACAD_REACTORS
330
1C9
102
}
330
1C9
100
AcDbMLeaderStyle
179
     2
170
     2
171
     1
172
     0
 90
        2
 40
0.0
 41
0.0
173
     1
 91
-1056964608
340
1BE
 92
       -2
290
     1
 42
0.09
291
     1
 43
0.36
  3
Standard
 44
0.18
300

342
1B9
174
     1
178
     6
175
     1
176
     0
 93
-1056964608
 45
0.18
292
     0
297
     0
 46
0.18
 94
-1056964608
 47
1.0
 49
1.0
140
1.0
293
     1
141
0.0
294
     1
177
     0
142
1.0
295
     0
296
     0
143
0.125
271
     0
272
     9
273
     9
298
     0
  0
MLINESTYLE
  5
1C3
102
{ACAD_REACTORS
330
1C2
102
}
330
1C2
100
AcDbMlineStyle
  2
STANDARD
 70
     0
  3

 62
   256
 51
90.0
 52
90.0
 71
     2
 49
0.5
 62
   256
  6
BYLAYER
 49
-0.5
 62
   256
  6
BYLAYER
  0
ACDBPLACEHOLDER
  5
173
102
{ACAD_REACTORS
330
172
102
}
330
172
  0
SCALE
  5
1A7
102
{ACAD_REACTORS
330
1A6
102
}
330
1A6
100
AcDbScale
 70
     0
300
1:1
140
1.0
141
1.0
290
     1
  0
SCALE
  5
1A8
102
{ACAD_REACTORS
330
1A6
102
}
330
1A6
100
AcDbScale
 70
     0
300
1/128" = 1'-0"
140
0.0078125
141
12.0
290
     0
  0
SCALE
  5
1A9
102
{ACAD_REACTORS
330
1A6
102
}
330
1A6
100
AcDbScale
 70
     0
300
1/64" = 1'-0"
140
0.015625
141
12.0
290
     0
  0
SCALE
  5
1AA
102
{ACAD_REACTORS
330
1A6
102
}
330
1A6
100
AcDbScale
 70
     0
300
1/32" = 1'-0"
140
0.03125
141
12.0
290
     0
  0
SCALE
  5
1AB
102
{ACAD_REACTORS
330
1A6
102
}
330
1A6
100
AcDbScale
 70
     0
300
1/16" = 1'-0"
140
0.0625
141
12.0
290
     0
  0
SCALE
  5
1AC
102
{ACAD_REACTORS
330
1A6
102
}
330
1A6
100
AcDbScale
 70
     0
300
3/32" = 1'-0"
140
0.09375
141
12.0
290
     0
  0
SCALE
  5
1AD
102
{ACAD_REACTORS
330
1A6
102
}
330
1A6
100
AcDbScale
 70
     0
300
1/8" = 1'-0"
140
0.125
141
12.0
290
     0
  0
SCALE
  5
1AE
102
{ACAD_REACTORS
330
1A6
102
}
330
1A6
100
AcDbScale
 70
     0
300
3/16" = 1'-0"
140
0.1875
141
12.0
290
     0
  0
SCALE
  5
1AF
102
{ACAD_REACTORS
330
1A6
102
}
330
1A6
100
AcDbScale
 70
     0
300
1/4" = 1'-0"
140
0.25
141
12.0
290
     0
  0
SCALE
  5
1B0
102
{ACAD_REACTORS
330
1A6
102
}
330
1A6
100
AcDbScale
 70
     0
300
3/8" = 1'-0"
140
0.375
141
12.0
290
     0
  0
SCALE
  5
1B1
102
{ACAD_REACTORS
330
1A6
102
}
330
1A6
100
AcDbScale
 70
     0
300
1/2" = 1'-0"
140
0.5
141
12.0
290
     0
  0
SCALE
  5
1B2
102
{ACAD_REACTORS
330
1A6
102
}
330
1A6
100
AcDbScale
 70
     0
300
3/4" = 1'-0"
140
0.75
141
12.0
290
     0
  0
SCALE
  5
1B3
102
{ACAD_REACTORS
330
1A6
102
}
330
1A6
100
AcDbScale
 70
     0
300
1" = 1'-0"
140
1.0
141
12.0
290
     0
  0
SCALE
  5
1B4
102
{ACAD_REACTORS
330
1A6
102
}
330
1A6
100
AcDbScale
 70
     0
300
1-1/2" = 1'-0"
140
1.5
141
12.0
290
     0
  0
SCALE
  5
1B5
102
{ACAD_REACTORS
330
1A6
102
}
330
1A6
100
AcDbScale
 70
     0
300
3" = 1'-0"
140
3.0
141
12.0
290
     0
  0
SCALE
  5
1B6
102
{ACAD_REACTORS
330
1A6
102
}
330
1A6
100
AcDbScale
 70
     0
300
6" = 1'-0"
140
6.0
141
12.0
290
     0
  0
SCALE
  5
1B7
102
{ACAD_REACTORS
330
1A6
102
}
330
1A6
100
AcDbScale
 70
     0
300
1'-0" = 1'-0"
140
12.0
141
12.0
290
     0
  0
ACDBSECTIONVIEWSTYLE
  5
1CC
102
{ACAD_REACTORS
330
1CB
102
}
330
1CB
100
AcDbModelDocViewStyle
 70
     0
  3
Imperial24
290
     0
300
Imperial24
 90
        0
100
AcDbSectionViewStyle
 70
     0
 71
     0
 90
       78
 71
     1
340
1B9
 62
   256
 40
0.24
340
0
340
0
 62
   256
 40
0.24
300
I, O, Q, S, X, Z
 40
0.48
 90
        3
 40
0.18
 90
        1
 71
     2
340
1C0
 90
       25
 62
   256
340
1C0
 90
       50
 62
   256
 40
0.24
 40
0.0
 40
0.24
 71
     3
340
1B9
 62
   256
 40
0.24
 90
        1
 40
0.75
 90
        1
300
%<\AcVar ViewType \f "%tc1">% %<\AcVar ViewSectionStartId>%-%<\AcVar ViewSectionEndId>%\PSCALE %<\AcVar ViewScale \f "%sn">%
 71
     4
 62
   256
 62
   257
300
ANSI31
 40
1.0
 90
        0
290
     0
290
     0
 90
        6
 40
0.0
 40
1.570796326794896
 40
0.2617993877991494
 40
1.308996938995747
 40
-0.2617993877991494
 40
1.832595714594046
  0
TABLESTYLE
  5
1C8
102
{ACAD_XDICTIONARY
360
2B5
102
}
102
{ACAD_REACTORS
330
1C7
102
}
330
1C7
100
AcDbTableStyle
280
     0
  3
Standard
 70
     0
 71
     0
 40
0.06
 41
0.06
280
     0
281
     0
  7
STANDARD
140
0.18
170
     2
 62
     0
 63
     7
283
     0
 90
      512
 91
        0
  1

274
    -2
284
     1
 64
     0
275
    -2
285
     1
 65
     0
276
    -2
286
     1
 66
     0
277
    -2
287
     1
 67
     0
278
    -2
288
     1
 68
     0
279
    -2
289
     1
 69
     0
  7
STANDARD
140
0.25
170
     5
 62
     0
 63
     7
283
     0
 90
      512
 91
        0
  1

274
    -2
284
     1
 64
     0
275
    -2
285
     1
 65
     0
276
    -2
286
     1
 66
     0
277
    -2
287
     1
 67
     0
278
    -2
288
     1
 68
     0
279
    -2
289
     1
 69
     0
  7
STANDARD
140
0.18
170
     5
 62
     0
 63
     7
283
     0
 90
      512
 91
        0
  1

274
    -2
284
     1
 64
     0
275
    -2
285
     1
 65
     0
276
    -2
286
     1
 66
     0
277
    -2
287
     1
 67
     0
278
    -2
288
     1
 68
     0
279
    -2
289
     1
 69
     0
  0
VISUALSTYLE
  5
193
102
{ACAD_REACTORS
330
18D
102
}
330
18D
100
AcDbVisualStyle
  2
2dWireframe
 70
     4
177
     3
291
     0
 70
    58
 90
        0
176
     1
 90
        2
176
     1
 90
        0
176
     1
 90
        0
176
     1
 40
0.6
176
     1
 40
30.0
176
     1
 62
     7
420
 16777215
176
     1
 90
        1
176
     1
 90
        4
176
     1
 62
     7
176
     1
 62
   257
176
     1
 90
        1
176
     1
 90
        1
176
     1
 40
1.0
176
     1
 90
        0
176
     1
 62
   257
176
     1
 40
1.0
176
     1
 90
        1
176
     1
 90
        6
176
     1
 90
        2
176
     1
 62
     7
176
     1
 90
        5
176
     1
 90
        0
176
     1
 90
        0
176
     1
290
     0
176
     1
 90
        1
176
     1
 40
0.0
176
     1
 90
        0
176
     1
290
     1
176
     1
290
     1
176
     1
290
     0
176
     1
290
     0
176
     1
290
     0
176
     1
290
     0
176
     1
290
     0
176
     1
290
     0
176
     1
290
     0
176
     1
 90
       50
176
     1
 40
0.0
176
     1
 40
1.0
176
     1
 90
        0
176
     1
 62
    18
420
        0
176
     1
 90
       50
176
     1
 90
        3
176
     1
 62
     5
420
      255
176
     1
290
     0
176
     1
 90
       50
176
     1
 90
       50
176
     1
 90
       50
176
     1
290
     0
176
     1
 90
       50
176
     1
 62
   256
176
     0
 40
1.0
176
     0
 90
        2
176
     1
  1
strokes_ogs.tif
176
     1
290
     0
176
     1
 40
1.0
176
     1
 40
1.0
176
     1
  0
VISUALSTYLE
  5
192
102
{ACAD_REACTORS
330
18D
102
}
330
18D
100
AcDbVisualStyle
  2
Basic
 70
     7
177
     3
291
     1
 70
    58
 90
        1
176
     1
 90
        0
176
     1
 90
        1
176
     1
 90
        0
176
     1
 40
0.6
176
     1
 40
30.0
176
     1
 62
     7
420
 16777215
176
     1
 90
        0
176
     1
 90
        4
176
     1
 62
     7
176
     1
 62
   257
176
     1
 90
        1
176
     1
 90
        1
176
     1
 40
1.0
176
     1
 90
        8
176
     1
 62
     7
176
     1
 40
1.0
176
     1
 90
        1
176
     1
 90
        6
176
     1
 90
        2
176
     1
 62
     7
176
     1
 90
        5
176
     1
 90
        0
176
     1
 90
        0
176
     1
290
     0
176
     1
 90
        1
176
     1
 40
0.0
176
     1
 90
        0
176
     1
290
     0
176
     1
290
     1
176
     1
290
     1
176
     1
290
     0
176
     1
290
     0
176
     1
290
     0
176
     1
290
     0
176
     1
290
     0
176
     1
290
     0
176
     1
 90
       50
176
     1
 40
0.0
176
     1
 40
1.0
176
     1
 90
        0
176
     1
 62
    18
420
        0
176
     1
 90
       50
176
     1
 90
        3
176
     1
 62
     5
420
      255
176
     1
290
     0
176
     1
 90
       50
176
     1
 90
       50
176
     1
 90
       50
176
     1
290
     0
176
     1
 90
       50
176
     1
 62
   256
176
     0
 40
1.0
176
     0
 90
        2
176
     1
  1
strokes_ogs.tif
176
     1
290
     0
176
     1
 40
1.0
176
     1
 40
1.0
176
     1
  0
VISUALSTYLE
  5
199
102
{ACAD_REACTORS
330
18D
102
}
330
18D
100
AcDbVisualStyle
  2
Brighten
 70
    12
177
     3
291
     1
 70
    58
 90
        2
176
     1
 90
        2
176
     1
 90
        0
176
     1
 90
        0
176
     1
 40
0.6
176
     1
 40
30.0
176
     1
 62
     7
420
 16777215
176
     1
 90
        1
176
     1
 90
        4
176
     1
 62
     7
176
     1
 62
   257
176
     1
 90
        1
176
     1
 90
        1
176
     1
 40
1.0
176
     1
 90
        8
176
     1
 62
     7
176
     1
 40
1.0
176
     1
 90
        1
176
     1
 90
        6
176
     1
 90
        2
176
     1
 62
     7
176
     1
 90
        5
176
     1
 90
        0
176
     1
 90
        0
176
     1
290
     0
176
     1
 90
        1
176
     1
 40
50.0
176
     1
 90
        0
176
     1
290
     0
176
     1
290
     1
176
     1
290
     1
176
     1
290
     0
176
     1
290
     0
176
     1
290
     0
176
     1
290
     0
176
     1
290
     0
176
     1
290
     0
176
     1
 90
       50
176
     1
 40
0.0
176
     1
 40
1.0
176
     1
 90
        0
176
     1
 62
    18
420
        0
176
     1
 90
       50
176
     1
 90
        3
176
     1
 62
     5
420
      255
176
     1
290
     0
176
     1
 90
       50
176
     1
 90
       50
176
     1
 90
       50
176
     1
290
     0
176
     1
 90
       50
176
     1
 62
   256
176
     0
 40
1.0
176
     0
 90
        2
176
     1
  1
strokes_ogs.tif
176
     1
290
     0
176
     1
 40
1.0
176
     1
 40
1.0
176
     1
  0
VISUALSTYLE
  5
19D
102
{ACAD_REACTORS
330
18D
102
}
330
18D
100
AcDbVisualStyle
  2
ColorChange
 70
    16
177
     3
291
     1
 70
    58
 90
        2
176
     1
 90
        2
176
     1
 90
        3
176
     1
 90
        0
176
     1
 40
0.6
176
     1
 40
30.0
176
     1
 62
     8
420
  8421504
176
     1
 90
        1
176
     1
 90
        4
176
     1
 62
     7
176
     1
 62
   257
176
     1
 90
        1
176
     1
 90
        1
176
     1
 40
1.0
176
     1
 90
        8
176
     1
 62
     8
420
  8421504
176
     1
 40
1.0
176
     1
 90
        1
176
     1
 90
        6
176
     1
 90
        2
176
     1
 62
     7
176
     1
 90
        5
176
     1
 90
        0
176
     1
 90
        0
176
     1
290
     0
176
     1
 90
        1
176
     1
 40
0.0
176
     1
 90
        0
176
     1
290
     0
176
     1
290
     1
176
     1
290
     1
176
     1
290
     0
176
     1
290
     0
176
     1
290
     0
176
     1
290
     0
176
     1
290
     0
176
     1
290
     0
176
     1
 90
       50
176
     1
 40
0.0
176
     1
 40
1.0
176
     1
 90
        0
176
     1
 62
    18
420
        0
176
     1
 90
       50
176
     1
 90
        3
176
     1
 62
     5
420
      255
176
     1
290
     0
176
     1
 90
       50
176
     1
 90
       50
176
     1
 90
       50
176
     1
290
     0
176
     1
 90
       50
176
     1
 62
   256
176
     0
 40
1.0
176
     0
 90
        2
176
     1
  1
strokes_ogs.tif
176
     1
290
     0
176
     1
 40
1.0
176
     1
 40
1.0
176
     1
  0
VISUALSTYLE
  5
196
102
{ACAD_REACTORS
330
18D
102
}
330
18D
100
AcDbVisualStyle
  2
Conceptual
 70
     9
177
     3
291
     0
 70
    58
 90
        3
176
     1
 90
        2
176
     1
 90
        0
176
     1
 90
        0
176
     1
 40
0.6
176
     1
 40
30.0
176
     1
 62
     7
420
 16777215
176
     1
 90
        2
176
     1
 90
        2
176
     1
 62
     7
176
     1
 62
   257
176
     1
 90
        1
176
     1
 90
        1
176
     1
 40
179.0
176
     1
 90
        8
176
     1
 62
     7
176
     1
 40
1.0
176
     1
 90
        1
176
     1
 90
        6
176
     1
 90
        2
176
     1
 62
     7
176
     1
 90
        3
176
     1
 90
        0
176
     1
 90
        0
176
     1
290
     0
176
     1
 90
        1
176
     1
 40
0.0
176
     1
 90
        0
176
     1
290
     0
176
     1
290
     1
176
     1
290
     1
176
     1
290
     0
176
     1
290
     0
176
     1
290
     0
176
     1
290
     0
176
     1
290
     0
176
     1
290
     0
176
     1
 90
       50
176
     1
 40
0.0
176
     1
 40
1.0
176
     1
 90
        0
176
     1
 62
    18
420
        0
176
     1
 90
       50
176
     1
 90
        3
176
     1
 62
     5
420
      255
176
     1
290
     0
176
     1
 90
       50
176
     1
 90
       50
176
     1
 90
       50
176
     1
290
     0
176
     1
 90
       50
176
     1
 62
   256
176
     0
 40
1.0
176
     0
 90
        2
176
     1
  1
strokes_ogs.tif
176
     1
290
     0
176
     1
 40
1.0
176
     1
 40
1.0
176
     1
  0
VISUALSTYLE
  5
198
102
{ACAD_REACTORS
330
18D
102
}
330
18D
100
AcDbVisualStyle
  2
Dim
 70
    11
177
     3
291
     1
 70
    58
 90
        2
176
     1
 90
        2
176
     1
 90
        0
176
     1
 90
        0
176
     1
 40
0.6
176
     1
 40
30.0
176
     1
 62
     7
420
 16777215
176
     1
 90
        1
176
     1
 90
        4
176
     1
 62
     7
176
     1
 62
   257
176
     1
 90
        1
176
     1
 90
        1
176
     1
 40
1.0
176
     1
 90
        8
176
     1
 62
     7
176
     1
 40
1.0
176
     1
 90
        1
176
     1
 90
        6
176
     1
 90
        2
176
     1
 62
     7
176
     1
 90
        5
176
     1
 90
        0
176
     1
 90
        0
176
     1
290
     0
176
     1
 90
        1
176
     1
 40
-50.0
176
     1
 90
        0
176
     1
290
     0
176
     1
290
     1
176
     1
290
     1
176
     1
290
     0
176
     1
290
     0
176
     1
290
     0
176
     1
290
     0
176
     1
290
     0
176
     1
290
     0
176
     1
 90
       50
176
     1
 40
0.0
176
     1
 40
1.0
176
     1
 90
        0
176
     1
 62
    18
420
        0
176
     1
 90
       50
176
     1
 90
        3
176
     1
 62
     5
420
      255
176
     1
290
     0
176
     1
 90
       50
176
     1
 90
       50
176
     1
 90
       50
176
     1
290
     0
176
     1
 90
       50
176
     1
 62
   256
176
     0
 40
1.0
176
     0
 90
        2
176
     1
  1
strokes_ogs.tif
176
     1
290
     0
176
     1
 40
1.0
176
     1
 40
1.0
176
     1
  0
VISUALSTYLE
  5
1A5
102
{ACAD_REACTORS
330
18D
102
}
330
18D
100
AcDbVisualStyle
  2
EdgeColorOff
 70
    22
177
     3
291
     1
 70
    58
 90
        2
176
     0
 90
        2
176
     0
 90
        0
176
     0
 90
        0
176
     0
 40
0.6
176
     0
 40
30.0
176
     0
 62
     7
420
 16777215
176
     0
 90
        1
176
     0
 90
        4
176
     0
 62
     7
176
     0
 62
   257
176
     0
 90
        1
176
     0
 90
        1
176
     0
 40
1.0
176
     0
 90
        8
176
     2
 62
     7
176
     0
 40
1.0
176
     0
 90
        1
176
     0
 90
        6
176
     0
 90
        2
176
     0
 62
     7
176
     0
 90
        5
176
     0
 90
        0
176
     0
 90
        0
176
     0
290
     0
176
     0
 90
        1
176
     0
 40
0.0
176
     0
 90
        0
176
     0
290
     0
176
     1
290
     1
176
     1
290
     1
176
     1
290
     0
176
     1
290
     0
176
     1
290
     0
176
     1
290
     0
176
     1
290
     0
176
     1
290
     0
176
     1
 90
       50
176
     0
 40
0.0
176
     0
 40
1.0
176
     0
 90
        0
176
     0
 62
    18
420
        0
176
     0
 90
       50
176
     0
 90
        3
176
     0
 62
     5
420
      255
176
     0
290
     0
176
     1
 90
       50
176
     0
 90
       50
176
     0
 90
       50
176
     0
290
     0
176
     1
 90
       50
176
     0
 62
   256
176
     0
 40
1.0
176
     0
 90
        2
176
     0
  1
strokes_ogs.tif
176
     0
290
     0
176
     1
 40
1.0
176
     0
 40
1.0
176
     0
  0
VISUALSTYLE
  5
19C
102
{ACAD_REACTORS
330
18D
102
}
330
18D
100
AcDbVisualStyle
  2
Facepattern
 70
    15
177
     3
291
     1
 70
    58
 90
        2
176
     1
 90
        2
176
     1
 90
        0
176
     1
 90
        0
176
     1
 40
0.6
176
     1
 40
30.0
176
     1
 62
     7
420
 16777215
176
     1
 90
        1
176
     1
 90
        4
176
     1
 62
     7
176
     1
 62
   257
176
     1
 90
        1
176
     1
 90
        1
176
     1
 40
1.0
176
     1
 90
        8
176
     1
 62
     7
176
     1
 40
1.0
176
     1
 90
        1
176
     1
 90
        6
176
     1
 90
        2
176
     1
 62
     7
176
     1
 90
        5
176
     1
 90
        0
176
     1
 90
        0
176
     1
290
     0
176
     1
 90
        1
176
     1
 40
0.0
176
     1
 90
        0
176
     1
290
     0
176
     1
290
     1
176
     1
290
     1
176
     1
290
     0
176
     1
290
     0
176
     1
290
     0
176
     1
290
     0
176
     1
290
     0
176
     1
290
     0
176
     1
 90
       50
176
     1
 40
0.0
176
     1
 40
1.0
176
     1
 90
        0
176
     1
 62
    18
420
        0
176
     1
 90
       50
176
     1
 90
        3
176
     1
 62
     5
420
      255
176
     1
290
     0
176
     1
 90
       50
176
     1
 90
       50
176
     1
 90
       50
176
     1
290
     0
176
     1
 90
       50
176
     1
 62
   256
176
     0
 40
1.0
176
     0
 90
        2
176
     1
  1
strokes_ogs.tif
176
     1
290
     0
176
     1
 40
1.0
176
     1
 40
1.0
176
     1
  0
VISUALSTYLE
  5
18E
102
{ACAD_REACTORS
330
18D
102
}
330
18D
100
AcDbVisualStyle
  2
Flat
 70
     0
177
     3
291
     1
 70
    58
 90
        2
176
     1
 90
        1
176
     1
 90
        1
176
     1
 90
        2
176
     1
 40
0.6
176
     1
 40
30.0
176
     1
 62
     7
420
 16777215
176
     1
 90
        0
176
     1
 90
        0
176
     1
 62
     7
176
     1
 62
   257
176
     1
 90
        1
176
     1
 90
        1
176
     1
 40
1.0
176
     1
 90
        8
176
     1
 62
     7
176
     1
 40
1.0
176
     1
 90
        1
176
     1
 90
        6
176
     1
 90
        2
176
     1
 62
     7
176
     1
 90
        5
176
     1
 90
        0
176
     1
 90
        0
176
     1
290
     0
176
     1
 90
       13
176
     1
 40
0.0
176
     1
 90
        0
176
     1
290
     0
176
     1
290
     1
176
     1
290
     1
176
     1
290
     0
176
     1
290
     0
176
     1
290
     0
176
     1
290
     0
176
     1
290
     0
176
     1
290
     0
176
     1
 90
       50
176
     1
 40
0.0
176
     1
 40
1.0
176
     1
 90
        0
176
     1
 62
    18
420
        0
176
     1
 90
       50
176
     1
 90
        3
176
     1
 62
     5
420
      255
176
     1
290
     0
176
     1
 90
       50
176
     1
 90
       50
176
     1
 90
       50
176
     1
290
     0
176
     1
 90
       50
176
     1
 62
   256
176
     0
 40
1.0
176
     0
 90
        2
176
     1
  1
strokes_ogs.tif
176
     1
290
     0
176
     1
 40
1.0
176
     1
 40
1.0
176
     1
  0
VISUALSTYLE
  5
18F
102
{ACAD_REACTORS
330
18D
102
}
330
18D
100
AcDbVisualStyle
  2
FlatWithEdges
 70
     1
177
     3
291
     1
 70
    58
 90
        2
176
     1
 90
        1
176
     1
 90
        1
176
     1
 90
        2
176
     1
 40
0.6
176
     1
 40
30.0
176
     1
 62
     7
420
 16777215
176
     1
 90
        1
176
     1
 90
        0
176
     1
 62
     7
176
     1
 62
   257
176
     1
 90
        1
176
     1
 90
        1
176
     1
 40
1.0
176
     1
 90
        0
176
     1
 62
   257
176
     1
 40
1.0
176
     1
 90
        1
176
     1
 90
        6
176
     1
 90
        2
176
     1
 62
     7
176
     1
 90
        5
176
     1
 90
        0
176
     1
 90
        0
176
     1
290
     0
176
     1
 90
       13
176
     1
 40
0.0
176
     1
 90
        0
176
     1
290
     0
176
     1
290
     1
176
     1
290
     1
176
     1
290
     0
176
     1
290
     0
176
     1
290
     0
176
     1
290
     0
176
     1
290
     0
176
     1
290
     0
176
     1
 90
       50
176
     1
 40
0.0
176
     1
 40
1.0
176
     1
 90
        0
176
     1
 62
    18
420
        0
176
     1
 90
       50
176
     1
 90
        3
176
     1
 62
     5
420
      255
176
     1
290
     0
176
     1
 90
       50
176
     1
 90
       50
176
     1
 90
       50
176
     1
290
     0
176
     1
 90
       50
176
     1
 62
   256
176
     0
 40
1.0
176
     0
 90
        2
176
     1
  1
strokes_ogs.tif
176
     1
290
     0
176
     1
 40
1.0
176
     1
 40
1.0
176
     1
  0
VISUALSTYLE
  5
190
102
{ACAD_REACTORS
330
18D
102
}
330
18D
100
AcDbVisualStyle
  2
Gouraud
 70
     2
177
     3
291
     1
 70
    58
 90
        2
176
     1
 90
        2
176
     1
 90
        1
176
     1
 90
        2
176
     1
 40
0.6
176
     1
 40
30.0
176
     1
 62
     7
420
 16777215
176
     1
 90
        0
176
     1
 90
        0
176
     1
 62
     7
176
     1
 62
   257
176
     1
 90
        1
176
     1
 90
        1
176
     1
 40
1.0
176
     1
 90
        0
176
     1
 62
     7
176
     1
 40
1.0
176
     1
 90
        1
176
     1
 90
        6
176
     1
 90
        2
176
     1
 62
     7
176
     1
 90
        5
176
     1
 90
        0
176
     1
 90
        0
176
     1
290
     0
176
     1
 90
       13
176
     1
 40
0.0
176
     1
 90
        0
176
     1
290
     0
176
     1
290
     1
176
     1
290
     1
176
     1
290
     0
176
     1
290
     0
176
     1
290
     0
176
     1
290
     0
176
     1
290
     0
176
     1
290
     0
176
     1
 90
       50
176
     1
 40
0.0
176
     1
 40
1.0
176
     1
 90
        0
176
     1
 62
    18
420
        0
176
     1
 90
       50
176
     1
 90
        3
176
     1
 62
     5
420
      255
176
     1
290
     0
176
     1
 90
       50
176
     1
 90
       50
176
     1
 90
       50
176
     1
290
     0
176
     1
 90
       50
176
     1
 62
   256
176
     0
 40
1.0
176
     0
 90
        2
176
     1
  1
strokes_ogs.tif
176
     1
290
     0
176
     1
 40
1.0
176
     1
 40
1.0
176
     1
  0
VISUALSTYLE
  5
191
102
{ACAD_REACTORS
330
18D
102
}
330
18D
100
AcDbVisualStyle
  2
GouraudWithEdges
 70
     3
177
     3
291
     1
 70
    58
 90
        2
176
     1
 90
        2
176
     1
 90
        1
176
     1
 90
        2
176
     1
 40
0.6
176
     1
 40
30.0
176
     1
 62
     7
420
 16777215
176
     1
 90
        1
176
     1
 90
        0
176
     1
 62
     7
176
     1
 62
   257
176
     1
 90
        1
176
     1
 90
        1
176
     1
 40
1.0
176
     1
 90
        0
176
     1
 62
   257
176
     1
 40
1.0
176
     1
 90
        1
176
     1
 90
        6
176
     1
 90
        2
176
     1
 62
     7
176
     1
 90
        5
176
     1
 90
        0
176
     1
 90
        0
176
     1
290
     0
176
     1
 90
       13
176
     1
 40
0.0
176
     1
 90
        0
176
     1
290
     0
176
     1
290
     1
176
     1
290
     1
176
     1
290
     0
176
     1
290
     0
176
     1
290
     0
176
     1
290
     0
176
     1
290
     0
176
     1
290
     0
176
     1
 90
       50
176
     1
 40
0.0
176
     1
 40
1.0
176
     1
 90
        0
176
     1
 62
    18
420
        0
176
     1
 90
       50
176
     1
 90
        3
176
     1
 62
     5
420
      255
176
     1
290
     0
176
     1
 90
       50
176
     1
 90
       50
176
     1
 90
       50
176
     1
290
     0
176
     1
 90
       50
176
     1
 62
   256
176
     0
 40
1.0
176
     0
 90
        2
176
     1
  1
strokes_ogs.tif
176
     1
290
     0
176
     1
 40
1.0
176
     1
 40
1.0
176
     1
  0
VISUALSTYLE
  5
195
102
{ACAD_REACTORS
330
18D
102
}
330
18D
100
AcDbVisualStyle
  2
Hidden
 70
     6
177
     3
291
     0
 70
    58
 90
        1
176
     1
 90
        2
176
     1
 90
        2
176
     1
 90
        0
176
     1
 40
0.6
176
     1
 40
30.0
176
     1
 62
     7
420
 16777215
176
     1
 90
        2
176
     1
 90
        2
176
     1
 62
     7
176
     1
 62
   257
176
     1
 90
        2
176
     1
 90
        1
176
     1
 40
40.0
176
     1
 90
        0
176
     1
 62
   257
176
     1
 40
1.0
176
     1
 90
        1
176
     1
 90
        6
176
     1
 90
        2
176
     1
 62
     7
176
     1
 90
        3
176
     1
 90
        0
176
     1
 90
        0
176
     1
290
     0
176
     1
 90
        1
176
     1
 40
0.0
176
     1
 90
        0
176
     1
290
     0
176
     1
290
     1
176
     1
290
     1
176
     1
290
     0
176
     1
290
     0
176
     1
290
     0
176
     1
290
     0
176
     1
290
     0
176
     1
290
     0
176
     1
 90
       50
176
     1
 40
0.0
176
     1
 40
1.0
176
     1
 90
        0
176
     1
 62
    18
420
        0
176
     1
 90
       50
176
     1
 90
        3
176
     1
 62
     5
420
      255
176
     1
290
     0
176
     1
 90
       50
176
     1
 90
       50
176
     1
 90
       50
176
     1
290
     0
176
     1
 90
       50
176
     1
 62
   256
176
     0
 40
1.0
176
     0
 90
        2
176
     1
  1
strokes_ogs.tif
176
     1
290
     0
176
     1
 40
1.0
176
     1
 40
1.0
176
     1
  0
VISUALSTYLE
  5
1A3
102
{ACAD_REACTORS
330
18D
102
}
330
18D
100
AcDbVisualStyle
  2
JitterOff
 70
    20
177
     3
291
     1
 70
    58
 90
        2
176
     0
 90
        2
176
     0
 90
        0
176
     0
 90
        0
176
     0
 40
0.6
176
     0
 40
30.0
176
     0
 62
     7
420
 16777215
176
     0
 90
        1
176
     0
 90
        4
176
     0
 62
     7
176
     0
 62
   257
176
     0
 90
        1
176
     0
 90
        1
176
     0
 40
1.0
176
     0
 90
       10
176
     2
 62
     7
176
     0
 40
1.0
176
     0
 90
        1
176
     0
 90
        6
176
     0
 90
        2
176
     0
 62
     7
176
     0
 90
        5
176
     0
 90
        0
176
     0
 90
        0
176
     0
290
     0
176
     0
 90
        1
176
     0
 40
0.0
176
     0
 90
        0
176
     0
290
     0
176
     1
290
     1
176
     1
290
     1
176
     1
290
     0
176
     1
290
     0
176
     1
290
     0
176
     1
290
     0
176
     1
290
     0
176
     1
290
     0
176
     1
 90
       50
176
     0
 40
0.0
176
     0
 40
1.0
176
     0
 90
        0
176
     0
 62
    18
420
        0
176
     0
 90
       50
176
     0
 90
        3
176
     0
 62
     5
420
      255
176
     0
290
     0
176
     1
 90
       50
176
     0
 90
       50
176
     0
 90
       50
176
     0
290
     0
176
     1
 90
       50
176
     0
 62
   256
176
     0
 40
1.0
176
     0
 90
        2
176
     0
  1
strokes_ogs.tif
176
     0
290
     0
176
     1
 40
1.0
176
     0
 40
1.0
176
     0
  0
VISUALSTYLE
  5
19B
102
{ACAD_REACTORS
330
18D
102
}
330
18D
100
AcDbVisualStyle
  2
Linepattern
 70
    14
177
     3
291
     1
 70
    58
 90
        2
176
     1
 90
        2
176
     1
 90
        0
176
     1
 90
        0
176
     1
 40
0.6
176
     1
 40
30.0
176
     1
 62
     7
420
 16777215
176
     1
 90
        1
176
     1
 90
        4
176
     1
 62
     7
176
     1
 62
   257
176
     1
 90
        7
176
     1
 90
        7
176
     1
 40
1.0
176
     1
 90
        8
176
     1
 62
     7
176
     1
 40
1.0
176
     1
 90
        1
176
     1
 90
        6
176
     1
 90
        2
176
     1
 62
     7
176
     1
 90
        5
176
     1
 90
        0
176
     1
 90
        0
176
     1
290
     0
176
     1
 90
        1
176
     1
 40
0.0
176
     1
 90
        0
176
     1
290
     0
176
     1
290
     1
176
     1
290
     1
176
     1
290
     0
176
     1
290
     0
176
     1
290
     0
176
     1
290
     0
176
     1
290
     0
176
     1
290
     0
176
     1
 90
       50
176
     1
 40
0.0
176
     1
 40
1.0
176
     1
 90
        0
176
     1
 62
    18
420
        0
176
     1
 90
       50
176
     1
 90
        3
176
     1
 62
     5
420
      255
176
     1
290
     0
176
     1
 90
       50
176
     1
 90
       50
176
     1
 90
       50
176
     1
290
     0
176
     1
 90
       50
176
     1
 62
   256
176
     0
 40
1.0
176
     0
 90
        2
176
     1
  1
strokes_ogs.tif
176
     1
290
     0
176
     1
 40
1.0
176
     1
 40
1.0
176
     1
  0
VISUALSTYLE
  5
1A4
102
{ACAD_REACTORS
330
18D
102
}
330
18D
100
AcDbVisualStyle
  2
OverhangOff
 70
    21
177
     3
291
     1
 70
    58
 90
        2
176
     0
 90
        2
176
     0
 90
        0
176
     0
 90
        0
176
     0
 40
0.6
176
     0
 40
30.0
176
     0
 62
     7
420
 16777215
176
     0
 90
        1
176
     0
 90
        4
176
     0
 62
     7
176
     0
 62
   257
176
     0
 90
        1
176
     0
 90
        1
176
     0
 40
1.0
176
     0
 90
        9
176
     2
 62
     7
176
     0
 40
1.0
176
     0
 90
        1
176
     0
 90
        6
176
     0
 90
        2
176
     0
 62
     7
176
     0
 90
        5
176
     0
 90
        0
176
     0
 90
        0
176
     0
290
     0
176
     0
 90
        1
176
     0
 40
0.0
176
     0
 90
        0
176
     0
290
     0
176
     1
290
     1
176
     1
290
     1
176
     1
290
     0
176
     1
290
     0
176
     1
290
     0
176
     1
290
     0
176
     1
290
     0
176
     1
290
     0
176
     1
 90
       50
176
     0
 40
0.0
176
     0
 40
1.0
176
     0
 90
        0
176
     0
 62
    18
420
        0
176
     0
 90
       50
176
     0
 90
        3
176
     0
 62
     5
420
      255
176
     0
290
     0
176
     1
 90
       50
176
     0
 90
       50
176
     0
 90
       50
176
     0
290
     0
176
     1
 90
       50
176
     0
 62
   256
176
     0
 40
1.0
176
     0
 90
        2
176
     0
  1
strokes_ogs.tif
176
     0
290
     0
176
     1
 40
1.0
176
     0
 40
1.0
176
     0
  0
VISUALSTYLE
  5
197
102
{ACAD_REACTORS
330
18D
102
}
330
18D
100
AcDbVisualStyle
  2
Realistic
 70
     8
177
     3
291
     0
 70
    58
 90
        2
176
     1
 90
        3
176
     1
 90
        0
176
     1
 90
        2
176
     1
 40
0.6
176
     1
 40
30.0
176
     1
 62
     7
420
 16777215
176
     1
 90
        0
176
     1
 90
        0
176
     1
 62
     7
176
     1
 62
   257
176
     1
 90
        1
176
     1
 90
        1
176
     1
 40
1.0
176
     1
 90
        8
176
     1
 62
   257
176
     1
 40
1.0
176
     1
 90
        1
176
     1
 90
        6
176
     1
 90
        2
176
     1
 62
     7
176
     1
 90
        3
176
     1
 90
        0
176
     1
 90
        0
176
     1
290
     0
176
     1
 90
       13
176
     1
 40
0.0
176
     1
 90
        0
176
     1
290
     0
176
     1
290
     1
176
     1
290
     1
176
     1
290
     0
176
     1
290
     0
176
     1
290
     0
176
     1
290
     0
176
     1
290
     0
176
     1
290
     0
176
     1
 90
       50
176
     1
 40
0.0
176
     1
 40
1.0
176
     1
 90
        0
176
     1
 62
    18
420
        0
176
     1
 90
       50
176
     1
 90
        3
176
     1
 62
     5
420
      255
176
     1
290
     0
176
     1
 90
       50
176
     1
 90
       50
176
     1
 90
       50
176
     1
290
     0
176
     1
 90
       50
176
     1
 62
   256
176
     0
 40
1.0
176
     0
 90
        2
176
     1
  1
strokes_ogs.tif
176
     1
290
     0
176
     1
 40
1.0
176
     1
 40
1.0
176
     1
  0
VISUALSTYLE
  5
1A2
102
{ACAD_REACTORS
330
18D
102
}
330
18D
100
AcDbVisualStyle
  2
Shaded
 70
    27
177
     3
291
     0
 70
    58
 90
        2
176
     1
 90
        2
176
     1
 90
        1
176
     1
 90
        2
176
     1
 40
0.6
176
     1
 40
30.0
176
     1
 62
     7
420
 16777215
176
     1
 90
        0
176
     1
 90
        4
176
     1
 62
     7
176
     1
 62
   257
176
     1
 90
        1
176
     1
 90
        1
176
     1
 40
1.0
176
     1
 90
        8
176
     1
 62
   257
176
     1
 40
1.0
176
     1
 90
        1
176
     1
 90
        6
176
     1
 90
        2
176
     1
 62
     8
420
  7895160
176
     1
 90
        3
176
     1
 90
        0
176
     1
 90
        0
176
     1
290
     0
176
     1
 90
        5
176
     1
 40
0.0
176
     1
 90
        0
176
     1
290
     0
176
     1
290
     1
176
     1
290
     1
176
     1
290
     0
176
     1
290
     0
176
     1
290
     0
176
     1
290
     0
176
     1
290
     0
176
     1
290
     0
176
     1
 90
       50
176
     1
 40
0.0
176
     1
 40
1.0
176
     1
 90
        0
176
     1
 62
    18
420
        0
176
     1
 90
       50
176
     1
 90
        3
176
     1
 62
     5
420
      255
176
     1
290
     0
176
     1
 90
       50
176
     1
 90
       50
176
     1
 90
       50
176
     1
290
     0
176
     1
 90
       50
176
     1
 62
   256
176
     0
 40
1.0
176
     0
 90
        2
176
     1
  1
strokes_ogs.tif
176
     1
290
     0
176
     1
 40
1.0
176
     1
 40
1.0
176
     1
  0
VISUALSTYLE
  5
1A1
102
{ACAD_REACTORS
330
18D
102
}
330
18D
100
AcDbVisualStyle
  2
Shaded with edges
 70
    26
177
     3
291
     0
 70
    58
 90
        2
176
     1
 90
        2
176
     1
 90
        1
176
     1
 90
        2
176
     1
 40
0.6
176
     1
 40
30.0
176
     1
 62
     7
420
 16777215
176
     1
 90
        1
176
     1
 90
        2
176
     1
 62
     7
176
     1
 62
   257
176
     1
 90
        2
176
     1
 90
        1
176
     1
 40
1.0
176
     1
 90
        8
176
     1
 62
   257
176
     1
 40
1.0
176
     1
 90
        1
176
     1
 90
        6
176
     1
 90
        2
176
     1
 62
     7
176
     1
 90
        3
176
     1
 90
        0
176
     1
 90
        0
176
     1
290
     0
176
     1
 90
        5
176
     1
 40
0.0
176
     1
 90
        0
176
     1
290
     0
176
     1
290
     1
176
     1
290
     1
176
     1
290
     0
176
     1
290
     0
176
     1
290
     0
176
     1
290
     0
176
     1
290
     0
176
     1
290
     0
176
     1
 90
       50
176
     1
 40
0.0
176
     1
 40
1.0
176
     1
 90
        0
176
     1
 62
    18
420
        0
176
     1
 90
       50
176
     1
 90
        3
176
     1
 62
     5
420
      255
176
     1
290
     0
176
     1
 90
       50
176
     1
 90
       50
176
     1
 90
       50
176
     1
290
     0
176
     1
 90
       50
176
     1
 62
   256
176
     0
 40
1.0
176
     0
 90
        2
176
     1
  1
strokes_ogs.tif
176
     1
290
     0
176
     1
 40
1.0
176
     1
 40
1.0
176
     1
  0
VISUALSTYLE
  5
19E
102
{ACAD_REACTORS
330
18D
102
}
330
18D
100
AcDbVisualStyle
  2
Shades of Gray
 70
    23
177
     3
291
     0
 70
    58
 90
        2
176
     1
 90
        2
176
     1
 90
        3
176
     1
 90
        0
176
     1
 40
0.6
176
     1
 40
30.0
176
     1
 62
     7
420
 16777215
176
     1
 90
        2
176
     1
 90
        2
176
     1
 62
     7
176
     1
 62
     7
176
     1
 90
        1
176
     1
 90
        1
176
     1
 40
40.0
176
     1
 90
        8
176
     1
 62
     7
176
     1
 40
1.0
176
     1
 90
        1
176
     1
 90
        6
176
     1
 90
        2
176
     1
 62
     7
176
     1
 90
        3
176
     1
 90
        0
176
     1
 90
        0
176
     1
290
     0
176
     1
 90
        1
176
     1
 40
0.0
176
     1
 90
        0
176
     1
290
     0
176
     1
290
     1
176
     1
290
     1
176
     1
290
     0
176
     1
290
     0
176
     1
290
     0
176
     1
290
     0
176
     1
290
     0
176
     1
290
     0
176
     1
 90
       50
176
     1
 40
0.0
176
     1
 40
1.0
176
     1
 90
        0
176
     1
 62
    18
420
        0
176
     1
 90
       50
176
     1
 90
        3
176
     1
 62
     5
420
      255
176
     1
290
     0
176
     1
 90
       50
176
     1
 90
       50
176
     1
 90
       50
176
     1
290
     0
176
     1
 90
       50
176
     1
 62
   256
176
     0
 40
1.0
176
     0
 90
        2
176
     1
  1
strokes_ogs.tif
176
     1
290
     0
176
     1
 40
1.0
176
     1
 40
1.0
176
     1
  0
VISUALSTYLE
  5
19F
102
{ACAD_REACTORS
330
18D
102
}
330
18D
100
AcDbVisualStyle
  2
Sketchy
 70
    24
177
     3
291
     0
 70
    58
 90
        1
176
     1
 90
        2
176
     1
 90
        2
176
     1
 90
        0
176
     1
 40
0.6
176
     1
 40
30.0
176
     1
 62
     7
420
 16777215
176
     1
 90
        2
176
     1
 90
        2
176
     1
 62
     7
176
     1
 62
     7
176
     1
 90
        1
176
     1
 90
        1
176
     1
 40
40.0
176
     1
 90
       11
176
     1
 62
     7
176
     1
 40
1.0
176
     1
 90
        1
176
     1
 90
        6
176
     1
 90
        2
176
     1
 62
     7
176
     1
 90
        6
176
     1
 90
        0
176
     1
 90
        0
176
     1
290
     0
176
     1
 90
        1
176
     1
 40
0.0
176
     1
 90
        0
176
     1
290
     0
176
     1
290
     1
176
     1
290
     1
176
     1
290
     0
176
     1
290
     0
176
     1
290
     0
176
     1
290
     0
176
     1
290
     0
176
     1
290
     0
176
     1
 90
       50
176
     1
 40
0.0
176
     1
 40
1.0
176
     1
 90
        0
176
     1
 62
    18
420
        0
176
     1
 90
       50
176
     1
 90
        3
176
     1
 62
     5
420
      255
176
     1
290
     0
176
     1
 90
       50
176
     1
 90
       50
176
     1
 90
       50
176
     1
290
     0
176
     1
 90
       50
176
     1
 62
   256
176
     0
 40
1.0
176
     0
 90
        2
176
     1
  1
strokes_ogs.tif
176
     1
290
     0
176
     1
 40
1.0
176
     1
 40
1.0
176
     1
  0
VISUALSTYLE
  5
19A
102
{ACAD_REACTORS
330
18D
102
}
330
18D
100
AcDbVisualStyle
  2
Thicken
 70
    13
177
     3
291
     1
 70
    58
 90
        2
176
     1
 90
        2
176
     1
 90
        0
176
     1
 90
        0
176
     1
 40
0.6
176
     1
 40
30.0
176
     1
 62
     7
420
 16777215
176
     1
 90
        1
176
     1
 90
        4
176
     1
 62
     7
176
     1
 62
   257
176
     1
 90
        1
176
     1
 90
        1
176
     1
 40
1.0
176
     1
 90
       12
176
     1
 62
     7
176
     1
 40
1.0
176
     1
 90
        1
176
     1
 90
        6
176
     1
 90
        2
176
     1
 62
     7
176
     1
 90
        5
176
     1
 90
        0
176
     1
 90
        0
176
     1
290
     0
176
     1
 90
        1
176
     1
 40
0.0
176
     1
 90
        0
176
     1
290
     0
176
     1
290
     1
176
     1
290
     1
176
     1
290
     0
176
     1
290
     0
176
     1
290
     0
176
     1
290
     0
176
     1
290
     0
176
     1
290
     0
176
     1
 90
       50
176
     1
 40
0.0
176
     1
 40
1.0
176
     1
 90
        0
176
     1
 62
    18
420
        0
176
     1
 90
       50
176
     1
 90
        3
176
     1
 62
     5
420
      255
176
     1
290
     0
176
     1
 90
       50
176
     1
 90
       50
176
     1
 90
       50
176
     1
290
     0
176
     1
 90
       50
176
     1
 62
   256
176
     0
 40
1.0
176
     0
 90
        2
176
     1
  1
strokes_ogs.tif
176
     1
290
     0
176
     1
 40
1.0
176
     1
 40
1.0
176
     1
  0
VISUALSTYLE
  5
194
102
{ACAD_REACTORS
330
18D
102
}
330
18D
100
AcDbVisualStyle
  2
Wireframe
 70
     5
177
     3
291
     0
 70
    58
 90
        0
176
     1
 90
        2
176
     1
 90
        0
176
     1
 90
        0
176
     1
 40
0.6
176
     1
 40
30.0
176
     1
 62
     7
420
 16777215
176
     1
 90
        1
176
     1
 90
        4
176
     1
 62
     7
176
     1
 62
   257
176
     1
 90
        1
176
     1
 90
        1
176
     1
 40
1.0
176
     1
 90
        0
176
     1
 62
   257
176
     1
 40
1.0
176
     1
 90
        1
176
     1
 90
        6
176
     1
 90
        2
176
     1
 62
     7
176
     1
 90
        3
176
     1
 90
        0
176
     1
 90
        0
176
     1
290
     0
176
     1
 90
        1
176
     1
 40
0.0
176
     1
 90
        0
176
     1
290
     0
176
     1
290
     1
176
     1
290
     1
176
     1
290
     0
176
     1
290
     0
176
     1
290
     0
176
     1
290
     0
176
     1
290
     0
176
     1
290
     0
176
     1
 90
       50
176
     1
 40
0.0
176
     1
 40
1.0
176
     1
 90
        0
176
     1
 62
    18
420
        0
176
     1
 90
       50
176
     1
 90
        3
176
     1
 62
     5
420
      255
176
     1
290
     0
176
     1
 90
       50
176
     1
 90
       50
176
     1
 90
       50
176
     1
290
     0
176
     1
 90
       50
176
     1
 62
   256
176
     0
 40
1.0
176
     0
 90
        2
176
     1
  1
strokes_ogs.tif
176
     1
290
     0
176
     1
 40
1.0
176
     1
 40
1.0
176
     1
  0
VISUALSTYLE
  5
1A0
102
{ACAD_REACTORS
330
18D
102
}
330
18D
100
AcDbVisualStyle
  2
X-Ray
 70
    25
177
     3
291
     0
 70
    58
 90
        2
176
     1
 90
        2
176
     1
 90
        1
176
     1
 90
        1
176
     1
 40
0.5
176
     1
 40
30.0
176
     1
 62
     7
420
 16777215
176
     1
 90
        1
176
     1
 90
        0
176
     1
 62
     7
176
     1
 62
   257
176
     1
 90
        1
176
     1
 90
        1
176
     1
 40
1.0
176
     1
 90
        8
176
     1
 62
     7
176
     1
 40
1.0
176
     1
 90
        1
176
     1
 90
        6
176
     1
 90
        2
176
     1
 62
     7
176
     1
 90
        3
176
     1
 90
        0
176
     1
 90
        0
176
     1
290
     0
176
     1
 90
       13
176
     1
 40
0.0
176
     1
 90
        0
176
     1
290
     0
176
     1
290
     1
176
     1
290
     1
176
     1
290
     0
176
     1
290
     0
176
     1
290
     0
176
     1
290
     0
176
     1
290
     0
176
     1
290
     0
176
     1
 90
       50
176
     1
 40
0.0
176
     1
 40
1.0
176
     1
 90
        0
176
     1
 62
    18
420
        0
176
     1
 90
       50
176
     1
 90
        3
176
     1
 62
     5
420
      255
176
     1
290
     0
176
     1
 90
       50
176
     1
 90
       50
176
     1
 90
       50
176
     1
290
     0
176
     1
 90
       50
176
     1
 62
   256
176
     0
 40
1.0
176
     0
 90
        2
176
     1
  1
strokes_ogs.tif
176
     1
290
     0
176
     1
 40
1.0
176
     1
 40
1.0
176
     1
  0
DICTIONARYVAR
  5
2B1
102
{ACAD_REACTORS
330
2AB
102
}
330
2AB
100
DictionaryVariables
280
     0
  1
1:1
  0
DICTIONARYVAR
  5
2AD
102
{ACAD_REACTORS
330
2AB
102
}
330
2AB
100
DictionaryVariables
280
     0
  1
STANDARD
  0
DICTIONARYVAR
  5
2AC
102
{ACAD_REACTORS
330
2AB
102
}
330
2AB
100
DictionaryVariables
280
     0
  1
STANDARD
  0
DICTIONARYVAR
  5
2AE
102
{ACAD_REACTORS
330
2AB
102
}
330
2AB
100
DictionaryVariables
280
     0
  1
Imperial24
  0
DICTIONARYVAR
  5
2AF
102
{ACAD_REACTORS
330
2AB
102
}
330
2AB
100
DictionaryVariables
280
     0
  1
Imperial24
  0
DICTIONARYVAR
  5
2B3
102
{ACAD_REACTORS
330
2AB
102
}
330
2AB
100
DictionaryVariables
280
     0
  1
1
  0
DICTIONARYVAR
  5
2B4
102
{ACAD_REACTORS
330
2AB
102
}
330
2AB
100
DictionaryVariables
280
     0
  1
15
  0
DICTIONARYVAR
  5
2B2
102
{ACAD_REACTORS
330
2AB
102
}
330
2AB
100
DictionaryVariables
280
     0
  1
0
  0
DICTIONARYVAR
  5
2B0
102
{ACAD_REACTORS
330
2AB
102
}
330
2AB
100
DictionaryVariables
280
     0
  1
0
  0
DICTIONARY
  5
17E
330
17D
100
AcDbDictionary
280
     1
281
     1
  3
BUMPTILE
360
180
  3
DIFFUSETILE
360
17F
  3
OPACITYTILE
360
183
  3
REFLECTIONTILE
360
182
  3
REFRACTIONTILE
360
184
  3
SPECULARTILE
360
181
  0
DICTIONARY
  5
176
330
175
100
AcDbDictionary
280
     1
281
     1
  3
BUMPTILE
360
178
  3
DIFFUSETILE
360
177
  3
OPACITYTILE
360
17B
  3
REFLECTIONTILE
360
17A
  3
REFRACTIONTILE
360
17C
  3
SPECULARTILE
360
179
  0
DICTIONARY
  5
186
330
185
100
AcDbDictionary
280
     1
281
     1
  3
BUMPTILE
360
188
  3
DIFFUSETILE
360
187
  3
OPACITYTILE
360
18B
  3
REFLECTIONTILE
360
18A
  3
REFRACTIONTILE
360
18C
  3
SPECULARTILE
360
189
  0
DICTIONARY
  5
2B5
330
1C8
100
AcDbDictionary
280
     1
281
     1
  3
ACAD_ROUNDTRIP_2008_TABLESTYLE_CELLSTYLEMAP
360
2B6
  0
XRECORD
  5
180
102
{ACAD_REACTORS
330
17E
102
}
330
17E
100
AcDbXrecord
280
     1
270
     1
271
     1
  0
XRECORD
  5
17F
102
{ACAD_REACTORS
330
17E
102
}
330
17E
100
AcDbXrecord
280
     1
270
     1
271
     1
  0
XRECORD
  5
183
102
{ACAD_REACTORS
330
17E
102
}
330
17E
100
AcDbXrecord
280
     1
270
     1
271
     1
  0
XRECORD
  5
182
102
{ACAD_REACTORS
330
17E
102
}
330
17E
100
AcDbXrecord
280
     1
270
     1
271
     1
  0
XRECORD
  5
184
102
{ACAD_REACTORS
330
17E
102
}
330
17E
100
AcDbXrecord
280
     1
270
     1
271
     1
  0
XRECORD
  5
181
102
{ACAD_REACTORS
330
17E
102
}
330
17E
100
AcDbXrecord
280
     1
270
     1
271
     1
  0
XRECORD
  5
178
102
{ACAD_REACTORS
330
176
102
}
330
176
100
AcDbXrecord
280
     1
270
     1
271
     1
  0
XRECORD
  5
177
102
{ACAD_REACTORS
330
176
102
}
330
176
100
AcDbXrecord
280
     1
270
     1
271
     1
  0
XRECORD
  5
17B
102
{ACAD_REACTORS
330
176
102
}
330
176
100
AcDbXrecord
280
     1
270
     1
271
     1
  0
XRECORD
  5
17A
102
{ACAD_REACTORS
330
176
102
}
330
176
100
AcDbXrecord
280
     1
270
     1
271
     1
  0
XRECORD
  5
17C
102
{ACAD_REACTORS
330
176
102
}
330
176
100
AcDbXrecord
280
     1
270
     1
271
     1
  0
XRECORD
  5
179
102
{ACAD_REACTORS
330
176
102
}
330
176
100
AcDbXrecord
280
     1
270
     1
271
     1
  0
XRECORD
  5
188
102
{ACAD_REACTORS
330
186
102
}
330
186
100
AcDbXrecord
280
     1
270
     1
271
     1
  0
XRECORD
  5
187
102
{ACAD_REACTORS
330
186
102
}
330
186
100
AcDbXrecord
280
     1
270
     1
271
     1
  0
XRECORD
  5
18B
102
{ACAD_REACTORS
330
186
102
}
330
186
100
AcDbXrecord
280
     1
270
     1
271
     1
  0
XRECORD
  5
18A
102
{ACAD_REACTORS
330
186
102
}
330
186
100
AcDbXrecord
280
     1
270
     1
271
     1
  0
XRECORD
  5
18C
102
{ACAD_REACTORS
330
186
102
}
330
186
100
AcDbXrecord
280
     1
270
     1
271
     1
  0
XRECORD
  5
189
102
{ACAD_REACTORS
330
186
102
}
330
186
100
AcDbXrecord
280
     1
270
     1
271
     1
  0
CELLSTYLEMAP
  5
2B6
102
{ACAD_REACTORS
330
2B5
102
}
330
2B5
100
AcDbCellStyleMap
 90
        3
300
CELLSTYLE
  1
TABLEFORMAT_BEGIN
 90
        5
170
     1
 91
        0
 92
    32768
 62
   257
 93
        1
300
CONTENTFORMAT
  1
CONTENTFORMAT_BEGIN
 90
        0
 91
        0
 92
      512
 93
        0
300

 40
0.0
140
1.0
 94
        5
 62
     0
340
1B9
144
0.25
309
CONTENTFORMAT_END
171
     0
 94
        0
309
TABLEFORMAT_END
  1
CELLSTYLE_BEGIN
 90
        1
 91
        1
300
_TITLE
309
CELLSTYLE_END
300
CELLSTYLE
  1
TABLEFORMAT_BEGIN
 90
        5
170
     1
 91
        0
 92
        0
 62
   257
 93
        1
300
CONTENTFORMAT
  1
CONTENTFORMAT_BEGIN
 90
        0
 91
        0
 92
      512
 93
        0
300

 40
0.0
140
1.0
 94
        5
 62
     0
340
1B9
144
0.18
309
CONTENTFORMAT_END
171
     0
 94
        0
309
TABLEFORMAT_END
  1
CELLSTYLE_BEGIN
 90
        2
 91
        1
300
_HEADER
309
CELLSTYLE_END
300
CELLSTYLE
  1
TABLEFORMAT_BEGIN
 90
        5
170
     1
 91
        0
 92
        0
 62
   257
 93
        1
300
CONTENTFORMAT
  1
CONTENTFORMAT_BEGIN
 90
        0
 91
        0
 92
      512
 93
        0
300

 40
0.0
140
1.0
 94
        2
 62
     0
340
1B9
144
0.18
309
CONTENTFORMAT_END
171
     0
 94
        0
309
TABLEFORMAT_END
  1
CELLSTYLE_BEGIN
 90
        3
 91
        2
300
_DATA
309
CELLSTYLE_END
  0
ENDSEC
  0
SECTION
  2
ACDSDATA
 70
     2
 71
     8
  0
ACDSSCHEMA
 90
        0
  1
AcDb_Thumbnail_Schema
  2
AcDbDs::ID
280
    10
 91
        8
  2
Thumbnail_Data
280
    15
 91
        0
101
ACDSRECORD
 95
        0
 90
        1
  2
AcDbDs::TreatedAsObjectData
280
     1
291
     1
101
ACDSRECORD
 95
        0
 90
        2
  2
AcDbDs::Legacy
280
     1
291
     1
101
ACDSRECORD
  1
AcDbDs::ID
 90
        3
  2
AcDs:Indexable
280
     1
291
     1
101
ACDSRECORD
  1
AcDbDs::ID
 90
        4
  2
AcDbDs::HandleAttribute
280
     7
282
     1
  0
ACDSSCHEMA
 90
        1
  1
AcDbDs::TreatedAsObjectDataSchema
  2
AcDbDs::TreatedAsObjectData
280
     1
 91
        0
  0
ACDSSCHEMA
 90
        2
  1
AcDbDs::LegacySchema
  2
AcDbDs::Legacy
280
     1
 91
        0
  0
ACDSSCHEMA
 90
        3
  1
AcDbDs::IndexedPropertySchema
  2
AcDs:Indexable
280
     1
 91
        0
  0
ACDSSCHEMA
 90
        4
  1
AcDbDs::HandleAttributeSchema
  2
AcDbDs::HandleAttribute
280
     7
 91
        1
284
     1
  0
ACDSRECORD
 90
        0
  2
AcDbDs::ID
280
    10
320
1D6
  2
Thumbnail_Data
280
    15
 94
     1395
310
89504E470D0A1A0A0000000D4948445200000100000000A808030000003894C06300000300504C5445212830FFFFFF2128300000000000000000000000000000000000000000000000000000330000660000990000CC0000FF0033000033330033660033990033CC0033FF0066000066330066660066990066CC0066FF0099
310
000099330099660099990099CC0099FF00CC0000CC3300CC6600CC9900CCCC00CCFF00FF0000FF3300FF6600FF9900FFCC00FFFF3300003300333300663300993300CC3300FF3333003333333333663333993333CC3333FF3366003366333366663366993366CC3366FF3399003399333399663399993399CC3399FF33CC00
310
33CC3333CC6633CC9933CCCC33CCFF33FF0033FF3333FF6633FF9933FFCC33FFFF6600006600336600666600996600CC6600FF6633006633336633666633996633CC6633FF6666006666336666666666996666CC6666FF6699006699336699666699996699CC6699FF66CC0066CC3366CC6666CC9966CCCC66CCFF66FF0066
310
FF3366FF6666FF9966FFCC66FFFF9900009900339900669900999900CC9900FF9933009933339933669933999933CC9933FF9966009966339966669966999966CC9966FF9999009999339999669999999999CC9999FF99CC0099CC3399CC6699CC9999CCCC99CCFF99FF0099FF3399FF6699FF9999FFCC99FFFFCC0000CC00
310
33CC0066CC0099CC00CCCC00FFCC3300CC3333CC3366CC3399CC33CCCC33FFCC6600CC6633CC6666CC6699CC66CCCC66FFCC9900CC9933CC9966CC9999CC99CCCC99FFCCCC00CCCC33CCCC66CCCC99CCCCCCCCCCFFCCFF00CCFF33CCFF66CCFF99CCFFCCCCFFFFFF0000FF0033FF0066FF0099FF00CCFF00FFFF3300FF3333
310
FF3366FF3399FF33CCFF33FFFF6600FF6633FF6666FF6699FF66CCFF66FFFF9900FF9933FF9966FF9999FF99CCFF99FFFFCC00FFCC33FFCC66FFCC99FFCCCCFFCCFFFFFF00FFFF33FFFF66FFFF99FFFFCCFFFFFF0000000D0D0D1A1A1A2828283535354343435050505D5D5D6B6B6B787878868686939393A1A1A1AEAEAEBB
310
BBBBC9C9C9D6D6D6E4E4E4F1F1F1FFFFFF0000000000000000000000000000000000000000000000000000000000002E4550F10000022E4944415478DAEDD95B4E03310C8561AFE8ECFF296BA3993A8973192E0F4878F8BF8228D322358E632783190000000000000000000000000000000000000000000000000000000000
310
0000E0F748FF3E000F8E80BEF71E3D7976B7095EAEE90A40BDA2E159E3D7762DA6BDAE14F0F7E9FB89F3F707BE0EC743B18E512A65CA8AFC19E0039D46E4111963F3DFEBB31A80FAF429D36FEB428ECBDBD6CC8F01581647F6AE26ED556DB9A6EBD10260290BA0D631FD640CF2876740A9946CF4A57917B896C51E044DED6D
310
6A74D7B76F025E5F350D1206E0F5A1FD690FC058F4BEC999EB5E78FEEC00586B84E7008C05108A46B600A8AFDBB8045A06DC2C81BD02E89AFF92AF068CBADD861702707B18D01400CF150F40B22EB0D5B51080D113B6B6D09B45EB7D661E809C0DBF2F019B02D02BC1D8E9B7ADDEB2E3912C6F06D400B42268B666402F86EF
310
6619F744D7B59124AFBF6E01B0CC01D05603DA2C97DA26348A40FBCBBD06E40B405F0263C45B1AEF19100BE1D21AF3AC02AD8EFD7E797999666D07883CE741CD7DD0CEFD3EB48A4300E42924B3E9F5FCF7FB0E37B88E69F12E052536D444FBE0FD3038ED093EBB4DD037033100D97682E396967FF2B8F5395AF36604C05AB3
310
2CC97682EAE7A1D26F79DD8D43BDEC8F55217906243C0CA955AF1E001F40FC11AF682E0EBE104ADF4CE40B804FFB5D00C641B9847D40D82CF6FD50D600B40C9827BABDBE65C07E8AEA6FB367B86D63E77F101900000000000000000000000000000000000000E04B1FEDFB5E6E7899C0440000000049454E44AE426082
  0
ENDSEC
  0
EOF
