  0
SECTION
  2
HEADER
  9
$ACADVER
  1
AC1009
  9
$DWGCODEPAGE
  3
ansi_1252
  9
$INSBASE
 10
0.0
 20
0.0
 30
0.0
  9
$EXTMIN
 10
9.035038888888948
 20
2.605452777777795
 30
0.0
  9
$EXTMAX
 10
336.6089611111111
 20
239.5105472222222
 30
0.0
  9
$LIMMIN
 10
0.0
 20
0.0
  9
$LIMMAX
 10
12.0
 20
9.0
  9
$ORTHOMODE
 70
     0
  9
$REGENMODE
 70
     1
  9
$FILLMODE
 70
     1
  9
$QTEXTMODE
 70
     0
  9
$MIRRTEXT
 70
     1
  9
$DRAGMODE
 70
     2
  9
$LTSCALE
 40
1.0
  9
$OSMODE
 70
    37
  9
$ATTMODE
 70
     1
  9
$TEXTSIZE
 40
0.2
  9
$TRACEWID
 40
0.05
  9
$TEXTSTYLE
  7
STANDARD
  9
$CLAYER
  8
0
  9
$CELTYPE
  6
BYLAYER
  9
$CECOLOR
 62
   256
  9
$DIMSCALE
 40
1.0
  9
$DIMASZ
 40
0.18
  9
$DIMEXO
 40
0.0625
  9
$DIMDLI
 40
0.38
  9
$DIMRND
 40
0.0
  9
$DIMDLE
 40
0.0
  9
$DIMEXE
 40
0.18
  9
$DIMTP
 40
0.0
  9
$DIMTM
 40
0.0
  9
$DIMTXT
 40
0.18
  9
$DIMCEN
 40
0.09
  9
$DIMTSZ
 40
0.0
  9
$DIMTOL
 70
     0
  9
$DIMLIM
 70
     0
  9
$DIMTIH
 70
     1
  9
$DIMTOH
 70
     1
  9
$DIMSE1
 70
     0
  9
$DIMSE2
 70
     0
  9
$DIMTAD
 70
     0
  9
$DIMZIN
 70
     0
  9
$DIMBLK
  1

  9
$DIMASO
 70
     1
  9
$DIMSHO
 70
     1
  9
$DIMPOST
  1

  9
$DIMAPOST
  1

  9
$DIMALT
 70
     0
  9
$DIMALTD
 70
     2
  9
$DIMALTF
 40
25.4
  9
$DIMLFAC
 40
1.0
  9
$DIMTOFL
 70
     0
  9
$DIMTVP
 40
0.0
  9
$DIMTIX
 70
     0
  9
$DIMSOXD
 70
     0
  9
$DIMSAH
 70
     0
  9
$DIMBLK1
  1

  9
$DIMBLK2
  1

  9
$DIMSTYLE
  2
STANDARD
  9
$DIMCLRD
 70
     0
  9
$DIMCLRE
 70
     0
  9
$DIMCLRT
 70
     0
  9
$DIMTFAC
 40
1.0
  9
$DIMGAP
 40
0.09
  9
$LUNITS
 70
     2
  9
$LUPREC
 70
     4
  9
$SKETCHINC
 40
0.1
  9
$FILLETRAD
 40
0.5
  9
$AUNITS
 70
     0
  9
$AUPREC
 70
     0
  9
$MENU
  1
.
  9
$ELEVATION
 40
0.0
  9
$PELEVATION
 40
0.0
  9
$THICKNESS
 40
0.0
  9
$LIMCHECK
 70
     0
  9
$CHAMFERA
 40
0.5
  9
$CHAMFERB
 40
0.5
  9
$SKPOLY
 70
     0
  9
$TDCREATE
 40
2454910.5
  9
$TDUPDATE
 40
2456638.038452211
  9
$TDINDWG
 40
0.0000000116
  9
$TDUSRTIMER
 40
0.0000000116
  9
$USRTIMER
 70
     1
  9
$ANGBASE
 50
0.0
  9
$ANGDIR
 70
     0
  9
$PDMODE
 70
     0
  9
$PDSIZE
 40
0.0
  9
$PLINEWID
 40
0.0
  9
$COORDS
 70
     1
  9
$SPLFRAME
 70
     0
  9
$SPLINETYPE
 70
     6
  9
$SPLINESEGS
 70
     8
  9
$ATTDIA
 70
     0
  9
$ATTREQ
 70
     1
  9
$HANDLING
 70
     1
  9
$HANDSEED
  5
1F8
  9
$SURFTAB1
 70
     6
  9
$SURFTAB2
 70
     6
  9
$SURFTYPE
 70
     6
  9
$SURFU
 70
     6
  9
$SURFV
 70
     6
  9
$UCSNAME
  2

  9
$UCSORG
 10
0.0
 20
0.0
 30
0.0
  9
$UCSXDIR
 10
1.0
 20
0.0
 30
0.0
  9
$UCSYDIR
 10
0.0
 20
1.0
 30
0.0
  9
$PUCSNAME
  2

  9
$PUCSORG
 10
0.0
 20
0.0
 30
0.0
  9
$PUCSXDIR
 10
1.0
 20
0.0
 30
0.0
  9
$PUCSYDIR
 10
0.0
 20
1.0
 30
0.0
  9
$USERI1
 70
     0
  9
$USERI2
 70
     0
  9
$USERI3
 70
     0
  9
$USERI4
 70
     0
  9
$USERI5
 70
     0
  9
$USERR1
 40
0.0
  9
$USERR2
 40
0.0
  9
$USERR3
 40
0.0
  9
$USERR4
 40
0.0
  9
$USERR5
 40
0.0
  9
$WORLDVIEW
 70
     1
  9
$SHADEDGE
 70
     3
  9
$SHADEDIF
 70
    70
  9
$TILEMODE
 70
     1
  9
$MAXACTVP
 70
    64
  9
$PLIMCHECK
 70
     0
  9
$PEXTMIN
 10
1.000000000000000E+20
 20
1.000000000000000E+20
 30
1.000000000000000E+20
  9
$PEXTMAX
 10
-1.000000000000000E+20
 20
-1.000000000000000E+20
 30
-1.000000000000000E+20
  9
$PLIMMIN
 10
0.0
 20
0.0
  9
$PLIMMAX
 10
12.0
 20
9.0
  9
$UNITMODE
 70
     0
  9
$VISRETAIN
 70
     1
  9
$PLINEGEN
 70
     0
  9
$PSLTSCALE
 70
     1
  0
ENDSEC
  0
SECTION
  2
TABLES
  0
TABLE
  2
VPORT
 70
     1
  0
VPORT
  2
*ACTIVE
 70
     0
 10
0.0
 20
0.0
 11
1.0
 21
1.0
 12
10.42990654205607
 22
4.5
 13
0.0
 23
0.0
 14
0.5
 24
0.5
 15
0.5
 25
0.5
 16
0.0
 26
0.0
 36
1.0
 17
0.0
 27
0.0
 37
0.0
 40
9.0
 41
1.972972972850329
 42
50.0
 43
0.0
 44
0.0
 50
0.0
 51
0.0
 71
     0
 72
   100
 73
     1
 74
     3
 75
     0
 76
     0
 77
     0
 78
     0
  0
ENDTAB
  0
TABLE
  2
LTYPE
 70
     2
  0
LTYPE
  2
CONTINUOUS
 70
     0
  3
Solid line
 72
    65
 73
     0
 40
0.0
  0
LTYPE
  2
CONTINUOUS2
 70
     0
  3
Solid Line
 72
    65
 73
     0
 40
0.0
  0
ENDTAB
  0
TABLE
  2
LAYER
 70
     3
  0
LAYER
  2
0
 70
     0
 62
     7
  6
CONTINUOUS
  0
LAYER
  2
LAYER_1
 70
     0
 62
    18
  6
CONTINUOUS
  0
LAYER
  2
HOLE
 70
     0
 62
     1
  6
CONTINUOUS
  0
ENDTAB
  0
TABLE
  2
STYLE
 70
     1
  0
STYLE
  2
STANDARD
 70
     0
 40
0.0
 41
1.0
 50
0.0
 71
     0
 42
0.2
  3
txt
  4

  0
ENDTAB
  0
TABLE
  2
VIEW
 70
     0
  0
ENDTAB
  0
TABLE
  2
UCS
 70
     0
  0
ENDTAB
  0
TABLE
  2
APPID
 70
     1
  0
APPID
  2
ACAD
 70
     0
  0
ENDTAB
  0
TABLE
  2
DIMSTYLE
 70
     1
  0
DIMSTYLE
  2
STANDARD
 70
     0
  3

  4

  5

  6

  7

 40
1.0
 41
0.18
 42
0.0625
 43
0.38
 44
0.18
 45
0.0
 46
0.0
 47
0.0
 48
0.0
140
0.18
141
0.09
142
0.0
143
25.4
144
1.0
145
0.0
146
1.0
147
0.09
 71
     0
 72
     0
 73
     1
 74
     1
 75
     0
 76
     0
 77
     0
 78
     0
170
     0
171
     2
172
     0
173
     0
174
     0
175
     0
176
     0
177
     0
178
     0
  0
ENDTAB
  0
ENDSEC
  0
SECTION
  2
BLOCKS
  0
BLOCK
  8
0
  2
$MODEL_SPACE
 70
     0
 10
0.0
 20
0.0
 30
0.0
  3
$MODEL_SPACE
  1

  0
ENDBLK
  5
21
  8
0
  0
BLOCK
 67
     1
  8
0
  2
$PAPER_SPACE
 70
     0
 10
0.0
 20
0.0
 30
0.0
  3
$PAPER_SPACE
  1

  0
ENDBLK
  5
1D
 67
     1
  8
0
  0
ENDSEC
  0
SECTION
  2
ENTITIES
  0
POLYLINE
  5
41
  8
LAYER_1
 66
     1
 10
0.0
 20
0.0
 30
0.0
 70
     1
  0
VERTEX
  5
65
  8
LAYER_1
 10
273.0842666666667
 20
9.578105555555572
 30
0.0
  0
VERTEX
  5
66
  8
LAYER_1
 10
243.7747833333334
 20
9.578105555555572
 30
0.0
  0
VERTEX
  5
67
  8
LAYER_1
 10
238.8831666666667
 20
18.30194722222224
 30
0.0
  0
VERTEX
  5
68
  8
LAYER_1
 10
236.2659083333333
 20
16.83474444444446
 30
0.0
  0
VERTEX
  5
69
  8
LAYER_1
 10
231.3742916666667
 20
25.55858611111113
 30
0.0
  0
VERTEX
  5
6A
  8
LAYER_1
 10
233.99155
 20
27.02614166666668
 30
0.0
  0
VERTEX
  5
6B
  8
LAYER_1
 10
221.9533611111111
 20
48.49549166666669
 30
0.0
  0
VERTEX
  5
6C
  8
LAYER_1
 10
219.3361027777778
 20
47.02793611111113
 30
0.0
  0
VERTEX
  5
6D
  8
LAYER_1
 10
214.4441333333334
 20
55.75213055555557
 30
0.0
  0
VERTEX
  5
6E
  8
LAYER_1
 10
217.0613916666667
 20
57.21933333333335
 30
0.0
  0
VERTEX
  5
6F
  8
LAYER_1
 10
212.169775
 20
65.9435277777778
 30
0.0
  0
VERTEX
  5
70
  8
LAYER_1
 10
216.8426694444445
 20
74.78696111111113
 30
0.0
  0
VERTEX
  5
71
  8
LAYER_1
 10
214.1897805555556
 20
76.1889
 30
0.0
  0
VERTEX
  5
72
  8
LAYER_1
 10
218.8623222222222
 20
85.03198055555556
 30
0.0
  0
VERTEX
  5
73
  8
LAYER_1
 10
221.5152111111111
 20
83.63004166666668
 30
0.0
  0
VERTEX
  5
74
  8
LAYER_1
 10
235.5991583333333
 20
110.2838138888889
 30
0.0
  0
VERTEX
  5
75
  8
LAYER_1
 10
232.9067583333334
 20
111.7065666666667
 30
0.0
  0
VERTEX
  5
76
  8
LAYER_1
 10
237.5793
 20
120.55
 30
0.0
  0
VERTEX
  5
77
  8
LAYER_1
 10
240.2720527777778
 20
119.1272472222222
 30
0.0
  0
VERTEX
  5
78
  8
LAYER_1
 10
244.9449472222223
 20
127.9703277777778
 30
0.0
  0
VERTEX
  5
79
  8
LAYER_1
 10
256.5322861111111
 20
127.9703277777778
 30
0.0
  0
VERTEX
  5
7A
  8
LAYER_1
 10
256.5322861111111
 20
130.9707027777778
 30
0.0
  0
VERTEX
  5
7B
  8
LAYER_1
 10
266.5342416666667
 20
130.9707027777778
 30
0.0
  0
VERTEX
  5
7C
  8
LAYER_1
 10
266.5342416666667
 20
127.9703277777778
 30
0.0
  0
VERTEX
  5
7D
  8
LAYER_1
 10
299.2487361111112
 20
127.9703277777778
 30
0.0
  0
VERTEX
  5
7E
  8
LAYER_1
 10
299.2487361111112
 20
164.2979722222222
 30
0.0
  0
VERTEX
  5
7F
  8
LAYER_1
 10
309.2506916666667
 20
164.2979722222222
 30
0.0
  0
VERTEX
  5
80
  8
LAYER_1
 10
309.2506916666667
 20
161.2975972222222
 30
0.0
  0
VERTEX
  5
81
  8
LAYER_1
 10
323.6066305555556
 20
161.2975972222222
 30
0.0
  0
VERTEX
  5
82
  8
LAYER_1
 10
323.6066305555556
 20
164.298325
 30
0.0
  0
VERTEX
  5
83
  8
LAYER_1
 10
333.6085861111111
 20
164.298325
 30
0.0
  0
VERTEX
  5
84
  8
LAYER_1
 10
333.6085861111111
 20
154.2963694444445
 30
0.0
  0
VERTEX
  5
85
  8
LAYER_1
 10
336.6089611111111
 20
154.2963694444445
 30
0.0
  0
VERTEX
  5
86
  8
LAYER_1
 10
336.6089611111111
 20
144.2944138888889
 30
0.0
  0
VERTEX
  5
87
  8
LAYER_1
 10
333.6085861111111
 20
144.2944138888889
 30
0.0
  0
VERTEX
  5
88
  8
LAYER_1
 10
333.6085861111111
 20
110.2076138888889
 30
0.0
  0
VERTEX
  5
89
  8
LAYER_1
 10
294.67215
 20
110.2076138888889
 30
0.0
  0
VERTEX
  5
8A
  8
LAYER_1
 10
294.67215
 20
107.2072388888889
 30
0.0
  0
VERTEX
  5
8B
  8
LAYER_1
 10
333.6085861111111
 20
107.2072388888889
 30
0.0
  0
VERTEX
  5
8C
  8
LAYER_1
 10
333.6085861111111
 20
91.93901666666667
 30
0.0
  0
VERTEX
  5
8D
  8
LAYER_1
 10
336.6089611111111
 20
91.93901666666667
 30
0.0
  0
VERTEX
  5
8E
  8
LAYER_1
 10
336.6089611111111
 20
81.93706111111112
 30
0.0
  0
VERTEX
  5
8F
  8
LAYER_1
 10
333.6085861111111
 20
81.93706111111112
 30
0.0
  0
VERTEX
  5
90
  8
LAYER_1
 10
333.6085861111111
 20
29.5816638888889
 30
0.0
  0
VERTEX
  5
91
  8
LAYER_1
 10
336.6089611111111
 20
29.5816638888889
 30
0.0
  0
VERTEX
  5
92
  8
LAYER_1
 10
336.6089611111111
 20
19.57970833333335
 30
0.0
  0
VERTEX
  5
93
  8
LAYER_1
 10
333.6085861111111
 20
19.57970833333335
 30
0.0
  0
VERTEX
  5
94
  8
LAYER_1
 10
333.6085861111111
 20
9.578105555555572
 30
0.0
  0
VERTEX
  5
95
  8
LAYER_1
 10
323.6066305555556
 20
9.578105555555572
 30
0.0
  0
VERTEX
  5
96
  8
LAYER_1
 10
323.6066305555556
 20
6.577377777777795
 30
0.0
  0
VERTEX
  5
97
  8
LAYER_1
 10
313.604675
 20
6.577377777777795
 30
0.0
  0
VERTEX
  5
98
  8
LAYER_1
 10
313.604675
 20
9.578105555555572
 30
0.0
  0
VERTEX
  5
99
  8
LAYER_1
 10
283.0862222222222
 20
9.578105555555572
 30
0.0
  0
VERTEX
  5
9A
  8
LAYER_1
 10
283.0862222222222
 20
6.577377777777795
 30
0.0
  0
VERTEX
  5
9B
  8
LAYER_1
 10
273.0842666666667
 20
6.577377777777795
 30
0.0
  0
SEQEND
  5
9C
  8
LAYER_1
  0
POLYLINE
  5
42
  8
LAYER_1
 66
     1
 10
0.0
 20
0.0
 30
0.0
 70
     1
  0
VERTEX
  5
9D
  8
LAYER_1
 10
321.9954944444445
 20
232.059175
 30
0.0
  0
VERTEX
  5
9E
  8
LAYER_1
 10
321.9954944444445
 20
211.1860194444444
 30
0.0
  0
VERTEX
  5
9F
  8
LAYER_1
 10
282.98815
 20
211.1860194444444
 30
0.0
  0
VERTEX
  5
A0
  8
LAYER_1
 10
282.98815
 20
232.059175
 30
0.0
  0
SEQEND
  5
A1
  8
LAYER_1
  0
POLYLINE
  5
43
  8
LAYER_1
 66
     1
 10
0.0
 20
0.0
 30
0.0
 70
     1
  0
VERTEX
  5
A2
  8
LAYER_1
 10
321.1488277777778
 20
204.1195277777778
 30
0.0
  0
VERTEX
  5
A3
  8
LAYER_1
 10
321.1488277777778
 20
183.2460194444444
 30
0.0
  0
VERTEX
  5
A4
  8
LAYER_1
 10
282.1414833333333
 20
183.2460194444444
 30
0.0
  0
VERTEX
  5
A5
  8
LAYER_1
 10
282.1414833333333
 20
204.1195277777778
 30
0.0
  0
SEQEND
  5
A6
  8
LAYER_1
  0
POLYLINE
  5
44
  8
LAYER_1
 66
     1
 10
0.0
 20
0.0
 30
0.0
 70
     1
  0
VERTEX
  5
A7
  8
LAYER_1
 10
189.5979944444445
 20
195.0411444444444
 30
0.0
  0
VERTEX
  5
A8
  8
LAYER_1
 10
191.1608
 20
195.14345
 30
0.0
  0
VERTEX
  5
A9
  8
LAYER_1
 10
192.6975
 20
195.4493083333333
 30
0.0
  0
VERTEX
  5
AA
  8
LAYER_1
 10
194.1805777777778
 20
195.9527222222222
 30
0.0
  0
VERTEX
  5
AB
  8
LAYER_1
 10
195.5853388888889
 20
196.6455777777778
 30
0.0
  0
VERTEX
  5
AC
  8
LAYER_1
 10
196.8877944444445
 20
197.5158805555555
 30
0.0
  0
VERTEX
  5
AD
  8
LAYER_1
 10
198.0657194444445
 20
198.5484611111111
 30
0.0
  0
VERTEX
  5
AE
  8
LAYER_1
 10
199.0983
 20
199.7263861111111
 30
0.0
  0
VERTEX
  5
AF
  8
LAYER_1
 10
199.9686027777778
 20
201.0288416666666
 30
0.0
  0
VERTEX
  5
B0
  8
LAYER_1
 10
200.6614583333334
 20
202.4336027777778
 30
0.0
  0
VERTEX
  5
B1
  8
LAYER_1
 10
201.1648722222223
 20
203.9170333333333
 30
0.0
  0
VERTEX
  5
B2
  8
LAYER_1
 10
201.4703777777778
 20
205.4533805555555
 30
0.0
  0
VERTEX
  5
B3
  8
LAYER_1
 10
201.5730361111111
 20
207.0165388888889
 30
0.0
  0
VERTEX
  5
B4
  8
LAYER_1
 10
201.5730361111111
 20
236.5098194444444
 30
0.0
  0
VERTEX
  5
B5
  8
LAYER_1
 10
211.5749916666667
 20
236.5098194444444
 30
0.0
  0
VERTEX
  5
B6
  8
LAYER_1
 10
211.5749916666667
 20
239.5105472222222
 30
0.0
  0
VERTEX
  5
B7
  8
LAYER_1
 10
221.5769472222223
 20
239.5105472222222
 30
0.0
  0
VERTEX
  5
B8
  8
LAYER_1
 10
221.5769472222223
 20
236.5098194444444
 30
0.0
  0
VERTEX
  5
B9
  8
LAYER_1
 10
254.5228638888889
 20
236.5098194444444
 30
0.0
  0
VERTEX
  5
BA
  8
LAYER_1
 10
254.5228638888889
 20
239.5105472222222
 30
0.0
  0
VERTEX
  5
BB
  8
LAYER_1
 10
264.5248194444445
 20
239.5105472222222
 30
0.0
  0
VERTEX
  5
BC
  8
LAYER_1
 10
264.5248194444445
 20
236.5098194444444
 30
0.0
  0
VERTEX
  5
BD
  8
LAYER_1
 10
274.526775
 20
236.5098194444444
 30
0.0
  0
VERTEX
  5
BE
  8
LAYER_1
 10
274.526775
 20
226.5082166666666
 30
0.0
  0
VERTEX
  5
BF
  8
LAYER_1
 10
271.5264
 20
226.5082166666666
 30
0.0
  0
VERTEX
  5
C0
  8
LAYER_1
 10
271.5264
 20
216.5062611111111
 30
0.0
  0
VERTEX
  5
C1
  8
LAYER_1
 10
274.526775
 20
216.5062611111111
 30
0.0
  0
VERTEX
  5
C2
  8
LAYER_1
 10
274.526775
 20
169.4358277777778
 30
0.0
  0
VERTEX
  5
C3
  8
LAYER_1
 10
271.5264
 20
169.4358277777778
 30
0.0
  0
VERTEX
  5
C4
  8
LAYER_1
 10
271.5264
 20
159.4338722222222
 30
0.0
  0
VERTEX
  5
C5
  8
LAYER_1
 10
274.526775
 20
159.4338722222222
 30
0.0
  0
VERTEX
  5
C6
  8
LAYER_1
 10
274.526775
 20
149.4319166666667
 30
0.0
  0
VERTEX
  5
C7
  8
LAYER_1
 10
101.4088416666667
 20
149.4319166666667
 30
0.0
  0
VERTEX
  5
C8
  8
LAYER_1
 10
101.4088416666667
 20
159.4338722222222
 30
0.0
  0
VERTEX
  5
C9
  8
LAYER_1
 10
104.4095694444445
 20
159.4338722222222
 30
0.0
  0
VERTEX
  5
CA
  8
LAYER_1
 10
104.4095694444445
 20
169.4358277777778
 30
0.0
  0
VERTEX
  5
CB
  8
LAYER_1
 10
101.4088416666667
 20
169.4358277777778
 30
0.0
  0
VERTEX
  5
CC
  8
LAYER_1
 10
101.4088416666667
 20
197.5737361111111
 30
0.0
  0
VERTEX
  5
CD
  8
LAYER_1
 10
108.3800833333334
 20
200.60445
 30
0.0
  0
VERTEX
  5
CE
  8
LAYER_1
 10
107.1838138888889
 20
203.3561166666666
 30
0.0
  0
VERTEX
  5
CF
  8
LAYER_1
 10
104.4095694444445
 20
202.1499694444444
 30
0.0
  0
VERTEX
  5
D0
  8
LAYER_1
 10
104.4095694444445
 20
216.5062611111111
 30
0.0
  0
VERTEX
  5
D1
  8
LAYER_1
 10
101.4088416666667
 20
216.5062611111111
 30
0.0
  0
VERTEX
  5
D2
  8
LAYER_1
 10
101.4088416666667
 20
226.5082166666666
 30
0.0
  0
VERTEX
  5
D3
  8
LAYER_1
 10
104.4095694444445
 20
226.5082166666666
 30
0.0
  0
VERTEX
  5
D4
  8
LAYER_1
 10
104.4095694444445
 20
236.5098194444444
 30
0.0
  0
VERTEX
  5
D5
  8
LAYER_1
 10
114.6708166666667
 20
236.5098194444444
 30
0.0
  0
VERTEX
  5
D6
  8
LAYER_1
 10
114.6708166666667
 20
239.5105472222222
 30
0.0
  0
VERTEX
  5
D7
  8
LAYER_1
 10
124.6727722222223
 20
239.5105472222222
 30
0.0
  0
VERTEX
  5
D8
  8
LAYER_1
 10
124.6727722222223
 20
236.5098194444444
 30
0.0
  0
VERTEX
  5
D9
  8
LAYER_1
 10
157.6190416666667
 20
236.5098194444444
 30
0.0
  0
VERTEX
  5
DA
  8
LAYER_1
 10
157.6190416666667
 20
239.5105472222222
 30
0.0
  0
VERTEX
  5
DB
  8
LAYER_1
 10
167.6209972222223
 20
239.5105472222222
 30
0.0
  0
VERTEX
  5
DC
  8
LAYER_1
 10
167.6209972222223
 20
236.5098194444444
 30
0.0
  0
VERTEX
  5
DD
  8
LAYER_1
 10
177.6226000000001
 20
236.5098194444444
 30
0.0
  0
VERTEX
  5
DE
  8
LAYER_1
 10
177.6226000000001
 20
207.0165388888889
 30
0.0
  0
VERTEX
  5
DF
  8
LAYER_1
 10
177.7252583333334
 20
205.4533805555555
 30
0.0
  0
VERTEX
  5
E0
  8
LAYER_1
 10
178.0307638888889
 20
203.9170333333333
 30
0.0
  0
VERTEX
  5
E1
  8
LAYER_1
 10
178.5341777777778
 20
202.4336027777778
 30
0.0
  0
VERTEX
  5
E2
  8
LAYER_1
 10
179.2270333333334
 20
201.0288416666666
 30
0.0
  0
VERTEX
  5
E3
  8
LAYER_1
 10
180.0973361111112
 20
199.7263861111111
 30
0.0
  0
VERTEX
  5
E4
  8
LAYER_1
 10
181.1302694444445
 20
198.5484611111111
 30
0.0
  0
VERTEX
  5
E5
  8
LAYER_1
 10
182.3078416666667
 20
197.5158805555555
 30
0.0
  0
VERTEX
  5
E6
  8
LAYER_1
 10
183.6102972222223
 20
196.6455777777778
 30
0.0
  0
VERTEX
  5
E7
  8
LAYER_1
 10
185.0154111111112
 20
195.9527222222222
 30
0.0
  0
VERTEX
  5
E8
  8
LAYER_1
 10
186.4984888888889
 20
195.4493083333333
 30
0.0
  0
VERTEX
  5
E9
  8
LAYER_1
 10
188.0348361111111
 20
195.14345
 30
0.0
  0
SEQEND
  5
EA
  8
LAYER_1
  0
POLYLINE
  5
45
  8
LAYER_1
 66
     1
 10
0.0
 20
0.0
 30
0.0
 70
     1
  0
VERTEX
  5
EB
  8
LAYER_1
 10
9.035038888888948
 20
237.9209305555555
 30
0.0
  0
VERTEX
  5
EC
  8
LAYER_1
 10
95.82613333333339
 20
237.9209305555555
 30
0.0
  0
VERTEX
  5
ED
  8
LAYER_1
 10
95.82613333333339
 20
54.56185833333335
 30
0.0
  0
VERTEX
  5
EE
  8
LAYER_1
 10
37.10486111111116
 20
54.56185833333335
 30
0.0
  0
VERTEX
  5
EF
  8
LAYER_1
 10
37.10486111111116
 20
60.56296111111113
 30
0.0
  0
VERTEX
  5
F0
  8
LAYER_1
 10
19.61343333333339
 20
60.56296111111113
 30
0.0
  0
VERTEX
  5
F1
  8
LAYER_1
 10
19.61343333333339
 20
54.56185833333335
 30
0.0
  0
VERTEX
  5
F2
  8
LAYER_1
 10
9.035038888888948
 20
54.56185833333335
 30
0.0
  0
SEQEND
  5
F3
  8
LAYER_1
  0
POLYLINE
  5
46
  8
LAYER_1
 66
     1
 10
0.0
 20
0.0
 30
0.0
 70
     1
  0
VERTEX
  5
F4
  8
LAYER_1
 10
103.9992888888889
 20
2.605452777777795
 30
0.0
  0
VERTEX
  5
F5
  8
LAYER_1
 10
103.9992888888889
 20
59.8538777777778
 30
0.0
  0
VERTEX
  5
F6
  8
LAYER_1
 10
208.0038222222223
 20
59.8538777777778
 30
0.0
  0
VERTEX
  5
F7
  8
LAYER_1
 10
208.0038222222223
 20
49.85192222222224
 30
0.0
  0
VERTEX
  5
F8
  8
LAYER_1
 10
211.00455
 20
49.85192222222224
 30
0.0
  0
VERTEX
  5
F9
  8
LAYER_1
 10
211.00455
 20
39.84996666666668
 30
0.0
  0
VERTEX
  5
FA
  8
LAYER_1
 10
208.0038222222223
 20
39.84996666666668
 30
0.0
  0
VERTEX
  5
FB
  8
LAYER_1
 10
208.0038222222223
 20
22.6093638888889
 30
0.0
  0
VERTEX
  5
FC
  8
LAYER_1
 10
211.00455
 20
22.6093638888889
 30
0.0
  0
VERTEX
  5
FD
  8
LAYER_1
 10
211.00455
 20
12.60740833333335
 30
0.0
  0
VERTEX
  5
FE
  8
LAYER_1
 10
208.0038222222223
 20
12.60740833333335
 30
0.0
  0
VERTEX
  5
FF
  8
LAYER_1
 10
208.0038222222223
 20
2.605452777777795
 30
0.0
  0
SEQEND
  5
100
  8
LAYER_1
  0
POLYLINE
  5
47
  8
LAYER_1
 66
     1
 10
0.0
 20
0.0
 30
0.0
 70
     1
  0
VERTEX
  5
101
  8
LAYER_1
 10
101.7365722222223
 20
68.4087388888889
 30
0.0
  0
VERTEX
  5
102
  8
LAYER_1
 10
207.7907444444445
 20
68.4087388888889
 30
0.0
  0
VERTEX
  5
103
  8
LAYER_1
 10
207.7907444444445
 20
78.41069444444446
 30
0.0
  0
VERTEX
  5
104
  8
LAYER_1
 10
210.7914722222223
 20
78.41069444444446
 30
0.0
  0
VERTEX
  5
105
  8
LAYER_1
 10
210.7914722222223
 20
88.41229722222224
 30
0.0
  0
VERTEX
  5
106
  8
LAYER_1
 10
207.7907444444445
 20
88.41229722222224
 30
0.0
  0
VERTEX
  5
107
  8
LAYER_1
 10
207.7907444444445
 20
104.0731611111111
 30
0.0
  0
VERTEX
  5
108
  8
LAYER_1
 10
210.7914722222223
 20
104.0731611111111
 30
0.0
  0
VERTEX
  5
109
  8
LAYER_1
 10
210.7914722222223
 20
114.0751166666667
 30
0.0
  0
VERTEX
  5
10A
  8
LAYER_1
 10
207.7907444444445
 20
114.0751166666667
 30
0.0
  0
VERTEX
  5
10B
  8
LAYER_1
 10
207.7907444444445
 20
122.4542944444444
 30
0.0
  0
VERTEX
  5
10C
  8
LAYER_1
 10
210.7914722222223
 20
122.4542944444444
 30
0.0
  0
VERTEX
  5
10D
  8
LAYER_1
 10
210.7914722222223
 20
132.45625
 30
0.0
  0
VERTEX
  5
10E
  8
LAYER_1
 10
207.7907444444445
 20
132.45625
 30
0.0
  0
VERTEX
  5
10F
  8
LAYER_1
 10
207.7907444444445
 20
142.4578527777778
 30
0.0
  0
VERTEX
  5
110
  8
LAYER_1
 10
110.7384027777778
 20
142.4578527777778
 30
0.0
  0
VERTEX
  5
111
  8
LAYER_1
 10
110.7384027777778
 20
107.345175
 30
0.0
  0
VERTEX
  5
112
  8
LAYER_1
 10
107.7380277777778
 20
107.345175
 30
0.0
  0
VERTEX
  5
113
  8
LAYER_1
 10
107.7380277777778
 20
142.4578527777778
 30
0.0
  0
VERTEX
  5
114
  8
LAYER_1
 10
101.7365722222223
 20
142.4578527777778
 30
0.0
  0
SEQEND
  5
115
  8
LAYER_1
  0
POLYLINE
  5
48
  8
LAYER_1
 66
     1
 10
0.0
 20
0.0
 30
0.0
 70
     1
  0
VERTEX
  5
116
  8
LAYER_1
 10
66.5984944444445
 20
11.04601388888891
 30
0.0
  0
VERTEX
  5
117
  8
LAYER_1
 10
66.5984944444445
 20
16.00748055555557
 30
0.0
  0
VERTEX
  5
118
  8
LAYER_1
 10
69.59922222222227
 20
16.00748055555557
 30
0.0
  0
VERTEX
  5
119
  8
LAYER_1
 10
69.59922222222227
 20
18.00808333333335
 30
0.0
  0
VERTEX
  5
11A
  8
LAYER_1
 10
66.5984944444445
 20
18.00808333333335
 30
0.0
  0
VERTEX
  5
11B
  8
LAYER_1
 10
66.5984944444445
 20
22.96919722222224
 30
0.0
  0
VERTEX
  5
11C
  8
LAYER_1
 10
69.59922222222227
 20
22.96919722222224
 30
0.0
  0
VERTEX
  5
11D
  8
LAYER_1
 10
69.59922222222227
 20
24.96944722222224
 30
0.0
  0
VERTEX
  5
11E
  8
LAYER_1
 10
66.5984944444445
 20
24.96944722222224
 30
0.0
  0
VERTEX
  5
11F
  8
LAYER_1
 10
66.5984944444445
 20
29.9309138888889
 30
0.0
  0
VERTEX
  5
120
  8
LAYER_1
 10
69.59922222222227
 20
29.9309138888889
 30
0.0
  0
VERTEX
  5
121
  8
LAYER_1
 10
69.59922222222227
 20
31.9311638888889
 30
0.0
  0
VERTEX
  5
122
  8
LAYER_1
 10
79.3492944444445
 20
31.9311638888889
 30
0.0
  0
VERTEX
  5
123
  8
LAYER_1
 10
79.3492944444445
 20
45.38469722222224
 30
0.0
  0
VERTEX
  5
124
  8
LAYER_1
 10
87.71436111111116
 20
45.38469722222224
 30
0.0
  0
VERTEX
  5
125
  8
LAYER_1
 10
87.71436111111116
 20
30.97090277777779
 30
0.0
  0
VERTEX
  5
126
  8
LAYER_1
 10
87.64027777777783
 20
30.03216111111112
 30
0.0
  0
VERTEX
  5
127
  8
LAYER_1
 10
87.42049722222227
 20
29.11635000000001
 30
0.0
  0
VERTEX
  5
128
  8
LAYER_1
 10
87.06031111111116
 20
28.24640000000001
 30
0.0
  0
VERTEX
  5
129
  8
LAYER_1
 10
86.56818611111116
 20
27.44347777777779
 30
0.0
  0
VERTEX
  5
12A
  8
LAYER_1
 10
85.9564694444445
 20
26.7273388888889
 30
0.0
  0
VERTEX
  5
12B
  8
LAYER_1
 10
85.24068333333338
 20
26.11562222222224
 30
0.0
  0
VERTEX
  5
12C
  8
LAYER_1
 10
84.43776111111116
 20
25.62349722222223
 30
0.0
  0
VERTEX
  5
12D
  8
LAYER_1
 10
83.56745833333338
 20
25.26331111111113
 30
0.0
  0
VERTEX
  5
12E
  8
LAYER_1
 10
82.65200000000006
 20
25.04353055555557
 30
0.0
  0
VERTEX
  5
12F
  8
LAYER_1
 10
81.71325833333339
 20
24.96944722222224
 30
0.0
  0
VERTEX
  5
130
  8
LAYER_1
 10
75.60032500000005
 20
24.96944722222224
 30
0.0
  0
VERTEX
  5
131
  8
LAYER_1
 10
75.60032500000005
 20
3.429188888888906
 30
0.0
  0
VERTEX
  5
132
  8
LAYER_1
 10
71.9116805555556
 20
3.429188888888906
 30
0.0
  0
VERTEX
  5
133
  8
LAYER_1
 10
69.34769166666672
 20
6.139227777777795
 30
0.0
  0
VERTEX
  5
134
  8
LAYER_1
 10
67.16787777777783
 20
4.077241666666684
 30
0.0
  0
VERTEX
  5
135
  8
LAYER_1
 10
64.41868055555561
 20
6.983777777777795
 30
0.0
  0
VERTEX
  5
136
  8
LAYER_1
 10
66.5984944444445
 20
9.045763888888906
 30
0.0
  0
VERTEX
  5
137
  8
LAYER_1
 10
69.59922222222227
 20
9.045763888888906
 30
0.0
  0
VERTEX
  5
138
  8
LAYER_1
 10
69.59922222222227
 20
11.04601388888891
 30
0.0
  0
SEQEND
  5
139
  8
LAYER_1
  0
POLYLINE
  5
4A
  8
HOLE
 66
     1
 10
0.0
 20
0.0
 30
0.0
 70
     1
  0
VERTEX
  5
13A
  8
HOLE
 10
59.20215555555561
 20
57.56258611111113
 30
0.0
  0
VERTEX
  5
13B
  8
HOLE
 10
69.20411111111116
 20
57.56258611111113
 30
0.0
  0
VERTEX
  5
13C
  8
HOLE
 10
69.20411111111116
 20
60.56296111111113
 30
0.0
  0
VERTEX
  5
13D
  8
HOLE
 10
59.20215555555561
 20
60.56296111111113
 30
0.0
  0
SEQEND
  5
13E
  8
HOLE
  0
POLYLINE
  5
4B
  8
HOLE
 66
     1
 10
0.0
 20
0.0
 30
0.0
 70
     1
  0
VERTEX
  5
13F
  8
HOLE
 10
59.20215555555561
 20
227.6797916666667
 30
0.0
  0
VERTEX
  5
140
  8
HOLE
 10
69.20411111111116
 20
227.6797916666667
 30
0.0
  0
VERTEX
  5
141
  8
HOLE
 10
69.20411111111116
 20
230.6805194444444
 30
0.0
  0
VERTEX
  5
142
  8
HOLE
 10
59.20215555555561
 20
230.6805194444444
 30
0.0
  0
SEQEND
  5
143
  8
HOLE
  0
POLYLINE
  5
4C
  8
HOLE
 66
     1
 10
0.0
 20
0.0
 30
0.0
 70
     1
  0
VERTEX
  5
144
  8
HOLE
 10
19.05428055555561
 20
227.6797916666667
 30
0.0
  0
VERTEX
  5
145
  8
HOLE
 10
29.05588333333339
 20
227.6797916666667
 30
0.0
  0
VERTEX
  5
146
  8
HOLE
 10
29.05588333333339
 20
230.6805194444444
 30
0.0
  0
VERTEX
  5
147
  8
HOLE
 10
19.05428055555561
 20
230.6805194444444
 30
0.0
  0
SEQEND
  5
148
  8
HOLE
  0
POLYLINE
  5
4D
  8
HOLE
 66
     1
 10
0.0
 20
0.0
 30
0.0
 70
     1
  0
VERTEX
  5
149
  8
HOLE
 10
146.0888527777778
 20
119.4429833333333
 30
0.0
  0
VERTEX
  5
14A
  8
HOLE
 10
144.8925833333334
 20
122.19465
 30
0.0
  0
VERTEX
  5
14B
  8
HOLE
 10
152.2303611111112
 20
125.3848194444444
 30
0.0
  0
VERTEX
  5
14C
  8
HOLE
 10
153.4269833333334
 20
122.6335055555556
 30
0.0
  0
SEQEND
  5
14D
  8
HOLE
  0
POLYLINE
  5
4E
  8
HOLE
 66
     1
 10
0.0
 20
0.0
 30
0.0
 70
     1
  0
VERTEX
  5
14E
  8
HOLE
 10
125.4143111111112
 20
113.7258666666667
 30
0.0
  0
VERTEX
  5
14F
  8
HOLE
 10
126.6109333333334
 20
110.9742
 30
0.0
  0
VERTEX
  5
150
  8
HOLE
 10
119.2728027777778
 20
107.7836777777778
 30
0.0
  0
VERTEX
  5
151
  8
HOLE
 10
118.0765333333334
 20
110.5353444444444
 30
0.0
  0
SEQEND
  5
152
  8
HOLE
  0
POLYLINE
  5
4F
  8
HOLE
 66
     1
 10
0.0
 20
0.0
 30
0.0
 70
     1
  0
VERTEX
  5
153
  8
HOLE
 10
203.7898916666667
 20
136.2447305555555
 30
0.0
  0
VERTEX
  5
154
  8
HOLE
 10
203.7898916666667
 20
130.2771416666667
 30
0.0
  0
VERTEX
  5
155
  8
HOLE
 10
188.2687277777778
 20
130.2771416666667
 30
0.0
  0
VERTEX
  5
156
  8
HOLE
 10
188.2687277777778
 20
127.2767666666667
 30
0.0
  0
VERTEX
  5
157
  8
HOLE
 10
185.268
 20
127.2767666666667
 30
0.0
  0
VERTEX
  5
158
  8
HOLE
 10
185.268
 20
130.2771416666667
 30
0.0
  0
VERTEX
  5
159
  8
HOLE
 10
169.7468361111112
 20
130.2771416666667
 30
0.0
  0
VERTEX
  5
15A
  8
HOLE
 10
169.7468361111112
 20
136.2447305555555
 30
0.0
  0
VERTEX
  5
15B
  8
HOLE
 10
185.268
 20
136.2447305555555
 30
0.0
  0
VERTEX
  5
15C
  8
HOLE
 10
185.268
 20
139.2454583333333
 30
0.0
  0
VERTEX
  5
15D
  8
HOLE
 10
188.2687277777778
 20
139.2454583333333
 30
0.0
  0
VERTEX
  5
15E
  8
HOLE
 10
188.2687277777778
 20
136.2447305555555
 30
0.0
  0
SEQEND
  5
15F
  8
HOLE
  0
POLYLINE
  5
50
  8
HOLE
 66
     1
 10
0.0
 20
0.0
 30
0.0
 70
     1
  0
VERTEX
  5
160
  8
HOLE
 10
195.691525
 20
110.6383555555556
 30
0.0
  0
VERTEX
  5
161
  8
HOLE
 10
196.8877944444445
 20
113.3900222222222
 30
0.0
  0
VERTEX
  5
162
  8
HOLE
 10
204.225925
 20
110.1995
 30
0.0
  0
VERTEX
  5
163
  8
HOLE
 10
203.0293027777778
 20
107.4478333333333
 30
0.0
  0
SEQEND
  5
164
  8
HOLE
  0
POLYLINE
  5
51
  8
HOLE
 66
     1
 10
0.0
 20
0.0
 30
0.0
 70
     1
  0
VERTEX
  5
165
  8
HOLE
 10
168.1028916666667
 20
122.6335055555556
 30
0.0
  0
VERTEX
  5
166
  8
HOLE
 10
169.2991611111112
 20
125.3848194444444
 30
0.0
  0
VERTEX
  5
167
  8
HOLE
 10
176.6372916666667
 20
122.19465
 30
0.0
  0
VERTEX
  5
168
  8
HOLE
 10
175.4406694444445
 20
119.4429833333333
 30
0.0
  0
SEQEND
  5
169
  8
HOLE
  0
POLYLINE
  5
52
  8
HOLE
 66
     1
 10
0.0
 20
0.0
 30
0.0
 70
     1
  0
VERTEX
  5
16A
  8
HOLE
 10
138.8872472222223
 20
160.1355472222222
 30
0.0
  0
VERTEX
  5
16B
  8
HOLE
 10
153.8901805555556
 20
160.1355472222222
 30
0.0
  0
VERTEX
  5
16C
  8
HOLE
 10
153.8901805555556
 20
175.0079527777778
 30
0.0
  0
VERTEX
  5
16D
  8
HOLE
 10
138.8872472222223
 20
175.0079527777778
 30
0.0
  0
VERTEX
  5
16E
  8
HOLE
 10
138.8872472222223
 20
178.0083277777778
 30
0.0
  0
VERTEX
  5
16F
  8
HOLE
 10
135.8865194444445
 20
178.0083277777778
 30
0.0
  0
VERTEX
  5
170
  8
HOLE
 10
135.8865194444445
 20
175.0079527777778
 30
0.0
  0
VERTEX
  5
171
  8
HOLE
 10
120.8835861111112
 20
175.0079527777778
 30
0.0
  0
VERTEX
  5
172
  8
HOLE
 10
120.8835861111112
 20
160.1355472222222
 30
0.0
  0
VERTEX
  5
173
  8
HOLE
 10
135.8865194444445
 20
160.1355472222222
 30
0.0
  0
VERTEX
  5
174
  8
HOLE
 10
135.8865194444445
 20
157.1351722222223
 30
0.0
  0
VERTEX
  5
175
  8
HOLE
 10
138.8872472222223
 20
157.1351722222223
 30
0.0
  0
SEQEND
  5
176
  8
HOLE
  0
POLYLINE
  5
53
  8
HOLE
 66
     1
 10
0.0
 20
0.0
 30
0.0
 70
     1
  0
VERTEX
  5
177
  8
HOLE
 10
114.3268583333334
 20
200.1712388888889
 30
0.0
  0
VERTEX
  5
178
  8
HOLE
 10
128.3716472222223
 20
189.4915972222222
 30
0.0
  0
VERTEX
  5
179
  8
HOLE
 10
146.4021194444445
 20
189.4915972222222
 30
0.0
  0
VERTEX
  5
17A
  8
HOLE
 10
160.4469083333334
 20
200.1712388888889
 30
0.0
  0
VERTEX
  5
17B
  8
HOLE
 10
160.4469083333334
 20
226.0570138888889
 30
0.0
  0
VERTEX
  5
17C
  8
HOLE
 10
142.3878611111112
 20
226.0570138888889
 30
0.0
  0
VERTEX
  5
17D
  8
HOLE
 10
142.3878611111112
 20
223.0566388888889
 30
0.0
  0
VERTEX
  5
17E
  8
HOLE
 10
132.3859055555556
 20
223.0566388888889
 30
0.0
  0
VERTEX
  5
17F
  8
HOLE
 10
132.3859055555556
 20
226.0570138888889
 30
0.0
  0
VERTEX
  5
180
  8
HOLE
 10
114.3268583333334
 20
226.0570138888889
 30
0.0
  0
SEQEND
  5
181
  8
HOLE
  0
POLYLINE
  5
54
  8
HOLE
 66
     1
 10
0.0
 20
0.0
 30
0.0
 70
     1
  0
VERTEX
  5
182
  8
HOLE
 10
218.7490805555556
 20
200.1712388888889
 30
0.0
  0
VERTEX
  5
183
  8
HOLE
 10
232.7938694444445
 20
189.4915972222222
 30
0.0
  0
VERTEX
  5
184
  8
HOLE
 10
250.8239888888889
 20
189.4915972222222
 30
0.0
  0
VERTEX
  5
185
  8
HOLE
 10
264.8687777777778
 20
200.1712388888889
 30
0.0
  0
VERTEX
  5
186
  8
HOLE
 10
264.8687777777778
 20
226.0570138888889
 30
0.0
  0
VERTEX
  5
187
  8
HOLE
 10
246.8100833333334
 20
226.0570138888889
 30
0.0
  0
VERTEX
  5
188
  8
HOLE
 10
246.8100833333334
 20
223.0566388888889
 30
0.0
  0
VERTEX
  5
189
  8
HOLE
 10
236.807775
 20
223.0566388888889
 30
0.0
  0
VERTEX
  5
18A
  8
HOLE
 10
236.807775
 20
226.0570138888889
 30
0.0
  0
VERTEX
  5
18B
  8
HOLE
 10
218.7490805555556
 20
226.0570138888889
 30
0.0
  0
SEQEND
  5
18C
  8
HOLE
  0
POLYLINE
  5
55
  8
HOLE
 66
     1
 10
0.0
 20
0.0
 30
0.0
 70
     1
  0
VERTEX
  5
18D
  8
HOLE
 10
225.3054555555556
 20
160.1355472222222
 30
0.0
  0
VERTEX
  5
18E
  8
HOLE
 10
240.3087416666667
 20
160.1355472222222
 30
0.0
  0
VERTEX
  5
18F
  8
HOLE
 10
240.3087416666667
 20
157.1351722222223
 30
0.0
  0
VERTEX
  5
190
  8
HOLE
 10
243.3091166666667
 20
157.1351722222223
 30
0.0
  0
VERTEX
  5
191
  8
HOLE
 10
243.3091166666667
 20
160.1355472222222
 30
0.0
  0
VERTEX
  5
192
  8
HOLE
 10
258.31205
 20
160.1355472222222
 30
0.0
  0
VERTEX
  5
193
  8
HOLE
 10
258.31205
 20
175.0079527777778
 30
0.0
  0
VERTEX
  5
194
  8
HOLE
 10
243.3091166666667
 20
175.0079527777778
 30
0.0
  0
VERTEX
  5
195
  8
HOLE
 10
243.3091166666667
 20
178.0083277777778
 30
0.0
  0
VERTEX
  5
196
  8
HOLE
 10
240.3087416666667
 20
178.0083277777778
 30
0.0
  0
VERTEX
  5
197
  8
HOLE
 10
240.3087416666667
 20
175.0079527777778
 30
0.0
  0
VERTEX
  5
198
  8
HOLE
 10
225.3054555555556
 20
175.0079527777778
 30
0.0
  0
SEQEND
  5
199
  8
HOLE
  0
POLYLINE
  5
56
  8
HOLE
 66
     1
 10
0.0
 20
0.0
 30
0.0
 70
     1
  0
VERTEX
  5
19A
  8
HOLE
 10
303.8175611111111
 20
156.4924111111111
 30
0.0
  0
VERTEX
  5
19B
  8
HOLE
 10
304.0260527777777
 20
156.67515
 30
0.0
  0
VERTEX
  5
19C
  8
HOLE
 10
304.2091444444444
 20
156.8839944444445
 30
0.0
  0
VERTEX
  5
19D
  8
HOLE
 10
304.3633083333333
 20
157.1147111111111
 30
0.0
  0
VERTEX
  5
19E
  8
HOLE
 10
304.486075
 20
157.3634194444444
 30
0.0
  0
VERTEX
  5
19F
  8
HOLE
 10
304.5753277777778
 20
157.6265916666667
 30
0.0
  0
VERTEX
  5
1A0
  8
HOLE
 10
304.6296555555556
 20
157.8985833333333
 30
0.0
  0
VERTEX
  5
1A1
  8
HOLE
 10
304.6476472222223
 20
158.1755138888889
 30
0.0
  0
VERTEX
  5
1A2
  8
HOLE
 10
304.6296555555556
 20
158.4524444444445
 30
0.0
  0
VERTEX
  5
1A3
  8
HOLE
 10
304.5753277777778
 20
158.7247888888889
 30
0.0
  0
VERTEX
  5
1A4
  8
HOLE
 10
304.486075
 20
158.9876083333333
 30
0.0
  0
VERTEX
  5
1A5
  8
HOLE
 10
304.3633083333333
 20
159.2363166666667
 30
0.0
  0
VERTEX
  5
1A6
  8
HOLE
 10
304.2091444444444
 20
159.4673861111111
 30
0.0
  0
VERTEX
  5
1A7
  8
HOLE
 10
304.0260527777777
 20
159.6758777777778
 30
0.0
  0
VERTEX
  5
1A8
  8
HOLE
 10
303.8175611111111
 20
159.8589694444445
 30
0.0
  0
VERTEX
  5
1A9
  8
HOLE
 10
303.5868444444444
 20
160.0131333333333
 30
0.0
  0
VERTEX
  5
1AA
  8
HOLE
 10
303.3377833333334
 20
160.1359
 30
0.0
  0
VERTEX
  5
1AB
  8
HOLE
 10
303.0749638888889
 20
160.2248
 30
0.0
  0
VERTEX
  5
1AC
  8
HOLE
 10
302.8029722222223
 20
160.2791277777778
 30
0.0
  0
VERTEX
  5
1AD
  8
HOLE
 10
302.5260416666667
 20
160.2974722222222
 30
0.0
  0
VERTEX
  5
1AE
  8
HOLE
 10
302.2487583333333
 20
160.2791277777778
 30
0.0
  0
VERTEX
  5
1AF
  8
HOLE
 10
301.9767666666667
 20
160.2248
 30
0.0
  0
VERTEX
  5
1B0
  8
HOLE
 10
301.7139472222223
 20
160.1359
 30
0.0
  0
VERTEX
  5
1B1
  8
HOLE
 10
301.4648861111111
 20
160.0131333333333
 30
0.0
  0
VERTEX
  5
1B2
  8
HOLE
 10
301.2341694444444
 20
159.8589694444445
 30
0.0
  0
VERTEX
  5
1B3
  8
HOLE
 10
301.0256777777778
 20
159.6758777777778
 30
0.0
  0
VERTEX
  5
1B4
  8
HOLE
 10
300.8425861111111
 20
159.4673861111111
 30
0.0
  0
VERTEX
  5
1B5
  8
HOLE
 10
300.6884222222222
 20
159.2363166666667
 30
0.0
  0
VERTEX
  5
1B6
  8
HOLE
 10
300.5656555555556
 20
158.9876083333333
 30
0.0
  0
VERTEX
  5
1B7
  8
HOLE
 10
300.4764027777778
 20
158.7247888888889
 30
0.0
  0
VERTEX
  5
1B8
  8
HOLE
 10
300.4224277777778
 20
158.4524444444445
 30
0.0
  0
VERTEX
  5
1B9
  8
HOLE
 10
300.4040833333333
 20
158.1755138888889
 30
0.0
  0
VERTEX
  5
1BA
  8
HOLE
 10
300.4224277777778
 20
157.8985833333333
 30
0.0
  0
VERTEX
  5
1BB
  8
HOLE
 10
300.4764027777778
 20
157.6265916666667
 30
0.0
  0
VERTEX
  5
1BC
  8
HOLE
 10
300.5656555555556
 20
157.3634194444444
 30
0.0
  0
VERTEX
  5
1BD
  8
HOLE
 10
300.6884222222222
 20
157.1147111111111
 30
0.0
  0
VERTEX
  5
1BE
  8
HOLE
 10
300.8425861111111
 20
156.8839944444445
 30
0.0
  0
VERTEX
  5
1BF
  8
HOLE
 10
301.0256777777778
 20
156.67515
 30
0.0
  0
VERTEX
  5
1C0
  8
HOLE
 10
301.2341694444444
 20
156.4924111111111
 30
0.0
  0
VERTEX
  5
1C1
  8
HOLE
 10
301.4648861111111
 20
156.3382472222222
 30
0.0
  0
VERTEX
  5
1C2
  8
HOLE
 10
301.7139472222223
 20
156.2151277777778
 30
0.0
  0
VERTEX
  5
1C3
  8
HOLE
 10
301.9767666666667
 20
156.125875
 30
0.0
  0
VERTEX
  5
1C4
  8
HOLE
 10
302.2487583333333
 20
156.0719
 30
0.0
  0
VERTEX
  5
1C5
  8
HOLE
 10
302.5260416666667
 20
156.0539083333333
 30
0.0
  0
VERTEX
  5
1C6
  8
HOLE
 10
302.8029722222223
 20
156.0719
 30
0.0
  0
VERTEX
  5
1C7
  8
HOLE
 10
303.0749638888889
 20
156.125875
 30
0.0
  0
VERTEX
  5
1C8
  8
HOLE
 10
303.3377833333334
 20
156.2151277777778
 30
0.0
  0
VERTEX
  5
1C9
  8
HOLE
 10
303.5868444444444
 20
156.3382472222222
 30
0.0
  0
SEQEND
  5
1CA
  8
HOLE
  0
POLYLINE
  5
57
  8
HOLE
 66
     1
 10
0.0
 20
0.0
 30
0.0
 70
     1
  0
VERTEX
  5
1CB
  8
HOLE
 10
323.6066305555556
 20
130.9707027777778
 30
0.0
  0
VERTEX
  5
1CC
  8
HOLE
 10
313.604675
 20
130.9707027777778
 30
0.0
  0
VERTEX
  5
1CD
  8
HOLE
 10
313.604675
 20
127.9703277777778
 30
0.0
  0
VERTEX
  5
1CE
  8
HOLE
 10
323.6066305555556
 20
127.9703277777778
 30
0.0
  0
SEQEND
  5
1CF
  8
HOLE
  0
POLYLINE
  5
58
  8
HOLE
 66
     1
 10
0.0
 20
0.0
 30
0.0
 70
     1
  0
VERTEX
  5
1D0
  8
HOLE
 10
251.7743722222222
 20
95.0914388888889
 30
0.0
  0
VERTEX
  5
1D1
  8
HOLE
 10
256.3534277777778
 20
103.9832027777778
 30
0.0
  0
VERTEX
  5
1D2
  8
HOLE
 10
253.6857222222222
 20
105.3569194444445
 30
0.0
  0
VERTEX
  5
1D3
  8
HOLE
 10
249.1066666666667
 20
96.46515555555557
 30
0.0
  0
SEQEND
  5
1D4
  8
HOLE
  0
POLYLINE
  5
59
  8
HOLE
 66
     1
 10
0.0
 20
0.0
 30
0.0
 70
     1
  0
VERTEX
  5
1D5
  8
HOLE
 10
239.3012083333334
 20
70.87183333333336
 30
0.0
  0
VERTEX
  5
1D6
  8
HOLE
 10
243.8806166666667
 20
79.76395000000001
 30
0.0
  0
VERTEX
  5
1D7
  8
HOLE
 10
241.2129111111111
 20
81.13766666666669
 30
0.0
  0
VERTEX
  5
1D8
  8
HOLE
 10
236.6338555555556
 20
72.24555000000001
 30
0.0
  0
SEQEND
  5
1D9
  8
HOLE
  0
POLYLINE
  5
5A
  8
HOLE
 66
     1
 10
0.0
 20
0.0
 30
0.0
 70
     1
  0
VERTEX
  5
1DA
  8
HOLE
 10
243.8806166666667
 20
44.19548333333335
 30
0.0
  0
VERTEX
  5
1DB
  8
HOLE
 10
239.3012083333334
 20
53.08760000000002
 30
0.0
  0
VERTEX
  5
1DC
  8
HOLE
 10
236.6338555555556
 20
51.71388333333335
 30
0.0
  0
VERTEX
  5
1DD
  8
HOLE
 10
241.2129111111111
 20
42.82176666666668
 30
0.0
  0
SEQEND
  5
1DE
  8
HOLE
  0
POLYLINE
  5
5B
  8
HOLE
 66
     1
 10
0.0
 20
0.0
 30
0.0
 70
     1
  0
VERTEX
  5
1DF
  8
HOLE
 10
253.9234944444445
 20
24.69428055555557
 30
0.0
  0
VERTEX
  5
1E0
  8
HOLE
 10
251.2561416666667
 20
23.32056388888891
 30
0.0
  0
VERTEX
  5
1E1
  8
HOLE
 10
255.8351972222223
 20
14.42880000000002
 30
0.0
  0
VERTEX
  5
1E2
  8
HOLE
 10
258.5029027777778
 20
15.80251666666668
 30
0.0
  0
SEQEND
  5
1E3
  8
HOLE
  0
POLYLINE
  5
5C
  8
HOLE
 66
     1
 10
0.0
 20
0.0
 30
0.0
 70
     1
  0
VERTEX
  5
1E4
  8
HOLE
 10
107.9511055555556
 20
40.85009166666668
 30
0.0
  0
VERTEX
  5
1E5
  8
HOLE
 10
110.9514805555556
 20
40.85009166666668
 30
0.0
  0
VERTEX
  5
1E6
  8
HOLE
 10
110.9514805555556
 20
48.85179722222224
 30
0.0
  0
VERTEX
  5
1E7
  8
HOLE
 10
107.9511055555556
 20
48.85179722222224
 30
0.0
  0
SEQEND
  5
1E8
  8
HOLE
  0
POLYLINE
  5
5D
  8
HOLE
 66
     1
 10
0.0
 20
0.0
 30
0.0
 70
     1
  0
VERTEX
  5
1E9
  8
HOLE
 10
107.9511055555556
 20
18.60851111111113
 30
0.0
  0
VERTEX
  5
1EA
  8
HOLE
 10
107.9511055555556
 20
10.60680555555557
 30
0.0
  0
VERTEX
  5
1EB
  8
HOLE
 10
110.9514805555556
 20
10.60680555555557
 30
0.0
  0
VERTEX
  5
1EC
  8
HOLE
 10
110.9514805555556
 20
18.60851111111113
 30
0.0
  0
SEQEND
  5
1ED
  8
HOLE
  0
POLYLINE
  5
5E
  8
HOLE
 66
     1
 10
0.0
 20
0.0
 30
0.0
 70
     1
  0
VERTEX
  5
1EE
  8
HOLE
 10
318.9951194444444
 20
214.1863944444444
 30
0.0
  0
VERTEX
  5
1EF
  8
HOLE
 10
318.9951194444444
 20
229.0588
 30
0.0
  0
VERTEX
  5
1F0
  8
HOLE
 10
285.9888777777778
 20
229.0588
 30
0.0
  0
VERTEX
  5
1F1
  8
HOLE
 10
285.9888777777778
 20
214.1863944444444
 30
0.0
  0
SEQEND
  5
1F2
  8
HOLE
  0
POLYLINE
  5
5F
  8
HOLE
 66
     1
 10
0.0
 20
0.0
 30
0.0
 70
     1
  0
VERTEX
  5
1F3
  8
HOLE
 10
318.1484527777778
 20
186.2463944444444
 30
0.0
  0
VERTEX
  5
1F4
  8
HOLE
 10
318.1484527777778
 20
201.1188
 30
0.0
  0
VERTEX
  5
1F5
  8
HOLE
 10
285.1422111111111
 20
201.1188
 30
0.0
  0
VERTEX
  5
1F6
  8
HOLE
 10
285.1422111111111
 20
186.2463944444444
 30
0.0
  0
SEQEND
  5
1F7
  8
HOLE
  0
ENDSEC
  0
EOF
