  0
SECTION
  2
HEADER
  9
$ACADVER
  1
AC1009
  9
$DWGCODEPAGE
  3
ansi_1252
  9
$INSBASE
 10
0.0
 20
0.0
 30
0.0
  9
$EXTMIN
 10
8.794566666666677
 20
8.173945833333343
 30
0.0
  9
$EXTMAX
 10
331.7894333333332
 20
239.5880541666667
 30
0.0
  9
$LIMMIN
 10
0.0
 20
0.0
  9
$LIMMAX
 10
12.0
 20
9.0
  9
$ORTHOMODE
 70
     0
  9
$REGENMODE
 70
     1
  9
$FILLMODE
 70
     1
  9
$QTEXTMODE
 70
     0
  9
$MIRRTEXT
 70
     1
  9
$DRAGMODE
 70
     2
  9
$LTSCALE
 40
1.0
  9
$OSMODE
 70
    37
  9
$ATTMODE
 70
     1
  9
$TEXTSIZE
 40
0.2
  9
$TRACEWID
 40
0.05
  9
$TEXTSTYLE
  7
STANDARD
  9
$CLAYER
  8
0
  9
$CELTYPE
  6
BYLAYER
  9
$CECOLOR
 62
   256
  9
$DIMSCALE
 40
1.0
  9
$DIMASZ
 40
0.18
  9
$DIMEXO
 40
0.0625
  9
$DIMDLI
 40
0.38
  9
$DIMRND
 40
0.0
  9
$DIMDLE
 40
0.0
  9
$DIMEXE
 40
0.18
  9
$DIMTP
 40
0.0
  9
$DIMTM
 40
0.0
  9
$DIMTXT
 40
0.18
  9
$DIMCEN
 40
0.09
  9
$DIMTSZ
 40
0.0
  9
$DIMTOL
 70
     0
  9
$DIMLIM
 70
     0
  9
$DIMTIH
 70
     1
  9
$DIMTOH
 70
     1
  9
$DIMSE1
 70
     0
  9
$DIMSE2
 70
     0
  9
$DIMTAD
 70
     0
  9
$DIMZIN
 70
     0
  9
$DIMBLK
  1

  9
$DIMASO
 70
     1
  9
$DIMSHO
 70
     1
  9
$DIMPOST
  1

  9
$DIMAPOST
  1

  9
$DIMALT
 70
     0
  9
$DIMALTD
 70
     2
  9
$DIMALTF
 40
25.4
  9
$DIMLFAC
 40
1.0
  9
$DIMTOFL
 70
     0
  9
$DIMTVP
 40
0.0
  9
$DIMTIX
 70
     0
  9
$DIMSOXD
 70
     0
  9
$DIMSAH
 70
     0
  9
$DIMBLK1
  1

  9
$DIMBLK2
  1

  9
$DIMSTYLE
  2
STANDARD
  9
$DIMCLRD
 70
     0
  9
$DIMCLRE
 70
     0
  9
$DIMCLRT
 70
     0
  9
$DIMTFAC
 40
1.0
  9
$DIMGAP
 40
0.09
  9
$LUNITS
 70
     2
  9
$LUPREC
 70
     4
  9
$SKETCHINC
 40
0.1
  9
$FILLETRAD
 40
0.5
  9
$AUNITS
 70
     0
  9
$AUPREC
 70
     0
  9
$MENU
  1
.
  9
$ELEVATION
 40
0.0
  9
$PELEVATION
 40
0.0
  9
$THICKNESS
 40
0.0
  9
$LIMCHECK
 70
     0
  9
$CHAMFERA
 40
0.5
  9
$CHAMFERB
 40
0.5
  9
$SKPOLY
 70
     0
  9
$TDCREATE
 40
2454910.5
  9
$TDUPDATE
 40
2456638.037051088
  9
$TDINDWG
 40
0.0000000116
  9
$TDUSRTIMER
 40
0.0000000116
  9
$USRTIMER
 70
     1
  9
$ANGBASE
 50
0.0
  9
$ANGDIR
 70
     0
  9
$PDMODE
 70
     0
  9
$PDSIZE
 40
0.0
  9
$PLINEWID
 40
0.0
  9
$COORDS
 70
     1
  9
$SPLFRAME
 70
     0
  9
$SPLINETYPE
 70
     6
  9
$SPLINESEGS
 70
     8
  9
$ATTDIA
 70
     0
  9
$ATTREQ
 70
     1
  9
$HANDLING
 70
     1
  9
$HANDSEED
  5
388
  9
$SURFTAB1
 70
     6
  9
$SURFTAB2
 70
     6
  9
$SURFTYPE
 70
     6
  9
$SURFU
 70
     6
  9
$SURFV
 70
     6
  9
$UCSNAME
  2

  9
$UCSORG
 10
0.0
 20
0.0
 30
0.0
  9
$UCSXDIR
 10
1.0
 20
0.0
 30
0.0
  9
$UCSYDIR
 10
0.0
 20
1.0
 30
0.0
  9
$PUCSNAME
  2

  9
$PUCSORG
 10
0.0
 20
0.0
 30
0.0
  9
$PUCSXDIR
 10
1.0
 20
0.0
 30
0.0
  9
$PUCSYDIR
 10
0.0
 20
1.0
 30
0.0
  9
$USERI1
 70
     0
  9
$USERI2
 70
     0
  9
$USERI3
 70
     0
  9
$USERI4
 70
     0
  9
$USERI5
 70
     0
  9
$USERR1
 40
0.0
  9
$USERR2
 40
0.0
  9
$USERR3
 40
0.0
  9
$USERR4
 40
0.0
  9
$USERR5
 40
0.0
  9
$WORLDVIEW
 70
     1
  9
$SHADEDGE
 70
     3
  9
$SHADEDIF
 70
    70
  9
$TILEMODE
 70
     1
  9
$MAXACTVP
 70
    64
  9
$PLIMCHECK
 70
     0
  9
$PEXTMIN
 10
1.000000000000000E+20
 20
1.000000000000000E+20
 30
1.000000000000000E+20
  9
$PEXTMAX
 10
-1.000000000000000E+20
 20
-1.000000000000000E+20
 30
-1.000000000000000E+20
  9
$PLIMMIN
 10
0.0
 20
0.0
  9
$PLIMMAX
 10
12.0
 20
9.0
  9
$UNITMODE
 70
     0
  9
$VISRETAIN
 70
     1
  9
$PLINEGEN
 70
     0
  9
$PSLTSCALE
 70
     1
  0
ENDSEC
  0
SECTION
  2
TABLES
  0
TABLE
  2
VPORT
 70
     1
  0
VPORT
  2
*ACTIVE
 70
     0
 10
0.0
 20
0.0
 11
1.0
 21
1.0
 12
10.42990654205607
 22
4.5
 13
0.0
 23
0.0
 14
0.5
 24
0.5
 15
0.5
 25
0.5
 16
0.0
 26
0.0
 36
1.0
 17
0.0
 27
0.0
 37
0.0
 40
9.0
 41
1.972972972850329
 42
50.0
 43
0.0
 44
0.0
 50
0.0
 51
0.0
 71
     0
 72
   100
 73
     1
 74
     3
 75
     0
 76
     0
 77
     0
 78
     0
  0
ENDTAB
  0
TABLE
  2
LTYPE
 70
     2
  0
LTYPE
  2
CONTINUOUS
 70
     0
  3
Solid line
 72
    65
 73
     0
 40
0.0
  0
LTYPE
  2
CONTINUOUS2
 70
     0
  3
Solid Line
 72
    65
 73
     0
 40
0.0
  0
ENDTAB
  0
TABLE
  2
LAYER
 70
     3
  0
LAYER
  2
0
 70
     0
 62
     7
  6
CONTINUOUS
  0
LAYER
  2
LAYER_1
 70
     0
 62
    18
  6
CONTINUOUS
  0
LAYER
  2
HOLE
 70
     0
 62
     1
  6
CONTINUOUS
  0
ENDTAB
  0
TABLE
  2
STYLE
 70
     1
  0
STYLE
  2
STANDARD
 70
     0
 40
0.0
 41
1.0
 50
0.0
 71
     0
 42
0.2
  3
txt
  4

  0
ENDTAB
  0
TABLE
  2
VIEW
 70
     0
  0
ENDTAB
  0
TABLE
  2
UCS
 70
     0
  0
ENDTAB
  0
TABLE
  2
APPID
 70
     1
  0
APPID
  2
ACAD
 70
     0
  0
ENDTAB
  0
TABLE
  2
DIMSTYLE
 70
     1
  0
DIMSTYLE
  2
STANDARD
 70
     0
  3

  4

  5

  6

  7

 40
1.0
 41
0.18
 42
0.0625
 43
0.38
 44
0.18
 45
0.0
 46
0.0
 47
0.0
 48
0.0
140
0.18
141
0.09
142
0.0
143
25.4
144
1.0
145
0.0
146
1.0
147
0.09
 71
     0
 72
     0
 73
     1
 74
     1
 75
     0
 76
     0
 77
     0
 78
     0
170
     0
171
     2
172
     0
173
     0
174
     0
175
     0
176
     0
177
     0
178
     0
  0
ENDTAB
  0
ENDSEC
  0
SECTION
  2
BLOCKS
  0
BLOCK
  8
0
  2
$MODEL_SPACE
 70
     0
 10
0.0
 20
0.0
 30
0.0
  3
$MODEL_SPACE
  1

  0
ENDBLK
  5
21
  8
0
  0
BLOCK
 67
     1
  8
0
  2
$PAPER_SPACE
 70
     0
 10
0.0
 20
0.0
 30
0.0
  3
$PAPER_SPACE
  1

  0
ENDBLK
  5
1D
 67
     1
  8
0
  0
ENDSEC
  0
SECTION
  2
ENTITIES
  0
POLYLINE
  5
41
  8
LAYER_1
 66
     1
 10
0.0
 20
0.0
 30
0.0
 70
     1
  0
VERTEX
  5
7E
  8
LAYER_1
 10
146.0547555555555
 20
15.26301527777779
 30
0.0
  0
VERTEX
  5
7F
  8
LAYER_1
 10
123.1690027777778
 20
15.26301527777779
 30
0.0
  0
VERTEX
  5
80
  8
LAYER_1
 10
123.1690027777778
 20
28.55215416666667
 30
0.0
  0
VERTEX
  5
81
  8
LAYER_1
 10
146.0547555555555
 20
28.55215416666667
 30
0.0
  0
SEQEND
  5
82
  8
LAYER_1
  0
POLYLINE
  5
42
  8
LAYER_1
 66
     1
 10
0.0
 20
0.0
 30
0.0
 70
     1
  0
VERTEX
  5
83
  8
LAYER_1
 10
324.9233194444445
 20
181.0481097222222
 30
0.0
  0
VERTEX
  5
84
  8
LAYER_1
 10
324.9233194444445
 20
158.1627097222222
 30
0.0
  0
VERTEX
  5
85
  8
LAYER_1
 10
311.6341805555555
 20
158.1627097222222
 30
0.0
  0
VERTEX
  5
86
  8
LAYER_1
 10
311.6341805555555
 20
181.0481097222222
 30
0.0
  0
SEQEND
  5
87
  8
LAYER_1
  0
POLYLINE
  5
43
  8
LAYER_1
 66
     1
 10
0.0
 20
0.0
 30
0.0
 70
     1
  0
VERTEX
  5
88
  8
LAYER_1
 10
240.5406388888889
 20
223.8608680555556
 30
0.0
  0
VERTEX
  5
89
  8
LAYER_1
 10
225.8403888888889
 20
228.6664069444444
 30
0.0
  0
VERTEX
  5
8A
  8
LAYER_1
 10
240.5406388888889
 20
238.4238875
 30
0.0
  0
VERTEX
  5
8B
  8
LAYER_1
 10
240.5406388888889
 20
233.2793291666666
 30
0.0
  0
VERTEX
  5
8C
  8
LAYER_1
 10
236.5397861111111
 20
233.2793291666666
 30
0.0
  0
VERTEX
  5
8D
  8
LAYER_1
 10
236.5397861111111
 20
230.2786013888889
 30
0.0
  0
VERTEX
  5
8E
  8
LAYER_1
 10
240.5406388888889
 20
230.2786013888889
 30
0.0
  0
SEQEND
  5
8F
  8
LAYER_1
  0
POLYLINE
  5
44
  8
LAYER_1
 66
     1
 10
0.0
 20
0.0
 30
0.0
 70
     1
  0
VERTEX
  5
90
  8
LAYER_1
 10
276.3712194444444
 20
26.07565416666668
 30
0.0
  0
VERTEX
  5
91
  8
LAYER_1
 10
282.8002416666667
 20
26.07565416666668
 30
0.0
  0
VERTEX
  5
92
  8
LAYER_1
 10
282.8002416666667
 20
23.07527916666668
 30
0.0
  0
VERTEX
  5
93
  8
LAYER_1
 10
285.8009694444444
 20
23.07527916666668
 30
0.0
  0
VERTEX
  5
94
  8
LAYER_1
 10
285.8009694444444
 20
20.0745513888889
 30
0.0
  0
VERTEX
  5
95
  8
LAYER_1
 10
289.9369361111111
 20
20.0745513888889
 30
0.0
  0
VERTEX
  5
96
  8
LAYER_1
 10
289.9369361111111
 20
18.07394861111112
 30
0.0
  0
VERTEX
  5
97
  8
LAYER_1
 10
289.8596777777777
 20
17.29360416666668
 30
0.0
  0
VERTEX
  5
98
  8
LAYER_1
 10
289.6321361111111
 20
16.54324583333334
 30
0.0
  0
VERTEX
  5
99
  8
LAYER_1
 10
289.2627777777777
 20
15.85144861111112
 30
0.0
  0
VERTEX
  5
9A
  8
LAYER_1
 10
288.7650083333333
 20
15.24502361111112
 30
0.0
  0
VERTEX
  5
9B
  8
LAYER_1
 10
288.1585833333334
 20
14.74725416666668
 30
0.0
  0
VERTEX
  5
9C
  8
LAYER_1
 10
287.4671388888888
 20
14.37789583333334
 30
0.0
  0
VERTEX
  5
9D
  8
LAYER_1
 10
286.7164277777778
 20
14.15035416666668
 30
0.0
  0
VERTEX
  5
9E
  8
LAYER_1
 10
285.9360833333333
 20
14.07309583333334
 30
0.0
  0
VERTEX
  5
9F
  8
LAYER_1
 10
270.7578194444444
 20
14.07309583333334
 30
0.0
  0
VERTEX
  5
A0
  8
LAYER_1
 10
269.9771222222222
 20
14.15035416666668
 30
0.0
  0
VERTEX
  5
A1
  8
LAYER_1
 10
269.2267638888889
 20
14.37789583333334
 30
0.0
  0
VERTEX
  5
A2
  8
LAYER_1
 10
268.5353194444444
 20
14.74725416666668
 30
0.0
  0
VERTEX
  5
A3
  8
LAYER_1
 10
267.9288944444444
 20
15.24502361111112
 30
0.0
  0
VERTEX
  5
A4
  8
LAYER_1
 10
267.431125
 20
15.85144861111112
 30
0.0
  0
VERTEX
  5
A5
  8
LAYER_1
 10
267.0614138888889
 20
16.54324583333334
 30
0.0
  0
VERTEX
  5
A6
  8
LAYER_1
 10
266.8338722222222
 20
17.29360416666668
 30
0.0
  0
VERTEX
  5
A7
  8
LAYER_1
 10
266.7569666666667
 20
18.07394861111112
 30
0.0
  0
VERTEX
  5
A8
  8
LAYER_1
 10
266.7569666666667
 20
26.07565416666668
 30
0.0
  0
VERTEX
  5
A9
  8
LAYER_1
 10
270.1055333333333
 20
26.07565416666668
 30
0.0
  0
VERTEX
  5
AA
  8
LAYER_1
 10
270.1055333333333
 20
20.0745513888889
 30
0.0
  0
VERTEX
  5
AB
  8
LAYER_1
 10
276.3712194444444
 20
20.0745513888889
 30
0.0
  0
SEQEND
  5
AC
  8
LAYER_1
  0
POLYLINE
  5
45
  8
LAYER_1
 66
     1
 10
0.0
 20
0.0
 30
0.0
 70
     1
  0
VERTEX
  5
AD
  8
LAYER_1
 10
33.42939166666667
 20
23.46580416666668
 30
0.0
  0
VERTEX
  5
AE
  8
LAYER_1
 10
33.42939166666667
 20
11.03603194444445
 30
0.0
  0
VERTEX
  5
AF
  8
LAYER_1
 10
13.42548055555557
 20
11.03603194444445
 30
0.0
  0
VERTEX
  5
B0
  8
LAYER_1
 10
13.42548055555557
 20
23.46580416666668
 30
0.0
  0
SEQEND
  5
B1
  8
LAYER_1
  0
POLYLINE
  5
46
  8
LAYER_1
 66
     1
 10
0.0
 20
0.0
 30
0.0
 70
     1
  0
VERTEX
  5
B2
  8
LAYER_1
 10
226.8391027777778
 20
8.490034722222234
 30
0.0
  0
VERTEX
  5
B3
  8
LAYER_1
 10
203.95335
 20
8.490034722222234
 30
0.0
  0
VERTEX
  5
B4
  8
LAYER_1
 10
203.95335
 20
21.77917361111112
 30
0.0
  0
VERTEX
  5
B5
  8
LAYER_1
 10
226.8391027777778
 20
21.77917361111112
 30
0.0
  0
SEQEND
  5
B6
  8
LAYER_1
  0
POLYLINE
  5
47
  8
LAYER_1
 66
     1
 10
0.0
 20
0.0
 30
0.0
 70
     1
  0
VERTEX
  5
B7
  8
LAYER_1
 10
290.244911111111
 20
152.5994041666667
 30
0.0
  0
VERTEX
  5
B8
  8
LAYER_1
 10
290.244911111111
 20
164.0421041666667
 30
0.0
  0
VERTEX
  5
B9
  8
LAYER_1
 10
297.1120833333333
 20
164.0421041666667
 30
0.0
  0
VERTEX
  5
BA
  8
LAYER_1
 10
297.1120833333333
 20
167.0424791666666
 30
0.0
  0
VERTEX
  5
BB
  8
LAYER_1
 10
290.244911111111
 20
167.0424791666666
 30
0.0
  0
VERTEX
  5
BC
  8
LAYER_1
 10
290.244911111111
 20
178.4851791666667
 30
0.0
  0
VERTEX
  5
BD
  8
LAYER_1
 10
305.2040999999999
 20
174.5573513888889
 30
0.0
  0
VERTEX
  5
BE
  8
LAYER_1
 10
305.2040999999999
 20
156.5268791666667
 30
0.0
  0
SEQEND
  5
BF
  8
LAYER_1
  0
POLYLINE
  5
48
  8
LAYER_1
 66
     1
 10
0.0
 20
0.0
 30
0.0
 70
     1
  0
VERTEX
  5
C0
  8
LAYER_1
 10
285.2026583333333
 20
229.8305736111111
 30
0.0
  0
VERTEX
  5
C1
  8
LAYER_1
 10
270.5024083333333
 20
225.0250347222222
 30
0.0
  0
VERTEX
  5
C2
  8
LAYER_1
 10
270.5024083333333
 20
231.4431208333334
 30
0.0
  0
VERTEX
  5
C3
  8
LAYER_1
 10
274.5029083333333
 20
231.4431208333334
 30
0.0
  0
VERTEX
  5
C4
  8
LAYER_1
 10
274.5029083333333
 20
234.4434958333333
 30
0.0
  0
VERTEX
  5
C5
  8
LAYER_1
 10
270.5024083333333
 20
234.4434958333333
 30
0.0
  0
VERTEX
  5
C6
  8
LAYER_1
 10
270.5024083333333
 20
239.5880541666667
 30
0.0
  0
SEQEND
  5
C7
  8
LAYER_1
  0
POLYLINE
  5
49
  8
LAYER_1
 66
     1
 10
0.0
 20
0.0
 30
0.0
 70
     1
  0
VERTEX
  5
C8
  8
LAYER_1
 10
294.8588916666666
 20
227.2253097222222
 30
0.0
  0
VERTEX
  5
C9
  8
LAYER_1
 10
294.8588916666666
 20
233.4384319444444
 30
0.0
  0
VERTEX
  5
CA
  8
LAYER_1
 10
294.9333277777778
 20
234.3771736111111
 30
0.0
  0
VERTEX
  5
CB
  8
LAYER_1
 10
295.1531083333333
 20
235.2929847222222
 30
0.0
  0
VERTEX
  5
CC
  8
LAYER_1
 10
295.5132944444443
 20
236.1632875
 30
0.0
  0
VERTEX
  5
CD
  8
LAYER_1
 10
296.0054194444444
 20
236.9658569444445
 30
0.0
  0
VERTEX
  5
CE
  8
LAYER_1
 10
296.6167833333333
 20
237.6819958333333
 30
0.0
  0
VERTEX
  5
CF
  8
LAYER_1
 10
297.3329222222221
 20
238.2937125
 30
0.0
  0
VERTEX
  5
D0
  8
LAYER_1
 10
298.1358444444444
 20
238.7858375
 30
0.0
  0
VERTEX
  5
D1
  8
LAYER_1
 10
299.0057944444444
 20
239.1460236111111
 30
0.0
  0
VERTEX
  5
D2
  8
LAYER_1
 10
299.9216055555555
 20
239.3658041666666
 30
0.0
  0
VERTEX
  5
D3
  8
LAYER_1
 10
300.8603472222222
 20
239.4395347222222
 30
0.0
  0
VERTEX
  5
D4
  8
LAYER_1
 10
300.8603472222222
 20
233.4384319444444
 30
0.0
  0
VERTEX
  5
D5
  8
LAYER_1
 10
303.8610749999999
 20
233.4384319444444
 30
0.0
  0
VERTEX
  5
D6
  8
LAYER_1
 10
314.3353999999999
 20
223.3214708333333
 30
0.0
  0
VERTEX
  5
D7
  8
LAYER_1
 10
314.3353999999999
 20
197.4356958333333
 30
0.0
  0
VERTEX
  5
D8
  8
LAYER_1
 10
303.8610749999999
 20
187.3187347222222
 30
0.0
  0
VERTEX
  5
D9
  8
LAYER_1
 10
300.8603472222222
 20
187.3187347222222
 30
0.0
  0
VERTEX
  5
DA
  8
LAYER_1
 10
300.8603472222222
 20
181.3172791666667
 30
0.0
  0
VERTEX
  5
DB
  8
LAYER_1
 10
299.9216055555555
 20
181.3913625
 30
0.0
  0
VERTEX
  5
DC
  8
LAYER_1
 10
299.0057944444444
 20
181.6111430555555
 30
0.0
  0
VERTEX
  5
DD
  8
LAYER_1
 10
298.1358444444444
 20
181.9716819444444
 30
0.0
  0
VERTEX
  5
DE
  8
LAYER_1
 10
297.3329222222221
 20
182.4634541666667
 30
0.0
  0
VERTEX
  5
DF
  8
LAYER_1
 10
296.6167833333333
 20
183.0751708333333
 30
0.0
  0
VERTEX
  5
E0
  8
LAYER_1
 10
296.0054194444444
 20
183.7913097222222
 30
0.0
  0
VERTEX
  5
E1
  8
LAYER_1
 10
295.5132944444443
 20
184.5942319444444
 30
0.0
  0
VERTEX
  5
E2
  8
LAYER_1
 10
295.1531083333333
 20
185.4641819444444
 30
0.0
  0
VERTEX
  5
E3
  8
LAYER_1
 10
294.9333277777778
 20
186.3799930555555
 30
0.0
  0
VERTEX
  5
E4
  8
LAYER_1
 10
294.8588916666666
 20
187.3187347222222
 30
0.0
  0
VERTEX
  5
E5
  8
LAYER_1
 10
294.8588916666666
 20
193.5318569444444
 30
0.0
  0
VERTEX
  5
E6
  8
LAYER_1
 10
291.8073638888889
 20
196.6906291666666
 30
0.0
  0
VERTEX
  5
E7
  8
LAYER_1
 10
291.2083472222222
 20
197.4169986111111
 30
0.0
  0
VERTEX
  5
E8
  8
LAYER_1
 10
290.7303333333333
 20
198.2283875
 30
0.0
  0
VERTEX
  5
E9
  8
LAYER_1
 10
290.3849638888888
 20
199.1046875
 30
0.0
  0
VERTEX
  5
EA
  8
LAYER_1
 10
290.1810583333333
 20
200.0240263888889
 30
0.0
  0
VERTEX
  5
EB
  8
LAYER_1
 10
290.1235555555555
 20
200.9638263888889
 30
0.0
  0
VERTEX
  5
EC
  8
LAYER_1
 10
290.2138666666666
 20
201.9011569444444
 30
0.0
  0
VERTEX
  5
ED
  8
LAYER_1
 10
290.4495222222222
 20
202.8130875
 30
0.0
  0
VERTEX
  5
EE
  8
LAYER_1
 10
290.8248777777777
 20
203.6766875
 30
0.0
  0
VERTEX
  5
EF
  8
LAYER_1
 10
291.3307611111111
 20
204.4707902777778
 30
0.0
  0
VERTEX
  5
F0
  8
LAYER_1
 10
291.9548249999999
 20
205.1759930555555
 30
0.0
  0
VERTEX
  5
F1
  8
LAYER_1
 10
292.8903916666667
 20
206.0798097222222
 30
0.0
  0
VERTEX
  5
F2
  8
LAYER_1
 10
298.7024055555555
 20
200.0631847222222
 30
0.0
  0
VERTEX
  5
F3
  8
LAYER_1
 10
300.8603472222222
 20
202.1477486111111
 30
0.0
  0
VERTEX
  5
F4
  8
LAYER_1
 10
295.0486861111111
 20
208.1640208333333
 30
0.0
  0
VERTEX
  5
F5
  8
LAYER_1
 10
295.0486861111111
 20
208.8780430555555
 30
0.0
  0
VERTEX
  5
F6
  8
LAYER_1
 10
297.8596194444444
 20
208.8780430555555
 30
0.0
  0
VERTEX
  5
F7
  8
LAYER_1
 10
297.8596194444444
 20
211.8787708333333
 30
0.0
  0
VERTEX
  5
F8
  8
LAYER_1
 10
295.0486861111111
 20
211.8787708333333
 30
0.0
  0
VERTEX
  5
F9
  8
LAYER_1
 10
295.0486861111111
 20
212.5931458333333
 30
0.0
  0
VERTEX
  5
FA
  8
LAYER_1
 10
300.8603472222222
 20
218.6094180555555
 30
0.0
  0
VERTEX
  5
FB
  8
LAYER_1
 10
298.7024055555555
 20
220.6939819444444
 30
0.0
  0
VERTEX
  5
FC
  8
LAYER_1
 10
292.8903916666667
 20
214.6777097222222
 30
0.0
  0
VERTEX
  5
FD
  8
LAYER_1
 10
291.9548249999999
 20
215.5811736111111
 30
0.0
  0
VERTEX
  5
FE
  8
LAYER_1
 10
291.3307611111111
 20
216.2863763888889
 30
0.0
  0
VERTEX
  5
FF
  8
LAYER_1
 10
290.8248777777777
 20
217.0808319444445
 30
0.0
  0
VERTEX
  5
100
  8
LAYER_1
 10
290.4495222222222
 20
217.9440791666667
 30
0.0
  0
VERTEX
  5
101
  8
LAYER_1
 10
290.2138666666666
 20
218.8560097222222
 30
0.0
  0
VERTEX
  5
102
  8
LAYER_1
 10
290.1235555555555
 20
219.7933402777778
 30
0.0
  0
VERTEX
  5
103
  8
LAYER_1
 10
290.1810583333333
 20
220.7331402777777
 30
0.0
  0
VERTEX
  5
104
  8
LAYER_1
 10
290.3849638888888
 20
221.6524791666666
 30
0.0
  0
VERTEX
  5
105
  8
LAYER_1
 10
290.7303333333333
 20
222.5287791666667
 30
0.0
  0
VERTEX
  5
106
  8
LAYER_1
 10
291.2083472222222
 20
223.3401680555555
 30
0.0
  0
VERTEX
  5
107
  8
LAYER_1
 10
291.8073638888889
 20
224.0668902777778
 30
0.0
  0
SEQEND
  5
108
  8
LAYER_1
  0
POLYLINE
  5
4A
  8
LAYER_1
 66
     1
 10
0.0
 20
0.0
 30
0.0
 70
     1
  0
VERTEX
  5
109
  8
LAYER_1
 10
195.2146916666667
 20
22.40923472222223
 30
0.0
  0
VERTEX
  5
10A
  8
LAYER_1
 10
195.2146916666667
 20
10.44054305555557
 30
0.0
  0
VERTEX
  5
10B
  8
LAYER_1
 10
155.1705333333333
 20
10.44054305555557
 30
0.0
  0
VERTEX
  5
10C
  8
LAYER_1
 10
155.1705333333333
 20
22.40923472222223
 30
0.0
  0
SEQEND
  5
10D
  8
LAYER_1
  0
POLYLINE
  5
4B
  8
LAYER_1
 66
     1
 10
0.0
 20
0.0
 30
0.0
 70
     1
  0
VERTEX
  5
10E
  8
LAYER_1
 10
258.071225
 20
225.3203097222222
 30
0.0
  0
VERTEX
  5
10F
  8
LAYER_1
 10
252.1036361111111
 20
225.3203097222222
 30
0.0
  0
VERTEX
  5
110
  8
LAYER_1
 10
252.1036361111111
 20
228.3206847222222
 30
0.0
  0
VERTEX
  5
111
  8
LAYER_1
 10
249.1029083333333
 20
228.3206847222222
 30
0.0
  0
VERTEX
  5
112
  8
LAYER_1
 10
249.1029083333333
 20
231.3214125
 30
0.0
  0
VERTEX
  5
113
  8
LAYER_1
 10
245.9025083333333
 20
231.3214125
 30
0.0
  0
VERTEX
  5
114
  8
LAYER_1
 10
245.9025083333333
 20
232.3218902777778
 30
0.0
  0
VERTEX
  5
115
  8
LAYER_1
 10
245.9642444444444
 20
233.1039986111111
 30
0.0
  0
VERTEX
  5
116
  8
LAYER_1
 10
246.1469833333333
 20
233.8670569444444
 30
0.0
  0
VERTEX
  5
117
  8
LAYER_1
 10
246.44755
 20
234.5920152777778
 30
0.0
  0
VERTEX
  5
118
  8
LAYER_1
 10
246.8574777777778
 20
235.2612347222222
 30
0.0
  0
VERTEX
  5
119
  8
LAYER_1
 10
247.3672416666666
 20
235.8577819444445
 30
0.0
  0
VERTEX
  5
11A
  8
LAYER_1
 10
247.9637888888889
 20
236.3675458333333
 30
0.0
  0
VERTEX
  5
11B
  8
LAYER_1
 10
248.6330083333334
 20
236.7774736111111
 30
0.0
  0
VERTEX
  5
11C
  8
LAYER_1
 10
249.3579666666667
 20
237.0780402777777
 30
0.0
  0
VERTEX
  5
11D
  8
LAYER_1
 10
250.121025
 20
237.2611319444444
 30
0.0
  0
VERTEX
  5
11E
  8
LAYER_1
 10
250.9034861111111
 20
237.3225152777778
 30
0.0
  0
VERTEX
  5
11F
  8
LAYER_1
 10
259.2833694444445
 20
237.3225152777778
 30
0.0
  0
VERTEX
  5
120
  8
LAYER_1
 10
260.0654777777777
 20
237.2611319444444
 30
0.0
  0
VERTEX
  5
121
  8
LAYER_1
 10
260.8288888888889
 20
237.0780402777777
 30
0.0
  0
VERTEX
  5
122
  8
LAYER_1
 10
261.5538472222222
 20
236.7774736111111
 30
0.0
  0
VERTEX
  5
123
  8
LAYER_1
 10
262.2230666666666
 20
236.3675458333333
 30
0.0
  0
VERTEX
  5
124
  8
LAYER_1
 10
262.8196138888889
 20
235.8577819444445
 30
0.0
  0
VERTEX
  5
125
  8
LAYER_1
 10
263.3293777777777
 20
235.2612347222222
 30
0.0
  0
VERTEX
  5
126
  8
LAYER_1
 10
263.7393055555555
 20
234.5920152777778
 30
0.0
  0
VERTEX
  5
127
  8
LAYER_1
 10
264.0395194444444
 20
233.8670569444444
 30
0.0
  0
VERTEX
  5
128
  8
LAYER_1
 10
264.2229638888888
 20
233.1039986111111
 30
0.0
  0
VERTEX
  5
129
  8
LAYER_1
 10
264.2843472222222
 20
232.3218902777778
 30
0.0
  0
VERTEX
  5
12A
  8
LAYER_1
 10
264.2843472222222
 20
231.3214125
 30
0.0
  0
VERTEX
  5
12B
  8
LAYER_1
 10
261.0716
 20
231.3214125
 30
0.0
  0
VERTEX
  5
12C
  8
LAYER_1
 10
261.0716
 20
228.3206847222222
 30
0.0
  0
VERTEX
  5
12D
  8
LAYER_1
 10
258.071225
 20
228.3206847222222
 30
0.0
  0
SEQEND
  5
12E
  8
LAYER_1
  0
POLYLINE
  5
4C
  8
LAYER_1
 66
     1
 10
0.0
 20
0.0
 30
0.0
 70
     1
  0
VERTEX
  5
12F
  8
LAYER_1
 10
235.0930444444444
 20
30.43492916666667
 30
0.0
  0
VERTEX
  5
130
  8
LAYER_1
 10
237.3596416666667
 20
30.43492916666667
 30
0.0
  0
VERTEX
  5
131
  8
LAYER_1
 10
237.3596416666667
 20
33.43530416666668
 30
0.0
  0
VERTEX
  5
132
  8
LAYER_1
 10
234.3589138888889
 20
33.43530416666668
 30
0.0
  0
VERTEX
  5
133
  8
LAYER_1
 10
234.3589138888889
 20
36.43603194444445
 30
0.0
  0
VERTEX
  5
134
  8
LAYER_1
 10
258.30935
 20
36.43603194444445
 30
0.0
  0
VERTEX
  5
135
  8
LAYER_1
 10
258.30935
 20
33.43530416666668
 30
0.0
  0
VERTEX
  5
136
  8
LAYER_1
 10
255.3086222222223
 20
33.43530416666668
 30
0.0
  0
VERTEX
  5
137
  8
LAYER_1
 10
255.3086222222223
 20
30.43492916666667
 30
0.0
  0
VERTEX
  5
138
  8
LAYER_1
 10
257.5752194444444
 20
30.43492916666667
 30
0.0
  0
VERTEX
  5
139
  8
LAYER_1
 10
257.5752194444444
 20
16.89461250000001
 30
0.0
  0
VERTEX
  5
13A
  8
LAYER_1
 10
235.0930444444444
 20
16.89461250000001
 30
0.0
  0
SEQEND
  5
13B
  8
LAYER_1
  0
POLYLINE
  5
4D
  8
LAYER_1
 66
     1
 10
0.0
 20
0.0
 30
0.0
 70
     1
  0
VERTEX
  5
13C
  8
LAYER_1
 10
207.7270138888889
 20
66.85994027777778
 30
0.0
  0
VERTEX
  5
13D
  8
LAYER_1
 10
226.9029555555555
 20
66.85994027777778
 30
0.0
  0
VERTEX
  5
13E
  8
LAYER_1
 10
226.9029555555555
 20
46.80664027777778
 30
0.0
  0
VERTEX
  5
13F
  8
LAYER_1
 10
207.7270138888889
 20
46.80664027777778
 30
0.0
  0
SEQEND
  5
140
  8
LAYER_1
  0
POLYLINE
  5
4E
  8
LAYER_1
 66
     1
 10
0.0
 20
0.0
 30
0.0
 70
     1
  0
VERTEX
  5
141
  8
LAYER_1
 10
320.4733805555555
 20
190.8175847222223
 30
0.0
  0
VERTEX
  5
142
  8
LAYER_1
 10
320.1777527777778
 20
191.4169541666666
 30
0.0
  0
VERTEX
  5
143
  8
LAYER_1
 10
319.9629111111111
 20
192.0501902777777
 30
0.0
  0
VERTEX
  5
144
  8
LAYER_1
 10
319.8327361111111
 20
192.7056513888889
 30
0.0
  0
VERTEX
  5
145
  8
LAYER_1
 10
319.7889916666667
 20
193.3727541666667
 30
0.0
  0
VERTEX
  5
146
  8
LAYER_1
 10
320.1611722222221
 20
217.4194986111111
 30
0.0
  0
VERTEX
  5
147
  8
LAYER_1
 10
319.4496194444444
 20
218.1486902777777
 30
0.0
  0
VERTEX
  5
148
  8
LAYER_1
 10
318.9599638888889
 20
218.7607597222222
 30
0.0
  0
VERTEX
  5
149
  8
LAYER_1
 10
318.5997777777777
 20
219.4560847222222
 30
0.0
  0
VERTEX
  5
14A
  8
LAYER_1
 10
318.3824666666666
 20
220.2078541666667
 30
0.0
  0
VERTEX
  5
14B
  8
LAYER_1
 10
318.3172027777778
 20
220.9878458333333
 30
0.0
  0
VERTEX
  5
14C
  8
LAYER_1
 10
318.40575
 20
221.7650152777778
 30
0.0
  0
VERTEX
  5
14D
  8
LAYER_1
 10
318.6449333333333
 20
222.5100819444444
 30
0.0
  0
VERTEX
  5
14E
  8
LAYER_1
 10
319.0259333333333
 20
223.1944708333333
 30
0.0
  0
VERTEX
  5
14F
  8
LAYER_1
 10
319.5339333333333
 20
223.7917236111111
 30
0.0
  0
VERTEX
  5
150
  8
LAYER_1
 10
322.448936111111
 20
226.6072430555555
 30
0.0
  0
VERTEX
  5
151
  8
LAYER_1
 10
326.5824333333333
 20
226.6072430555555
 30
0.0
  0
VERTEX
  5
152
  8
LAYER_1
 10
331.7894333333332
 20
221.2182097222222
 30
0.0
  0
VERTEX
  5
153
  8
LAYER_1
 10
328.9118249999999
 20
218.4386736111111
 30
0.0
  0
VERTEX
  5
154
  8
LAYER_1
 10
324.7419916666666
 20
222.7545569444445
 30
0.0
  0
VERTEX
  5
155
  8
LAYER_1
 10
322.5836972222222
 20
220.6699930555556
 30
0.0
  0
VERTEX
  5
156
  8
LAYER_1
 10
327.521175
 20
215.5596541666667
 30
0.0
  0
VERTEX
  5
157
  8
LAYER_1
 10
327.521175
 20
188.9912541666666
 30
0.0
  0
VERTEX
  5
158
  8
LAYER_1
 10
327.4544999999999
 20
188.9468041666667
 30
0.0
  0
VERTEX
  5
159
  8
LAYER_1
 10
326.8551305555555
 20
188.6511763888889
 30
0.0
  0
VERTEX
  5
15A
  8
LAYER_1
 10
326.2222472222222
 20
188.4363347222222
 30
0.0
  0
VERTEX
  5
15B
  8
LAYER_1
 10
325.5664333333333
 20
188.3058069444444
 30
0.0
  0
VERTEX
  5
15C
  8
LAYER_1
 10
324.8993305555555
 20
188.2624152777777
 30
0.0
  0
VERTEX
  5
15D
  8
LAYER_1
 10
324.2322277777778
 20
188.3058069444444
 30
0.0
  0
VERTEX
  5
15E
  8
LAYER_1
 10
323.5767666666667
 20
188.4363347222222
 30
0.0
  0
VERTEX
  5
15F
  8
LAYER_1
 10
322.9435305555555
 20
188.6511763888889
 30
0.0
  0
VERTEX
  5
160
  8
LAYER_1
 10
322.344161111111
 20
188.9468041666667
 30
0.0
  0
VERTEX
  5
161
  8
LAYER_1
 10
321.7881833333333
 20
189.3182791666667
 30
0.0
  0
VERTEX
  5
162
  8
LAYER_1
 10
321.2858277777777
 20
189.7588986111111
 30
0.0
  0
VERTEX
  5
163
  8
LAYER_1
 10
320.8448555555556
 20
190.2616069444445
 30
0.0
  0
SEQEND
  5
164
  8
LAYER_1
  0
POLYLINE
  5
4F
  8
LAYER_1
 66
     1
 10
0.0
 20
0.0
 30
0.0
 70
     1
  0
VERTEX
  5
165
  8
LAYER_1
 10
261.847711111111
 20
60.18891250000001
 30
0.0
  0
VERTEX
  5
166
  8
LAYER_1
 10
261.847711111111
 20
50.43848750000001
 30
0.0
  0
VERTEX
  5
167
  8
LAYER_1
 10
275.3008916666666
 20
50.43848750000001
 30
0.0
  0
VERTEX
  5
168
  8
LAYER_1
 10
275.3008916666666
 20
42.07377361111111
 30
0.0
  0
VERTEX
  5
169
  8
LAYER_1
 10
260.8870972222222
 20
42.07377361111111
 30
0.0
  0
VERTEX
  5
16A
  8
LAYER_1
 10
259.9483555555555
 20
42.14750416666667
 30
0.0
  0
VERTEX
  5
16B
  8
LAYER_1
 10
259.0328972222222
 20
42.36728472222222
 30
0.0
  0
VERTEX
  5
16C
  8
LAYER_1
 10
258.1625944444444
 20
42.72782361111112
 30
0.0
  0
VERTEX
  5
16D
  8
LAYER_1
 10
257.3596722222222
 20
43.21959583333334
 30
0.0
  0
VERTEX
  5
16E
  8
LAYER_1
 10
256.6438861111111
 20
43.8313125
 30
0.0
  0
VERTEX
  5
16F
  8
LAYER_1
 10
256.0321694444444
 20
44.54745138888889
 30
0.0
  0
VERTEX
  5
170
  8
LAYER_1
 10
255.5400444444444
 20
45.35037361111112
 30
0.0
  0
VERTEX
  5
171
  8
LAYER_1
 10
255.1795055555556
 20
46.22032361111112
 30
0.0
  0
VERTEX
  5
172
  8
LAYER_1
 10
254.9600777777778
 20
47.13613472222222
 30
0.0
  0
VERTEX
  5
173
  8
LAYER_1
 10
254.8859944444444
 20
48.07487638888889
 30
0.0
  0
VERTEX
  5
174
  8
LAYER_1
 10
254.8859944444444
 20
54.18780972222223
 30
0.0
  0
VERTEX
  5
175
  8
LAYER_1
 10
233.3457361111111
 20
54.18780972222223
 30
0.0
  0
VERTEX
  5
176
  8
LAYER_1
 10
233.3457361111111
 20
57.87645416666668
 30
0.0
  0
VERTEX
  5
177
  8
LAYER_1
 10
236.055775
 20
60.44044305555556
 30
0.0
  0
VERTEX
  5
178
  8
LAYER_1
 10
233.9937888888889
 20
62.61990416666668
 30
0.0
  0
VERTEX
  5
179
  8
LAYER_1
 10
236.900325
 20
65.36945416666669
 30
0.0
  0
VERTEX
  5
17A
  8
LAYER_1
 10
238.9623111111111
 20
63.18964027777779
 30
0.0
  0
VERTEX
  5
17B
  8
LAYER_1
 10
238.9623111111111
 20
60.18891250000001
 30
0.0
  0
VERTEX
  5
17C
  8
LAYER_1
 10
240.9625611111111
 20
60.18891250000001
 30
0.0
  0
VERTEX
  5
17D
  8
LAYER_1
 10
240.9625611111111
 20
63.18964027777779
 30
0.0
  0
VERTEX
  5
17E
  8
LAYER_1
 10
245.9240277777778
 20
63.18964027777779
 30
0.0
  0
VERTEX
  5
17F
  8
LAYER_1
 10
245.9240277777778
 20
60.18891250000001
 30
0.0
  0
VERTEX
  5
180
  8
LAYER_1
 10
247.9242777777778
 20
60.18891250000001
 30
0.0
  0
VERTEX
  5
181
  8
LAYER_1
 10
247.9242777777778
 20
63.18964027777779
 30
0.0
  0
VERTEX
  5
182
  8
LAYER_1
 10
252.8857444444444
 20
63.18964027777779
 30
0.0
  0
VERTEX
  5
183
  8
LAYER_1
 10
252.8857444444444
 20
60.18891250000001
 30
0.0
  0
VERTEX
  5
184
  8
LAYER_1
 10
254.8859944444444
 20
60.18891250000001
 30
0.0
  0
VERTEX
  5
185
  8
LAYER_1
 10
254.8859944444444
 20
63.18964027777779
 30
0.0
  0
VERTEX
  5
186
  8
LAYER_1
 10
259.8471083333333
 20
63.18964027777779
 30
0.0
  0
VERTEX
  5
187
  8
LAYER_1
 10
259.8471083333333
 20
60.18891250000001
 30
0.0
  0
SEQEND
  5
188
  8
LAYER_1
  0
POLYLINE
  5
50
  8
LAYER_1
 66
     1
 10
0.0
 20
0.0
 30
0.0
 70
     1
  0
VERTEX
  5
189
  8
LAYER_1
 10
295.3651277777777
 20
33.63356527777778
 30
0.0
  0
VERTEX
  5
18A
  8
LAYER_1
 10
291.3646277777777
 20
33.63356527777778
 30
0.0
  0
VERTEX
  5
18B
  8
LAYER_1
 10
290.5839305555555
 20
33.71047083333335
 30
0.0
  0
VERTEX
  5
18C
  8
LAYER_1
 10
289.8332194444444
 20
33.93801250000001
 30
0.0
  0
VERTEX
  5
18D
  8
LAYER_1
 10
289.1417749999999
 20
34.30772361111111
 30
0.0
  0
VERTEX
  5
18E
  8
LAYER_1
 10
288.53535
 20
34.80514027777778
 30
0.0
  0
VERTEX
  5
18F
  8
LAYER_1
 10
288.0379333333333
 20
35.41156527777778
 30
0.0
  0
VERTEX
  5
190
  8
LAYER_1
 10
287.6682222222222
 20
36.1033625
 30
0.0
  0
VERTEX
  5
191
  8
LAYER_1
 10
287.4403277777777
 20
36.85372083333334
 30
0.0
  0
VERTEX
  5
192
  8
LAYER_1
 10
287.3637749999999
 20
37.63406527777779
 30
0.0
  0
VERTEX
  5
193
  8
LAYER_1
 10
287.3637749999999
 20
40.63479305555556
 30
0.0
  0
VERTEX
  5
194
  8
LAYER_1
 10
282.9120722222222
 20
40.63479305555556
 30
0.0
  0
VERTEX
  5
195
  8
LAYER_1
 10
282.9120722222222
 20
64.58487638888889
 30
0.0
  0
VERTEX
  5
196
  8
LAYER_1
 10
311.4055805555555
 20
64.58487638888889
 30
0.0
  0
VERTEX
  5
197
  8
LAYER_1
 10
312.968386111111
 20
64.48257083333334
 30
0.0
  0
VERTEX
  5
198
  8
LAYER_1
 10
314.5047333333333
 20
64.17706527777779
 30
0.0
  0
VERTEX
  5
199
  8
LAYER_1
 10
315.9881638888888
 20
63.67329861111111
 30
0.0
  0
VERTEX
  5
19A
  8
LAYER_1
 10
317.392925
 20
62.98079583333334
 30
0.0
  0
VERTEX
  5
19B
  8
LAYER_1
 10
318.6953805555555
 20
62.11049305555557
 30
0.0
  0
VERTEX
  5
19C
  8
LAYER_1
 10
319.8729527777778
 20
61.07755972222223
 30
0.0
  0
VERTEX
  5
19D
  8
LAYER_1
 10
320.905886111111
 20
59.89998750000001
 30
0.0
  0
VERTEX
  5
19E
  8
LAYER_1
 10
321.7761888888889
 20
58.59753194444446
 30
0.0
  0
VERTEX
  5
19F
  8
LAYER_1
 10
322.4690444444444
 20
57.19277083333335
 30
0.0
  0
VERTEX
  5
1A0
  8
LAYER_1
 10
322.9724583333333
 20
55.70934027777778
 30
0.0
  0
VERTEX
  5
1A1
  8
LAYER_1
 10
323.2779638888888
 20
54.17299305555557
 30
0.0
  0
VERTEX
  5
1A2
  8
LAYER_1
 10
323.3806222222222
 20
52.61018750000001
 30
0.0
  0
VERTEX
  5
1A3
  8
LAYER_1
 10
323.2779638888888
 20
51.04702916666668
 30
0.0
  0
VERTEX
  5
1A4
  8
LAYER_1
 10
322.9724583333333
 20
49.51068194444446
 30
0.0
  0
VERTEX
  5
1A5
  8
LAYER_1
 10
322.4690444444444
 20
48.02725138888889
 30
0.0
  0
VERTEX
  5
1A6
  8
LAYER_1
 10
321.7761888888889
 20
46.62249027777779
 30
0.0
  0
VERTEX
  5
1A7
  8
LAYER_1
 10
320.905886111111
 20
45.32003472222222
 30
0.0
  0
VERTEX
  5
1A8
  8
LAYER_1
 10
319.8729527777778
 20
44.14210972222223
 30
0.0
  0
VERTEX
  5
1A9
  8
LAYER_1
 10
318.6953805555555
 20
43.10952916666668
 30
0.0
  0
VERTEX
  5
1AA
  8
LAYER_1
 10
317.392925
 20
42.23922638888889
 30
0.0
  0
VERTEX
  5
1AB
  8
LAYER_1
 10
317.392925
 20
37.63406527777779
 30
0.0
  0
VERTEX
  5
1AC
  8
LAYER_1
 10
317.3163722222222
 20
36.85372083333334
 30
0.0
  0
VERTEX
  5
1AD
  8
LAYER_1
 10
317.0884777777777
 20
36.1033625
 30
0.0
  0
VERTEX
  5
1AE
  8
LAYER_1
 10
316.7187666666666
 20
35.41156527777778
 30
0.0
  0
VERTEX
  5
1AF
  8
LAYER_1
 10
316.2213499999999
 20
34.80514027777778
 30
0.0
  0
VERTEX
  5
1B0
  8
LAYER_1
 10
315.614925
 20
34.30772361111111
 30
0.0
  0
VERTEX
  5
1B1
  8
LAYER_1
 10
314.9234805555556
 20
33.93801250000001
 30
0.0
  0
VERTEX
  5
1B2
  8
LAYER_1
 10
314.1727694444444
 20
33.71047083333335
 30
0.0
  0
VERTEX
  5
1B3
  8
LAYER_1
 10
313.392425
 20
33.63356527777778
 30
0.0
  0
VERTEX
  5
1B4
  8
LAYER_1
 10
309.3915722222222
 20
33.63356527777778
 30
0.0
  0
VERTEX
  5
1B5
  8
LAYER_1
 10
309.3915722222222
 20
36.63429305555556
 30
0.0
  0
VERTEX
  5
1B6
  8
LAYER_1
 10
312.3919472222221
 20
36.63429305555556
 30
0.0
  0
VERTEX
  5
1B7
  8
LAYER_1
 10
312.3919472222221
 20
40.69970416666667
 30
0.0
  0
VERTEX
  5
1B8
  8
LAYER_1
 10
311.4055805555555
 20
40.63479305555556
 30
0.0
  0
VERTEX
  5
1B9
  8
LAYER_1
 10
292.3643999999999
 20
40.63479305555556
 30
0.0
  0
VERTEX
  5
1BA
  8
LAYER_1
 10
292.3643999999999
 20
36.63429305555556
 30
0.0
  0
VERTEX
  5
1BB
  8
LAYER_1
 10
295.3651277777777
 20
36.63429305555556
 30
0.0
  0
SEQEND
  5
1BC
  8
LAYER_1
  0
POLYLINE
  5
51
  8
LAYER_1
 66
     1
 10
0.0
 20
0.0
 30
0.0
 70
     1
  0
VERTEX
  5
1BD
  8
LAYER_1
 10
227.1890583333333
 20
32.2538513888889
 30
0.0
  0
VERTEX
  5
1BE
  8
LAYER_1
 10
227.1890583333333
 20
42.42796250000001
 30
0.0
  0
VERTEX
  5
1BF
  8
LAYER_1
 10
205.0409638888889
 20
42.42796250000001
 30
0.0
  0
VERTEX
  5
1C0
  8
LAYER_1
 10
205.0409638888889
 20
43.4280875
 30
0.0
  0
VERTEX
  5
1C1
  8
LAYER_1
 10
204.9446555555556
 20
44.40387083333334
 30
0.0
  0
VERTEX
  5
1C2
  8
LAYER_1
 10
204.6603166666667
 20
45.34190694444445
 30
0.0
  0
VERTEX
  5
1C3
  8
LAYER_1
 10
204.1981777777778
 20
46.20656527777778
 30
0.0
  0
VERTEX
  5
1C4
  8
LAYER_1
 10
203.5762305555556
 20
46.96433194444445
 30
0.0
  0
VERTEX
  5
1C5
  8
LAYER_1
 10
202.8181111111111
 20
47.58627916666667
 30
0.0
  0
VERTEX
  5
1C6
  8
LAYER_1
 10
201.9538055555556
 20
48.04841805555557
 30
0.0
  0
VERTEX
  5
1C7
  8
LAYER_1
 10
201.0154166666667
 20
48.33310972222223
 30
0.0
  0
VERTEX
  5
1C8
  8
LAYER_1
 10
200.0399861111111
 20
48.42906527777778
 30
0.0
  0
VERTEX
  5
1C9
  8
LAYER_1
 10
190.0380305555556
 20
48.42906527777778
 30
0.0
  0
VERTEX
  5
1CA
  8
LAYER_1
 10
189.0622472222222
 20
48.33310972222223
 30
0.0
  0
VERTEX
  5
1CB
  8
LAYER_1
 10
188.1242111111111
 20
48.04841805555557
 30
0.0
  0
VERTEX
  5
1CC
  8
LAYER_1
 10
187.2595527777778
 20
47.58627916666667
 30
0.0
  0
VERTEX
  5
1CD
  8
LAYER_1
 10
186.5017861111111
 20
46.96433194444445
 30
0.0
  0
VERTEX
  5
1CE
  8
LAYER_1
 10
185.8798388888889
 20
46.20656527777778
 30
0.0
  0
VERTEX
  5
1CF
  8
LAYER_1
 10
185.4177
 20
45.34190694444445
 30
0.0
  0
VERTEX
  5
1D0
  8
LAYER_1
 10
185.1330083333334
 20
44.40387083333334
 30
0.0
  0
VERTEX
  5
1D1
  8
LAYER_1
 10
185.0370527777778
 20
43.4280875
 30
0.0
  0
VERTEX
  5
1D2
  8
LAYER_1
 10
185.0370527777778
 20
42.42796250000001
 30
0.0
  0
VERTEX
  5
1D3
  8
LAYER_1
 10
195.0390083333333
 20
42.42796250000001
 30
0.0
  0
VERTEX
  5
1D4
  8
LAYER_1
 10
195.0390083333333
 20
39.4275875
 30
0.0
  0
VERTEX
  5
1D5
  8
LAYER_1
 10
150.2891472222222
 20
39.4275875
 30
0.0
  0
VERTEX
  5
1D6
  8
LAYER_1
 10
150.2891472222222
 20
32.2538513888889
 30
0.0
  0
VERTEX
  5
1D7
  8
LAYER_1
 10
160.2911027777778
 20
32.2538513888889
 30
0.0
  0
VERTEX
  5
1D8
  8
LAYER_1
 10
160.2911027777778
 20
29.2534763888889
 30
0.0
  0
VERTEX
  5
1D9
  8
LAYER_1
 10
170.2930583333333
 20
29.2534763888889
 30
0.0
  0
VERTEX
  5
1DA
  8
LAYER_1
 10
170.2930583333333
 20
32.2538513888889
 30
0.0
  0
VERTEX
  5
1DB
  8
LAYER_1
 10
207.1851472222222
 20
32.2538513888889
 30
0.0
  0
VERTEX
  5
1DC
  8
LAYER_1
 10
207.1851472222222
 20
29.2534763888889
 30
0.0
  0
VERTEX
  5
1DD
  8
LAYER_1
 10
217.1871027777778
 20
29.2534763888889
 30
0.0
  0
VERTEX
  5
1DE
  8
LAYER_1
 10
217.1871027777778
 20
32.2538513888889
 30
0.0
  0
SEQEND
  5
1DF
  8
LAYER_1
  0
POLYLINE
  5
52
  8
LAYER_1
 66
     1
 10
0.0
 20
0.0
 30
0.0
 70
     1
  0
VERTEX
  5
1E0
  8
LAYER_1
 10
12.58622222222223
 20
27.72242083333334
 30
0.0
  0
VERTEX
  5
1E1
  8
LAYER_1
 10
12.58622222222223
 20
43.89798750000001
 30
0.0
  0
VERTEX
  5
1E2
  8
LAYER_1
 10
22.58853055555556
 20
43.89798750000001
 30
0.0
  0
VERTEX
  5
1E3
  8
LAYER_1
 10
22.58853055555556
 20
46.8983625
 30
0.0
  0
VERTEX
  5
1E4
  8
LAYER_1
 10
32.59048611111112
 20
46.8983625
 30
0.0
  0
VERTEX
  5
1E5
  8
LAYER_1
 10
32.59048611111112
 20
43.89798750000001
 30
0.0
  0
VERTEX
  5
1E6
  8
LAYER_1
 10
76.16736111111112
 20
43.89798750000001
 30
0.0
  0
VERTEX
  5
1E7
  8
LAYER_1
 10
76.16736111111112
 20
46.8983625
 30
0.0
  0
VERTEX
  5
1E8
  8
LAYER_1
 10
86.16931666666667
 20
46.8983625
 30
0.0
  0
VERTEX
  5
1E9
  8
LAYER_1
 10
86.16931666666667
 20
43.89798750000001
 30
0.0
  0
VERTEX
  5
1EA
  8
LAYER_1
 10
123.0614055555556
 20
43.89798750000001
 30
0.0
  0
VERTEX
  5
1EB
  8
LAYER_1
 10
123.0614055555556
 20
46.8983625
 30
0.0
  0
VERTEX
  5
1EC
  8
LAYER_1
 10
133.0633611111111
 20
46.8983625
 30
0.0
  0
VERTEX
  5
1ED
  8
LAYER_1
 10
133.0633611111111
 20
43.89798750000001
 30
0.0
  0
VERTEX
  5
1EE
  8
LAYER_1
 10
143.0653166666667
 20
43.89798750000001
 30
0.0
  0
VERTEX
  5
1EF
  8
LAYER_1
 10
143.0653166666667
 20
36.7242513888889
 30
0.0
  0
VERTEX
  5
1F0
  8
LAYER_1
 10
103.3637055555556
 20
36.7242513888889
 30
0.0
  0
VERTEX
  5
1F1
  8
LAYER_1
 10
103.3637055555556
 20
33.7238763888889
 30
0.0
  0
VERTEX
  5
1F2
  8
LAYER_1
 10
113.3653083333333
 20
33.7238763888889
 30
0.0
  0
VERTEX
  5
1F3
  8
LAYER_1
 10
113.3653083333333
 20
32.72339861111112
 30
0.0
  0
VERTEX
  5
1F4
  8
LAYER_1
 10
113.2697055555555
 20
31.74796805555556
 30
0.0
  0
VERTEX
  5
1F5
  8
LAYER_1
 10
112.9846611111111
 20
30.80957916666667
 30
0.0
  0
VERTEX
  5
1F6
  8
LAYER_1
 10
112.5225222222222
 20
29.94492083333334
 30
0.0
  0
VERTEX
  5
1F7
  8
LAYER_1
 10
111.9009277777778
 20
29.18715416666667
 30
0.0
  0
VERTEX
  5
1F8
  8
LAYER_1
 10
111.1428083333333
 20
28.56555972222223
 30
0.0
  0
VERTEX
  5
1F9
  8
LAYER_1
 10
110.2785027777778
 20
28.10306805555556
 30
0.0
  0
VERTEX
  5
1FA
  8
LAYER_1
 10
109.3401138888889
 20
27.81837638888889
 30
0.0
  0
VERTEX
  5
1FB
  8
LAYER_1
 10
108.3646833333333
 20
27.72242083333334
 30
0.0
  0
VERTEX
  5
1FC
  8
LAYER_1
 10
98.36272777777778
 20
27.72242083333334
 30
0.0
  0
VERTEX
  5
1FD
  8
LAYER_1
 10
97.38694444444444
 20
27.81837638888889
 30
0.0
  0
VERTEX
  5
1FE
  8
LAYER_1
 10
96.44890833333334
 20
28.10306805555556
 30
0.0
  0
VERTEX
  5
1FF
  8
LAYER_1
 10
95.58425
 20
28.56555972222223
 30
0.0
  0
VERTEX
  5
200
  8
LAYER_1
 10
94.82648333333334
 20
29.18715416666667
 30
0.0
  0
VERTEX
  5
201
  8
LAYER_1
 10
94.20453611111111
 20
29.94492083333334
 30
0.0
  0
VERTEX
  5
202
  8
LAYER_1
 10
93.74239722222222
 20
30.80957916666667
 30
0.0
  0
VERTEX
  5
203
  8
LAYER_1
 10
93.45770555555556
 20
31.74796805555556
 30
0.0
  0
VERTEX
  5
204
  8
LAYER_1
 10
93.36139722222222
 20
32.72339861111112
 30
0.0
  0
VERTEX
  5
205
  8
LAYER_1
 10
93.36139722222222
 20
36.7242513888889
 30
0.0
  0
VERTEX
  5
206
  8
LAYER_1
 10
33.48160277777778
 20
36.7242513888889
 30
0.0
  0
VERTEX
  5
207
  8
LAYER_1
 10
33.48160277777778
 20
33.7238763888889
 30
0.0
  0
VERTEX
  5
208
  8
LAYER_1
 10
43.48355833333334
 20
33.7238763888889
 30
0.0
  0
VERTEX
  5
209
  8
LAYER_1
 10
43.48355833333334
 20
32.72339861111112
 30
0.0
  0
VERTEX
  5
20A
  8
LAYER_1
 10
43.38725000000001
 20
31.74796805555556
 30
0.0
  0
VERTEX
  5
20B
  8
LAYER_1
 10
43.10255833333334
 20
30.80957916666667
 30
0.0
  0
VERTEX
  5
20C
  8
LAYER_1
 10
42.64041944444445
 20
29.94492083333334
 30
0.0
  0
VERTEX
  5
20D
  8
LAYER_1
 10
42.01847222222224
 20
29.18715416666667
 30
0.0
  0
VERTEX
  5
20E
  8
LAYER_1
 10
41.26070555555556
 20
28.56555972222223
 30
0.0
  0
VERTEX
  5
20F
  8
LAYER_1
 10
40.39604722222223
 20
28.10306805555556
 30
0.0
  0
VERTEX
  5
210
  8
LAYER_1
 10
39.45801111111112
 20
27.81837638888889
 30
0.0
  0
VERTEX
  5
211
  8
LAYER_1
 10
38.48222777777779
 20
27.72242083333334
 30
0.0
  0
SEQEND
  5
212
  8
LAYER_1
  0
POLYLINE
  5
53
  8
LAYER_1
 66
     1
 10
0.0
 20
0.0
 30
0.0
 70
     1
  0
VERTEX
  5
213
  8
LAYER_1
 10
47.90950833333334
 20
31.51689861111112
 30
0.0
  0
VERTEX
  5
214
  8
LAYER_1
 10
83.61203055555556
 20
31.51689861111112
 30
0.0
  0
VERTEX
  5
215
  8
LAYER_1
 10
83.61203055555556
 20
11.45160416666668
 30
0.0
  0
VERTEX
  5
216
  8
LAYER_1
 10
47.90950833333334
 20
11.45160416666668
 30
0.0
  0
SEQEND
  5
217
  8
LAYER_1
  0
POLYLINE
  5
54
  8
LAYER_1
 66
     1
 10
0.0
 20
0.0
 30
0.0
 70
     1
  0
VERTEX
  5
218
  8
LAYER_1
 10
216.9750833333333
 20
236.6127263888889
 30
0.0
  0
VERTEX
  5
219
  8
LAYER_1
 10
217.9508666666667
 20
236.5164180555556
 30
0.0
  0
VERTEX
  5
21A
  8
LAYER_1
 10
218.8892555555555
 20
236.2320791666666
 30
0.0
  0
VERTEX
  5
21B
  8
LAYER_1
 10
219.7539138888889
 20
235.7699402777778
 30
0.0
  0
VERTEX
  5
21C
  8
LAYER_1
 10
220.5116805555556
 20
235.1479930555556
 30
0.0
  0
VERTEX
  5
21D
  8
LAYER_1
 10
221.1336277777778
 20
234.3898736111111
 30
0.0
  0
VERTEX
  5
21E
  8
LAYER_1
 10
221.5954138888889
 20
233.5255680555555
 30
0.0
  0
VERTEX
  5
21F
  8
LAYER_1
 10
221.8801055555556
 20
232.5871791666667
 30
0.0
  0
VERTEX
  5
220
  8
LAYER_1
 10
221.9764138888889
 20
231.6113958333333
 30
0.0
  0
VERTEX
  5
221
  8
LAYER_1
 10
221.9764138888889
 20
230.6116236111111
 30
0.0
  0
VERTEX
  5
222
  8
LAYER_1
 10
217.9755611111111
 20
230.6116236111111
 30
0.0
  0
VERTEX
  5
223
  8
LAYER_1
 10
217.9755611111111
 20
227.6108958333333
 30
0.0
  0
VERTEX
  5
224
  8
LAYER_1
 10
214.9748333333333
 20
227.6108958333333
 30
0.0
  0
VERTEX
  5
225
  8
LAYER_1
 10
214.9748333333333
 20
224.6101680555556
 30
0.0
  0
VERTEX
  5
226
  8
LAYER_1
 10
198.9107444444444
 20
224.6101680555556
 30
0.0
  0
VERTEX
  5
227
  8
LAYER_1
 10
198.9107444444444
 20
227.6108958333333
 30
0.0
  0
VERTEX
  5
228
  8
LAYER_1
 10
195.9100166666667
 20
227.6108958333333
 30
0.0
  0
VERTEX
  5
229
  8
LAYER_1
 10
195.9100166666667
 20
230.6116236111111
 30
0.0
  0
VERTEX
  5
22A
  8
LAYER_1
 10
191.9095166666667
 20
230.6116236111111
 30
0.0
  0
VERTEX
  5
22B
  8
LAYER_1
 10
191.9095166666667
 20
231.6113958333333
 30
0.0
  0
VERTEX
  5
22C
  8
LAYER_1
 10
192.0054722222222
 20
232.5871791666667
 30
0.0
  0
VERTEX
  5
22D
  8
LAYER_1
 10
192.2898111111111
 20
233.5255680555555
 30
0.0
  0
VERTEX
  5
22E
  8
LAYER_1
 10
192.75195
 20
234.3898736111111
 30
0.0
  0
VERTEX
  5
22F
  8
LAYER_1
 10
193.3738972222222
 20
235.1479930555556
 30
0.0
  0
VERTEX
  5
230
  8
LAYER_1
 10
194.1320166666667
 20
235.7699402777778
 30
0.0
  0
VERTEX
  5
231
  8
LAYER_1
 10
194.996675
 20
236.2320791666666
 30
0.0
  0
VERTEX
  5
232
  8
LAYER_1
 10
195.9347111111111
 20
236.5164180555556
 30
0.0
  0
VERTEX
  5
233
  8
LAYER_1
 10
196.9101416666666
 20
236.6127263888889
 30
0.0
  0
SEQEND
  5
234
  8
LAYER_1
  0
POLYLINE
  5
55
  8
LAYER_1
 66
     1
 10
0.0
 20
0.0
 30
0.0
 70
     1
  0
VERTEX
  5
235
  8
LAYER_1
 10
321.7049277777777
 20
77.2277263888889
 30
0.0
  0
VERTEX
  5
236
  8
LAYER_1
 10
321.7049277777777
 20
74.22699861111111
 30
0.0
  0
VERTEX
  5
237
  8
LAYER_1
 10
318.7045527777777
 20
74.22699861111111
 30
0.0
  0
VERTEX
  5
238
  8
LAYER_1
 10
318.7045527777777
 20
70.22649861111113
 30
0.0
  0
VERTEX
  5
239
  8
LAYER_1
 10
317.704075
 20
70.22649861111113
 30
0.0
  0
VERTEX
  5
23A
  8
LAYER_1
 10
316.7286444444444
 20
70.32245416666667
 30
0.0
  0
VERTEX
  5
23B
  8
LAYER_1
 10
315.7906083333332
 20
70.60714583333333
 30
0.0
  0
VERTEX
  5
23C
  8
LAYER_1
 10
314.9259499999999
 20
71.06928472222222
 30
0.0
  0
VERTEX
  5
23D
  8
LAYER_1
 10
314.1681833333333
 20
71.69123194444445
 30
0.0
  0
VERTEX
  5
23E
  8
LAYER_1
 10
313.5462361111111
 20
72.44899861111112
 30
0.0
  0
VERTEX
  5
23F
  8
LAYER_1
 10
313.0840972222222
 20
73.31365694444445
 30
0.0
  0
VERTEX
  5
240
  8
LAYER_1
 10
312.7994055555555
 20
74.25169305555556
 30
0.0
  0
VERTEX
  5
241
  8
LAYER_1
 10
312.70345
 20
75.2274763888889
 30
0.0
  0
VERTEX
  5
242
  8
LAYER_1
 10
312.70345
 20
108.9297486111111
 30
0.0
  0
VERTEX
  5
243
  8
LAYER_1
 10
312.7994055555555
 20
109.9051791666667
 30
0.0
  0
VERTEX
  5
244
  8
LAYER_1
 10
313.0840972222222
 20
110.8435680555556
 30
0.0
  0
VERTEX
  5
245
  8
LAYER_1
 10
313.5462361111111
 20
111.7082263888889
 30
0.0
  0
VERTEX
  5
246
  8
LAYER_1
 10
314.1681833333333
 20
112.4659930555555
 30
0.0
  0
VERTEX
  5
247
  8
LAYER_1
 10
314.9259499999999
 20
113.0875875
 30
0.0
  0
VERTEX
  5
248
  8
LAYER_1
 10
315.7906083333332
 20
113.5500791666667
 30
0.0
  0
VERTEX
  5
249
  8
LAYER_1
 10
316.7286444444444
 20
113.8344180555556
 30
0.0
  0
VERTEX
  5
24A
  8
LAYER_1
 10
317.704075
 20
113.9303736111111
 30
0.0
  0
VERTEX
  5
24B
  8
LAYER_1
 10
318.7045527777777
 20
113.9303736111111
 30
0.0
  0
VERTEX
  5
24C
  8
LAYER_1
 10
318.7045527777777
 20
109.9298736111111
 30
0.0
  0
VERTEX
  5
24D
  8
LAYER_1
 10
321.7049277777777
 20
109.9298736111111
 30
0.0
  0
VERTEX
  5
24E
  8
LAYER_1
 10
321.7049277777777
 20
106.9294986111111
 30
0.0
  0
VERTEX
  5
24F
  8
LAYER_1
 10
324.7056555555555
 20
106.9294986111111
 30
0.0
  0
VERTEX
  5
250
  8
LAYER_1
 10
324.7056555555555
 20
77.2277263888889
 30
0.0
  0
SEQEND
  5
251
  8
LAYER_1
  0
POLYLINE
  5
56
  8
LAYER_1
 66
     1
 10
0.0
 20
0.0
 30
0.0
 70
     1
  0
VERTEX
  5
252
  8
LAYER_1
 10
192.1539916666667
 20
55.32692916666667
 30
0.0
  0
VERTEX
  5
253
  8
LAYER_1
 10
8.794566666666677
 20
55.32692916666667
 30
0.0
  0
VERTEX
  5
254
  8
LAYER_1
 10
8.794566666666677
 20
138.3478875
 30
0.0
  0
VERTEX
  5
255
  8
LAYER_1
 10
192.1539916666667
 20
138.3478875
 30
0.0
  0
SEQEND
  5
256
  8
LAYER_1
  0
POLYLINE
  5
57
  8
LAYER_1
 66
     1
 10
0.0
 20
0.0
 30
0.0
 70
     1
  0
VERTEX
  5
257
  8
LAYER_1
 10
283.6260944444444
 20
159.0908680555556
 30
0.0
  0
VERTEX
  5
258
  8
LAYER_1
 10
280.6257194444444
 20
159.0908680555556
 30
0.0
  0
VERTEX
  5
259
  8
LAYER_1
 10
280.6257194444444
 20
169.0928236111111
 30
0.0
  0
VERTEX
  5
25A
  8
LAYER_1
 10
283.6260944444444
 20
169.0928236111111
 30
0.0
  0
VERTEX
  5
25B
  8
LAYER_1
 10
283.6260944444444
 20
199.6112763888889
 30
0.0
  0
VERTEX
  5
25C
  8
LAYER_1
 10
280.6257194444444
 20
199.6112763888889
 30
0.0
  0
VERTEX
  5
25D
  8
LAYER_1
 10
280.6257194444444
 20
209.6132319444445
 30
0.0
  0
VERTEX
  5
25E
  8
LAYER_1
 10
283.6260944444444
 20
209.6132319444445
 30
0.0
  0
VERTEX
  5
25F
  8
LAYER_1
 10
283.6260944444444
 20
219.4077541666667
 30
0.0
  0
VERTEX
  5
260
  8
LAYER_1
 10
183.5733777777778
 20
219.4077541666667
 30
0.0
  0
VERTEX
  5
261
  8
LAYER_1
 10
183.5733777777778
 20
237.2399652777778
 30
0.0
  0
VERTEX
  5
262
  8
LAYER_1
 10
10.45544444444445
 20
237.2399652777778
 30
0.0
  0
VERTEX
  5
263
  8
LAYER_1
 10
10.45544444444445
 20
226.1652125
 30
0.0
  0
VERTEX
  5
264
  8
LAYER_1
 10
13.45581944444445
 20
226.1652125
 30
0.0
  0
VERTEX
  5
265
  8
LAYER_1
 10
13.45581944444445
 20
216.1636097222222
 30
0.0
  0
VERTEX
  5
266
  8
LAYER_1
 10
10.45544444444445
 20
216.1636097222222
 30
0.0
  0
VERTEX
  5
267
  8
LAYER_1
 10
10.45544444444445
 20
169.0928236111111
 30
0.0
  0
VERTEX
  5
268
  8
LAYER_1
 10
13.45581944444445
 20
169.0928236111111
 30
0.0
  0
VERTEX
  5
269
  8
LAYER_1
 10
13.45581944444445
 20
159.0908680555556
 30
0.0
  0
VERTEX
  5
26A
  8
LAYER_1
 10
10.45544444444445
 20
159.0908680555556
 30
0.0
  0
VERTEX
  5
26B
  8
LAYER_1
 10
10.45544444444445
 20
149.0889125
 30
0.0
  0
VERTEX
  5
26C
  8
LAYER_1
 10
23.45777500000001
 20
149.0889125
 30
0.0
  0
VERTEX
  5
26D
  8
LAYER_1
 10
23.45777500000001
 20
146.0885375
 30
0.0
  0
VERTEX
  5
26E
  8
LAYER_1
 10
33.45973055555557
 20
146.0885375
 30
0.0
  0
VERTEX
  5
26F
  8
LAYER_1
 10
33.45973055555557
 20
149.0889125
 30
0.0
  0
VERTEX
  5
270
  8
LAYER_1
 10
102.5124527777778
 20
149.0889125
 30
0.0
  0
VERTEX
  5
271
  8
LAYER_1
 10
102.5124527777778
 20
146.0885375
 30
0.0
  0
VERTEX
  5
272
  8
LAYER_1
 10
112.5144083333333
 20
146.0885375
 30
0.0
  0
VERTEX
  5
273
  8
LAYER_1
 10
112.5144083333333
 20
149.0889125
 30
0.0
  0
VERTEX
  5
274
  8
LAYER_1
 10
181.5671305555555
 20
149.0889125
 30
0.0
  0
VERTEX
  5
275
  8
LAYER_1
 10
181.5671305555555
 20
146.0885375
 30
0.0
  0
VERTEX
  5
276
  8
LAYER_1
 10
191.5690861111111
 20
146.0885375
 30
0.0
  0
VERTEX
  5
277
  8
LAYER_1
 10
191.5690861111111
 20
149.0889125
 30
0.0
  0
VERTEX
  5
278
  8
LAYER_1
 10
260.6218083333333
 20
149.0889125
 30
0.0
  0
VERTEX
  5
279
  8
LAYER_1
 10
260.6218083333333
 20
146.0885375
 30
0.0
  0
VERTEX
  5
27A
  8
LAYER_1
 10
270.6237638888888
 20
146.0885375
 30
0.0
  0
VERTEX
  5
27B
  8
LAYER_1
 10
270.6237638888888
 20
149.0889125
 30
0.0
  0
VERTEX
  5
27C
  8
LAYER_1
 10
283.6260944444444
 20
149.0889125
 30
0.0
  0
SEQEND
  5
27D
  8
LAYER_1
  0
POLYLINE
  5
58
  8
LAYER_1
 66
     1
 10
0.0
 20
0.0
 30
0.0
 70
     1
  0
VERTEX
  5
27E
  8
LAYER_1
 10
200.2188444444444
 20
70.4889652777778
 30
0.0
  0
VERTEX
  5
27F
  8
LAYER_1
 10
200.2188444444444
 20
139.6972625
 30
0.0
  0
VERTEX
  5
280
  8
LAYER_1
 10
304.2237305555556
 20
139.6972625
 30
0.0
  0
VERTEX
  5
281
  8
LAYER_1
 10
304.2237305555556
 20
129.6953069444444
 30
0.0
  0
VERTEX
  5
282
  8
LAYER_1
 10
307.2244583333332
 20
129.6953069444444
 30
0.0
  0
VERTEX
  5
283
  8
LAYER_1
 10
307.2244583333332
 20
119.6933513888889
 30
0.0
  0
VERTEX
  5
284
  8
LAYER_1
 10
304.2237305555556
 20
119.6933513888889
 30
0.0
  0
VERTEX
  5
285
  8
LAYER_1
 10
304.2237305555556
 20
97.75798194444444
 30
0.0
  0
VERTEX
  5
286
  8
LAYER_1
 10
307.2244583333332
 20
97.75798194444444
 30
0.0
  0
VERTEX
  5
287
  8
LAYER_1
 10
307.2244583333332
 20
87.7560263888889
 30
0.0
  0
VERTEX
  5
288
  8
LAYER_1
 10
304.2237305555556
 20
87.7560263888889
 30
0.0
  0
VERTEX
  5
289
  8
LAYER_1
 10
304.2237305555556
 20
70.4889652777778
 30
0.0
  0
SEQEND
  5
28A
  8
LAYER_1
  0
POLYLINE
  5
59
  8
LAYER_1
 66
     1
 10
0.0
 20
0.0
 30
0.0
 70
     1
  0
VERTEX
  5
28B
  8
LAYER_1
 10
115.0921555555555
 20
9.759681944444456
 30
0.0
  0
VERTEX
  5
28C
  8
LAYER_1
 10
92.20640277777778
 20
9.759681944444456
 30
0.0
  0
VERTEX
  5
28D
  8
LAYER_1
 10
92.20640277777778
 20
23.04882083333334
 30
0.0
  0
VERTEX
  5
28E
  8
LAYER_1
 10
115.0921555555555
 20
23.04882083333334
 30
0.0
  0
SEQEND
  5
28F
  8
LAYER_1
  0
POLYLINE
  5
5A
  8
LAYER_1
 66
     1
 10
0.0
 20
0.0
 30
0.0
 70
     1
  0
VERTEX
  5
290
  8
LAYER_1
 10
314.3999583333333
 20
124.6431763888889
 30
0.0
  0
VERTEX
  5
291
  8
LAYER_1
 10
314.3999583333333
 20
136.0858763888889
 30
0.0
  0
VERTEX
  5
292
  8
LAYER_1
 10
321.2671305555555
 20
136.0858763888889
 30
0.0
  0
VERTEX
  5
293
  8
LAYER_1
 10
321.2671305555555
 20
139.0862513888889
 30
0.0
  0
VERTEX
  5
294
  8
LAYER_1
 10
314.3999583333333
 20
139.0862513888889
 30
0.0
  0
VERTEX
  5
295
  8
LAYER_1
 10
314.3999583333333
 20
150.5293041666666
 30
0.0
  0
VERTEX
  5
296
  8
LAYER_1
 10
329.3587944444444
 20
146.6014763888889
 30
0.0
  0
VERTEX
  5
297
  8
LAYER_1
 10
329.3587944444444
 20
128.5710041666667
 30
0.0
  0
SEQEND
  5
298
  8
LAYER_1
  0
POLYLINE
  5
5B
  8
LAYER_1
 66
     1
 10
0.0
 20
0.0
 30
0.0
 70
     1
  0
VERTEX
  5
299
  8
LAYER_1
 10
310.1810888888889
 20
12.97948472222223
 30
0.0
  0
VERTEX
  5
29A
  8
LAYER_1
 10
295.4804861111111
 20
8.173945833333343
 30
0.0
  0
VERTEX
  5
29B
  8
LAYER_1
 10
295.4804861111111
 20
14.59203194444445
 30
0.0
  0
VERTEX
  5
29C
  8
LAYER_1
 10
299.4809861111111
 20
14.59203194444445
 30
0.0
  0
VERTEX
  5
29D
  8
LAYER_1
 10
299.4809861111111
 20
17.59240694444446
 30
0.0
  0
VERTEX
  5
29E
  8
LAYER_1
 10
295.4804861111111
 20
17.59240694444446
 30
0.0
  0
VERTEX
  5
29F
  8
LAYER_1
 10
295.4804861111111
 20
22.73661250000001
 30
0.0
  0
SEQEND
  5
2A0
  8
LAYER_1
  0
POLYLINE
  5
5C
  8
LAYER_1
 66
     1
 10
0.0
 20
0.0
 30
0.0
 70
     1
  0
VERTEX
  5
2A1
  8
LAYER_1
 10
312.4508611111111
 20
31.21985972222223
 30
0.0
  0
VERTEX
  5
2A2
  8
LAYER_1
 10
327.1514638888889
 20
26.41432083333334
 30
0.0
  0
VERTEX
  5
2A3
  8
LAYER_1
 10
312.4508611111111
 20
16.65719305555557
 30
0.0
  0
VERTEX
  5
2A4
  8
LAYER_1
 10
312.4508611111111
 20
21.80139861111112
 30
0.0
  0
VERTEX
  5
2A5
  8
LAYER_1
 10
316.4517138888889
 20
21.80139861111112
 30
0.0
  0
VERTEX
  5
2A6
  8
LAYER_1
 10
316.4517138888889
 20
24.8021263888889
 30
0.0
  0
VERTEX
  5
2A7
  8
LAYER_1
 10
312.4508611111111
 20
24.8021263888889
 30
0.0
  0
SEQEND
  5
2A8
  8
LAYER_1
  0
POLYLINE
  5
5E
  8
HOLE
 66
     1
 10
0.0
 20
0.0
 30
0.0
 70
     1
  0
VERTEX
  5
2A9
  8
HOLE
 10
180.57265
 20
159.0908680555556
 30
0.0
  0
VERTEX
  5
2AA
  8
HOLE
 10
180.57265
 20
169.0928236111111
 30
0.0
  0
VERTEX
  5
2AB
  8
HOLE
 10
183.5733777777778
 20
169.0928236111111
 30
0.0
  0
VERTEX
  5
2AC
  8
HOLE
 10
183.5733777777778
 20
159.0908680555556
 30
0.0
  0
SEQEND
  5
2AD
  8
HOLE
  0
POLYLINE
  5
5F
  8
HOLE
 66
     1
 10
0.0
 20
0.0
 30
0.0
 70
     1
  0
VERTEX
  5
2AE
  8
HOLE
 10
180.57265
 20
199.6112763888889
 30
0.0
  0
VERTEX
  5
2AF
  8
HOLE
 10
180.57265
 20
209.6132319444445
 30
0.0
  0
VERTEX
  5
2B0
  8
HOLE
 10
183.5733777777778
 20
209.6132319444445
 30
0.0
  0
VERTEX
  5
2B1
  8
HOLE
 10
183.5733777777778
 20
199.6112763888889
 30
0.0
  0
SEQEND
  5
2B2
  8
HOLE
  0
POLYLINE
  5
60
  8
HOLE
 66
     1
 10
0.0
 20
0.0
 30
0.0
 70
     1
  0
VERTEX
  5
2B3
  8
HOLE
 10
16.03533055555556
 20
93.71197361111112
 30
0.0
  0
VERTEX
  5
2B4
  8
HOLE
 10
16.03533055555556
 20
83.71001805555555
 30
0.0
  0
VERTEX
  5
2B5
  8
HOLE
 10
19.03605833333334
 20
83.71001805555555
 30
0.0
  0
VERTEX
  5
2B6
  8
HOLE
 10
19.03605833333334
 20
93.71197361111112
 30
0.0
  0
SEQEND
  5
2B7
  8
HOLE
  0
POLYLINE
  5
61
  8
HOLE
 66
     1
 10
0.0
 20
0.0
 30
0.0
 70
     1
  0
VERTEX
  5
2B8
  8
HOLE
 10
16.03533055555556
 20
128.3282930555555
 30
0.0
  0
VERTEX
  5
2B9
  8
HOLE
 10
16.03533055555556
 20
118.3263375
 30
0.0
  0
VERTEX
  5
2BA
  8
HOLE
 10
19.03605833333334
 20
118.3263375
 30
0.0
  0
VERTEX
  5
2BB
  8
HOLE
 10
19.03605833333334
 20
128.3282930555555
 30
0.0
  0
SEQEND
  5
2BC
  8
HOLE
  0
POLYLINE
  5
62
  8
HOLE
 66
     1
 10
0.0
 20
0.0
 30
0.0
 70
     1
  0
VERTEX
  5
2BD
  8
HOLE
 10
186.1525361111111
 20
93.71197361111112
 30
0.0
  0
VERTEX
  5
2BE
  8
HOLE
 10
186.1525361111111
 20
83.71001805555555
 30
0.0
  0
VERTEX
  5
2BF
  8
HOLE
 10
189.1532638888889
 20
83.71001805555555
 30
0.0
  0
VERTEX
  5
2C0
  8
HOLE
 10
189.1532638888889
 20
93.71197361111112
 30
0.0
  0
SEQEND
  5
2C1
  8
HOLE
  0
POLYLINE
  5
63
  8
HOLE
 66
     1
 10
0.0
 20
0.0
 30
0.0
 70
     1
  0
VERTEX
  5
2C2
  8
HOLE
 10
186.1525361111111
 20
128.3282930555555
 30
0.0
  0
VERTEX
  5
2C3
  8
HOLE
 10
186.1525361111111
 20
118.3263375
 30
0.0
  0
VERTEX
  5
2C4
  8
HOLE
 10
189.1532638888889
 20
118.3263375
 30
0.0
  0
VERTEX
  5
2C5
  8
HOLE
 10
189.1532638888889
 20
128.3282930555555
 30
0.0
  0
SEQEND
  5
2C6
  8
HOLE
  0
POLYLINE
  5
64
  8
HOLE
 66
     1
 10
0.0
 20
0.0
 30
0.0
 70
     1
  0
VERTEX
  5
2C7
  8
HOLE
 10
207.1713888888889
 20
96.75785694444444
 30
0.0
  0
VERTEX
  5
2C8
  8
HOLE
 10
204.1710138888889
 20
96.75785694444444
 30
0.0
  0
VERTEX
  5
2C9
  8
HOLE
 10
204.1710138888889
 20
88.75650416666667
 30
0.0
  0
VERTEX
  5
2CA
  8
HOLE
 10
207.1713888888889
 20
88.75650416666667
 30
0.0
  0
SEQEND
  5
2CB
  8
HOLE
  0
POLYLINE
  5
65
  8
HOLE
 66
     1
 10
0.0
 20
0.0
 30
0.0
 70
     1
  0
VERTEX
  5
2CC
  8
HOLE
 10
204.1710138888889
 20
131.6959097222222
 30
0.0
  0
VERTEX
  5
2CD
  8
HOLE
 10
204.1710138888889
 20
123.6942041666667
 30
0.0
  0
VERTEX
  5
2CE
  8
HOLE
 10
207.1713888888889
 20
123.6942041666667
 30
0.0
  0
VERTEX
  5
2CF
  8
HOLE
 10
207.1713888888889
 20
131.6959097222222
 30
0.0
  0
SEQEND
  5
2D0
  8
HOLE
  0
POLYLINE
  5
66
  8
HOLE
 66
     1
 10
0.0
 20
0.0
 30
0.0
 70
     1
  0
VERTEX
  5
2D1
  8
HOLE
 10
16.42620833333334
 20
20.4650763888889
 30
0.0
  0
VERTEX
  5
2D2
  8
HOLE
 10
16.42620833333334
 20
14.03640694444445
 30
0.0
  0
VERTEX
  5
2D3
  8
HOLE
 10
30.4286638888889
 20
14.03640694444445
 30
0.0
  0
VERTEX
  5
2D4
  8
HOLE
 10
30.4286638888889
 20
20.4650763888889
 30
0.0
  0
SEQEND
  5
2D5
  8
HOLE
  0
POLYLINE
  5
67
  8
HOLE
 66
     1
 10
0.0
 20
0.0
 30
0.0
 70
     1
  0
VERTEX
  5
2D6
  8
HOLE
 10
80.61165555555556
 20
28.51617083333334
 30
0.0
  0
VERTEX
  5
2D7
  8
HOLE
 10
50.91023611111112
 20
28.51617083333334
 30
0.0
  0
VERTEX
  5
2D8
  8
HOLE
 10
50.91023611111112
 20
14.45233194444445
 30
0.0
  0
VERTEX
  5
2D9
  8
HOLE
 10
80.61165555555556
 20
14.45233194444445
 30
0.0
  0
SEQEND
  5
2DA
  8
HOLE
  0
POLYLINE
  5
68
  8
HOLE
 66
     1
 10
0.0
 20
0.0
 30
0.0
 70
     1
  0
VERTEX
  5
2DB
  8
HOLE
 10
101.1687222222222
 20
21.04821805555557
 30
0.0
  0
VERTEX
  5
2DC
  8
HOLE
 10
101.1687222222222
 20
11.75993194444445
 30
0.0
  0
VERTEX
  5
2DD
  8
HOLE
 10
106.1301888888889
 20
11.75993194444445
 30
0.0
  0
VERTEX
  5
2DE
  8
HOLE
 10
106.1301888888889
 20
21.04821805555557
 30
0.0
  0
SEQEND
  5
2DF
  8
HOLE
  0
POLYLINE
  5
69
  8
HOLE
 66
     1
 10
0.0
 20
0.0
 30
0.0
 70
     1
  0
VERTEX
  5
2E0
  8
HOLE
 10
94.20700555555555
 20
11.75993194444445
 30
0.0
  0
VERTEX
  5
2E1
  8
HOLE
 10
99.16811944444443
 20
11.75993194444445
 30
0.0
  0
VERTEX
  5
2E2
  8
HOLE
 10
99.16811944444443
 20
21.04821805555557
 30
0.0
  0
VERTEX
  5
2E3
  8
HOLE
 10
94.20700555555555
 20
21.04821805555557
 30
0.0
  0
SEQEND
  5
2E4
  8
HOLE
  0
POLYLINE
  5
6A
  8
HOLE
 66
     1
 10
0.0
 20
0.0
 30
0.0
 70
     1
  0
VERTEX
  5
2E5
  8
HOLE
 10
108.1304388888889
 20
21.04821805555557
 30
0.0
  0
VERTEX
  5
2E6
  8
HOLE
 10
108.1304388888889
 20
11.75993194444445
 30
0.0
  0
VERTEX
  5
2E7
  8
HOLE
 10
113.0919055555555
 20
11.75993194444445
 30
0.0
  0
VERTEX
  5
2E8
  8
HOLE
 10
113.0919055555555
 20
21.04821805555557
 30
0.0
  0
SEQEND
  5
2E9
  8
HOLE
  0
POLYLINE
  5
6B
  8
HOLE
 66
     1
 10
0.0
 20
0.0
 30
0.0
 70
     1
  0
VERTEX
  5
2EA
  8
HOLE
 10
137.0924361111111
 20
26.55190416666668
 30
0.0
  0
VERTEX
  5
2EB
  8
HOLE
 10
132.1313222222222
 20
26.55190416666668
 30
0.0
  0
VERTEX
  5
2EC
  8
HOLE
 10
132.1313222222222
 20
17.26361805555556
 30
0.0
  0
VERTEX
  5
2ED
  8
HOLE
 10
137.0924361111111
 20
17.26361805555556
 30
0.0
  0
SEQEND
  5
2EE
  8
HOLE
  0
POLYLINE
  5
6C
  8
HOLE
 66
     1
 10
0.0
 20
0.0
 30
0.0
 70
     1
  0
VERTEX
  5
2EF
  8
HOLE
 10
125.1696055555556
 20
17.26361805555556
 30
0.0
  0
VERTEX
  5
2F0
  8
HOLE
 10
130.1310722222222
 20
17.26361805555556
 30
0.0
  0
VERTEX
  5
2F1
  8
HOLE
 10
130.1310722222222
 20
26.55190416666668
 30
0.0
  0
VERTEX
  5
2F2
  8
HOLE
 10
125.1696055555556
 20
26.55190416666668
 30
0.0
  0
SEQEND
  5
2F3
  8
HOLE
  0
POLYLINE
  5
6D
  8
HOLE
 66
     1
 10
0.0
 20
0.0
 30
0.0
 70
     1
  0
VERTEX
  5
2F4
  8
HOLE
 10
144.0541527777778
 20
26.55190416666668
 30
0.0
  0
VERTEX
  5
2F5
  8
HOLE
 10
139.0930388888889
 20
26.55190416666668
 30
0.0
  0
VERTEX
  5
2F6
  8
HOLE
 10
139.0930388888889
 20
17.26361805555556
 30
0.0
  0
VERTEX
  5
2F7
  8
HOLE
 10
144.0541527777778
 20
17.26361805555556
 30
0.0
  0
SEQEND
  5
2F8
  8
HOLE
  0
POLYLINE
  5
6E
  8
HOLE
 66
     1
 10
0.0
 20
0.0
 30
0.0
 70
     1
  0
VERTEX
  5
2F9
  8
HOLE
 10
192.2139638888889
 20
19.40885972222223
 30
0.0
  0
VERTEX
  5
2FA
  8
HOLE
 10
158.1709083333333
 20
19.40885972222223
 30
0.0
  0
VERTEX
  5
2FB
  8
HOLE
 10
158.1709083333333
 20
13.44127083333334
 30
0.0
  0
VERTEX
  5
2FC
  8
HOLE
 10
192.2139638888889
 20
13.44127083333334
 30
0.0
  0
SEQEND
  5
2FD
  8
HOLE
  0
POLYLINE
  5
6F
  8
HOLE
 66
     1
 10
0.0
 20
0.0
 30
0.0
 70
     1
  0
VERTEX
  5
2FE
  8
HOLE
 10
212.9156694444444
 20
19.77892361111112
 30
0.0
  0
VERTEX
  5
2FF
  8
HOLE
 10
212.9156694444444
 20
10.49063750000001
 30
0.0
  0
VERTEX
  5
300
  8
HOLE
 10
217.8771361111111
 20
10.49063750000001
 30
0.0
  0
VERTEX
  5
301
  8
HOLE
 10
217.8771361111111
 20
19.77892361111112
 30
0.0
  0
SEQEND
  5
302
  8
HOLE
  0
POLYLINE
  5
70
  8
HOLE
 66
     1
 10
0.0
 20
0.0
 30
0.0
 70
     1
  0
VERTEX
  5
303
  8
HOLE
 10
205.9539527777778
 20
10.49063750000001
 30
0.0
  0
VERTEX
  5
304
  8
HOLE
 10
210.9154194444444
 20
10.49063750000001
 30
0.0
  0
VERTEX
  5
305
  8
HOLE
 10
210.9154194444444
 20
19.77892361111112
 30
0.0
  0
VERTEX
  5
306
  8
HOLE
 10
205.9539527777778
 20
19.77892361111112
 30
0.0
  0
SEQEND
  5
307
  8
HOLE
  0
POLYLINE
  5
71
  8
HOLE
 66
     1
 10
0.0
 20
0.0
 30
0.0
 70
     1
  0
VERTEX
  5
308
  8
HOLE
 10
219.8773861111111
 20
19.77892361111112
 30
0.0
  0
VERTEX
  5
309
  8
HOLE
 10
219.8773861111111
 20
10.49063750000001
 30
0.0
  0
VERTEX
  5
30A
  8
HOLE
 10
224.8385
 20
10.49063750000001
 30
0.0
  0
VERTEX
  5
30B
  8
HOLE
 10
224.8385
 20
19.77892361111112
 30
0.0
  0
SEQEND
  5
30C
  8
HOLE
  0
POLYLINE
  5
72
  8
HOLE
 66
     1
 10
0.0
 20
0.0
 30
0.0
 70
     1
  0
VERTEX
  5
30D
  8
HOLE
 10
300.4680583333333
 20
57.34975694444446
 30
0.0
  0
VERTEX
  5
30E
  8
HOLE
 10
300.6638499999999
 20
57.33670416666668
 30
0.0
  0
VERTEX
  5
30F
  8
HOLE
 10
300.8596416666667
 20
57.34975694444446
 30
0.0
  0
VERTEX
  5
310
  8
HOLE
 10
301.0522583333333
 20
57.38785694444446
 30
0.0
  0
VERTEX
  5
311
  8
HOLE
 10
301.2381722222221
 20
57.45100416666668
 30
0.0
  0
VERTEX
  5
312
  8
HOLE
 10
301.4142083333334
 20
57.53778750000001
 30
0.0
  0
VERTEX
  5
313
  8
HOLE
 10
301.5771916666666
 20
57.64679583333334
 30
0.0
  0
VERTEX
  5
314
  8
HOLE
 10
301.7250055555555
 20
57.77626527777779
 30
0.0
  0
VERTEX
  5
315
  8
HOLE
 10
301.8541222222221
 20
57.92372638888889
 30
0.0
  0
VERTEX
  5
316
  8
HOLE
 10
301.9631305555555
 20
58.08706250000002
 30
0.0
  0
VERTEX
  5
317
  8
HOLE
 10
302.0499138888889
 20
58.26309861111113
 30
0.0
  0
VERTEX
  5
318
  8
HOLE
 10
302.1130611111111
 20
58.44865972222222
 30
0.0
  0
VERTEX
  5
319
  8
HOLE
 10
302.1515138888889
 20
58.6412763888889
 30
0.0
  0
VERTEX
  5
31A
  8
HOLE
 10
302.1642138888889
 20
58.83706805555556
 30
0.0
  0
VERTEX
  5
31B
  8
HOLE
 10
302.1515138888889
 20
59.03285972222223
 30
0.0
  0
VERTEX
  5
31C
  8
HOLE
 10
302.1130611111111
 20
59.2254763888889
 30
0.0
  0
VERTEX
  5
31D
  8
HOLE
 10
302.0499138888889
 20
59.41139027777778
 30
0.0
  0
VERTEX
  5
31E
  8
HOLE
 10
301.9631305555555
 20
59.58707361111112
 30
0.0
  0
VERTEX
  5
31F
  8
HOLE
 10
301.8541222222221
 20
59.75040972222224
 30
0.0
  0
VERTEX
  5
320
  8
HOLE
 10
301.7250055555555
 20
59.89787083333334
 30
0.0
  0
VERTEX
  5
321
  8
HOLE
 10
301.5771916666666
 20
60.02734027777779
 30
0.0
  0
VERTEX
  5
322
  8
HOLE
 10
301.4142083333334
 20
60.13634861111112
 30
0.0
  0
VERTEX
  5
323
  8
HOLE
 10
301.2381722222221
 20
60.22313194444445
 30
0.0
  0
VERTEX
  5
324
  8
HOLE
 10
301.0522583333333
 20
60.28627916666667
 30
0.0
  0
VERTEX
  5
325
  8
HOLE
 10
300.8596416666667
 20
60.32437916666667
 30
0.0
  0
VERTEX
  5
326
  8
HOLE
 10
300.6638499999999
 20
60.33743194444445
 30
0.0
  0
VERTEX
  5
327
  8
HOLE
 10
300.4680583333333
 20
60.32437916666667
 30
0.0
  0
VERTEX
  5
328
  8
HOLE
 10
300.2754416666667
 20
60.28627916666667
 30
0.0
  0
VERTEX
  5
329
  8
HOLE
 10
300.0898805555555
 20
60.22313194444445
 30
0.0
  0
VERTEX
  5
32A
  8
HOLE
 10
299.9138444444444
 20
60.13634861111112
 30
0.0
  0
VERTEX
  5
32B
  8
HOLE
 10
299.7505083333333
 20
60.02734027777779
 30
0.0
  0
VERTEX
  5
32C
  8
HOLE
 10
299.6030472222222
 20
59.89787083333334
 30
0.0
  0
VERTEX
  5
32D
  8
HOLE
 10
299.4735777777777
 20
59.75040972222224
 30
0.0
  0
VERTEX
  5
32E
  8
HOLE
 10
299.3645694444444
 20
59.58707361111112
 30
0.0
  0
VERTEX
  5
32F
  8
HOLE
 10
299.277786111111
 20
59.41139027777778
 30
0.0
  0
VERTEX
  5
330
  8
HOLE
 10
299.2146388888889
 20
59.2254763888889
 30
0.0
  0
VERTEX
  5
331
  8
HOLE
 10
299.1765388888889
 20
59.03285972222223
 30
0.0
  0
VERTEX
  5
332
  8
HOLE
 10
299.1638388888889
 20
58.83706805555556
 30
0.0
  0
VERTEX
  5
333
  8
HOLE
 10
299.1765388888889
 20
58.6412763888889
 30
0.0
  0
VERTEX
  5
334
  8
HOLE
 10
299.2146388888889
 20
58.44865972222222
 30
0.0
  0
VERTEX
  5
335
  8
HOLE
 10
299.277786111111
 20
58.26309861111113
 30
0.0
  0
VERTEX
  5
336
  8
HOLE
 10
299.3645694444444
 20
58.08706250000002
 30
0.0
  0
VERTEX
  5
337
  8
HOLE
 10
299.4735777777777
 20
57.92372638888889
 30
0.0
  0
VERTEX
  5
338
  8
HOLE
 10
299.6030472222222
 20
57.77626527777779
 30
0.0
  0
VERTEX
  5
339
  8
HOLE
 10
299.7505083333333
 20
57.64679583333334
 30
0.0
  0
VERTEX
  5
33A
  8
HOLE
 10
299.9138444444444
 20
57.53778750000001
 30
0.0
  0
VERTEX
  5
33B
  8
HOLE
 10
300.0898805555555
 20
57.45100416666668
 30
0.0
  0
VERTEX
  5
33C
  8
HOLE
 10
300.2754416666667
 20
57.38785694444446
 30
0.0
  0
SEQEND
  5
33D
  8
HOLE
  0
POLYLINE
  5
73
  8
HOLE
 66
     1
 10
0.0
 20
0.0
 30
0.0
 70
     1
  0
VERTEX
  5
33E
  8
HOLE
 10
210.7277416666666
 20
52.80774305555557
 30
0.0
  0
VERTEX
  5
33F
  8
HOLE
 10
223.9022277777778
 20
52.80774305555557
 30
0.0
  0
VERTEX
  5
340
  8
HOLE
 10
223.9022277777778
 20
60.86024861111112
 30
0.0
  0
VERTEX
  5
341
  8
HOLE
 10
210.7277416666666
 20
60.86024861111112
 30
0.0
  0
SEQEND
  5
342
  8
HOLE
  0
POLYLINE
  5
74
  8
HOLE
 66
     1
 10
0.0
 20
0.0
 30
0.0
 70
     1
  0
VERTEX
  5
343
  8
HOLE
 10
313.6347833333333
 20
167.1246763888889
 30
0.0
  0
VERTEX
  5
344
  8
HOLE
 10
322.9230694444444
 20
167.1246763888889
 30
0.0
  0
VERTEX
  5
345
  8
HOLE
 10
322.9230694444444
 20
172.0857902777778
 30
0.0
  0
VERTEX
  5
346
  8
HOLE
 10
313.6347833333333
 20
172.0857902777778
 30
0.0
  0
SEQEND
  5
347
  8
HOLE
  0
POLYLINE
  5
75
  8
HOLE
 66
     1
 10
0.0
 20
0.0
 30
0.0
 70
     1
  0
VERTEX
  5
348
  8
HOLE
 10
322.9230694444444
 20
160.1629597222222
 30
0.0
  0
VERTEX
  5
349
  8
HOLE
 10
322.9230694444444
 20
165.1240736111111
 30
0.0
  0
VERTEX
  5
34A
  8
HOLE
 10
313.6347833333333
 20
165.1240736111111
 30
0.0
  0
VERTEX
  5
34B
  8
HOLE
 10
313.6347833333333
 20
160.1629597222222
 30
0.0
  0
SEQEND
  5
34C
  8
HOLE
  0
POLYLINE
  5
76
  8
HOLE
 66
     1
 10
0.0
 20
0.0
 30
0.0
 70
     1
  0
VERTEX
  5
34D
  8
HOLE
 10
313.6347833333333
 20
174.0863930555556
 30
0.0
  0
VERTEX
  5
34E
  8
HOLE
 10
322.9230694444444
 20
174.0863930555556
 30
0.0
  0
VERTEX
  5
34F
  8
HOLE
 10
322.9230694444444
 20
179.0478597222222
 30
0.0
  0
VERTEX
  5
350
  8
HOLE
 10
313.6347833333333
 20
179.0478597222222
 30
0.0
  0
SEQEND
  5
351
  8
HOLE
  0
POLYLINE
  5
77
  8
HOLE
 66
     1
 10
0.0
 20
0.0
 30
0.0
 70
     1
  0
VERTEX
  5
352
  8
HOLE
 10
326.9313305555555
 20
192.8284180555555
 30
0.0
  0
VERTEX
  5
353
  8
HOLE
 10
326.9849527777777
 20
193.0979402777778
 30
0.0
  0
VERTEX
  5
354
  8
HOLE
 10
327.0029444444444
 20
193.3727541666667
 30
0.0
  0
VERTEX
  5
355
  8
HOLE
 10
326.9849527777777
 20
193.6472152777778
 30
0.0
  0
VERTEX
  5
356
  8
HOLE
 10
326.9313305555555
 20
193.9170902777777
 30
0.0
  0
VERTEX
  5
357
  8
HOLE
 10
326.8427833333333
 20
194.1777930555555
 30
0.0
  0
VERTEX
  5
358
  8
HOLE
 10
326.7210749999999
 20
194.4243847222222
 30
0.0
  0
VERTEX
  5
359
  8
HOLE
 10
326.5683222222222
 20
194.6533375
 30
0.0
  0
VERTEX
  5
35A
  8
HOLE
 10
326.3869944444444
 20
194.8604180555556
 30
0.0
  0
VERTEX
  5
35B
  8
HOLE
 10
326.1799138888889
 20
195.0417458333333
 30
0.0
  0
VERTEX
  5
35C
  8
HOLE
 10
325.9513138888889
 20
195.1944986111111
 30
0.0
  0
VERTEX
  5
35D
  8
HOLE
 10
325.7043694444444
 20
195.3162069444444
 30
0.0
  0
VERTEX
  5
35E
  8
HOLE
 10
325.4440194444444
 20
195.4047541666666
 30
0.0
  0
VERTEX
  5
35F
  8
HOLE
 10
325.1737916666666
 20
195.4583763888889
 30
0.0
  0
VERTEX
  5
360
  8
HOLE
 10
324.8993305555555
 20
195.4763680555556
 30
0.0
  0
VERTEX
  5
361
  8
HOLE
 10
324.6248694444445
 20
195.4583763888889
 30
0.0
  0
VERTEX
  5
362
  8
HOLE
 10
324.3549944444444
 20
195.4047541666666
 30
0.0
  0
VERTEX
  5
363
  8
HOLE
 10
324.0942916666667
 20
195.3162069444444
 30
0.0
  0
VERTEX
  5
364
  8
HOLE
 10
323.8477
 20
195.1944986111111
 30
0.0
  0
VERTEX
  5
365
  8
HOLE
 10
323.6187472222222
 20
195.0417458333333
 30
0.0
  0
VERTEX
  5
366
  8
HOLE
 10
323.4120194444445
 20
194.8604180555556
 30
0.0
  0
VERTEX
  5
367
  8
HOLE
 10
323.2306916666666
 20
194.6533375
 30
0.0
  0
VERTEX
  5
368
  8
HOLE
 10
323.0775861111111
 20
194.4243847222222
 30
0.0
  0
VERTEX
  5
369
  8
HOLE
 10
322.9558777777778
 20
194.1777930555555
 30
0.0
  0
VERTEX
  5
36A
  8
HOLE
 10
322.8676833333333
 20
193.9170902777777
 30
0.0
  0
VERTEX
  5
36B
  8
HOLE
 10
322.8137083333334
 20
193.6472152777778
 30
0.0
  0
VERTEX
  5
36C
  8
HOLE
 10
322.7957166666666
 20
193.3727541666667
 30
0.0
  0
VERTEX
  5
36D
  8
HOLE
 10
322.8137083333334
 20
193.0979402777778
 30
0.0
  0
VERTEX
  5
36E
  8
HOLE
 10
322.8676833333333
 20
192.8284180555555
 30
0.0
  0
VERTEX
  5
36F
  8
HOLE
 10
322.9558777777778
 20
192.5677152777778
 30
0.0
  0
VERTEX
  5
370
  8
HOLE
 10
323.0775861111111
 20
192.3211236111111
 30
0.0
  0
VERTEX
  5
371
  8
HOLE
 10
323.2306916666666
 20
192.0921708333333
 30
0.0
  0
VERTEX
  5
372
  8
HOLE
 10
323.4120194444445
 20
191.8850902777777
 30
0.0
  0
VERTEX
  5
373
  8
HOLE
 10
323.6187472222222
 20
191.7041152777778
 30
0.0
  0
VERTEX
  5
374
  8
HOLE
 10
323.8477
 20
191.5510097222222
 30
0.0
  0
VERTEX
  5
375
  8
HOLE
 10
324.0942916666667
 20
191.4293013888889
 30
0.0
  0
VERTEX
  5
376
  8
HOLE
 10
324.3549944444444
 20
191.3407541666667
 30
0.0
  0
VERTEX
  5
377
  8
HOLE
 10
324.6248694444445
 20
191.2871319444445
 30
0.0
  0
VERTEX
  5
378
  8
HOLE
 10
324.8993305555555
 20
191.2691402777778
 30
0.0
  0
VERTEX
  5
379
  8
HOLE
 10
325.1737916666666
 20
191.2871319444445
 30
0.0
  0
VERTEX
  5
37A
  8
HOLE
 10
325.4440194444444
 20
191.3407541666667
 30
0.0
  0
VERTEX
  5
37B
  8
HOLE
 10
325.7043694444444
 20
191.4293013888889
 30
0.0
  0
VERTEX
  5
37C
  8
HOLE
 10
325.9513138888889
 20
191.5510097222222
 30
0.0
  0
VERTEX
  5
37D
  8
HOLE
 10
326.1799138888889
 20
191.7041152777778
 30
0.0
  0
VERTEX
  5
37E
  8
HOLE
 10
326.3869944444444
 20
191.8850902777777
 30
0.0
  0
VERTEX
  5
37F
  8
HOLE
 10
326.5683222222222
 20
192.0921708333333
 30
0.0
  0
VERTEX
  5
380
  8
HOLE
 10
326.7210749999999
 20
192.3211236111111
 30
0.0
  0
VERTEX
  5
381
  8
HOLE
 10
326.8427833333333
 20
192.5677152777778
 30
0.0
  0
SEQEND
  5
382
  8
HOLE
  0
POLYLINE
  5
78
  8
HOLE
 66
     1
 10
0.0
 20
0.0
 30
0.0
 70
     1
  0
VERTEX
  5
383
  8
HOLE
 10
300.8603472222222
 20
205.3777819444444
 30
0.0
  0
VERTEX
  5
384
  8
HOLE
 10
303.8610749999999
 20
205.3777819444444
 30
0.0
  0
VERTEX
  5
385
  8
HOLE
 10
303.8610749999999
 20
215.3797375
 30
0.0
  0
VERTEX
  5
386
  8
HOLE
 10
300.8603472222222
 20
215.3797375
 30
0.0
  0
SEQEND
  5
387
  8
HOLE
  0
ENDSEC
  0
EOF
