  0
SECTION
  2
HEADER
  9
$ACADVER
  1
AC1009
  9
$DWGCODEPAGE
  3
ansi_1252
  9
$INSBASE
 10
0.0
 20
0.0
 30
0.0
  9
$EXTMIN
 10
16.5245875
 20
26.94996805555555
 30
0.0
  9
$EXTMAX
 10
329.7034125
 20
224.6780319444444
 30
0.0
  9
$LIMMIN
 10
0.0
 20
0.0
  9
$LIMMAX
 10
12.0
 20
9.0
  9
$ORTHOMODE
 70
     0
  9
$REGENMODE
 70
     1
  9
$FILLMODE
 70
     1
  9
$QTEXTMODE
 70
     0
  9
$MIRRTEXT
 70
     1
  9
$DRAGMODE
 70
     2
  9
$LTSCALE
 40
1.0
  9
$OSMODE
 70
    37
  9
$ATTMODE
 70
     1
  9
$TEXTSIZE
 40
0.2
  9
$TRACEWID
 40
0.05
  9
$TEXTSTYLE
  7
STANDARD
  9
$CLAYER
  8
0
  9
$CELTYPE
  6
BYLAYER
  9
$CECOLOR
 62
   256
  9
$DIMSCALE
 40
1.0
  9
$DIMASZ
 40
0.18
  9
$DIMEXO
 40
0.0625
  9
$DIMDLI
 40
0.38
  9
$DIMRND
 40
0.0
  9
$DIMDLE
 40
0.0
  9
$DIMEXE
 40
0.18
  9
$DIMTP
 40
0.0
  9
$DIMTM
 40
0.0
  9
$DIMTXT
 40
0.18
  9
$DIMCEN
 40
0.09
  9
$DIMTSZ
 40
0.0
  9
$DIMTOL
 70
     0
  9
$DIMLIM
 70
     0
  9
$DIMTIH
 70
     1
  9
$DIMTOH
 70
     1
  9
$DIMSE1
 70
     0
  9
$DIMSE2
 70
     0
  9
$DIMTAD
 70
     0
  9
$DIMZIN
 70
     0
  9
$DIMBLK
  1

  9
$DIMASO
 70
     1
  9
$DIMSHO
 70
     1
  9
$DIMPOST
  1

  9
$DIMAPOST
  1

  9
$DIMALT
 70
     0
  9
$DIMALTD
 70
     2
  9
$DIMALTF
 40
25.4
  9
$DIMLFAC
 40
1.0
  9
$DIMTOFL
 70
     0
  9
$DIMTVP
 40
0.0
  9
$DIMTIX
 70
     0
  9
$DIMSOXD
 70
     0
  9
$DIMSAH
 70
     0
  9
$DIMBLK1
  1

  9
$DIMBLK2
  1

  9
$DIMSTYLE
  2
STANDARD
  9
$DIMCLRD
 70
     0
  9
$DIMCLRE
 70
     0
  9
$DIMCLRT
 70
     0
  9
$DIMTFAC
 40
1.0
  9
$DIMGAP
 40
0.09
  9
$LUNITS
 70
     2
  9
$LUPREC
 70
     4
  9
$SKETCHINC
 40
0.1
  9
$FILLETRAD
 40
0.5
  9
$AUNITS
 70
     0
  9
$AUPREC
 70
     0
  9
$MENU
  1
.
  9
$ELEVATION
 40
0.0
  9
$PELEVATION
 40
0.0
  9
$THICKNESS
 40
0.0
  9
$LIMCHECK
 70
     0
  9
$CHAMFERA
 40
0.5
  9
$CHAMFERB
 40
0.5
  9
$SKPOLY
 70
     0
  9
$TDCREATE
 40
2454910.5
  9
$TDUPDATE
 40
2456638.039422106
  9
$TDINDWG
 40
0.0000000116
  9
$TDUSRTIMER
 40
0.0000000116
  9
$USRTIMER
 70
     1
  9
$ANGBASE
 50
0.0
  9
$ANGDIR
 70
     0
  9
$PDMODE
 70
     0
  9
$PDSIZE
 40
0.0
  9
$PLINEWID
 40
0.0
  9
$COORDS
 70
     1
  9
$SPLFRAME
 70
     0
  9
$SPLINETYPE
 70
     6
  9
$SPLINESEGS
 70
     8
  9
$ATTDIA
 70
     0
  9
$ATTREQ
 70
     1
  9
$HANDLING
 70
     1
  9
$HANDSEED
  5
165
  9
$SURFTAB1
 70
     6
  9
$SURFTAB2
 70
     6
  9
$SURFTYPE
 70
     6
  9
$SURFU
 70
     6
  9
$SURFV
 70
     6
  9
$UCSNAME
  2

  9
$UCSORG
 10
0.0
 20
0.0
 30
0.0
  9
$UCSXDIR
 10
1.0
 20
0.0
 30
0.0
  9
$UCSYDIR
 10
0.0
 20
1.0
 30
0.0
  9
$PUCSNAME
  2

  9
$PUCSORG
 10
0.0
 20
0.0
 30
0.0
  9
$PUCSXDIR
 10
1.0
 20
0.0
 30
0.0
  9
$PUCSYDIR
 10
0.0
 20
1.0
 30
0.0
  9
$USERI1
 70
     0
  9
$USERI2
 70
     0
  9
$USERI3
 70
     0
  9
$USERI4
 70
     0
  9
$USERI5
 70
     0
  9
$USERR1
 40
0.0
  9
$USERR2
 40
0.0
  9
$USERR3
 40
0.0
  9
$USERR4
 40
0.0
  9
$USERR5
 40
0.0
  9
$WORLDVIEW
 70
     1
  9
$SHADEDGE
 70
     3
  9
$SHADEDIF
 70
    70
  9
$TILEMODE
 70
     1
  9
$MAXACTVP
 70
    64
  9
$PLIMCHECK
 70
     0
  9
$PEXTMIN
 10
1.000000000000000E+20
 20
1.000000000000000E+20
 30
1.000000000000000E+20
  9
$PEXTMAX
 10
-1.000000000000000E+20
 20
-1.000000000000000E+20
 30
-1.000000000000000E+20
  9
$PLIMMIN
 10
0.0
 20
0.0
  9
$PLIMMAX
 10
12.0
 20
9.0
  9
$UNITMODE
 70
     0
  9
$VISRETAIN
 70
     1
  9
$PLINEGEN
 70
     0
  9
$PSLTSCALE
 70
     1
  0
ENDSEC
  0
SECTION
  2
TABLES
  0
TABLE
  2
VPORT
 70
     1
  0
VPORT
  2
*ACTIVE
 70
     0
 10
0.0
 20
0.0
 11
1.0
 21
1.0
 12
10.42990654205607
 22
4.5
 13
0.0
 23
0.0
 14
0.5
 24
0.5
 15
0.5
 25
0.5
 16
0.0
 26
0.0
 36
1.0
 17
0.0
 27
0.0
 37
0.0
 40
9.0
 41
1.972972972850329
 42
50.0
 43
0.0
 44
0.0
 50
0.0
 51
0.0
 71
     0
 72
   100
 73
     1
 74
     3
 75
     0
 76
     0
 77
     0
 78
     0
  0
ENDTAB
  0
TABLE
  2
LTYPE
 70
     2
  0
LTYPE
  2
CONTINUOUS
 70
     0
  3
Solid line
 72
    65
 73
     0
 40
0.0
  0
LTYPE
  2
CONTINUOUS2
 70
     0
  3
Solid Line
 72
    65
 73
     0
 40
0.0
  0
ENDTAB
  0
TABLE
  2
LAYER
 70
     3
  0
LAYER
  2
0
 70
     0
 62
     7
  6
CONTINUOUS
  0
LAYER
  2
LAYER_1
 70
     0
 62
    18
  6
CONTINUOUS
  0
LAYER
  2
HOLE
 70
     0
 62
     1
  6
CONTINUOUS
  0
ENDTAB
  0
TABLE
  2
STYLE
 70
     1
  0
STYLE
  2
STANDARD
 70
     0
 40
0.0
 41
1.0
 50
0.0
 71
     0
 42
0.2
  3
txt
  4

  0
ENDTAB
  0
TABLE
  2
VIEW
 70
     0
  0
ENDTAB
  0
TABLE
  2
UCS
 70
     0
  0
ENDTAB
  0
TABLE
  2
APPID
 70
     1
  0
APPID
  2
ACAD
 70
     0
  0
ENDTAB
  0
TABLE
  2
DIMSTYLE
 70
     1
  0
DIMSTYLE
  2
STANDARD
 70
     0
  3

  4

  5

  6

  7

 40
1.0
 41
0.18
 42
0.0625
 43
0.38
 44
0.18
 45
0.0
 46
0.0
 47
0.0
 48
0.0
140
0.18
141
0.09
142
0.0
143
25.4
144
1.0
145
0.0
146
1.0
147
0.09
 71
     0
 72
     0
 73
     1
 74
     1
 75
     0
 76
     0
 77
     0
 78
     0
170
     0
171
     2
172
     0
173
     0
174
     0
175
     0
176
     0
177
     0
178
     0
  0
ENDTAB
  0
ENDSEC
  0
SECTION
  2
BLOCKS
  0
BLOCK
  8
0
  2
$MODEL_SPACE
 70
     0
 10
0.0
 20
0.0
 30
0.0
  3
$MODEL_SPACE
  1

  0
ENDBLK
  5
21
  8
0
  0
BLOCK
 67
     1
  8
0
  2
$PAPER_SPACE
 70
     0
 10
0.0
 20
0.0
 30
0.0
  3
$PAPER_SPACE
  1

  0
ENDBLK
  5
1D
 67
     1
  8
0
  0
ENDSEC
  0
SECTION
  2
ENTITIES
  0
POLYLINE
  5
41
  8
LAYER_1
 66
     1
 10
0.0
 20
0.0
 30
0.0
 70
     1
  0
VERTEX
  5
5B
  8
LAYER_1
 10
211.3242430555555
 20
220.4598680555555
 30
0.0
  0
VERTEX
  5
5C
  8
LAYER_1
 10
211.5073347222222
 20
221.2225736111111
 30
0.0
  0
VERTEX
  5
5D
  8
LAYER_1
 10
211.8075486111111
 20
221.9475319444444
 30
0.0
  0
VERTEX
  5
5E
  8
LAYER_1
 10
212.2178291666667
 20
222.6167513888888
 30
0.0
  0
VERTEX
  5
5F
  8
LAYER_1
 10
212.7272402777778
 20
223.2136513888888
 30
0.0
  0
VERTEX
  5
60
  8
LAYER_1
 10
213.3241402777778
 20
223.7234152777777
 30
0.0
  0
VERTEX
  5
61
  8
LAYER_1
 10
213.9933597222222
 20
224.1333430555555
 30
0.0
  0
VERTEX
  5
62
  8
LAYER_1
 10
214.7183180555555
 20
224.4332041666666
 30
0.0
  0
VERTEX
  5
63
  8
LAYER_1
 10
215.4813763888889
 20
224.6166486111111
 30
0.0
  0
VERTEX
  5
64
  8
LAYER_1
 10
216.2634847222222
 20
224.6780319444444
 30
0.0
  0
VERTEX
  5
65
  8
LAYER_1
 10
233.2772513888889
 20
224.6780319444444
 30
0.0
  0
VERTEX
  5
66
  8
LAYER_1
 10
234.0597125
 20
224.6166486111111
 30
0.0
  0
VERTEX
  5
67
  8
LAYER_1
 10
234.8227708333333
 20
224.4332041666666
 30
0.0
  0
VERTEX
  5
68
  8
LAYER_1
 10
235.5477291666666
 20
224.1333430555555
 30
0.0
  0
VERTEX
  5
69
  8
LAYER_1
 10
236.2169486111111
 20
223.7234152777777
 30
0.0
  0
VERTEX
  5
6A
  8
LAYER_1
 10
236.8134958333333
 20
223.2136513888888
 30
0.0
  0
VERTEX
  5
6B
  8
LAYER_1
 10
237.3232597222222
 20
222.6167513888888
 30
0.0
  0
VERTEX
  5
6C
  8
LAYER_1
 10
237.7331875
 20
221.9475319444444
 30
0.0
  0
VERTEX
  5
6D
  8
LAYER_1
 10
238.0337541666667
 20
221.2225736111111
 30
0.0
  0
VERTEX
  5
6E
  8
LAYER_1
 10
238.2168458333333
 20
220.4598680555555
 30
0.0
  0
VERTEX
  5
6F
  8
LAYER_1
 10
238.2782291666666
 20
219.6774069444444
 30
0.0
  0
VERTEX
  5
70
  8
LAYER_1
 10
238.2782291666666
 20
196.3520930555555
 30
0.0
  0
VERTEX
  5
71
  8
LAYER_1
 10
238.3399652777778
 20
195.5696319444444
 30
0.0
  0
VERTEX
  5
72
  8
LAYER_1
 10
238.5230569444444
 20
194.8069263888889
 30
0.0
  0
VERTEX
  5
73
  8
LAYER_1
 10
238.8232708333333
 20
194.0816152777778
 30
0.0
  0
VERTEX
  5
74
  8
LAYER_1
 10
239.2335513888889
 20
193.4127486111111
 30
0.0
  0
VERTEX
  5
75
  8
LAYER_1
 10
239.7429625
 20
192.8158486111111
 30
0.0
  0
VERTEX
  5
76
  8
LAYER_1
 10
240.3398625
 20
192.3060847222222
 30
0.0
  0
VERTEX
  5
77
  8
LAYER_1
 10
241.0087291666666
 20
191.8961569444444
 30
0.0
  0
VERTEX
  5
78
  8
LAYER_1
 10
241.7340402777778
 20
191.5959430555555
 30
0.0
  0
VERTEX
  5
79
  8
LAYER_1
 10
242.4967458333333
 20
191.4128513888888
 30
0.0
  0
VERTEX
  5
7A
  8
LAYER_1
 10
243.2792069444444
 20
191.3511152777778
 30
0.0
  0
VERTEX
  5
7B
  8
LAYER_1
 10
319.7014569444444
 20
191.3511152777778
 30
0.0
  0
VERTEX
  5
7C
  8
LAYER_1
 10
320.4860347222222
 20
191.3204236111111
 30
0.0
  0
VERTEX
  5
7D
  8
LAYER_1
 10
321.2660263888889
 20
191.2279958333333
 30
0.0
  0
VERTEX
  5
7E
  8
LAYER_1
 10
322.0361402777777
 20
191.0748902777777
 30
0.0
  0
VERTEX
  5
7F
  8
LAYER_1
 10
322.7921430555555
 20
190.8614597222222
 30
0.0
  0
VERTEX
  5
80
  8
LAYER_1
 10
323.5290958333333
 20
190.5898208333333
 30
0.0
  0
VERTEX
  5
81
  8
LAYER_1
 10
324.2420597222222
 20
190.2610319444444
 30
0.0
  0
VERTEX
  5
82
  8
LAYER_1
 10
324.9275069444444
 20
189.8772097222222
 30
0.0
  0
VERTEX
  5
83
  8
LAYER_1
 10
325.5801458333333
 20
189.4408236111111
 30
0.0
  0
VERTEX
  5
84
  8
LAYER_1
 10
326.1971541666666
 20
188.9546958333333
 30
0.0
  0
VERTEX
  5
85
  8
LAYER_1
 10
326.7739458333333
 20
188.4216486111111
 30
0.0
  0
VERTEX
  5
86
  8
LAYER_1
 10
327.3069930555555
 20
187.8448569444444
 30
0.0
  0
VERTEX
  5
87
  8
LAYER_1
 10
327.7931208333333
 20
187.2282013888889
 30
0.0
  0
VERTEX
  5
88
  8
LAYER_1
 10
328.2295069444444
 20
186.5752097222222
 30
0.0
  0
VERTEX
  5
89
  8
LAYER_1
 10
328.6129763888889
 20
185.8901152777777
 30
0.0
  0
VERTEX
  5
8A
  8
LAYER_1
 10
328.9421180555555
 20
185.1767986111111
 30
0.0
  0
VERTEX
  5
8B
  8
LAYER_1
 10
329.2137569444444
 20
184.4398458333333
 30
0.0
  0
VERTEX
  5
8C
  8
LAYER_1
 10
329.4268347222222
 20
183.6841958333333
 30
0.0
  0
VERTEX
  5
8D
  8
LAYER_1
 10
329.5799402777777
 20
182.9137291666666
 30
0.0
  0
VERTEX
  5
8E
  8
LAYER_1
 10
329.6723680555555
 20
182.1340902777777
 30
0.0
  0
VERTEX
  5
8F
  8
LAYER_1
 10
329.7034125
 20
181.3491597222222
 30
0.0
  0
VERTEX
  5
90
  8
LAYER_1
 10
329.7034125
 20
36.95157083333332
 30
0.0
  0
VERTEX
  5
91
  8
LAYER_1
 10
329.6723680555555
 20
36.16699305555555
 30
0.0
  0
VERTEX
  5
92
  8
LAYER_1
 10
329.5799402777777
 20
35.38700138888888
 30
0.0
  0
VERTEX
  5
93
  8
LAYER_1
 10
329.4268347222222
 20
34.61688749999999
 30
0.0
  0
VERTEX
  5
94
  8
LAYER_1
 10
329.2137569444444
 20
33.86088472222222
 30
0.0
  0
VERTEX
  5
95
  8
LAYER_1
 10
328.9421180555555
 20
33.12428472222221
 30
0.0
  0
VERTEX
  5
96
  8
LAYER_1
 10
328.6129763888889
 20
32.41096805555555
 30
0.0
  0
VERTEX
  5
97
  8
LAYER_1
 10
328.2295069444444
 20
31.7258736111111
 30
0.0
  0
VERTEX
  5
98
  8
LAYER_1
 10
327.7931208333333
 20
31.07252916666666
 30
0.0
  0
VERTEX
  5
99
  8
LAYER_1
 10
327.3069930555555
 20
30.45587361111111
 30
0.0
  0
VERTEX
  5
9A
  8
LAYER_1
 10
326.7739458333333
 20
29.87943472222221
 30
0.0
  0
VERTEX
  5
9B
  8
LAYER_1
 10
326.1971541666666
 20
29.3463875
 30
0.0
  0
VERTEX
  5
9C
  8
LAYER_1
 10
325.5801458333333
 20
28.86025972222222
 30
0.0
  0
VERTEX
  5
9D
  8
LAYER_1
 10
324.9275069444444
 20
28.42352083333333
 30
0.0
  0
VERTEX
  5
9E
  8
LAYER_1
 10
324.2420597222222
 20
28.04005138888888
 30
0.0
  0
VERTEX
  5
9F
  8
LAYER_1
 10
323.5290958333333
 20
27.71126249999999
 30
0.0
  0
VERTEX
  5
A0
  8
LAYER_1
 10
322.7921430555555
 20
27.43927083333332
 30
0.0
  0
VERTEX
  5
A1
  8
LAYER_1
 10
322.0361402777777
 20
27.22619305555555
 30
0.0
  0
VERTEX
  5
A2
  8
LAYER_1
 10
321.2660263888889
 20
27.07273472222222
 30
0.0
  0
VERTEX
  5
A3
  8
LAYER_1
 10
320.4860347222222
 20
26.98065972222222
 30
0.0
  0
VERTEX
  5
A4
  8
LAYER_1
 10
319.7014569444444
 20
26.94996805555555
 30
0.0
  0
VERTEX
  5
A5
  8
LAYER_1
 10
26.52654305555556
 20
26.94996805555555
 30
0.0
  0
VERTEX
  5
A6
  8
LAYER_1
 10
25.74196527777778
 20
26.98065972222222
 30
0.0
  0
VERTEX
  5
A7
  8
LAYER_1
 10
24.96197361111112
 20
27.07273472222222
 30
0.0
  0
VERTEX
  5
A8
  8
LAYER_1
 10
24.19185972222223
 20
27.22619305555555
 30
0.0
  0
VERTEX
  5
A9
  8
LAYER_1
 10
23.43585694444445
 20
27.43927083333332
 30
0.0
  0
VERTEX
  5
AA
  8
LAYER_1
 10
22.69925694444445
 20
27.71126249999999
 30
0.0
  0
VERTEX
  5
AB
  8
LAYER_1
 10
21.98594027777778
 20
28.04005138888888
 30
0.0
  0
VERTEX
  5
AC
  8
LAYER_1
 10
21.30084583333334
 20
28.42352083333333
 30
0.0
  0
VERTEX
  5
AD
  8
LAYER_1
 10
20.64785416666667
 20
28.86025972222222
 30
0.0
  0
VERTEX
  5
AE
  8
LAYER_1
 10
20.03084583333334
 20
29.3463875
 30
0.0
  0
VERTEX
  5
AF
  8
LAYER_1
 10
19.45405416666667
 20
29.87943472222221
 30
0.0
  0
VERTEX
  5
B0
  8
LAYER_1
 10
18.92135972222223
 20
30.45587361111111
 30
0.0
  0
VERTEX
  5
B1
  8
LAYER_1
 10
18.43487916666667
 20
31.07252916666666
 30
0.0
  0
VERTEX
  5
B2
  8
LAYER_1
 10
17.99849305555556
 20
31.7258736111111
 30
0.0
  0
VERTEX
  5
B3
  8
LAYER_1
 10
17.61467083333334
 20
32.41096805555555
 30
0.0
  0
VERTEX
  5
B4
  8
LAYER_1
 10
17.28623472222223
 20
33.12428472222221
 30
0.0
  0
VERTEX
  5
B5
  8
LAYER_1
 10
17.01424305555556
 20
33.86088472222222
 30
0.0
  0
VERTEX
  5
B6
  8
LAYER_1
 10
16.80116527777778
 20
34.61688749999999
 30
0.0
  0
VERTEX
  5
B7
  8
LAYER_1
 10
16.64805972222223
 20
35.38700138888888
 30
0.0
  0
VERTEX
  5
B8
  8
LAYER_1
 10
16.55563194444445
 20
36.16699305555555
 30
0.0
  0
VERTEX
  5
B9
  8
LAYER_1
 10
16.5245875
 20
36.95157083333332
 30
0.0
  0
VERTEX
  5
BA
  8
LAYER_1
 10
16.5245875
 20
214.6764291666667
 30
0.0
  0
VERTEX
  5
BB
  8
LAYER_1
 10
16.55563194444445
 20
215.4610069444444
 30
0.0
  0
VERTEX
  5
BC
  8
LAYER_1
 10
16.64805972222223
 20
216.2409986111111
 30
0.0
  0
VERTEX
  5
BD
  8
LAYER_1
 10
16.80116527777778
 20
217.0111125
 30
0.0
  0
VERTEX
  5
BE
  8
LAYER_1
 10
17.01424305555556
 20
217.7671152777777
 30
0.0
  0
VERTEX
  5
BF
  8
LAYER_1
 10
17.28623472222223
 20
218.5040680555555
 30
0.0
  0
VERTEX
  5
C0
  8
LAYER_1
 10
17.61467083333334
 20
219.2170319444444
 30
0.0
  0
VERTEX
  5
C1
  8
LAYER_1
 10
17.99849305555556
 20
219.9021263888889
 30
0.0
  0
VERTEX
  5
C2
  8
LAYER_1
 10
18.43487916666667
 20
220.5551180555555
 30
0.0
  0
VERTEX
  5
C3
  8
LAYER_1
 10
18.92135972222223
 20
221.1721263888889
 30
0.0
  0
VERTEX
  5
C4
  8
LAYER_1
 10
19.45405416666667
 20
221.7485652777777
 30
0.0
  0
VERTEX
  5
C5
  8
LAYER_1
 10
20.03084583333334
 20
222.2819652777777
 30
0.0
  0
VERTEX
  5
C6
  8
LAYER_1
 10
20.64785416666667
 20
222.7680930555555
 30
0.0
  0
VERTEX
  5
C7
  8
LAYER_1
 10
21.30084583333334
 20
223.2044791666667
 30
0.0
  0
VERTEX
  5
C8
  8
LAYER_1
 10
21.98594027777778
 20
223.5879486111111
 30
0.0
  0
VERTEX
  5
C9
  8
LAYER_1
 10
22.69925694444445
 20
223.9167375
 30
0.0
  0
VERTEX
  5
CA
  8
LAYER_1
 10
23.43585694444445
 20
224.1887291666666
 30
0.0
  0
VERTEX
  5
CB
  8
LAYER_1
 10
24.19185972222223
 20
224.4018069444444
 30
0.0
  0
VERTEX
  5
CC
  8
LAYER_1
 10
24.96197361111112
 20
224.5552652777777
 30
0.0
  0
VERTEX
  5
CD
  8
LAYER_1
 10
25.74196527777778
 20
224.6473402777778
 30
0.0
  0
VERTEX
  5
CE
  8
LAYER_1
 10
26.52654305555556
 20
224.6780319444444
 30
0.0
  0
VERTEX
  5
CF
  8
LAYER_1
 10
149.5838986111111
 20
224.6780319444444
 30
0.0
  0
VERTEX
  5
D0
  8
LAYER_1
 10
150.3688291666667
 20
224.6473402777778
 30
0.0
  0
VERTEX
  5
D1
  8
LAYER_1
 10
151.1488208333333
 20
224.5552652777777
 30
0.0
  0
VERTEX
  5
D2
  8
LAYER_1
 10
151.9189347222222
 20
224.4018069444444
 30
0.0
  0
VERTEX
  5
D3
  8
LAYER_1
 10
152.6749375
 20
224.1887291666666
 30
0.0
  0
VERTEX
  5
D4
  8
LAYER_1
 10
153.4115375
 20
223.9167375
 30
0.0
  0
VERTEX
  5
D5
  8
LAYER_1
 10
154.1248541666667
 20
223.5879486111111
 30
0.0
  0
VERTEX
  5
D6
  8
LAYER_1
 10
154.8099486111111
 20
223.2044791666667
 30
0.0
  0
VERTEX
  5
D7
  8
LAYER_1
 10
155.4629402777778
 20
222.7680930555555
 30
0.0
  0
VERTEX
  5
D8
  8
LAYER_1
 10
156.0799486111111
 20
222.2819652777777
 30
0.0
  0
VERTEX
  5
D9
  8
LAYER_1
 10
156.6563875
 20
221.7485652777777
 30
0.0
  0
VERTEX
  5
DA
  8
LAYER_1
 10
157.1894347222222
 20
221.1721263888889
 30
0.0
  0
VERTEX
  5
DB
  8
LAYER_1
 10
157.6755625
 20
220.5551180555555
 30
0.0
  0
VERTEX
  5
DC
  8
LAYER_1
 10
158.1119486111111
 20
219.9021263888889
 30
0.0
  0
VERTEX
  5
DD
  8
LAYER_1
 10
158.4957708333333
 20
219.2170319444444
 30
0.0
  0
VERTEX
  5
DE
  8
LAYER_1
 10
158.8245597222222
 20
218.5040680555555
 30
0.0
  0
VERTEX
  5
DF
  8
LAYER_1
 10
159.0965513888889
 20
217.7671152777777
 30
0.0
  0
VERTEX
  5
E0
  8
LAYER_1
 10
159.3096291666667
 20
217.0111125
 30
0.0
  0
VERTEX
  5
E1
  8
LAYER_1
 10
159.4627347222222
 20
216.2409986111111
 30
0.0
  0
VERTEX
  5
E2
  8
LAYER_1
 10
159.5551625
 20
215.4610069444444
 30
0.0
  0
VERTEX
  5
E3
  8
LAYER_1
 10
159.5858541666667
 20
214.6764291666667
 30
0.0
  0
VERTEX
  5
E4
  8
LAYER_1
 10
159.5858541666667
 20
201.3530708333333
 30
0.0
  0
VERTEX
  5
E5
  8
LAYER_1
 10
159.6168986111111
 20
200.5684930555555
 30
0.0
  0
VERTEX
  5
E6
  8
LAYER_1
 10
159.7089736111111
 20
199.7885013888889
 30
0.0
  0
VERTEX
  5
E7
  8
LAYER_1
 10
159.8624319444444
 20
199.0180347222222
 30
0.0
  0
VERTEX
  5
E8
  8
LAYER_1
 10
160.0755097222222
 20
198.2620319444444
 30
0.0
  0
VERTEX
  5
E9
  8
LAYER_1
 10
160.3471486111111
 20
197.5254319444444
 30
0.0
  0
VERTEX
  5
EA
  8
LAYER_1
 10
160.6759375
 20
196.8121152777778
 30
0.0
  0
VERTEX
  5
EB
  8
LAYER_1
 10
161.0597597222222
 20
196.1270208333333
 30
0.0
  0
VERTEX
  5
EC
  8
LAYER_1
 10
161.4961458333333
 20
195.4740291666666
 30
0.0
  0
VERTEX
  5
ED
  8
LAYER_1
 10
161.9822736111111
 20
194.8573736111111
 30
0.0
  0
VERTEX
  5
EE
  8
LAYER_1
 10
162.5153208333333
 20
194.2805819444444
 30
0.0
  0
VERTEX
  5
EF
  8
LAYER_1
 10
163.0924652777778
 20
193.7475347222222
 30
0.0
  0
VERTEX
  5
F0
  8
LAYER_1
 10
163.7087680555555
 20
193.2614069444444
 30
0.0
  0
VERTEX
  5
F1
  8
LAYER_1
 10
164.3617597222222
 20
192.8250208333333
 30
0.0
  0
VERTEX
  5
F2
  8
LAYER_1
 10
165.0468541666667
 20
192.4411986111111
 30
0.0
  0
VERTEX
  5
F3
  8
LAYER_1
 10
165.7601708333333
 20
192.1124097222222
 30
0.0
  0
VERTEX
  5
F4
  8
LAYER_1
 10
166.4974763888889
 20
191.8407708333333
 30
0.0
  0
VERTEX
  5
F5
  8
LAYER_1
 10
167.2531263888889
 20
191.6273402777778
 30
0.0
  0
VERTEX
  5
F6
  8
LAYER_1
 10
168.0232402777778
 20
191.4742347222222
 30
0.0
  0
VERTEX
  5
F7
  8
LAYER_1
 10
168.8028791666667
 20
191.3821597222222
 30
0.0
  0
VERTEX
  5
F8
  8
LAYER_1
 10
169.5878097222222
 20
191.3511152777778
 30
0.0
  0
VERTEX
  5
F9
  8
LAYER_1
 10
206.2615291666667
 20
191.3511152777778
 30
0.0
  0
VERTEX
  5
FA
  8
LAYER_1
 10
207.0439902777777
 20
191.4128513888888
 30
0.0
  0
VERTEX
  5
FB
  8
LAYER_1
 10
207.8070486111111
 20
191.5959430555555
 30
0.0
  0
VERTEX
  5
FC
  8
LAYER_1
 10
208.5320069444444
 20
191.8961569444444
 30
0.0
  0
VERTEX
  5
FD
  8
LAYER_1
 10
209.2012263888889
 20
192.3060847222222
 30
0.0
  0
VERTEX
  5
FE
  8
LAYER_1
 10
209.7977736111111
 20
192.8158486111111
 30
0.0
  0
VERTEX
  5
FF
  8
LAYER_1
 10
210.3075375
 20
193.4127486111111
 30
0.0
  0
VERTEX
  5
100
  8
LAYER_1
 10
210.7174652777778
 20
194.0816152777778
 30
0.0
  0
VERTEX
  5
101
  8
LAYER_1
 10
211.0180319444444
 20
194.8069263888889
 30
0.0
  0
VERTEX
  5
102
  8
LAYER_1
 10
211.2011236111111
 20
195.5696319444444
 30
0.0
  0
VERTEX
  5
103
  8
LAYER_1
 10
211.2625069444445
 20
196.3520930555555
 30
0.0
  0
VERTEX
  5
104
  8
LAYER_1
 10
211.2625069444445
 20
219.6774069444444
 30
0.0
  0
SEQEND
  5
105
  8
LAYER_1
  0
POLYLINE
  5
43
  8
HOLE
 66
     1
 10
0.0
 20
0.0
 30
0.0
 70
     1
  0
VERTEX
  5
106
  8
HOLE
 10
296.6968180555555
 20
46.95352638888888
 30
0.0
  0
VERTEX
  5
107
  8
HOLE
 10
296.6968180555555
 20
49.95425416666666
 30
0.0
  0
VERTEX
  5
108
  8
HOLE
 10
286.6948625
 20
49.95425416666666
 30
0.0
  0
VERTEX
  5
109
  8
HOLE
 10
286.6948625
 20
46.95352638888888
 30
0.0
  0
SEQEND
  5
10A
  8
HOLE
  0
POLYLINE
  5
44
  8
HOLE
 66
     1
 10
0.0
 20
0.0
 30
0.0
 70
     1
  0
VERTEX
  5
10B
  8
HOLE
 10
136.5815680555556
 20
194.6725180555555
 30
0.0
  0
VERTEX
  5
10C
  8
HOLE
 10
136.5815680555556
 20
184.6705625
 30
0.0
  0
VERTEX
  5
10D
  8
HOLE
 10
139.5819430555555
 20
184.6705625
 30
0.0
  0
VERTEX
  5
10E
  8
HOLE
 10
139.5819430555555
 20
194.6725180555555
 30
0.0
  0
SEQEND
  5
10F
  8
HOLE
  0
POLYLINE
  5
45
  8
HOLE
 66
     1
 10
0.0
 20
0.0
 30
0.0
 70
     1
  0
VERTEX
  5
110
  8
HOLE
 10
136.5815680555556
 20
69.95816527777777
 30
0.0
  0
VERTEX
  5
111
  8
HOLE
 10
136.5815680555556
 20
59.95620972222221
 30
0.0
  0
VERTEX
  5
112
  8
HOLE
 10
139.5819430555555
 20
59.95620972222221
 30
0.0
  0
VERTEX
  5
113
  8
HOLE
 10
139.5819430555555
 20
69.95816527777777
 30
0.0
  0
SEQEND
  5
114
  8
HOLE
  0
POLYLINE
  5
46
  8
HOLE
 66
     1
 10
0.0
 20
0.0
 30
0.0
 70
     1
  0
VERTEX
  5
115
  8
HOLE
 10
139.5819430555555
 20
122.3132097222222
 30
0.0
  0
VERTEX
  5
116
  8
HOLE
 10
139.5819430555555
 20
132.3151652777778
 30
0.0
  0
VERTEX
  5
117
  8
HOLE
 10
136.5815680555556
 20
132.3151652777778
 30
0.0
  0
VERTEX
  5
118
  8
HOLE
 10
136.5815680555556
 20
122.3132097222222
 30
0.0
  0
SEQEND
  5
119
  8
HOLE
  0
POLYLINE
  5
47
  8
HOLE
 66
     1
 10
0.0
 20
0.0
 30
0.0
 70
     1
  0
VERTEX
  5
11A
  8
HOLE
 10
192.7914152777778
 20
168.3468291666667
 30
0.0
  0
VERTEX
  5
11B
  8
HOLE
 10
202.7933708333333
 20
168.3468291666667
 30
0.0
  0
VERTEX
  5
11C
  8
HOLE
 10
202.7933708333333
 20
171.3472041666666
 30
0.0
  0
VERTEX
  5
11D
  8
HOLE
 10
192.7914152777778
 20
171.3472041666666
 30
0.0
  0
SEQEND
  5
11E
  8
HOLE
  0
POLYLINE
  5
48
  8
HOLE
 66
     1
 10
0.0
 20
0.0
 30
0.0
 70
     1
  0
VERTEX
  5
11F
  8
HOLE
 10
246.7473652777778
 20
171.3472041666666
 30
0.0
  0
VERTEX
  5
120
  8
HOLE
 10
246.7473652777778
 20
168.3468291666667
 30
0.0
  0
VERTEX
  5
121
  8
HOLE
 10
256.7493208333333
 20
168.3468291666667
 30
0.0
  0
VERTEX
  5
122
  8
HOLE
 10
256.7493208333333
 20
171.3472041666666
 30
0.0
  0
SEQEND
  5
123
  8
HOLE
  0
POLYLINE
  5
49
  8
HOLE
 66
     1
 10
0.0
 20
0.0
 30
0.0
 70
     1
  0
VERTEX
  5
124
  8
HOLE
 10
149.5838986111111
 20
168.3468291666667
 30
0.0
  0
VERTEX
  5
125
  8
HOLE
 10
159.5858541666667
 20
168.3468291666667
 30
0.0
  0
VERTEX
  5
126
  8
HOLE
 10
159.5858541666667
 20
171.3472041666666
 30
0.0
  0
VERTEX
  5
127
  8
HOLE
 10
149.5838986111111
 20
171.3472041666666
 30
0.0
  0
SEQEND
  5
128
  8
HOLE
  0
POLYLINE
  5
4A
  8
HOLE
 66
     1
 10
0.0
 20
0.0
 30
0.0
 70
     1
  0
VERTEX
  5
129
  8
HOLE
 10
306.6987736111111
 20
114.1516958333333
 30
0.0
  0
VERTEX
  5
12A
  8
HOLE
 10
306.6987736111111
 20
104.1497402777778
 30
0.0
  0
VERTEX
  5
12B
  8
HOLE
 10
309.6995013888888
 20
104.1497402777778
 30
0.0
  0
VERTEX
  5
12C
  8
HOLE
 10
309.6995013888888
 20
114.1516958333333
 30
0.0
  0
SEQEND
  5
12D
  8
HOLE
  0
POLYLINE
  5
4B
  8
HOLE
 66
     1
 10
0.0
 20
0.0
 30
0.0
 70
     1
  0
VERTEX
  5
12E
  8
HOLE
 10
306.6987736111111
 20
69.95816527777777
 30
0.0
  0
VERTEX
  5
12F
  8
HOLE
 10
306.6987736111111
 20
59.95620972222221
 30
0.0
  0
VERTEX
  5
130
  8
HOLE
 10
309.6995013888888
 20
59.95620972222221
 30
0.0
  0
VERTEX
  5
131
  8
HOLE
 10
309.6995013888888
 20
69.95816527777777
 30
0.0
  0
SEQEND
  5
132
  8
HOLE
  0
POLYLINE
  5
4C
  8
HOLE
 66
     1
 10
0.0
 20
0.0
 30
0.0
 70
     1
  0
VERTEX
  5
133
  8
HOLE
 10
306.6987736111111
 20
158.3445208333333
 30
0.0
  0
VERTEX
  5
134
  8
HOLE
 10
306.6987736111111
 20
148.3429180555555
 30
0.0
  0
VERTEX
  5
135
  8
HOLE
 10
309.6995013888888
 20
148.3429180555555
 30
0.0
  0
VERTEX
  5
136
  8
HOLE
 10
309.6995013888888
 20
158.3445208333333
 30
0.0
  0
SEQEND
  5
137
  8
HOLE
  0
POLYLINE
  5
4D
  8
HOLE
 66
     1
 10
0.0
 20
0.0
 30
0.0
 70
     1
  0
VERTEX
  5
138
  8
HOLE
 10
299.6975458333333
 20
171.3472041666666
 30
0.0
  0
VERTEX
  5
139
  8
HOLE
 10
289.6952375
 20
171.3472041666666
 30
0.0
  0
VERTEX
  5
13A
  8
HOLE
 10
289.6952375
 20
168.3468291666667
 30
0.0
  0
VERTEX
  5
13B
  8
HOLE
 10
299.6975458333333
 20
168.3468291666667
 30
0.0
  0
SEQEND
  5
13C
  8
HOLE
  0
POLYLINE
  5
4E
  8
HOLE
 66
     1
 10
0.0
 20
0.0
 30
0.0
 70
     1
  0
VERTEX
  5
13D
  8
HOLE
 10
215.7960541666667
 20
174.3479319444444
 30
0.0
  0
VERTEX
  5
13E
  8
HOLE
 10
211.2625069444445
 20
174.3479319444444
 30
0.0
  0
VERTEX
  5
13F
  8
HOLE
 10
211.2625069444445
 20
171.3472041666666
 30
0.0
  0
VERTEX
  5
140
  8
HOLE
 10
215.7960541666667
 20
171.3472041666666
 30
0.0
  0
SEQEND
  5
141
  8
HOLE
  0
POLYLINE
  5
4F
  8
HOLE
 66
     1
 10
0.0
 20
0.0
 30
0.0
 70
     1
  0
VERTEX
  5
142
  8
HOLE
 10
238.2782291666666
 20
171.3472041666666
 30
0.0
  0
VERTEX
  5
143
  8
HOLE
 10
238.2782291666666
 20
174.3479319444444
 30
0.0
  0
VERTEX
  5
144
  8
HOLE
 10
233.7450347222222
 20
174.3479319444444
 30
0.0
  0
VERTEX
  5
145
  8
HOLE
 10
233.7450347222222
 20
171.3472041666666
 30
0.0
  0
SEQEND
  5
146
  8
HOLE
  0
POLYLINE
  5
50
  8
HOLE
 66
     1
 10
0.0
 20
0.0
 30
0.0
 70
     1
  0
VERTEX
  5
147
  8
HOLE
 10
36.52849861111112
 20
184.6705625
 30
0.0
  0
VERTEX
  5
148
  8
HOLE
 10
39.52922638888889
 20
184.6705625
 30
0.0
  0
VERTEX
  5
149
  8
HOLE
 10
39.52922638888889
 20
194.6725180555555
 30
0.0
  0
VERTEX
  5
14A
  8
HOLE
 10
36.52849861111112
 20
194.6725180555555
 30
0.0
  0
SEQEND
  5
14B
  8
HOLE
  0
POLYLINE
  5
51
  8
HOLE
 66
     1
 10
0.0
 20
0.0
 30
0.0
 70
     1
  0
VERTEX
  5
14C
  8
HOLE
 10
36.52849861111112
 20
132.3151652777778
 30
0.0
  0
VERTEX
  5
14D
  8
HOLE
 10
36.52849861111112
 20
122.3132097222222
 30
0.0
  0
VERTEX
  5
14E
  8
HOLE
 10
39.52922638888889
 20
122.3132097222222
 30
0.0
  0
VERTEX
  5
14F
  8
HOLE
 10
39.52922638888889
 20
132.3151652777778
 30
0.0
  0
SEQEND
  5
150
  8
HOLE
  0
POLYLINE
  5
52
  8
HOLE
 66
     1
 10
0.0
 20
0.0
 30
0.0
 70
     1
  0
VERTEX
  5
151
  8
HOLE
 10
39.52922638888889
 20
59.95620972222221
 30
0.0
  0
VERTEX
  5
152
  8
HOLE
 10
39.52922638888889
 20
69.95816527777777
 30
0.0
  0
VERTEX
  5
153
  8
HOLE
 10
36.52849861111112
 20
69.95816527777777
 30
0.0
  0
VERTEX
  5
154
  8
HOLE
 10
36.52849861111112
 20
59.95620972222221
 30
0.0
  0
SEQEND
  5
155
  8
HOLE
  0
POLYLINE
  5
53
  8
HOLE
 66
     1
 10
0.0
 20
0.0
 30
0.0
 70
     1
  0
VERTEX
  5
156
  8
HOLE
 10
59.5331375
 20
46.95352638888888
 30
0.0
  0
VERTEX
  5
157
  8
HOLE
 10
59.5331375
 20
49.95425416666666
 30
0.0
  0
VERTEX
  5
158
  8
HOLE
 10
49.53118194444445
 20
49.95425416666666
 30
0.0
  0
VERTEX
  5
159
  8
HOLE
 10
49.53118194444445
 20
46.95352638888888
 30
0.0
  0
SEQEND
  5
15A
  8
HOLE
  0
POLYLINE
  5
54
  8
HOLE
 66
     1
 10
0.0
 20
0.0
 30
0.0
 70
     1
  0
VERTEX
  5
15B
  8
HOLE
 10
138.5878152777778
 20
49.95425416666666
 30
0.0
  0
VERTEX
  5
15C
  8
HOLE
 10
128.5858597222222
 20
49.95425416666666
 30
0.0
  0
VERTEX
  5
15D
  8
HOLE
 10
128.5858597222222
 20
46.95352638888888
 30
0.0
  0
VERTEX
  5
15E
  8
HOLE
 10
138.5878152777778
 20
46.95352638888888
 30
0.0
  0
SEQEND
  5
15F
  8
HOLE
  0
POLYLINE
  5
55
  8
HOLE
 66
     1
 10
0.0
 20
0.0
 30
0.0
 70
     1
  0
VERTEX
  5
160
  8
HOLE
 10
207.6405375
 20
49.95425416666666
 30
0.0
  0
VERTEX
  5
161
  8
HOLE
 10
207.6405375
 20
46.95352638888888
 30
0.0
  0
VERTEX
  5
162
  8
HOLE
 10
217.6421402777778
 20
46.95352638888888
 30
0.0
  0
VERTEX
  5
163
  8
HOLE
 10
217.6421402777778
 20
49.95425416666666
 30
0.0
  0
SEQEND
  5
164
  8
HOLE
  0
ENDSEC
  0
EOF
