  0
SECTION
  2
HEADER
  9
$ACADVER
  1
AC1024
  9
$ACADMAINTVER
 70
6
  9
$DWGCODEPAGE
  3
ANSI_1252
  9
$LASTSAVEDBY
  1
ezdxf
  9
$INSBASE
 10
0.0
 20
0.0
 30
0.0
  9
$EXTMIN
 10
1e+20
 20
1e+20
 30
1e+20
  9
$EXTMAX
 10
-1e+20
 20
-1e+20
 30
-1e+20
  9
$LIMMIN
 10
0.0
 20
0.0
  9
$LIMMAX
 10
420.0
 20
297.0
  9
$ORTHOMODE
 70
0
  9
$REGENMODE
 70
1
  9
$FILLMODE
 70
1
  9
$QTEXTMODE
 70
0
  9
$MIRRTEXT
 70
1
  9
$LTSCALE
 40
1.0
  9
$ATTMODE
 70
1
  9
$TEXTSIZE
 40
2.5
  9
$TRACEWID
 40
1.0
  9
$TEXTSTYLE
  7
Standard
  9
$CLAYER
  8
0
  9
$CELTYPE
  6
ByLayer
  9
$CECOLOR
 62
256
  9
$CELTSCALE
 40
1.0
  9
$DISPSILH
 70
0
  9
$DIMSCALE
 40
1.0
  9
$DIMASZ
 40
2.5
  9
$DIMEXO
 40
0.625
  9
$DIMDLI
 40
3.75
  9
$DIMRND
 40
0.0
  9
$DIMDLE
 40
0.0
  9
$DIMEXE
 40
1.25
  9
$DIMTP
 40
0.0
  9
$DIMTM
 40
0.0
  9
$DIMTXT
 40
2.5
  9
$DIMCEN
 40
2.5
  9
$DIMTSZ
 40
0.0
  9
$DIMTOL
 70
0
  9
$DIMLIM
 70
0
  9
$DIMTIH
 70
0
  9
$DIMTOH
 70
0
  9
$DIMSE1
 70
0
  9
$DIMSE2
 70
0
  9
$DIMTAD
 70
1
  9
$DIMZIN
 70
8
  9
$DIMBLK
  1

  9
$DIMASO
 70
1
  9
$DIMSHO
 70
1
  9
$DIMPOST
  1

  9
$DIMAPOST
  1

  9
$DIMALT
 70
0
  9
$DIMALTD
 70
3
  9
$DIMALTF
 40
0.03937007874
  9
$DIMLFAC
 40
1.0
  9
$DIMTOFL
 70
1
  9
$DIMTVP
 40
0.0
  9
$DIMTIX
 70
0
  9
$DIMSOXD
 70
0
  9
$DIMSAH
 70
0
  9
$DIMBLK1
  1

  9
$DIMBLK2
  1

  9
$DIMSTYLE
  2
ISO-25
  9
$DIMCLRD
 70
0
  9
$DIMCLRE
 70
0
  9
$DIMCLRT
 70
0
  9
$DIMTFAC
 40
1.0
  9
$DIMGAP
 40
0.625
  9
$DIMJUST
 70
0
  9
$DIMSD1
 70
0
  9
$DIMSD2
 70
0
  9
$DIMTOLJ
 70
0
  9
$DIMTZIN
 70
8
  9
$DIMALTZ
 70
0
  9
$DIMALTTZ
 70
0
  9
$DIMUPT
 70
0
  9
$DIMDEC
 70
2
  9
$DIMTDEC
 70
2
  9
$DIMALTU
 70
2
  9
$DIMALTTD
 70
3
  9
$DIMTXSTY
  7
Standard
  9
$DIMAUNIT
 70
0
  9
$DIMADEC
 70
0
  9
$DIMALTRND
 40
0.0
  9
$DIMAZIN
 70
0
  9
$DIMDSEP
 70
44
  9
$DIMATFIT
 70
3
  9
$DIMFRAC
 70
0
  9
$DIMLDRBLK
  1

  9
$DIMLUNIT
 70
2
  9
$DIMLWD
 70
-2
  9
$DIMLWE
 70
-2
  9
$DIMTMOVE
 70
0
  9
$DIMFXL
 40
1.0
  9
$DIMFXLON
 70
0
  9
$DIMJOGANG
 40
0.785398163397
  9
$DIMTFILL
 70
0
  9
$DIMTFILLCLR
 70
0
  9
$DIMARCSYM
 70
0
  9
$DIMLTYPE
  6

  9
$DIMLTEX1
  6

  9
$DIMLTEX2
  6

  9
$DIMTXTDIRECTION
 70
0
  9
$LUNITS
 70
2
  9
$LUPREC
 70
4
  9
$SKETCHINC
 40
1.0
  9
$FILLETRAD
 40
10.0
  9
$AUNITS
 70
0
  9
$AUPREC
 70
2
  9
$MENU
  1
.
  9
$ELEVATION
 40
0.0
  9
$PELEVATION
 40
0.0
  9
$THICKNESS
 40
0.0
  9
$LIMCHECK
 70
0
  9
$CHAMFERA
 40
0.0
  9
$CHAMFERB
 40
0.0
  9
$CHAMFERC
 40
0.0
  9
$CHAMFERD
 40
0.0
  9
$SKPOLY
 70
0
  9
$TDCREATE
 40
2461274.3563657408
  9
$TDUCREATE
 40
2458532.153996898
  9
$TDUPDATE
 40
2461274.3563657408
  9
$TDUUPDATE
 40
2458532.1544311
  9
$TDINDWG
 40
0.0
  9
$TDUSRTIMER
 40
0.0
  9
$USRTIMER
 70
1
  9
$ANGBASE
 50
0.0
  9
$ANGDIR
 70
0
  9
$PDMODE
 70
0
  9
$PDSIZE
 40
0.0
  9
$PLINEWID
 40
0.0
  9
$SPLFRAME
 70
0
  9
$SPLINETYPE
 70
6
  9
$SPLINESEGS
 70
8
  9
$HANDSEED
  5
39B
  9
$SURFTAB1
 70
6
  9
$SURFTAB2
 70
6
  9
$SURFTYPE
 70
6
  9
$SURFU
 70
6
  9
$SURFV
 70
6
  9
$UCSBASE
  2

  9
$UCSNAME
  2

  9
$UCSORG
 10
0.0
 20
0.0
 30
0.0
  9
$UCSXDIR
 10
1.0
 20
0.0
 30
0.0
  9
$UCSYDIR
 10
0.0
 20
1.0
 30
0.0
  9
$UCSORTHOREF
  2

  9
$UCSORTHOVIEW
 70
0
  9
$UCSORGTOP
 10
0.0
 20
0.0
 30
0.0
  9
$UCSORGBOTTOM
 10
0.0
 20
0.0
 30
0.0
  9
$UCSORGLEFT
 10
0.0
 20
0.0
 30
0.0
  9
$UCSORGRIGHT
 10
0.0
 20
0.0
 30
0.0
  9
$UCSORGFRONT
 10
0.0
 20
0.0
 30
0.0
  9
$UCSORGBACK
 10
0.0
 20
0.0
 30
0.0
  9
$PUCSBASE
  2

  9
$PUCSNAME
  2

  9
$PUCSORG
 10
0.0
 20
0.0
 30
0.0
  9
$PUCSXDIR
 10
1.0
 20
0.0
 30
0.0
  9
$PUCSYDIR
 10
0.0
 20
1.0
 30
0.0
  9
$PUCSORTHOREF
  2

  9
$PUCSORTHOVIEW
 70
0
  9
$PUCSORGTOP
 10
0.0
 20
0.0
 30
0.0
  9
$PUCSORGBOTTOM
 10
0.0
 20
0.0
 30
0.0
  9
$PUCSORGLEFT
 10
0.0
 20
0.0
 30
0.0
  9
$PUCSORGRIGHT
 10
0.0
 20
0.0
 30
0.0
  9
$PUCSORGFRONT
 10
0.0
 20
0.0
 30
0.0
  9
$PUCSORGBACK
 10
0.0
 20
0.0
 30
0.0
  9
$USERI1
 70
0
  9
$USERI2
 70
0
  9
$USERI3
 70
0
  9
$USERI4
 70
0
  9
$USERI5
 70
0
  9
$USERR1
 40
0.0
  9
$USERR2
 40
0.0
  9
$USERR3
 40
0.0
  9
$USERR4
 40
0.0
  9
$USERR5
 40
0.0
  9
$WORLDVIEW
 70
1
  9
$SHADEDGE
 70
3
  9
$SHADEDIF
 70
70
  9
$TILEMODE
 70
1
  9
$MAXACTVP
 70
64
  9
$PINSBASE
 10
0.0
 20
0.0
 30
0.0
  9
$PLIMCHECK
 70
0
  9
$PEXTMIN
 10
1e+20
 20
1e+20
 30
1e+20
  9
$PEXTMAX
 10
-1e+20
 20
-1e+20
 30
-1e+20
  9
$PLIMMIN
 10
0.0
 20
0.0
  9
$PLIMMAX
 10
420.0
 20
297.0
  9
$UNITMODE
 70
0
  9
$VISRETAIN
 70
1
  9
$PLINEGEN
 70
0
  9
$PSLTSCALE
 70
1
  9
$TREEDEPTH
 70
3020
  9
$CMLSTYLE
  2
Standard
  9
$CMLJUST
 70
0
  9
$CMLSCALE
 40
20.0
  9
$PROXYGRAPHICS
 70
1
  9
$MEASUREMENT
 70
1
  9
$CELWEIGHT
370
-1
  9
$ENDCAPS
280
0
  9
$JOINSTYLE
280
0
  9
$LWDISPLAY
290
0
  9
$INSUNITS
 70
4
  9
$HYPERLINKBASE
  1

  9
$STYLESHEET
  1

  9
$XEDIT
290
1
  9
$CEPSNTYPE
380
0
  9
$PSTYLEMODE
290
1
  9
$FINGERPRINTGUID
  2
{C361E19F-2EB8-45EB-A590-251247D0F4A0}
  9
$VERSIONGUID
  2
{533A90F3-E9BD-4B4E-8248-B4D0A7059576}
  9
$EXTNAMES
290
1
  9
$PSVPSCALE
 40
0.0
  9
$OLESTARTUP
290
0
  9
$SORTENTS
280
127
  9
$INDEXCTL
280
0
  9
$HIDETEXT
280
1
  9
$XCLIPFRAME
280
1
  9
$HALOGAP
280
0
  9
$OBSCOLOR
 70
257
  9
$OBSLTYPE
280
0
  9
$INTERSECTIONDISPLAY
280
0
  9
$INTERSECTIONCOLOR
 70
257
  9
$DIMASSOC
280
2
  9
$PROJECTNAME
  1

  9
$CAMERADISPLAY
290
0
  9
$LENSLENGTH
 40
50.0
  9
$CAMERAHEIGHT
 40
0.0
  9
$STEPSPERSEC
 40
24.0
  9
$STEPSIZE
 40
100.0
  9
$3DDWFPREC
 40
2.0
  9
$PSOLWIDTH
 40
0.005
  9
$PSOLHEIGHT
 40
0.08
  9
$LOFTANG1
 40
1.570796326795
  9
$LOFTANG2
 40
1.570796326795
  9
$LOFTMAG1
 40
0.0
  9
$LOFTMAG2
 40
0.0
  9
$LOFTPARAM
 70
7
  9
$LOFTNORMALS
280
1
  9
$LATITUDE
 40
37.795
  9
$LONGITUDE
 40
-122.394
  9
$NORTHDIRECTION
 40
0.0
  9
$TIMEZONE
 70
-8000
  9
$LIGHTGLYPHDISPLAY
280
1
  9
$TILEMODELIGHTSYNCH
280
1
  9
$CMATERIAL
347
20
  9
$SOLIDHIST
280
0
  9
$SHOWHIST
280
1
  9
$DWFFRAME
280
2
  9
$DGNFRAME
280
2
  9
$REALWORLDSCALE
290
1
  9
$INTERFERECOLOR
 62
256
  9
$CSHADOW
280
0
  9
$SHADOWPLANELOCATION
 40
0.0
  0
ENDSEC
  0
SECTION
  2
CLASSES
  0
CLASS
  1
ACDBDICTIONARYWDFLT
  2
AcDbDictionaryWithDefault
  3
ObjectDBX Classes
 90
0
 91
0
280
0
281
0
  0
CLASS
  1
SUN
  2
AcDbSun
  3
SCENEOE
 90
1153
 91
0
280
0
281
0
  0
CLASS
  1
VISUALSTYLE
  2
AcDbVisualStyle
  3
ObjectDBX Classes
 90
4095
 91
0
280
0
281
0
  0
CLASS
  1
MATERIAL
  2
AcDbMaterial
  3
ObjectDBX Classes
 90
1153
 91
0
280
0
281
0
  0
CLASS
  1
SCALE
  2
AcDbScale
  3
ObjectDBX Classes
 90
1153
 91
0
280
0
281
0
  0
CLASS
  1
TABLESTYLE
  2
AcDbTableStyle
  3
ObjectDBX Classes
 90
4095
 91
0
280
0
281
0
  0
CLASS
  1
MLEADERSTYLE
  2
AcDbMLeaderStyle
  3
ACDB_MLEADERSTYLE_CLASS
 90
4095
 91
0
280
0
281
0
  0
CLASS
  1
DICTIONARYVAR
  2
AcDbDictionaryVar
  3
ObjectDBX Classes
 90
0
 91
0
280
0
281
0
  0
CLASS
  1
CELLSTYLEMAP
  2
AcDbCellStyleMap
  3
ObjectDBX Classes
 90
1152
 91
0
280
0
281
0
  0
CLASS
  1
MENTALRAYRENDERSETTINGS
  2
AcDbMentalRayRenderSettings
  3
SCENEOE
 90
1024
 91
0
280
0
281
0
  0
CLASS
  1
ACDBDETAILVIEWSTYLE
  2
AcDbDetailViewStyle
  3
ObjectDBX Classes
 90
1025
 91
0
280
0
281
0
  0
CLASS
  1
ACDBSECTIONVIEWSTYLE
  2
AcDbSectionViewStyle
  3
ObjectDBX Classes
 90
1025
 91
0
280
0
281
0
  0
CLASS
  1
RASTERVARIABLES
  2
AcDbRasterVariables
  3
ISM
 90
0
 91
0
280
0
281
0
  0
CLASS
  1
ACDBPLACEHOLDER
  2
AcDbPlaceHolder
  3
ObjectDBX Classes
 90
0
 91
0
280
0
281
0
  0
CLASS
  1
LAYOUT
  2
AcDbLayout
  3
ObjectDBX Classes
 90
0
 91
0
280
0
281
0
  0
ENDSEC
  0
SECTION
  2
TABLES
  0
TABLE
  2
VPORT
  5
8
330
0
100
AcDbSymbolTable
 70
1
  0
VPORT
  5
23
330
8
100
AcDbSymbolTableRecord
100
AcDbViewportTableRecord
  2
*Active
 70
0
 10
0.0
 20
0.0
 11
1.0
 21
1.0
 12
0.0
 22
0.0
 13
0.0
 23
0.0
 14
0.5
 24
0.5
 15
0.5
 25
0.5
 16
0.0
 26
0.0
 36
1.0
 17
0.0
 27
0.0
 37
0.0
 40
1000.0
 41
1.34
 42
50.0
 43
0.0
 44
0.0
 50
0.0
 51
0.0
 71
0
 72
1000
 73
1
 74
3
 75
0
 76
0
 77
0
 78
0
281
0
 65
0
146
0.0
  0
ENDTAB
  0
TABLE
  2
LTYPE
  5
2
330
0
100
AcDbSymbolTable
 70
3
  0
LTYPE
  5
24
330
2
100
AcDbSymbolTableRecord
100
AcDbLinetypeTableRecord
  2
ByBlock
 70
0
  3

 72
65
 73
0
 40
0.0
  0
LTYPE
  5
25
330
2
100
AcDbSymbolTableRecord
100
AcDbLinetypeTableRecord
  2
ByLayer
 70
0
  3

 72
65
 73
0
 40
0.0
  0
LTYPE
  5
26
330
2
100
AcDbSymbolTableRecord
100
AcDbLinetypeTableRecord
  2
Continuous
 70
0
  3

 72
65
 73
0
 40
0.0
  0
ENDTAB
  0
TABLE
  2
LAYER
  5
1
330
0
100
AcDbSymbolTable
 70
5
  0
LAYER
  5
27
330
1
100
AcDbSymbolTableRecord
100
AcDbLayerTableRecord
  2
0
 70
0
 62
7
  6
Continuous
370
-3
390
13
347
21
  0
LAYER
  5
28
330
1
100
AcDbSymbolTableRecord
100
AcDbLayerTableRecord
  2
Defpoints
 70
0
 62
7
  6
Continuous
290
0
370
-3
390
13
347
21
  0
LAYER
  5
2F
330
1
100
AcDbSymbolTableRecord
100
AcDbLayerTableRecord
  2
CUT
 70
0
 62
1
  6
Continuous
370
-3
390
13
347
21
  0
LAYER
  5
30
330
1
100
AcDbSymbolTableRecord
100
AcDbLayerTableRecord
  2
SHEET
 70
0
 62
8
  6
Continuous
370
-3
390
13
347
21
  0
LAYER
  5
31
330
1
100
AcDbSymbolTableRecord
100
AcDbLayerTableRecord
  2
ENGRAVE
 70
0
 62
5
  6
Continuous
370
-3
390
13
347
21
  0
ENDTAB
  0
TABLE
  2
STYLE
  5
5
330
0
100
AcDbSymbolTable
 70
1
  0
STYLE
  5
29
330
5
100
AcDbSymbolTableRecord
100
AcDbTextStyleTableRecord
  2
Standard
 70
0
 40
0.0
 41
1.0
 50
0.0
 71
0
 42
2.5
  3
txt
  4

  0
ENDTAB
  0
TABLE
  2
VIEW
  5
7
330
0
100
AcDbSymbolTable
 70
0
  0
ENDTAB
  0
TABLE
  2
UCS
  5
6
330
0
100
AcDbSymbolTable
 70
0
  0
ENDTAB
  0
TABLE
  2
APPID
  5
3
330
0
100
AcDbSymbolTable
 70
3
  0
APPID
  5
2A
330
3
100
AcDbSymbolTableRecord
100
AcDbRegAppTableRecord
  2
ACAD
 70
0
  0
APPID
  5
398
330
3
100
AcDbSymbolTableRecord
100
AcDbRegAppTableRecord
  2
HATCHBACKGROUNDCOLOR
 70
0
  0
APPID
  5
399
330
3
100
AcDbSymbolTableRecord
100
AcDbRegAppTableRecord
  2
EZDXF
 70
0
  0
ENDTAB
  0
TABLE
  2
DIMSTYLE
  5
4
330
0
100
AcDbSymbolTable
 70
1
100
AcDbDimStyleTable
  0
DIMSTYLE
105
2B
330
4
100
AcDbSymbolTableRecord
100
AcDbDimStyleTableRecord
  2
Standard
 70
0
 40
1.0
 41
2.5
 42
0.625
 43
3.75
 44
1.25
 45
0.0
 46
0.0
 47
0.0
 48
0.0
 49
2.5
140
2.5
141
2.5
142
0.0
143
0.03937007874
144
1.0
145
0.0
146
1.0
147
0.625
148
0.0
 69
0
 70
0
 71
0
 72
0
 73
0
 74
0
 75
0
 76
0
 77
1
 78
8
 79
3
170
0
171
3
172
1
173
0
174
0
175
0
176
0
177
0
178
0
179
2
271
2
272
2
273
2
274
3
275
0
276
0
277
2
278
44
279
0
280
0
281
0
282
0
283
0
284
8
285
0
286
0
288
0
289
3
290
0
371
-2
372
-2
  0
ENDTAB
  0
TABLE
  2
BLOCK_RECORD
  5
9
330
0
100
AcDbSymbolTable
 70
2
  0
BLOCK_RECORD
  5
17
330
9
100
AcDbSymbolTableRecord
100
AcDbBlockTableRecord
  2
*Model_Space
340
1A
 70
0
280
1
281
0
  0
BLOCK_RECORD
  5
1B
330
9
100
AcDbSymbolTableRecord
100
AcDbBlockTableRecord
  2
*Paper_Space
340
1E
 70
0
280
1
281
0
  0
ENDTAB
  0
ENDSEC
  0
SECTION
  2
BLOCKS
  0
BLOCK
  5
18
330
17
100
AcDbEntity
  8
0
100
AcDbBlockBegin
  2
*Model_Space
 70
0
 10
0.0
 20
0.0
 30
0.0
  3
*Model_Space
  1

  0
ENDBLK
  5
19
330
17
100
AcDbEntity
  8
0
100
AcDbBlockEnd
  0
BLOCK
  5
1C
330
1B
100
AcDbEntity
  8
0
100
AcDbBlockBegin
  2
*Paper_Space
 70
0
 10
0.0
 20
0.0
 30
0.0
  3
*Paper_Space
  1

  0
ENDBLK
  5
1D
330
1B
100
AcDbEntity
  8
0
100
AcDbBlockEnd
  0
ENDSEC
  0
SECTION
  2
ENTITIES
  0
LINE
  5
32
330
17
100
AcDbEntity
  8
SHEET
100
AcDbLine
 10
0.0
 20
0.0
 30
0.0
 11
450.0
 21
0.0
 31
0.0
  0
LINE
  5
33
330
17
100
AcDbEntity
  8
SHEET
100
AcDbLine
 10
450.0
 20
0.0
 30
0.0
 11
450.0
 21
450.0
 31
0.0
  0
LINE
  5
34
330
17
100
AcDbEntity
  8
SHEET
100
AcDbLine
 10
450.0
 20
450.0
 30
0.0
 11
0.0
 21
450.0
 31
0.0
  0
LINE
  5
35
330
17
100
AcDbEntity
  8
SHEET
100
AcDbLine
 10
0.0
 20
450.0
 30
0.0
 11
0.0
 21
0.0
 31
0.0
  0
LINE
  5
36
330
17
100
AcDbEntity
  8
CUT
100
AcDbLine
 10
183.85796944444445
 20
16.519594444444508
 30
0.0
 11
183.85796944444445
 21
26.521550000000005
 31
0.0
  0
LINE
  5
37
330
17
100
AcDbEntity
  8
CUT
100
AcDbLine
 10
186.85869722222213
 20
26.521550000000005
 30
0.0
 11
186.85869722222213
 21
16.519594444444508
 31
0.0
  0
LINE
  5
38
330
17
100
AcDbEntity
  8
CUT
100
AcDbLine
 10
183.85796944444445
 20
26.521550000000005
 30
0.0
 11
186.85869722222213
 21
26.521550000000005
 31
0.0
  0
LINE
  5
39
330
17
100
AcDbEntity
  8
CUT
100
AcDbLine
 10
186.85869722222213
 20
16.519594444444508
 30
0.0
 11
183.85796944444445
 21
16.519594444444508
 31
0.0
  0
LINE
  5
3A
330
17
100
AcDbEntity
  8
CUT
100
AcDbLine
 10
13.740763888888841
 20
16.519594444444508
 30
0.0
 11
13.740763888888841
 21
26.521550000000005
 31
0.0
  0
LINE
  5
3B
330
17
100
AcDbEntity
  8
CUT
100
AcDbLine
 10
16.74149166666655
 20
26.521550000000005
 30
0.0
 11
16.74149166666655
 21
16.519594444444508
 31
0.0
  0
LINE
  5
3C
330
17
100
AcDbEntity
  8
CUT
100
AcDbLine
 10
13.740763888888841
 20
26.521550000000005
 30
0.0
 11
16.74149166666655
 21
26.521550000000005
 31
0.0
  0
LINE
  5
3D
330
17
100
AcDbEntity
  8
CUT
100
AcDbLine
 10
16.74149166666655
 20
16.519594444444508
 30
0.0
 11
13.740763888888841
 21
16.519594444444508
 31
0.0
  0
LINE
  5
3E
330
17
100
AcDbEntity
  8
CUT
100
AcDbLine
 10
13.740763888888841
 20
51.13591388888891
 30
0.0
 11
13.740763888888841
 21
61.13786944444449
 31
0.0
  0
LINE
  5
3F
330
17
100
AcDbEntity
  8
CUT
100
AcDbLine
 10
16.74149166666655
 20
61.13786944444449
 30
0.0
 11
16.74149166666655
 21
51.13591388888891
 31
0.0
  0
LINE
  5
40
330
17
100
AcDbEntity
  8
CUT
100
AcDbLine
 10
13.740763888888841
 20
61.13786944444449
 30
0.0
 11
16.74149166666655
 21
61.13786944444449
 31
0.0
  0
LINE
  5
41
330
17
100
AcDbEntity
  8
CUT
100
AcDbLine
 10
16.74149166666655
 20
51.13591388888891
 30
0.0
 11
13.740763888888841
 21
51.13591388888891
 31
0.0
  0
LINE
  5
42
330
17
100
AcDbEntity
  8
CUT
100
AcDbLine
 10
183.85796944444445
 20
51.13591388888891
 30
0.0
 11
183.85796944444445
 21
61.13786944444449
 31
0.0
  0
LINE
  5
43
330
17
100
AcDbEntity
  8
CUT
100
AcDbLine
 10
186.85869722222213
 20
61.13786944444449
 30
0.0
 11
186.85869722222213
 21
51.13591388888891
 31
0.0
  0
LINE
  5
44
330
17
100
AcDbEntity
  8
CUT
100
AcDbLine
 10
183.85796944444445
 20
61.13786944444449
 30
0.0
 11
186.85869722222213
 21
61.13786944444449
 31
0.0
  0
LINE
  5
45
330
17
100
AcDbEntity
  8
CUT
100
AcDbLine
 10
186.85869722222213
 20
51.13591388888891
 30
0.0
 11
183.85796944444445
 21
51.13591388888891
 31
0.0
  0
LINE
  5
46
330
17
100
AcDbEntity
  8
CUT
100
AcDbLine
 10
189.85942500000004
 20
6.5
 30
0.0
 11
189.85942500000004
 21
89.52095833333341
 31
0.0
  0
LINE
  5
47
330
17
100
AcDbEntity
  8
CUT
100
AcDbLine
 10
6.5
 20
89.52095833333341
 30
0.0
 11
6.5
 21
6.5
 31
0.0
  0
LINE
  5
48
330
17
100
AcDbEntity
  8
CUT
100
AcDbLine
 10
189.85942500000004
 20
89.52095833333341
 30
0.0
 11
6.500000000000057
 21
89.52095833333341
 31
0.0
  0
LINE
  5
49
330
17
100
AcDbEntity
  8
CUT
100
AcDbLine
 10
6.5
 20
6.5
 30
0.0
 11
189.85942499999993
 21
6.5
 31
0.0
  0
LINE
  5
4A
330
17
100
AcDbEntity
  8
ENGRAVE
100
AcDbLine
 10
138.02422486414068
 20
45.45340753157528
 30
0.0
 11
140.8241821395313
 21
45.45340753157528
 31
0.0
  0
LINE
  5
4B
330
17
100
AcDbEntity
  8
ENGRAVE
100
AcDbLine
 10
140.8241821395313
 20
45.45340753157528
 30
0.0
 11
141.52417145837896
 21
46.85338616927059
 31
0.0
  0
LINE
  5
4C
330
17
100
AcDbEntity
  8
ENGRAVE
100
AcDbLine
 10
141.52417145837896
 20
46.85338616927059
 30
0.0
 11
141.52417145837896
 21
51.05332208235653
 31
0.0
  0
LINE
  5
4D
330
17
100
AcDbEntity
  8
ENGRAVE
100
AcDbLine
 10
141.52417145837896
 20
51.05332208235653
 30
0.0
 11
140.8241821395313
 21
52.45330072005184
 31
0.0
  0
LINE
  5
4E
330
17
100
AcDbEntity
  8
ENGRAVE
100
AcDbLine
 10
140.8241821395313
 20
52.45330072005184
 30
0.0
 11
138.02422486414068
 21
52.45330072005184
 31
0.0
  0
LINE
  5
4F
330
17
100
AcDbEntity
  8
ENGRAVE
100
AcDbLine
 10
138.02422486414068
 20
52.45330072005184
 30
0.0
 11
137.32423554529302
 21
51.05332208235653
 31
0.0
  0
LINE
  5
50
330
17
100
AcDbEntity
  8
ENGRAVE
100
AcDbLine
 10
137.32423554529302
 20
51.05332208235653
 30
0.0
 11
137.32423554529302
 21
46.85338616927059
 31
0.0
  0
LINE
  5
51
330
17
100
AcDbEntity
  8
ENGRAVE
100
AcDbLine
 10
137.32423554529302
 20
46.85338616927059
 30
0.0
 11
138.02422486414068
 21
45.45340753157528
 31
0.0
  0
LINE
  5
52
330
17
100
AcDbEntity
  8
ENGRAVE
100
AcDbLine
 10
142.92415009607427
 20
52.45330072005184
 30
0.0
 11
147.1240860091602
 21
52.45330072005184
 31
0.0
  0
LINE
  5
53
330
17
100
AcDbEntity
  8
ENGRAVE
100
AcDbLine
 10
147.1240860091602
 20
52.45330072005184
 30
0.0
 11
144.32412873376958
 21
45.45340753157528
 31
0.0
  0
LINE
  5
54
330
17
100
AcDbEntity
  8
CUT
100
AcDbLine
 10
370.2173944444445
 20
16.519594444444508
 30
0.0
 11
370.2173944444445
 21
26.521550000000005
 31
0.0
  0
LINE
  5
55
330
17
100
AcDbEntity
  8
CUT
100
AcDbLine
 10
373.2181222222222
 20
26.521550000000005
 30
0.0
 11
373.2181222222222
 21
16.519594444444508
 31
0.0
  0
LINE
  5
56
330
17
100
AcDbEntity
  8
CUT
100
AcDbLine
 10
370.2173944444445
 20
26.521550000000005
 30
0.0
 11
373.2181222222222
 21
26.521550000000005
 31
0.0
  0
LINE
  5
57
330
17
100
AcDbEntity
  8
CUT
100
AcDbLine
 10
373.2181222222222
 20
16.519594444444508
 30
0.0
 11
370.2173944444445
 21
16.519594444444508
 31
0.0
  0
LINE
  5
58
330
17
100
AcDbEntity
  8
CUT
100
AcDbLine
 10
200.10018888888888
 20
16.519594444444508
 30
0.0
 11
200.10018888888888
 21
26.521550000000005
 31
0.0
  0
LINE
  5
59
330
17
100
AcDbEntity
  8
CUT
100
AcDbLine
 10
203.1009166666666
 20
26.521550000000005
 30
0.0
 11
203.1009166666666
 21
16.519594444444508
 31
0.0
  0
LINE
  5
5A
330
17
100
AcDbEntity
  8
CUT
100
AcDbLine
 10
200.10018888888888
 20
26.521550000000005
 30
0.0
 11
203.1009166666666
 21
26.521550000000005
 31
0.0
  0
LINE
  5
5B
330
17
100
AcDbEntity
  8
CUT
100
AcDbLine
 10
203.1009166666666
 20
16.519594444444508
 30
0.0
 11
200.10018888888888
 21
16.519594444444508
 31
0.0
  0
LINE
  5
5C
330
17
100
AcDbEntity
  8
CUT
100
AcDbLine
 10
200.10018888888888
 20
51.13591388888891
 30
0.0
 11
200.10018888888888
 21
61.13786944444449
 31
0.0
  0
LINE
  5
5D
330
17
100
AcDbEntity
  8
CUT
100
AcDbLine
 10
203.1009166666666
 20
61.13786944444449
 30
0.0
 11
203.1009166666666
 21
51.13591388888891
 31
0.0
  0
LINE
  5
5E
330
17
100
AcDbEntity
  8
CUT
100
AcDbLine
 10
200.10018888888888
 20
61.13786944444449
 30
0.0
 11
203.1009166666666
 21
61.13786944444449
 31
0.0
  0
LINE
  5
5F
330
17
100
AcDbEntity
  8
CUT
100
AcDbLine
 10
203.1009166666666
 20
51.13591388888891
 30
0.0
 11
200.10018888888888
 21
51.13591388888891
 31
0.0
  0
LINE
  5
60
330
17
100
AcDbEntity
  8
CUT
100
AcDbLine
 10
370.2173944444445
 20
51.13591388888891
 30
0.0
 11
370.2173944444445
 21
61.13786944444449
 31
0.0
  0
LINE
  5
61
330
17
100
AcDbEntity
  8
CUT
100
AcDbLine
 10
373.2181222222222
 20
61.13786944444449
 30
0.0
 11
373.2181222222222
 21
51.13591388888891
 31
0.0
  0
LINE
  5
62
330
17
100
AcDbEntity
  8
CUT
100
AcDbLine
 10
370.2173944444445
 20
61.13786944444449
 30
0.0
 11
373.2181222222222
 21
61.13786944444449
 31
0.0
  0
LINE
  5
63
330
17
100
AcDbEntity
  8
CUT
100
AcDbLine
 10
373.2181222222222
 20
51.13591388888891
 30
0.0
 11
370.2173944444445
 21
51.13591388888891
 31
0.0
  0
LINE
  5
64
330
17
100
AcDbEntity
  8
CUT
100
AcDbLine
 10
376.2188500000001
 20
6.5
 30
0.0
 11
376.2188500000001
 21
89.52095833333341
 31
0.0
  0
LINE
  5
65
330
17
100
AcDbEntity
  8
CUT
100
AcDbLine
 10
192.85942500000004
 20
89.52095833333341
 30
0.0
 11
192.85942500000004
 21
6.5
 31
0.0
  0
LINE
  5
66
330
17
100
AcDbEntity
  8
CUT
100
AcDbLine
 10
376.2188500000001
 20
89.52095833333341
 30
0.0
 11
192.8594250000001
 21
89.52095833333341
 31
0.0
  0
LINE
  5
67
330
17
100
AcDbEntity
  8
CUT
100
AcDbLine
 10
192.85942500000004
 20
6.5
 30
0.0
 11
376.21885
 21
6.5
 31
0.0
  0
LINE
  5
68
330
17
100
AcDbEntity
  8
ENGRAVE
100
AcDbLine
 10
324.3836498641407
 20
45.45340753157528
 30
0.0
 11
327.1836071395313
 21
45.45340753157528
 31
0.0
  0
LINE
  5
69
330
17
100
AcDbEntity
  8
ENGRAVE
100
AcDbLine
 10
327.1836071395313
 20
45.45340753157528
 30
0.0
 11
327.883596458379
 21
46.85338616927059
 31
0.0
  0
LINE
  5
6A
330
17
100
AcDbEntity
  8
ENGRAVE
100
AcDbLine
 10
327.883596458379
 20
46.85338616927059
 30
0.0
 11
327.883596458379
 21
51.05332208235653
 31
0.0
  0
LINE
  5
6B
330
17
100
AcDbEntity
  8
ENGRAVE
100
AcDbLine
 10
327.883596458379
 20
51.05332208235653
 30
0.0
 11
327.1836071395313
 21
52.45330072005184
 31
0.0
  0
LINE
  5
6C
330
17
100
AcDbEntity
  8
ENGRAVE
100
AcDbLine
 10
327.1836071395313
 20
52.45330072005184
 30
0.0
 11
324.3836498641407
 21
52.45330072005184
 31
0.0
  0
LINE
  5
6D
330
17
100
AcDbEntity
  8
ENGRAVE
100
AcDbLine
 10
324.3836498641407
 20
52.45330072005184
 30
0.0
 11
323.68366054529304
 21
51.05332208235653
 31
0.0
  0
LINE
  5
6E
330
17
100
AcDbEntity
  8
ENGRAVE
100
AcDbLine
 10
323.68366054529304
 20
51.05332208235653
 30
0.0
 11
323.68366054529304
 21
46.85338616927059
 31
0.0
  0
LINE
  5
6F
330
17
100
AcDbEntity
  8
ENGRAVE
100
AcDbLine
 10
323.68366054529304
 20
46.85338616927059
 30
0.0
 11
324.3836498641407
 21
45.45340753157528
 31
0.0
  0
LINE
  5
70
330
17
100
AcDbEntity
  8
ENGRAVE
100
AcDbLine
 10
329.2835750960743
 20
52.45330072005184
 30
0.0
 11
333.4835110091602
 21
52.45330072005184
 31
0.0
  0
LINE
  5
71
330
17
100
AcDbEntity
  8
ENGRAVE
100
AcDbLine
 10
333.4835110091602
 20
52.45330072005184
 30
0.0
 11
330.6835537337696
 21
45.45340753157528
 31
0.0
  0
LINE
  5
72
330
17
100
AcDbEntity
  8
CUT
100
AcDbLine
 10
79.5013638888889
 20
269.87892777777785
 30
0.0
 11
69.4994083333334
 21
269.87892777777785
 31
0.0
  0
LINE
  5
73
330
17
100
AcDbEntity
  8
CUT
100
AcDbLine
 10
69.4994083333334
 20
272.87965555555553
 30
0.0
 11
79.5013638888889
 21
272.87965555555553
 31
0.0
  0
LINE
  5
74
330
17
100
AcDbEntity
  8
CUT
100
AcDbLine
 10
69.4994083333334
 20
269.87892777777785
 30
0.0
 11
69.4994083333334
 21
272.87965555555553
 31
0.0
  0
LINE
  5
75
330
17
100
AcDbEntity
  8
CUT
100
AcDbLine
 10
79.5013638888889
 20
272.87965555555553
 30
0.0
 11
79.5013638888889
 21
269.87892777777785
 31
0.0
  0
LINE
  5
76
330
17
100
AcDbEntity
  8
CUT
100
AcDbLine
 10
79.5013638888889
 20
99.76172222222225
 30
0.0
 11
69.4994083333334
 21
99.76172222222225
 31
0.0
  0
LINE
  5
77
330
17
100
AcDbEntity
  8
CUT
100
AcDbLine
 10
69.4994083333334
 20
102.76244999999996
 30
0.0
 11
79.5013638888889
 21
102.76244999999996
 31
0.0
  0
LINE
  5
78
330
17
100
AcDbEntity
  8
CUT
100
AcDbLine
 10
69.4994083333334
 20
99.76172222222225
 30
0.0
 11
69.4994083333334
 21
102.76244999999996
 31
0.0
  0
LINE
  5
79
330
17
100
AcDbEntity
  8
CUT
100
AcDbLine
 10
79.5013638888889
 20
102.76244999999996
 30
0.0
 11
79.5013638888889
 21
99.76172222222225
 31
0.0
  0
LINE
  5
7A
330
17
100
AcDbEntity
  8
CUT
100
AcDbLine
 10
44.8850444444445
 20
99.76172222222225
 30
0.0
 11
34.88308888888892
 21
99.76172222222225
 31
0.0
  0
LINE
  5
7B
330
17
100
AcDbEntity
  8
CUT
100
AcDbLine
 10
34.88308888888892
 20
102.76244999999996
 30
0.0
 11
44.8850444444445
 21
102.76244999999996
 31
0.0
  0
LINE
  5
7C
330
17
100
AcDbEntity
  8
CUT
100
AcDbLine
 10
34.88308888888892
 20
99.76172222222225
 30
0.0
 11
34.88308888888892
 21
102.76244999999996
 31
0.0
  0
LINE
  5
7D
330
17
100
AcDbEntity
  8
CUT
100
AcDbLine
 10
44.8850444444445
 20
102.76244999999996
 30
0.0
 11
44.8850444444445
 21
99.76172222222225
 31
0.0
  0
LINE
  5
7E
330
17
100
AcDbEntity
  8
CUT
100
AcDbLine
 10
44.8850444444445
 20
269.87892777777785
 30
0.0
 11
34.88308888888892
 21
269.87892777777785
 31
0.0
  0
LINE
  5
7F
330
17
100
AcDbEntity
  8
CUT
100
AcDbLine
 10
34.88308888888892
 20
272.87965555555553
 30
0.0
 11
44.8850444444445
 21
272.87965555555553
 31
0.0
  0
LINE
  5
80
330
17
100
AcDbEntity
  8
CUT
100
AcDbLine
 10
34.88308888888892
 20
269.87892777777785
 30
0.0
 11
34.88308888888892
 21
272.87965555555553
 31
0.0
  0
LINE
  5
81
330
17
100
AcDbEntity
  8
CUT
100
AcDbLine
 10
44.8850444444445
 20
272.87965555555553
 30
0.0
 11
44.8850444444445
 21
269.87892777777785
 31
0.0
  0
LINE
  5
82
330
17
100
AcDbEntity
  8
CUT
100
AcDbLine
 10
89.52095833333341
 20
275.88038333333344
 30
0.0
 11
6.5
 21
275.88038333333344
 31
0.0
  0
LINE
  5
83
330
17
100
AcDbEntity
  8
CUT
100
AcDbLine
 10
6.5
 20
92.52095833333341
 30
0.0
 11
89.52095833333341
 21
92.52095833333341
 31
0.0
  0
LINE
  5
84
330
17
100
AcDbEntity
  8
CUT
100
AcDbLine
 10
6.5
 20
275.88038333333344
 30
0.0
 11
6.5
 21
92.52095833333347
 31
0.0
  0
LINE
  5
85
330
17
100
AcDbEntity
  8
CUT
100
AcDbLine
 10
89.52095833333341
 20
92.52095833333341
 30
0.0
 11
89.52095833333341
 21
275.8803833333333
 31
0.0
  0
LINE
  5
86
330
17
100
AcDbEntity
  8
ENGRAVE
100
AcDbLine
 10
50.56755080175813
 20
224.0451831974741
 30
0.0
 11
50.56755080175813
 21
226.84514047286473
 31
0.0
  0
LINE
  5
87
330
17
100
AcDbEntity
  8
ENGRAVE
100
AcDbLine
 10
50.56755080175813
 20
226.84514047286473
 30
0.0
 11
49.16757216406282
 21
227.54512979171238
 31
0.0
  0
LINE
  5
88
330
17
100
AcDbEntity
  8
ENGRAVE
100
AcDbLine
 10
49.16757216406282
 20
227.54512979171238
 30
0.0
 11
44.96763625097688
 21
227.54512979171238
 31
0.0
  0
LINE
  5
89
330
17
100
AcDbEntity
  8
ENGRAVE
100
AcDbLine
 10
44.96763625097688
 20
227.54512979171238
 30
0.0
 11
43.56765761328157
 21
226.84514047286473
 31
0.0
  0
LINE
  5
8A
330
17
100
AcDbEntity
  8
ENGRAVE
100
AcDbLine
 10
43.56765761328157
 20
226.84514047286473
 30
0.0
 11
43.56765761328157
 21
224.0451831974741
 31
0.0
  0
LINE
  5
8B
330
17
100
AcDbEntity
  8
ENGRAVE
100
AcDbLine
 10
43.56765761328157
 20
224.0451831974741
 30
0.0
 11
44.96763625097688
 21
223.34519387862645
 31
0.0
  0
LINE
  5
8C
330
17
100
AcDbEntity
  8
ENGRAVE
100
AcDbLine
 10
44.96763625097688
 20
223.34519387862645
 30
0.0
 11
49.16757216406282
 21
223.34519387862645
 31
0.0
  0
LINE
  5
8D
330
17
100
AcDbEntity
  8
ENGRAVE
100
AcDbLine
 10
49.16757216406282
 20
223.34519387862645
 30
0.0
 11
50.56755080175813
 21
224.0451831974741
 31
0.0
  0
LINE
  5
8E
330
17
100
AcDbEntity
  8
ENGRAVE
100
AcDbLine
 10
43.56765761328157
 20
228.9451084294077
 30
0.0
 11
43.56765761328157
 21
233.14504434249363
 31
0.0
  0
LINE
  5
8F
330
17
100
AcDbEntity
  8
ENGRAVE
100
AcDbLine
 10
43.56765761328157
 20
233.14504434249363
 30
0.0
 11
50.56755080175813
 21
230.345087067103
 31
0.0
  0
LINE
  5
90
330
17
100
AcDbEntity
  8
CUT
100
AcDbLine
 10
183.85796944444445
 20
288.89997777777796
 30
0.0
 11
183.85796944444445
 21
298.90193333333343
 31
0.0
  0
LINE
  5
91
330
17
100
AcDbEntity
  8
CUT
100
AcDbLine
 10
186.85869722222213
 20
298.90193333333343
 30
0.0
 11
186.85869722222213
 21
288.89997777777796
 31
0.0
  0
LINE
  5
92
330
17
100
AcDbEntity
  8
CUT
100
AcDbLine
 10
183.85796944444445
 20
298.90193333333343
 30
0.0
 11
186.85869722222213
 21
298.90193333333343
 31
0.0
  0
LINE
  5
93
330
17
100
AcDbEntity
  8
CUT
100
AcDbLine
 10
186.85869722222213
 20
288.89997777777796
 30
0.0
 11
183.85796944444445
 21
288.89997777777796
 31
0.0
  0
LINE
  5
94
330
17
100
AcDbEntity
  8
CUT
100
AcDbLine
 10
13.740763888888841
 20
288.89997777777796
 30
0.0
 11
13.740763888888841
 21
298.90193333333343
 31
0.0
  0
LINE
  5
95
330
17
100
AcDbEntity
  8
CUT
100
AcDbLine
 10
16.74149166666655
 20
298.90193333333343
 30
0.0
 11
16.74149166666655
 21
288.89997777777796
 31
0.0
  0
LINE
  5
96
330
17
100
AcDbEntity
  8
CUT
100
AcDbLine
 10
13.740763888888841
 20
298.90193333333343
 30
0.0
 11
16.74149166666655
 21
298.90193333333343
 31
0.0
  0
LINE
  5
97
330
17
100
AcDbEntity
  8
CUT
100
AcDbLine
 10
16.74149166666655
 20
288.89997777777796
 30
0.0
 11
13.740763888888841
 21
288.89997777777796
 31
0.0
  0
LINE
  5
98
330
17
100
AcDbEntity
  8
CUT
100
AcDbLine
 10
13.740763888888841
 20
323.51629722222236
 30
0.0
 11
13.740763888888841
 21
333.51825277777795
 31
0.0
  0
LINE
  5
99
330
17
100
AcDbEntity
  8
CUT
100
AcDbLine
 10
16.74149166666655
 20
333.51825277777795
 30
0.0
 11
16.74149166666655
 21
323.51629722222236
 31
0.0
  0
LINE
  5
9A
330
17
100
AcDbEntity
  8
CUT
100
AcDbLine
 10
13.740763888888841
 20
333.51825277777795
 30
0.0
 11
16.74149166666655
 21
333.51825277777795
 31
0.0
  0
LINE
  5
9B
330
17
100
AcDbEntity
  8
CUT
100
AcDbLine
 10
16.74149166666655
 20
323.51629722222236
 30
0.0
 11
13.740763888888841
 21
323.51629722222236
 31
0.0
  0
LINE
  5
9C
330
17
100
AcDbEntity
  8
CUT
100
AcDbLine
 10
183.85796944444445
 20
323.51629722222236
 30
0.0
 11
183.85796944444445
 21
333.51825277777795
 31
0.0
  0
LINE
  5
9D
330
17
100
AcDbEntity
  8
CUT
100
AcDbLine
 10
186.85869722222213
 20
333.51825277777795
 30
0.0
 11
186.85869722222213
 21
323.51629722222236
 31
0.0
  0
LINE
  5
9E
330
17
100
AcDbEntity
  8
CUT
100
AcDbLine
 10
183.85796944444445
 20
333.51825277777795
 30
0.0
 11
186.85869722222213
 21
333.51825277777795
 31
0.0
  0
LINE
  5
9F
330
17
100
AcDbEntity
  8
CUT
100
AcDbLine
 10
186.85869722222213
 20
323.51629722222236
 30
0.0
 11
183.85796944444445
 21
323.51629722222236
 31
0.0
  0
LINE
  5
A0
330
17
100
AcDbEntity
  8
CUT
100
AcDbLine
 10
189.85942500000004
 20
278.88038333333344
 30
0.0
 11
189.85942500000004
 21
361.90134166666684
 31
0.0
  0
LINE
  5
A1
330
17
100
AcDbEntity
  8
CUT
100
AcDbLine
 10
6.5
 20
361.90134166666684
 30
0.0
 11
6.5
 21
278.88038333333344
 31
0.0
  0
LINE
  5
A2
330
17
100
AcDbEntity
  8
CUT
100
AcDbLine
 10
189.85942500000004
 20
361.90134166666684
 30
0.0
 11
6.500000000000057
 21
361.90134166666684
 31
0.0
  0
LINE
  5
A3
330
17
100
AcDbEntity
  8
CUT
100
AcDbLine
 10
6.5
 20
278.88038333333344
 30
0.0
 11
189.85942499999993
 21
278.88038333333344
 31
0.0
  0
LINE
  5
A4
330
17
100
AcDbEntity
  8
ENGRAVE
100
AcDbLine
 10
138.02422486414068
 20
317.83379086490874
 30
0.0
 11
140.8241821395313
 21
317.83379086490874
 31
0.0
  0
LINE
  5
A5
330
17
100
AcDbEntity
  8
ENGRAVE
100
AcDbLine
 10
140.8241821395313
 20
317.83379086490874
 30
0.0
 11
141.52417145837896
 21
319.23376950260405
 31
0.0
  0
LINE
  5
A6
330
17
100
AcDbEntity
  8
ENGRAVE
100
AcDbLine
 10
141.52417145837896
 20
319.23376950260405
 30
0.0
 11
141.52417145837896
 21
323.43370541569
 31
0.0
  0
LINE
  5
A7
330
17
100
AcDbEntity
  8
ENGRAVE
100
AcDbLine
 10
141.52417145837896
 20
323.43370541569
 30
0.0
 11
140.8241821395313
 21
324.8336840533853
 31
0.0
  0
LINE
  5
A8
330
17
100
AcDbEntity
  8
ENGRAVE
100
AcDbLine
 10
140.8241821395313
 20
324.8336840533853
 30
0.0
 11
138.02422486414068
 21
324.8336840533853
 31
0.0
  0
LINE
  5
A9
330
17
100
AcDbEntity
  8
ENGRAVE
100
AcDbLine
 10
138.02422486414068
 20
324.8336840533853
 30
0.0
 11
137.32423554529302
 21
323.43370541569
 31
0.0
  0
LINE
  5
AA
330
17
100
AcDbEntity
  8
ENGRAVE
100
AcDbLine
 10
137.32423554529302
 20
323.43370541569
 30
0.0
 11
137.32423554529302
 21
319.23376950260405
 31
0.0
  0
LINE
  5
AB
330
17
100
AcDbEntity
  8
ENGRAVE
100
AcDbLine
 10
137.32423554529302
 20
319.23376950260405
 30
0.0
 11
138.02422486414068
 21
317.83379086490874
 31
0.0
  0
LINE
  5
AC
330
17
100
AcDbEntity
  8
ENGRAVE
100
AcDbLine
 10
142.92415009607427
 20
324.8336840533853
 30
0.0
 11
147.1240860091602
 21
324.8336840533853
 31
0.0
  0
LINE
  5
AD
330
17
100
AcDbEntity
  8
ENGRAVE
100
AcDbLine
 10
147.1240860091602
 20
324.8336840533853
 30
0.0
 11
144.32412873376958
 21
317.83379086490874
 31
0.0
  0
LINE
  5
AE
330
17
100
AcDbEntity
  8
CUT
100
AcDbLine
 10
165.52232222222233
 20
269.87892777777785
 30
0.0
 11
155.5203666666668
 21
269.87892777777785
 31
0.0
  0
LINE
  5
AF
330
17
100
AcDbEntity
  8
CUT
100
AcDbLine
 10
155.5203666666668
 20
272.87965555555553
 30
0.0
 11
165.52232222222233
 21
272.87965555555553
 31
0.0
  0
LINE
  5
B0
330
17
100
AcDbEntity
  8
CUT
100
AcDbLine
 10
155.5203666666668
 20
269.87892777777785
 30
0.0
 11
155.5203666666668
 21
272.87965555555553
 31
0.0
  0
LINE
  5
B1
330
17
100
AcDbEntity
  8
CUT
100
AcDbLine
 10
165.52232222222233
 20
272.87965555555553
 30
0.0
 11
165.52232222222233
 21
269.87892777777785
 31
0.0
  0
LINE
  5
B2
330
17
100
AcDbEntity
  8
CUT
100
AcDbLine
 10
165.52232222222233
 20
99.76172222222225
 30
0.0
 11
155.5203666666668
 21
99.76172222222225
 31
0.0
  0
LINE
  5
B3
330
17
100
AcDbEntity
  8
CUT
100
AcDbLine
 10
155.5203666666668
 20
102.76244999999996
 30
0.0
 11
165.52232222222233
 21
102.76244999999996
 31
0.0
  0
LINE
  5
B4
330
17
100
AcDbEntity
  8
CUT
100
AcDbLine
 10
155.5203666666668
 20
99.76172222222225
 30
0.0
 11
155.5203666666668
 21
102.76244999999996
 31
0.0
  0
LINE
  5
B5
330
17
100
AcDbEntity
  8
CUT
100
AcDbLine
 10
165.52232222222233
 20
102.76244999999996
 30
0.0
 11
165.52232222222233
 21
99.76172222222225
 31
0.0
  0
LINE
  5
B6
330
17
100
AcDbEntity
  8
CUT
100
AcDbLine
 10
130.90600277777793
 20
99.76172222222225
 30
0.0
 11
120.90404722222233
 21
99.76172222222225
 31
0.0
  0
LINE
  5
B7
330
17
100
AcDbEntity
  8
CUT
100
AcDbLine
 10
120.90404722222233
 20
102.76244999999996
 30
0.0
 11
130.90600277777793
 21
102.76244999999996
 31
0.0
  0
LINE
  5
B8
330
17
100
AcDbEntity
  8
CUT
100
AcDbLine
 10
120.90404722222233
 20
99.76172222222225
 30
0.0
 11
120.90404722222233
 21
102.76244999999996
 31
0.0
  0
LINE
  5
B9
330
17
100
AcDbEntity
  8
CUT
100
AcDbLine
 10
130.90600277777793
 20
102.76244999999996
 30
0.0
 11
130.90600277777793
 21
99.76172222222225
 31
0.0
  0
LINE
  5
BA
330
17
100
AcDbEntity
  8
CUT
100
AcDbLine
 10
130.90600277777793
 20
269.87892777777785
 30
0.0
 11
120.90404722222233
 21
269.87892777777785
 31
0.0
  0
LINE
  5
BB
330
17
100
AcDbEntity
  8
CUT
100
AcDbLine
 10
120.90404722222233
 20
272.87965555555553
 30
0.0
 11
130.90600277777793
 21
272.87965555555553
 31
0.0
  0
LINE
  5
BC
330
17
100
AcDbEntity
  8
CUT
100
AcDbLine
 10
120.90404722222233
 20
269.87892777777785
 30
0.0
 11
120.90404722222233
 21
272.87965555555553
 31
0.0
  0
LINE
  5
BD
330
17
100
AcDbEntity
  8
CUT
100
AcDbLine
 10
130.90600277777793
 20
272.87965555555553
 30
0.0
 11
130.90600277777793
 21
269.87892777777785
 31
0.0
  0
LINE
  5
BE
330
17
100
AcDbEntity
  8
CUT
100
AcDbLine
 10
175.54191666666682
 20
275.88038333333344
 30
0.0
 11
92.52095833333341
 21
275.88038333333344
 31
0.0
  0
LINE
  5
BF
330
17
100
AcDbEntity
  8
CUT
100
AcDbLine
 10
92.52095833333341
 20
92.52095833333341
 30
0.0
 11
175.54191666666682
 21
92.52095833333341
 31
0.0
  0
LINE
  5
C0
330
17
100
AcDbEntity
  8
CUT
100
AcDbLine
 10
92.52095833333341
 20
275.88038333333344
 30
0.0
 11
92.52095833333341
 21
92.52095833333347
 31
0.0
  0
LINE
  5
C1
330
17
100
AcDbEntity
  8
CUT
100
AcDbLine
 10
175.54191666666682
 20
92.52095833333341
 30
0.0
 11
175.54191666666682
 21
275.8803833333333
 31
0.0
  0
LINE
  5
C2
330
17
100
AcDbEntity
  8
ENGRAVE
100
AcDbLine
 10
136.58850913509156
 20
224.0451831974741
 30
0.0
 11
136.58850913509156
 21
226.84514047286473
 31
0.0
  0
LINE
  5
C3
330
17
100
AcDbEntity
  8
ENGRAVE
100
AcDbLine
 10
136.58850913509156
 20
226.84514047286473
 30
0.0
 11
135.18853049739624
 21
227.54512979171238
 31
0.0
  0
LINE
  5
C4
330
17
100
AcDbEntity
  8
ENGRAVE
100
AcDbLine
 10
135.18853049739624
 20
227.54512979171238
 30
0.0
 11
130.9885945843103
 21
227.54512979171238
 31
0.0
  0
LINE
  5
C5
330
17
100
AcDbEntity
  8
ENGRAVE
100
AcDbLine
 10
130.9885945843103
 20
227.54512979171238
 30
0.0
 11
129.588615946615
 21
226.84514047286473
 31
0.0
  0
LINE
  5
C6
330
17
100
AcDbEntity
  8
ENGRAVE
100
AcDbLine
 10
129.588615946615
 20
226.84514047286473
 30
0.0
 11
129.588615946615
 21
224.0451831974741
 31
0.0
  0
LINE
  5
C7
330
17
100
AcDbEntity
  8
ENGRAVE
100
AcDbLine
 10
129.588615946615
 20
224.0451831974741
 30
0.0
 11
130.9885945843103
 21
223.34519387862645
 31
0.0
  0
LINE
  5
C8
330
17
100
AcDbEntity
  8
ENGRAVE
100
AcDbLine
 10
130.9885945843103
 20
223.34519387862645
 30
0.0
 11
135.18853049739624
 21
223.34519387862645
 31
0.0
  0
LINE
  5
C9
330
17
100
AcDbEntity
  8
ENGRAVE
100
AcDbLine
 10
135.18853049739624
 20
223.34519387862645
 30
0.0
 11
136.58850913509156
 21
224.0451831974741
 31
0.0
  0
LINE
  5
CA
330
17
100
AcDbEntity
  8
ENGRAVE
100
AcDbLine
 10
129.588615946615
 20
228.9451084294077
 30
0.0
 11
129.588615946615
 21
233.14504434249363
 31
0.0
  0
LINE
  5
CB
330
17
100
AcDbEntity
  8
ENGRAVE
100
AcDbLine
 10
129.588615946615
 20
233.14504434249363
 30
0.0
 11
136.58850913509156
 21
230.345087067103
 31
0.0
  0
LINE
  5
CC
330
17
100
AcDbEntity
  8
CUT
100
AcDbLine
 10
251.54328055555573
 20
269.87892777777785
 30
0.0
 11
241.54132500000023
 21
269.87892777777785
 31
0.0
  0
LINE
  5
CD
330
17
100
AcDbEntity
  8
CUT
100
AcDbLine
 10
241.54132500000023
 20
272.87965555555553
 30
0.0
 11
251.54328055555573
 21
272.87965555555553
 31
0.0
  0
LINE
  5
CE
330
17
100
AcDbEntity
  8
CUT
100
AcDbLine
 10
241.54132500000023
 20
269.87892777777785
 30
0.0
 11
241.54132500000023
 21
272.87965555555553
 31
0.0
  0
LINE
  5
CF
330
17
100
AcDbEntity
  8
CUT
100
AcDbLine
 10
251.54328055555573
 20
272.87965555555553
 30
0.0
 11
251.54328055555573
 21
269.87892777777785
 31
0.0
  0
LINE
  5
D0
330
17
100
AcDbEntity
  8
CUT
100
AcDbLine
 10
251.54328055555573
 20
99.76172222222225
 30
0.0
 11
241.54132500000023
 21
99.76172222222225
 31
0.0
  0
LINE
  5
D1
330
17
100
AcDbEntity
  8
CUT
100
AcDbLine
 10
241.54132500000023
 20
102.76244999999996
 30
0.0
 11
251.54328055555573
 21
102.76244999999996
 31
0.0
  0
LINE
  5
D2
330
17
100
AcDbEntity
  8
CUT
100
AcDbLine
 10
241.54132500000023
 20
99.76172222222225
 30
0.0
 11
241.54132500000023
 21
102.76244999999996
 31
0.0
  0
LINE
  5
D3
330
17
100
AcDbEntity
  8
CUT
100
AcDbLine
 10
251.54328055555573
 20
102.76244999999996
 30
0.0
 11
251.54328055555573
 21
99.76172222222225
 31
0.0
  0
LINE
  5
D4
330
17
100
AcDbEntity
  8
CUT
100
AcDbLine
 10
216.92696111111132
 20
99.76172222222225
 30
0.0
 11
206.92500555555574
 21
99.76172222222225
 31
0.0
  0
LINE
  5
D5
330
17
100
AcDbEntity
  8
CUT
100
AcDbLine
 10
206.92500555555574
 20
102.76244999999996
 30
0.0
 11
216.92696111111132
 21
102.76244999999996
 31
0.0
  0
LINE
  5
D6
330
17
100
AcDbEntity
  8
CUT
100
AcDbLine
 10
206.92500555555574
 20
99.76172222222225
 30
0.0
 11
206.92500555555574
 21
102.76244999999996
 31
0.0
  0
LINE
  5
D7
330
17
100
AcDbEntity
  8
CUT
100
AcDbLine
 10
216.92696111111132
 20
102.76244999999996
 30
0.0
 11
216.92696111111132
 21
99.76172222222225
 31
0.0
  0
LINE
  5
D8
330
17
100
AcDbEntity
  8
CUT
100
AcDbLine
 10
216.92696111111132
 20
269.87892777777785
 30
0.0
 11
206.92500555555574
 21
269.87892777777785
 31
0.0
  0
LINE
  5
D9
330
17
100
AcDbEntity
  8
CUT
100
AcDbLine
 10
206.92500555555574
 20
272.87965555555553
 30
0.0
 11
216.92696111111132
 21
272.87965555555553
 31
0.0
  0
LINE
  5
DA
330
17
100
AcDbEntity
  8
CUT
100
AcDbLine
 10
206.92500555555574
 20
269.87892777777785
 30
0.0
 11
206.92500555555574
 21
272.87965555555553
 31
0.0
  0
LINE
  5
DB
330
17
100
AcDbEntity
  8
CUT
100
AcDbLine
 10
216.92696111111132
 20
272.87965555555553
 30
0.0
 11
216.92696111111132
 21
269.87892777777785
 31
0.0
  0
LINE
  5
DC
330
17
100
AcDbEntity
  8
CUT
100
AcDbLine
 10
261.56287500000025
 20
275.88038333333344
 30
0.0
 11
178.54191666666682
 21
275.88038333333344
 31
0.0
  0
LINE
  5
DD
330
17
100
AcDbEntity
  8
CUT
100
AcDbLine
 10
178.54191666666682
 20
92.52095833333341
 30
0.0
 11
261.56287500000025
 21
92.52095833333341
 31
0.0
  0
LINE
  5
DE
330
17
100
AcDbEntity
  8
CUT
100
AcDbLine
 10
178.54191666666682
 20
275.88038333333344
 30
0.0
 11
178.54191666666682
 21
92.52095833333347
 31
0.0
  0
LINE
  5
DF
330
17
100
AcDbEntity
  8
CUT
100
AcDbLine
 10
261.56287500000025
 20
92.52095833333341
 30
0.0
 11
261.56287500000025
 21
275.8803833333333
 31
0.0
  0
LINE
  5
E0
330
17
100
AcDbEntity
  8
ENGRAVE
100
AcDbLine
 10
222.60946746842495
 20
224.0451831974741
 30
0.0
 11
222.60946746842495
 21
226.84514047286473
 31
0.0
  0
LINE
  5
E1
330
17
100
AcDbEntity
  8
ENGRAVE
100
AcDbLine
 10
222.60946746842495
 20
226.84514047286473
 30
0.0
 11
221.20948883072964
 21
227.54512979171238
 31
0.0
  0
LINE
  5
E2
330
17
100
AcDbEntity
  8
ENGRAVE
100
AcDbLine
 10
221.20948883072964
 20
227.54512979171238
 30
0.0
 11
217.0095529176437
 21
227.54512979171238
 31
0.0
  0
LINE
  5
E3
330
17
100
AcDbEntity
  8
ENGRAVE
100
AcDbLine
 10
217.0095529176437
 20
227.54512979171238
 30
0.0
 11
215.6095742799484
 21
226.84514047286473
 31
0.0
  0
LINE
  5
E4
330
17
100
AcDbEntity
  8
ENGRAVE
100
AcDbLine
 10
215.6095742799484
 20
226.84514047286473
 30
0.0
 11
215.6095742799484
 21
224.0451831974741
 31
0.0
  0
LINE
  5
E5
330
17
100
AcDbEntity
  8
ENGRAVE
100
AcDbLine
 10
215.6095742799484
 20
224.0451831974741
 30
0.0
 11
217.0095529176437
 21
223.34519387862645
 31
0.0
  0
LINE
  5
E6
330
17
100
AcDbEntity
  8
ENGRAVE
100
AcDbLine
 10
217.0095529176437
 20
223.34519387862645
 30
0.0
 11
221.20948883072964
 21
223.34519387862645
 31
0.0
  0
LINE
  5
E7
330
17
100
AcDbEntity
  8
ENGRAVE
100
AcDbLine
 10
221.20948883072964
 20
223.34519387862645
 30
0.0
 11
222.60946746842495
 21
224.0451831974741
 31
0.0
  0
LINE
  5
E8
330
17
100
AcDbEntity
  8
ENGRAVE
100
AcDbLine
 10
215.6095742799484
 20
228.9451084294077
 30
0.0
 11
215.6095742799484
 21
233.14504434249363
 31
0.0
  0
LINE
  5
E9
330
17
100
AcDbEntity
  8
ENGRAVE
100
AcDbLine
 10
215.6095742799484
 20
233.14504434249363
 30
0.0
 11
222.60946746842495
 21
230.345087067103
 31
0.0
  0
LINE
  5
EA
330
17
100
AcDbEntity
  8
CUT
100
AcDbLine
 10
370.2173944444445
 20
288.89997777777796
 30
0.0
 11
370.2173944444445
 21
298.90193333333343
 31
0.0
  0
LINE
  5
EB
330
17
100
AcDbEntity
  8
CUT
100
AcDbLine
 10
373.2181222222222
 20
298.90193333333343
 30
0.0
 11
373.2181222222222
 21
288.89997777777796
 31
0.0
  0
LINE
  5
EC
330
17
100
AcDbEntity
  8
CUT
100
AcDbLine
 10
370.2173944444445
 20
298.90193333333343
 30
0.0
 11
373.2181222222222
 21
298.90193333333343
 31
0.0
  0
LINE
  5
ED
330
17
100
AcDbEntity
  8
CUT
100
AcDbLine
 10
373.2181222222222
 20
288.89997777777796
 30
0.0
 11
370.2173944444445
 21
288.89997777777796
 31
0.0
  0
LINE
  5
EE
330
17
100
AcDbEntity
  8
CUT
100
AcDbLine
 10
200.10018888888888
 20
288.89997777777796
 30
0.0
 11
200.10018888888888
 21
298.90193333333343
 31
0.0
  0
LINE
  5
EF
330
17
100
AcDbEntity
  8
CUT
100
AcDbLine
 10
203.1009166666666
 20
298.90193333333343
 30
0.0
 11
203.1009166666666
 21
288.89997777777796
 31
0.0
  0
LINE
  5
F0
330
17
100
AcDbEntity
  8
CUT
100
AcDbLine
 10
200.10018888888888
 20
298.90193333333343
 30
0.0
 11
203.1009166666666
 21
298.90193333333343
 31
0.0
  0
LINE
  5
F1
330
17
100
AcDbEntity
  8
CUT
100
AcDbLine
 10
203.1009166666666
 20
288.89997777777796
 30
0.0
 11
200.10018888888888
 21
288.89997777777796
 31
0.0
  0
LINE
  5
F2
330
17
100
AcDbEntity
  8
CUT
100
AcDbLine
 10
200.10018888888888
 20
323.51629722222236
 30
0.0
 11
200.10018888888888
 21
333.51825277777795
 31
0.0
  0
LINE
  5
F3
330
17
100
AcDbEntity
  8
CUT
100
AcDbLine
 10
203.1009166666666
 20
333.51825277777795
 30
0.0
 11
203.1009166666666
 21
323.51629722222236
 31
0.0
  0
LINE
  5
F4
330
17
100
AcDbEntity
  8
CUT
100
AcDbLine
 10
200.10018888888888
 20
333.51825277777795
 30
0.0
 11
203.1009166666666
 21
333.51825277777795
 31
0.0
  0
LINE
  5
F5
330
17
100
AcDbEntity
  8
CUT
100
AcDbLine
 10
203.1009166666666
 20
323.51629722222236
 30
0.0
 11
200.10018888888888
 21
323.51629722222236
 31
0.0
  0
LINE
  5
F6
330
17
100
AcDbEntity
  8
CUT
100
AcDbLine
 10
370.2173944444445
 20
323.51629722222236
 30
0.0
 11
370.2173944444445
 21
333.51825277777795
 31
0.0
  0
LINE
  5
F7
330
17
100
AcDbEntity
  8
CUT
100
AcDbLine
 10
373.2181222222222
 20
333.51825277777795
 30
0.0
 11
373.2181222222222
 21
323.51629722222236
 31
0.0
  0
LINE
  5
F8
330
17
100
AcDbEntity
  8
CUT
100
AcDbLine
 10
370.2173944444445
 20
333.51825277777795
 30
0.0
 11
373.2181222222222
 21
333.51825277777795
 31
0.0
  0
LINE
  5
F9
330
17
100
AcDbEntity
  8
CUT
100
AcDbLine
 10
373.2181222222222
 20
323.51629722222236
 30
0.0
 11
370.2173944444445
 21
323.51629722222236
 31
0.0
  0
LINE
  5
FA
330
17
100
AcDbEntity
  8
CUT
100
AcDbLine
 10
376.2188500000001
 20
278.88038333333344
 30
0.0
 11
376.2188500000001
 21
361.90134166666684
 31
0.0
  0
LINE
  5
FB
330
17
100
AcDbEntity
  8
CUT
100
AcDbLine
 10
192.85942500000004
 20
361.90134166666684
 30
0.0
 11
192.85942500000004
 21
278.88038333333344
 31
0.0
  0
LINE
  5
FC
330
17
100
AcDbEntity
  8
CUT
100
AcDbLine
 10
376.2188500000001
 20
361.90134166666684
 30
0.0
 11
192.8594250000001
 21
361.90134166666684
 31
0.0
  0
LINE
  5
FD
330
17
100
AcDbEntity
  8
CUT
100
AcDbLine
 10
192.85942500000004
 20
278.88038333333344
 30
0.0
 11
376.21885
 21
278.88038333333344
 31
0.0
  0
LINE
  5
FE
330
17
100
AcDbEntity
  8
ENGRAVE
100
AcDbLine
 10
324.3836498641407
 20
317.83379086490874
 30
0.0
 11
327.1836071395313
 21
317.83379086490874
 31
0.0
  0
LINE
  5
FF
330
17
100
AcDbEntity
  8
ENGRAVE
100
AcDbLine
 10
327.1836071395313
 20
317.83379086490874
 30
0.0
 11
327.883596458379
 21
319.23376950260405
 31
0.0
  0
LINE
  5
100
330
17
100
AcDbEntity
  8
ENGRAVE
100
AcDbLine
 10
327.883596458379
 20
319.23376950260405
 30
0.0
 11
327.883596458379
 21
323.43370541569
 31
0.0
  0
LINE
  5
101
330
17
100
AcDbEntity
  8
ENGRAVE
100
AcDbLine
 10
327.883596458379
 20
323.43370541569
 30
0.0
 11
327.1836071395313
 21
324.8336840533853
 31
0.0
  0
LINE
  5
102
330
17
100
AcDbEntity
  8
ENGRAVE
100
AcDbLine
 10
327.1836071395313
 20
324.8336840533853
 30
0.0
 11
324.3836498641407
 21
324.8336840533853
 31
0.0
  0
LINE
  5
103
330
17
100
AcDbEntity
  8
ENGRAVE
100
AcDbLine
 10
324.3836498641407
 20
324.8336840533853
 30
0.0
 11
323.68366054529304
 21
323.43370541569
 31
0.0
  0
LINE
  5
104
330
17
100
AcDbEntity
  8
ENGRAVE
100
AcDbLine
 10
323.68366054529304
 20
323.43370541569
 30
0.0
 11
323.68366054529304
 21
319.23376950260405
 31
0.0
  0
LINE
  5
105
330
17
100
AcDbEntity
  8
ENGRAVE
100
AcDbLine
 10
323.68366054529304
 20
319.23376950260405
 30
0.0
 11
324.3836498641407
 21
317.83379086490874
 31
0.0
  0
LINE
  5
106
330
17
100
AcDbEntity
  8
ENGRAVE
100
AcDbLine
 10
329.2835750960743
 20
324.8336840533853
 30
0.0
 11
333.4835110091602
 21
324.8336840533853
 31
0.0
  0
LINE
  5
107
330
17
100
AcDbEntity
  8
ENGRAVE
100
AcDbLine
 10
333.4835110091602
 20
324.8336840533853
 30
0.0
 11
330.6835537337696
 21
317.83379086490874
 31
0.0
  0
LINE
  5
108
330
17
100
AcDbEntity
  8
CUT
100
AcDbLine
 10
112.55417222222218
 20
393.28407777777795
 30
0.0
 11
112.55417222222218
 21
384.90490000000034
 31
0.0
  0
LINE
  5
109
330
17
100
AcDbEntity
  8
CUT
100
AcDbLine
 10
112.55417222222218
 20
418.94689722222245
 30
0.0
 11
112.55417222222218
 21
403.28603333333365
 31
0.0
  0
LINE
  5
10A
330
17
100
AcDbEntity
  8
CUT
100
AcDbLine
 10
112.55417222222218
 20
438.95045555555583
 30
0.0
 11
112.55417222222218
 21
428.94850000000037
 31
0.0
  0
LINE
  5
10B
330
17
100
AcDbEntity
  8
CUT
100
AcDbLine
 10
115.55490000000009
 20
384.90490000000034
 30
0.0
 11
115.55490000000009
 21
374.90294444444464
 31
0.0
  0
LINE
  5
10C
330
17
100
AcDbEntity
  8
CUT
100
AcDbLine
 10
115.55490000000009
 20
428.94850000000037
 30
0.0
 11
115.55490000000009
 21
418.94689722222245
 31
0.0
  0
LINE
  5
10D
330
17
100
AcDbEntity
  8
CUT
100
AcDbLine
 10
115.55490000000009
 20
403.28603333333365
 30
0.0
 11
115.55490000000009
 21
393.28407777777795
 31
0.0
  0
LINE
  5
10E
330
17
100
AcDbEntity
  8
CUT
100
AcDbLine
 10
6.5
 20
364.90134166666684
 30
0.0
 11
6.5
 21
438.95045555555583
 31
0.0
  0
LINE
  5
10F
330
17
100
AcDbEntity
  8
CUT
100
AcDbLine
 10
15.5018305555555
 20
364.90134166666684
 30
0.0
 11
15.5018305555555
 21
400.0140194444447
 31
0.0
  0
LINE
  5
110
330
17
100
AcDbEntity
  8
CUT
100
AcDbLine
 10
112.55417222222218
 20
374.90294444444464
 30
0.0
 11
112.55417222222218
 21
364.90134166666684
 31
0.0
  0
LINE
  5
111
330
17
100
AcDbEntity
  8
CUT
100
AcDbLine
 10
12.501455555555594
 20
400.0140194444447
 30
0.0
 11
12.501455555555594
 21
364.90134166666684
 31
0.0
  0
LINE
  5
112
330
17
100
AcDbEntity
  8
CUT
100
AcDbLine
 10
15.5018305555555
 20
400.0140194444447
 30
0.0
 11
12.501455555555594
 21
400.0140194444447
 31
0.0
  0
LINE
  5
113
330
17
100
AcDbEntity
  8
CUT
100
AcDbLine
 10
112.55417222222218
 20
364.90134166666684
 30
0.0
 11
15.5018305555555
 21
364.90134166666684
 31
0.0
  0
LINE
  5
114
330
17
100
AcDbEntity
  8
CUT
100
AcDbLine
 10
12.501455555555594
 20
364.90134166666684
 30
0.0
 11
6.5
 21
364.90134166666684
 31
0.0
  0
LINE
  5
115
330
17
100
AcDbEntity
  8
CUT
100
AcDbLine
 10
112.55417222222218
 20
403.28603333333365
 30
0.0
 11
115.55490000000009
 21
403.28603333333365
 31
0.0
  0
LINE
  5
116
330
17
100
AcDbEntity
  8
CUT
100
AcDbLine
 10
115.55490000000009
 20
393.28407777777795
 30
0.0
 11
112.55417222222218
 21
393.28407777777795
 31
0.0
  0
LINE
  5
117
330
17
100
AcDbEntity
  8
CUT
100
AcDbLine
 10
112.55417222222218
 20
428.94850000000037
 30
0.0
 11
115.55490000000009
 21
428.94850000000037
 31
0.0
  0
LINE
  5
118
330
17
100
AcDbEntity
  8
CUT
100
AcDbLine
 10
115.55490000000009
 20
418.94689722222245
 30
0.0
 11
112.55417222222218
 21
418.94689722222245
 31
0.0
  0
LINE
  5
119
330
17
100
AcDbEntity
  8
CUT
100
AcDbLine
 10
112.55417222222218
 20
384.90490000000034
 30
0.0
 11
115.55490000000009
 21
384.90490000000034
 31
0.0
  0
LINE
  5
11A
330
17
100
AcDbEntity
  8
CUT
100
AcDbLine
 10
115.55490000000009
 20
374.90294444444464
 30
0.0
 11
112.55417222222218
 21
374.90294444444464
 31
0.0
  0
LINE
  5
11B
330
17
100
AcDbEntity
  8
CUT
100
AcDbLine
 10
6.5
 20
438.95045555555583
 30
0.0
 11
112.55417222222206
 21
438.95045555555583
 31
0.0
  0
LINE
  5
11C
330
17
100
AcDbEntity
  8
CUT
100
AcDbLine
 10
56.9937888888889
 20
381.97437500000024
 30
0.0
 11
58.190411111111075
 21
384.7256888888892
 31
0.0
  0
LINE
  5
11D
330
17
100
AcDbEntity
  8
CUT
100
AcDbLine
 10
49.65601111111107
 20
385.16454444444474
 30
0.0
 11
56.9937888888889
 21
381.97437500000024
 31
0.0
  0
LINE
  5
11E
330
17
100
AcDbEntity
  8
CUT
100
AcDbLine
 10
58.190411111111075
 20
384.7256888888892
 30
0.0
 11
50.85228055555547
 21
387.9162111111116
 31
0.0
  0
LINE
  5
11F
330
17
100
AcDbEntity
  8
CUT
100
AcDbLine
 10
50.85228055555547
 20
387.9162111111116
 30
0.0
 11
49.65601111111107
 21
385.16454444444474
 31
0.0
  0
LINE
  5
120
330
17
100
AcDbEntity
  8
CUT
100
AcDbLine
 10
30.177738888888882
 20
393.63332777777794
 30
0.0
 11
31.374361111111057
 21
396.38499444444477
 31
0.0
  0
LINE
  5
121
330
17
100
AcDbEntity
  8
CUT
100
AcDbLine
 10
31.374361111111057
 20
396.38499444444477
 30
0.0
 11
24.036230555555505
 21
399.57551666666683
 31
0.0
  0
LINE
  5
122
330
17
100
AcDbEntity
  8
CUT
100
AcDbLine
 10
24.036230555555505
 20
399.57551666666683
 30
0.0
 11
22.83996111111105
 21
396.82385000000033
 31
0.0
  0
LINE
  5
123
330
17
100
AcDbEntity
  8
CUT
100
AcDbLine
 10
22.83996111111105
 20
396.82385000000033
 30
0.0
 11
30.177738888888882
 21
393.63332777777794
 31
0.0
  0
LINE
  5
124
330
17
100
AcDbEntity
  8
CUT
100
AcDbLine
 10
101.65122222222226
 20
393.9691722222225
 30
0.0
 11
108.98935277777764
 21
397.15969444444477
 31
0.0
  0
LINE
  5
125
330
17
100
AcDbEntity
  8
CUT
100
AcDbLine
 10
107.79273055555552
 20
399.91136111111143
 30
0.0
 11
100.45495277777775
 21
396.72083888888915
 31
0.0
  0
LINE
  5
126
330
17
100
AcDbEntity
  8
CUT
100
AcDbLine
 10
100.45495277777775
 20
396.72083888888915
 30
0.0
 11
101.65122222222226
 21
393.9691722222225
 31
0.0
  0
LINE
  5
127
330
17
100
AcDbEntity
  8
CUT
100
AcDbLine
 10
108.98935277777764
 20
397.15969444444477
 30
0.0
 11
107.79273055555552
 21
399.91136111111143
 31
0.0
  0
LINE
  5
128
330
17
100
AcDbEntity
  8
CUT
100
AcDbLine
 10
81.40071944444429
 20
385.16454444444474
 30
0.0
 11
80.20409722222206
 21
387.9162111111116
 31
0.0
  0
LINE
  5
129
330
17
100
AcDbEntity
  8
CUT
100
AcDbLine
 10
74.06258888888885
 20
381.97437500000024
 30
0.0
 11
81.40071944444429
 21
385.16454444444474
 31
0.0
  0
LINE
  5
12A
330
17
100
AcDbEntity
  8
CUT
100
AcDbLine
 10
72.8663194444444
 20
384.7256888888892
 30
0.0
 11
74.06258888888885
 21
381.97437500000024
 31
0.0
  0
LINE
  5
12B
330
17
100
AcDbEntity
  8
CUT
100
AcDbLine
 10
80.20409722222206
 20
387.9162111111116
 30
0.0
 11
72.8663194444444
 21
384.7256888888892
 31
0.0
  0
LINE
  5
12C
330
17
100
AcDbEntity
  8
CUT
100
AcDbLine
 10
74.5102638888888
 20
377.08205277777796
 30
0.0
 11
74.5102638888888
 21
371.11446388888925
 31
0.0
  0
LINE
  5
12D
330
17
100
AcDbEntity
  8
CUT
100
AcDbLine
 10
108.55331944444436
 20
371.11446388888925
 30
0.0
 11
108.55331944444436
 21
377.08205277777796
 31
0.0
  0
LINE
  5
12E
330
17
100
AcDbEntity
  8
CUT
100
AcDbLine
 10
93.0321555555555
 20
368.11373611111145
 30
0.0
 11
93.0321555555555
 21
371.11446388888925
 31
0.0
  0
LINE
  5
12F
330
17
100
AcDbEntity
  8
CUT
100
AcDbLine
 10
90.03142777777776
 20
380.082427777778
 30
0.0
 11
90.03142777777776
 21
377.08205277777796
 31
0.0
  0
LINE
  5
130
330
17
100
AcDbEntity
  8
CUT
100
AcDbLine
 10
90.03142777777776
 20
371.11446388888925
 30
0.0
 11
90.03142777777776
 21
368.11373611111145
 31
0.0
  0
LINE
  5
131
330
17
100
AcDbEntity
  8
CUT
100
AcDbLine
 10
93.0321555555555
 20
377.08205277777796
 30
0.0
 11
93.0321555555555
 21
380.082427777778
 31
0.0
  0
LINE
  5
132
330
17
100
AcDbEntity
  8
CUT
100
AcDbLine
 10
93.0321555555555
 20
371.11446388888925
 30
0.0
 11
108.55331944444436
 21
371.11446388888925
 31
0.0
  0
LINE
  5
133
330
17
100
AcDbEntity
  8
CUT
100
AcDbLine
 10
74.5102638888888
 20
371.11446388888925
 30
0.0
 11
90.03142777777776
 21
371.11446388888925
 31
0.0
  0
LINE
  5
134
330
17
100
AcDbEntity
  8
CUT
100
AcDbLine
 10
108.55331944444436
 20
377.08205277777796
 30
0.0
 11
93.0321555555555
 21
377.08205277777796
 31
0.0
  0
LINE
  5
135
330
17
100
AcDbEntity
  8
CUT
100
AcDbLine
 10
90.03142777777776
 20
377.08205277777796
 30
0.0
 11
74.5102638888888
 21
377.08205277777796
 31
0.0
  0
LINE
  5
136
330
17
100
AcDbEntity
  8
CUT
100
AcDbLine
 10
90.03142777777776
 20
368.11373611111145
 30
0.0
 11
93.0321555555555
 21
368.11373611111145
 31
0.0
  0
LINE
  5
137
330
17
100
AcDbEntity
  8
CUT
100
AcDbLine
 10
93.0321555555555
 20
380.082427777778
 30
0.0
 11
90.03142777777776
 21
380.082427777778
 31
0.0
  0
CIRCLE
  5
138
330
17
100
AcDbEntity
  8
CUT
100
AcDbCircle
 10
64.13958362079768
 20
408.26694631154874
 30
0.0
 40
18.02775637731996
  0
CIRCLE
  5
139
330
17
100
AcDbEntity
  8
CUT
100
AcDbCircle
 10
34.13958362079768
 20
418.26694631154874
 30
0.0
 40
2.500000000000006
  0
CIRCLE
  5
13A
330
17
100
AcDbEntity
  8
CUT
100
AcDbCircle
 10
94.13958362079768
 20
418.26694631154874
 30
0.0
 40
2.49999999999999
  0
LINE
  5
13B
330
17
100
AcDbEntity
  8
ENGRAVE
100
AcDbLine
 10
30.828076279139964
 20
376.1659742799484
 30
0.0
 11
33.62803355453059
 21
376.1659742799484
 31
0.0
  0
LINE
  5
13C
330
17
100
AcDbEntity
  8
ENGRAVE
100
AcDbLine
 10
33.62803355453059
 20
376.1659742799484
 30
0.0
 11
34.328022873378245
 21
377.5659529176437
 31
0.0
  0
LINE
  5
13D
330
17
100
AcDbEntity
  8
ENGRAVE
100
AcDbLine
 10
34.328022873378245
 20
377.5659529176437
 30
0.0
 11
34.328022873378245
 21
381.76588883072964
 31
0.0
  0
LINE
  5
13E
330
17
100
AcDbEntity
  8
ENGRAVE
100
AcDbLine
 10
34.328022873378245
 20
381.76588883072964
 30
0.0
 11
33.62803355453059
 21
383.16586746842495
 31
0.0
  0
LINE
  5
13F
330
17
100
AcDbEntity
  8
ENGRAVE
100
AcDbLine
 10
33.62803355453059
 20
383.16586746842495
 30
0.0
 11
30.828076279139964
 21
383.16586746842495
 31
0.0
  0
LINE
  5
140
330
17
100
AcDbEntity
  8
ENGRAVE
100
AcDbLine
 10
30.828076279139964
 20
383.16586746842495
 30
0.0
 11
30.128086960292308
 21
381.76588883072964
 31
0.0
  0
LINE
  5
141
330
17
100
AcDbEntity
  8
ENGRAVE
100
AcDbLine
 10
30.128086960292308
 20
381.76588883072964
 30
0.0
 11
30.128086960292308
 21
377.5659529176437
 31
0.0
  0
LINE
  5
142
330
17
100
AcDbEntity
  8
ENGRAVE
100
AcDbLine
 10
30.128086960292308
 20
377.5659529176437
 30
0.0
 11
30.828076279139964
 21
376.1659742799484
 31
0.0
  0
LINE
  5
143
330
17
100
AcDbEntity
  8
ENGRAVE
100
AcDbLine
 10
37.12798014876887
 20
379.66592087418667
 30
0.0
 11
36.427990829921214
 21
380.2259123292648
 31
0.0
  0
LINE
  5
144
330
17
100
AcDbEntity
  8
ENGRAVE
100
AcDbLine
 10
36.427990829921214
 20
380.2259123292648
 30
0.0
 11
36.427990829921214
 21
382.4658781495773
 31
0.0
  0
LINE
  5
145
330
17
100
AcDbEntity
  8
ENGRAVE
100
AcDbLine
 10
36.427990829921214
 20
382.4658781495773
 30
0.0
 11
37.12798014876887
 21
383.16586746842495
 31
0.0
  0
LINE
  5
146
330
17
100
AcDbEntity
  8
ENGRAVE
100
AcDbLine
 10
37.12798014876887
 20
383.16586746842495
 30
0.0
 11
38.52795878646418
 21
383.16586746842495
 31
0.0
  0
LINE
  5
147
330
17
100
AcDbEntity
  8
ENGRAVE
100
AcDbLine
 10
38.52795878646418
 20
383.16586746842495
 30
0.0
 11
39.22794810531184
 21
382.4658781495773
 31
0.0
  0
LINE
  5
148
330
17
100
AcDbEntity
  8
ENGRAVE
100
AcDbLine
 10
39.22794810531184
 20
382.4658781495773
 30
0.0
 11
39.22794810531184
 21
380.2259123292648
 31
0.0
  0
LINE
  5
149
330
17
100
AcDbEntity
  8
ENGRAVE
100
AcDbLine
 10
39.22794810531184
 20
380.2259123292648
 30
0.0
 11
38.52795878646418
 21
379.66592087418667
 31
0.0
  0
LINE
  5
14A
330
17
100
AcDbEntity
  8
ENGRAVE
100
AcDbLine
 10
38.52795878646418
 20
379.66592087418667
 30
0.0
 11
37.12798014876887
 21
379.66592087418667
 31
0.0
  0
LINE
  5
14B
330
17
100
AcDbEntity
  8
ENGRAVE
100
AcDbLine
 10
37.12798014876887
 20
379.66592087418667
 30
0.0
 11
36.217994034266916
 21
378.965931555339
 31
0.0
  0
LINE
  5
14C
330
17
100
AcDbEntity
  8
ENGRAVE
100
AcDbLine
 10
36.217994034266916
 20
378.965931555339
 30
0.0
 11
36.217994034266916
 21
376.86596359879604
 31
0.0
  0
LINE
  5
14D
330
17
100
AcDbEntity
  8
ENGRAVE
100
AcDbLine
 10
36.217994034266916
 20
376.86596359879604
 30
0.0
 11
37.12798014876887
 21
376.1659742799484
 31
0.0
  0
LINE
  5
14E
330
17
100
AcDbEntity
  8
ENGRAVE
100
AcDbLine
 10
37.12798014876887
 20
376.1659742799484
 30
0.0
 11
38.52795878646418
 21
376.1659742799484
 31
0.0
  0
LINE
  5
14F
330
17
100
AcDbEntity
  8
ENGRAVE
100
AcDbLine
 10
38.52795878646418
 20
376.1659742799484
 30
0.0
 11
39.43794490096614
 21
376.86596359879604
 31
0.0
  0
LINE
  5
150
330
17
100
AcDbEntity
  8
ENGRAVE
100
AcDbLine
 10
39.43794490096614
 20
376.86596359879604
 30
0.0
 11
39.43794490096614
 21
378.965931555339
 31
0.0
  0
LINE
  5
151
330
17
100
AcDbEntity
  8
ENGRAVE
100
AcDbLine
 10
39.43794490096614
 20
378.965931555339
 30
0.0
 11
38.52795878646418
 21
379.66592087418667
 31
0.0
  0
LINE
  5
152
330
17
100
AcDbEntity
  8
CUT
100
AcDbLine
 10
224.60907222222227
 20
393.28407777777795
 30
0.0
 11
224.60907222222227
 21
384.90490000000034
 31
0.0
  0
LINE
  5
153
330
17
100
AcDbEntity
  8
CUT
100
AcDbLine
 10
224.60907222222227
 20
418.94689722222245
 30
0.0
 11
224.60907222222227
 21
403.28603333333365
 31
0.0
  0
LINE
  5
154
330
17
100
AcDbEntity
  8
CUT
100
AcDbLine
 10
224.60907222222227
 20
438.95045555555583
 30
0.0
 11
224.60907222222227
 21
428.94850000000037
 31
0.0
  0
LINE
  5
155
330
17
100
AcDbEntity
  8
CUT
100
AcDbLine
 10
227.60980000000018
 20
384.90490000000034
 30
0.0
 11
227.60980000000018
 21
374.90294444444464
 31
0.0
  0
LINE
  5
156
330
17
100
AcDbEntity
  8
CUT
100
AcDbLine
 10
227.60980000000018
 20
428.94850000000037
 30
0.0
 11
227.60980000000018
 21
418.94689722222245
 31
0.0
  0
LINE
  5
157
330
17
100
AcDbEntity
  8
CUT
100
AcDbLine
 10
227.60980000000018
 20
403.28603333333365
 30
0.0
 11
227.60980000000018
 21
393.28407777777795
 31
0.0
  0
LINE
  5
158
330
17
100
AcDbEntity
  8
CUT
100
AcDbLine
 10
118.55490000000009
 20
364.90134166666684
 30
0.0
 11
118.55490000000009
 21
438.95045555555583
 31
0.0
  0
LINE
  5
159
330
17
100
AcDbEntity
  8
CUT
100
AcDbLine
 10
127.55673055555559
 20
364.90134166666684
 30
0.0
 11
127.55673055555559
 21
400.0140194444447
 31
0.0
  0
LINE
  5
15A
330
17
100
AcDbEntity
  8
CUT
100
AcDbLine
 10
224.60907222222227
 20
374.90294444444464
 30
0.0
 11
224.60907222222227
 21
364.90134166666684
 31
0.0
  0
LINE
  5
15B
330
17
100
AcDbEntity
  8
CUT
100
AcDbLine
 10
124.55635555555568
 20
400.0140194444447
 30
0.0
 11
124.55635555555568
 21
364.90134166666684
 31
0.0
  0
LINE
  5
15C
330
17
100
AcDbEntity
  8
CUT
100
AcDbLine
 10
127.55673055555559
 20
400.0140194444447
 30
0.0
 11
124.55635555555568
 21
400.0140194444447
 31
0.0
  0
LINE
  5
15D
330
17
100
AcDbEntity
  8
CUT
100
AcDbLine
 10
224.60907222222227
 20
364.90134166666684
 30
0.0
 11
127.55673055555559
 21
364.90134166666684
 31
0.0
  0
LINE
  5
15E
330
17
100
AcDbEntity
  8
CUT
100
AcDbLine
 10
124.55635555555568
 20
364.90134166666684
 30
0.0
 11
118.55490000000009
 21
364.90134166666684
 31
0.0
  0
LINE
  5
15F
330
17
100
AcDbEntity
  8
CUT
100
AcDbLine
 10
224.60907222222227
 20
403.28603333333365
 30
0.0
 11
227.60980000000018
 21
403.28603333333365
 31
0.0
  0
LINE
  5
160
330
17
100
AcDbEntity
  8
CUT
100
AcDbLine
 10
227.60980000000018
 20
393.28407777777795
 30
0.0
 11
224.60907222222227
 21
393.28407777777795
 31
0.0
  0
LINE
  5
161
330
17
100
AcDbEntity
  8
CUT
100
AcDbLine
 10
224.60907222222227
 20
428.94850000000037
 30
0.0
 11
227.60980000000018
 21
428.94850000000037
 31
0.0
  0
LINE
  5
162
330
17
100
AcDbEntity
  8
CUT
100
AcDbLine
 10
227.60980000000018
 20
418.94689722222245
 30
0.0
 11
224.60907222222227
 21
418.94689722222245
 31
0.0
  0
LINE
  5
163
330
17
100
AcDbEntity
  8
CUT
100
AcDbLine
 10
224.60907222222227
 20
384.90490000000034
 30
0.0
 11
227.60980000000018
 21
384.90490000000034
 31
0.0
  0
LINE
  5
164
330
17
100
AcDbEntity
  8
CUT
100
AcDbLine
 10
227.60980000000018
 20
374.90294444444464
 30
0.0
 11
224.60907222222227
 21
374.90294444444464
 31
0.0
  0
LINE
  5
165
330
17
100
AcDbEntity
  8
CUT
100
AcDbLine
 10
118.55490000000009
 20
438.95045555555583
 30
0.0
 11
224.60907222222215
 21
438.95045555555583
 31
0.0
  0
LINE
  5
166
330
17
100
AcDbEntity
  8
CUT
100
AcDbLine
 10
169.048688888889
 20
381.97437500000024
 30
0.0
 11
170.24531111111116
 21
384.7256888888892
 31
0.0
  0
LINE
  5
167
330
17
100
AcDbEntity
  8
CUT
100
AcDbLine
 10
161.71091111111116
 20
385.16454444444474
 30
0.0
 11
169.048688888889
 21
381.97437500000024
 31
0.0
  0
LINE
  5
168
330
17
100
AcDbEntity
  8
CUT
100
AcDbLine
 10
170.24531111111116
 20
384.7256888888892
 30
0.0
 11
162.90718055555556
 21
387.9162111111116
 31
0.0
  0
LINE
  5
169
330
17
100
AcDbEntity
  8
CUT
100
AcDbLine
 10
162.90718055555556
 20
387.9162111111116
 30
0.0
 11
161.71091111111116
 21
385.16454444444474
 31
0.0
  0
LINE
  5
16A
330
17
100
AcDbEntity
  8
CUT
100
AcDbLine
 10
142.23263888888897
 20
393.63332777777794
 30
0.0
 11
143.42926111111115
 21
396.38499444444477
 31
0.0
  0
LINE
  5
16B
330
17
100
AcDbEntity
  8
CUT
100
AcDbLine
 10
143.42926111111115
 20
396.38499444444477
 30
0.0
 11
136.0911305555556
 21
399.57551666666683
 31
0.0
  0
LINE
  5
16C
330
17
100
AcDbEntity
  8
CUT
100
AcDbLine
 10
136.0911305555556
 20
399.57551666666683
 30
0.0
 11
134.89486111111114
 21
396.82385000000033
 31
0.0
  0
LINE
  5
16D
330
17
100
AcDbEntity
  8
CUT
100
AcDbLine
 10
134.89486111111114
 20
396.82385000000033
 30
0.0
 11
142.23263888888897
 21
393.63332777777794
 31
0.0
  0
LINE
  5
16E
330
17
100
AcDbEntity
  8
CUT
100
AcDbLine
 10
213.70612222222235
 20
393.9691722222225
 30
0.0
 11
221.04425277777773
 21
397.15969444444477
 31
0.0
  0
LINE
  5
16F
330
17
100
AcDbEntity
  8
CUT
100
AcDbLine
 10
219.8476305555556
 20
399.91136111111143
 30
0.0
 11
212.50985277777784
 21
396.72083888888915
 31
0.0
  0
LINE
  5
170
330
17
100
AcDbEntity
  8
CUT
100
AcDbLine
 10
212.50985277777784
 20
396.72083888888915
 30
0.0
 11
213.70612222222235
 21
393.9691722222225
 31
0.0
  0
LINE
  5
171
330
17
100
AcDbEntity
  8
CUT
100
AcDbLine
 10
221.04425277777773
 20
397.15969444444477
 30
0.0
 11
219.8476305555556
 21
399.91136111111143
 31
0.0
  0
LINE
  5
172
330
17
100
AcDbEntity
  8
CUT
100
AcDbLine
 10
193.45561944444438
 20
385.16454444444474
 30
0.0
 11
192.25899722222215
 21
387.9162111111116
 31
0.0
  0
LINE
  5
173
330
17
100
AcDbEntity
  8
CUT
100
AcDbLine
 10
186.11748888888894
 20
381.97437500000024
 30
0.0
 11
193.45561944444438
 21
385.16454444444474
 31
0.0
  0
LINE
  5
174
330
17
100
AcDbEntity
  8
CUT
100
AcDbLine
 10
184.9212194444445
 20
384.7256888888892
 30
0.0
 11
186.11748888888894
 21
381.97437500000024
 31
0.0
  0
LINE
  5
175
330
17
100
AcDbEntity
  8
CUT
100
AcDbLine
 10
192.25899722222215
 20
387.9162111111116
 30
0.0
 11
184.9212194444445
 21
384.7256888888892
 31
0.0
  0
LINE
  5
176
330
17
100
AcDbEntity
  8
CUT
100
AcDbLine
 10
186.5651638888889
 20
377.08205277777796
 30
0.0
 11
186.5651638888889
 21
371.11446388888925
 31
0.0
  0
LINE
  5
177
330
17
100
AcDbEntity
  8
CUT
100
AcDbLine
 10
220.60821944444444
 20
371.11446388888925
 30
0.0
 11
220.60821944444444
 21
377.08205277777796
 31
0.0
  0
LINE
  5
178
330
17
100
AcDbEntity
  8
CUT
100
AcDbLine
 10
205.0870555555556
 20
368.11373611111145
 30
0.0
 11
205.0870555555556
 21
371.11446388888925
 31
0.0
  0
LINE
  5
179
330
17
100
AcDbEntity
  8
CUT
100
AcDbLine
 10
202.08632777777785
 20
380.082427777778
 30
0.0
 11
202.08632777777785
 21
377.08205277777796
 31
0.0
  0
LINE
  5
17A
330
17
100
AcDbEntity
  8
CUT
100
AcDbLine
 10
202.08632777777785
 20
371.11446388888925
 30
0.0
 11
202.08632777777785
 21
368.11373611111145
 31
0.0
  0
LINE
  5
17B
330
17
100
AcDbEntity
  8
CUT
100
AcDbLine
 10
205.0870555555556
 20
377.08205277777796
 30
0.0
 11
205.0870555555556
 21
380.082427777778
 31
0.0
  0
LINE
  5
17C
330
17
100
AcDbEntity
  8
CUT
100
AcDbLine
 10
205.0870555555556
 20
371.11446388888925
 30
0.0
 11
220.60821944444444
 21
371.11446388888925
 31
0.0
  0
LINE
  5
17D
330
17
100
AcDbEntity
  8
CUT
100
AcDbLine
 10
186.5651638888889
 20
371.11446388888925
 30
0.0
 11
202.08632777777785
 21
371.11446388888925
 31
0.0
  0
LINE
  5
17E
330
17
100
AcDbEntity
  8
CUT
100
AcDbLine
 10
220.60821944444444
 20
377.08205277777796
 30
0.0
 11
205.0870555555556
 21
377.08205277777796
 31
0.0
  0
LINE
  5
17F
330
17
100
AcDbEntity
  8
CUT
100
AcDbLine
 10
202.08632777777785
 20
377.08205277777796
 30
0.0
 11
186.5651638888889
 21
377.08205277777796
 31
0.0
  0
LINE
  5
180
330
17
100
AcDbEntity
  8
CUT
100
AcDbLine
 10
202.08632777777785
 20
368.11373611111145
 30
0.0
 11
205.0870555555556
 21
368.11373611111145
 31
0.0
  0
LINE
  5
181
330
17
100
AcDbEntity
  8
CUT
100
AcDbLine
 10
205.0870555555556
 20
380.082427777778
 30
0.0
 11
202.08632777777785
 21
380.082427777778
 31
0.0
  0
CIRCLE
  5
182
330
17
100
AcDbEntity
  8
CUT
100
AcDbCircle
 10
176.19448362079777
 20
408.26694631154874
 30
0.0
 40
18.02775637731996
  0
CIRCLE
  5
183
330
17
100
AcDbEntity
  8
CUT
100
AcDbCircle
 10
146.19448362079777
 20
418.26694631154874
 30
0.0
 40
2.500000000000006
  0
CIRCLE
  5
184
330
17
100
AcDbEntity
  8
CUT
100
AcDbCircle
 10
206.19448362079777
 20
418.26694631154874
 30
0.0
 40
2.49999999999999
  0
LINE
  5
185
330
17
100
AcDbEntity
  8
ENGRAVE
100
AcDbLine
 10
142.88297627914005
 20
376.1659742799484
 30
0.0
 11
145.68293355453068
 21
376.1659742799484
 31
0.0
  0
LINE
  5
186
330
17
100
AcDbEntity
  8
ENGRAVE
100
AcDbLine
 10
145.68293355453068
 20
376.1659742799484
 30
0.0
 11
146.38292287337833
 21
377.5659529176437
 31
0.0
  0
LINE
  5
187
330
17
100
AcDbEntity
  8
ENGRAVE
100
AcDbLine
 10
146.38292287337833
 20
377.5659529176437
 30
0.0
 11
146.38292287337833
 21
381.76588883072964
 31
0.0
  0
LINE
  5
188
330
17
100
AcDbEntity
  8
ENGRAVE
100
AcDbLine
 10
146.38292287337833
 20
381.76588883072964
 30
0.0
 11
145.68293355453068
 21
383.16586746842495
 31
0.0
  0
LINE
  5
189
330
17
100
AcDbEntity
  8
ENGRAVE
100
AcDbLine
 10
145.68293355453068
 20
383.16586746842495
 30
0.0
 11
142.88297627914005
 21
383.16586746842495
 31
0.0
  0
LINE
  5
18A
330
17
100
AcDbEntity
  8
ENGRAVE
100
AcDbLine
 10
142.88297627914005
 20
383.16586746842495
 30
0.0
 11
142.1829869602924
 21
381.76588883072964
 31
0.0
  0
LINE
  5
18B
330
17
100
AcDbEntity
  8
ENGRAVE
100
AcDbLine
 10
142.1829869602924
 20
381.76588883072964
 30
0.0
 11
142.1829869602924
 21
377.5659529176437
 31
0.0
  0
LINE
  5
18C
330
17
100
AcDbEntity
  8
ENGRAVE
100
AcDbLine
 10
142.1829869602924
 20
377.5659529176437
 30
0.0
 11
142.88297627914005
 21
376.1659742799484
 31
0.0
  0
LINE
  5
18D
330
17
100
AcDbEntity
  8
ENGRAVE
100
AcDbLine
 10
149.18288014876896
 20
379.66592087418667
 30
0.0
 11
148.4828908299213
 21
380.2259123292648
 31
0.0
  0
LINE
  5
18E
330
17
100
AcDbEntity
  8
ENGRAVE
100
AcDbLine
 10
148.4828908299213
 20
380.2259123292648
 30
0.0
 11
148.4828908299213
 21
382.4658781495773
 31
0.0
  0
LINE
  5
18F
330
17
100
AcDbEntity
  8
ENGRAVE
100
AcDbLine
 10
148.4828908299213
 20
382.4658781495773
 30
0.0
 11
149.18288014876896
 21
383.16586746842495
 31
0.0
  0
LINE
  5
190
330
17
100
AcDbEntity
  8
ENGRAVE
100
AcDbLine
 10
149.18288014876896
 20
383.16586746842495
 30
0.0
 11
150.58285878646427
 21
383.16586746842495
 31
0.0
  0
LINE
  5
191
330
17
100
AcDbEntity
  8
ENGRAVE
100
AcDbLine
 10
150.58285878646427
 20
383.16586746842495
 30
0.0
 11
151.28284810531193
 21
382.4658781495773
 31
0.0
  0
LINE
  5
192
330
17
100
AcDbEntity
  8
ENGRAVE
100
AcDbLine
 10
151.28284810531193
 20
382.4658781495773
 30
0.0
 11
151.28284810531193
 21
380.2259123292648
 31
0.0
  0
LINE
  5
193
330
17
100
AcDbEntity
  8
ENGRAVE
100
AcDbLine
 10
151.28284810531193
 20
380.2259123292648
 30
0.0
 11
150.58285878646427
 21
379.66592087418667
 31
0.0
  0
LINE
  5
194
330
17
100
AcDbEntity
  8
ENGRAVE
100
AcDbLine
 10
150.58285878646427
 20
379.66592087418667
 30
0.0
 11
149.18288014876896
 21
379.66592087418667
 31
0.0
  0
LINE
  5
195
330
17
100
AcDbEntity
  8
ENGRAVE
100
AcDbLine
 10
149.18288014876896
 20
379.66592087418667
 30
0.0
 11
148.272894034267
 21
378.965931555339
 31
0.0
  0
LINE
  5
196
330
17
100
AcDbEntity
  8
ENGRAVE
100
AcDbLine
 10
148.272894034267
 20
378.965931555339
 30
0.0
 11
148.272894034267
 21
376.86596359879604
 31
0.0
  0
LINE
  5
197
330
17
100
AcDbEntity
  8
ENGRAVE
100
AcDbLine
 10
148.272894034267
 20
376.86596359879604
 30
0.0
 11
149.18288014876896
 21
376.1659742799484
 31
0.0
  0
LINE
  5
198
330
17
100
AcDbEntity
  8
ENGRAVE
100
AcDbLine
 10
149.18288014876896
 20
376.1659742799484
 30
0.0
 11
150.58285878646427
 21
376.1659742799484
 31
0.0
  0
LINE
  5
199
330
17
100
AcDbEntity
  8
ENGRAVE
100
AcDbLine
 10
150.58285878646427
 20
376.1659742799484
 30
0.0
 11
151.49284490096622
 21
376.86596359879604
 31
0.0
  0
LINE
  5
19A
330
17
100
AcDbEntity
  8
ENGRAVE
100
AcDbLine
 10
151.49284490096622
 20
376.86596359879604
 30
0.0
 11
151.49284490096622
 21
378.965931555339
 31
0.0
  0
LINE
  5
19B
330
17
100
AcDbEntity
  8
ENGRAVE
100
AcDbLine
 10
151.49284490096622
 20
378.965931555339
 30
0.0
 11
150.58285878646427
 21
379.66592087418667
 31
0.0
  0
LINE
  5
19C
330
17
100
AcDbEntity
  8
CUT
100
AcDbLine
 10
336.66397222222236
 20
393.28407777777795
 30
0.0
 11
336.66397222222236
 21
384.90490000000034
 31
0.0
  0
LINE
  5
19D
330
17
100
AcDbEntity
  8
CUT
100
AcDbLine
 10
336.66397222222236
 20
418.94689722222245
 30
0.0
 11
336.66397222222236
 21
403.28603333333365
 31
0.0
  0
LINE
  5
19E
330
17
100
AcDbEntity
  8
CUT
100
AcDbLine
 10
336.66397222222236
 20
438.95045555555583
 30
0.0
 11
336.66397222222236
 21
428.94850000000037
 31
0.0
  0
LINE
  5
19F
330
17
100
AcDbEntity
  8
CUT
100
AcDbLine
 10
339.66470000000027
 20
384.90490000000034
 30
0.0
 11
339.66470000000027
 21
374.90294444444464
 31
0.0
  0
LINE
  5
1A0
330
17
100
AcDbEntity
  8
CUT
100
AcDbLine
 10
339.66470000000027
 20
428.94850000000037
 30
0.0
 11
339.66470000000027
 21
418.94689722222245
 31
0.0
  0
LINE
  5
1A1
330
17
100
AcDbEntity
  8
CUT
100
AcDbLine
 10
339.66470000000027
 20
403.28603333333365
 30
0.0
 11
339.66470000000027
 21
393.28407777777795
 31
0.0
  0
LINE
  5
1A2
330
17
100
AcDbEntity
  8
CUT
100
AcDbLine
 10
230.60980000000018
 20
364.90134166666684
 30
0.0
 11
230.60980000000018
 21
438.95045555555583
 31
0.0
  0
LINE
  5
1A3
330
17
100
AcDbEntity
  8
CUT
100
AcDbLine
 10
239.61163055555568
 20
364.90134166666684
 30
0.0
 11
239.61163055555568
 21
400.0140194444447
 31
0.0
  0
LINE
  5
1A4
330
17
100
AcDbEntity
  8
CUT
100
AcDbLine
 10
336.66397222222236
 20
374.90294444444464
 30
0.0
 11
336.66397222222236
 21
364.90134166666684
 31
0.0
  0
LINE
  5
1A5
330
17
100
AcDbEntity
  8
CUT
100
AcDbLine
 10
236.61125555555577
 20
400.0140194444447
 30
0.0
 11
236.61125555555577
 21
364.90134166666684
 31
0.0
  0
LINE
  5
1A6
330
17
100
AcDbEntity
  8
CUT
100
AcDbLine
 10
239.61163055555568
 20
400.0140194444447
 30
0.0
 11
236.61125555555577
 21
400.0140194444447
 31
0.0
  0
LINE
  5
1A7
330
17
100
AcDbEntity
  8
CUT
100
AcDbLine
 10
336.66397222222236
 20
364.90134166666684
 30
0.0
 11
239.61163055555568
 21
364.90134166666684
 31
0.0
  0
LINE
  5
1A8
330
17
100
AcDbEntity
  8
CUT
100
AcDbLine
 10
236.61125555555577
 20
364.90134166666684
 30
0.0
 11
230.60980000000018
 21
364.90134166666684
 31
0.0
  0
LINE
  5
1A9
330
17
100
AcDbEntity
  8
CUT
100
AcDbLine
 10
336.66397222222236
 20
403.28603333333365
 30
0.0
 11
339.66470000000027
 21
403.28603333333365
 31
0.0
  0
LINE
  5
1AA
330
17
100
AcDbEntity
  8
CUT
100
AcDbLine
 10
339.66470000000027
 20
393.28407777777795
 30
0.0
 11
336.66397222222236
 21
393.28407777777795
 31
0.0
  0
LINE
  5
1AB
330
17
100
AcDbEntity
  8
CUT
100
AcDbLine
 10
336.66397222222236
 20
428.94850000000037
 30
0.0
 11
339.66470000000027
 21
428.94850000000037
 31
0.0
  0
LINE
  5
1AC
330
17
100
AcDbEntity
  8
CUT
100
AcDbLine
 10
339.66470000000027
 20
418.94689722222245
 30
0.0
 11
336.66397222222236
 21
418.94689722222245
 31
0.0
  0
LINE
  5
1AD
330
17
100
AcDbEntity
  8
CUT
100
AcDbLine
 10
336.66397222222236
 20
384.90490000000034
 30
0.0
 11
339.66470000000027
 21
384.90490000000034
 31
0.0
  0
LINE
  5
1AE
330
17
100
AcDbEntity
  8
CUT
100
AcDbLine
 10
339.66470000000027
 20
374.90294444444464
 30
0.0
 11
336.66397222222236
 21
374.90294444444464
 31
0.0
  0
LINE
  5
1AF
330
17
100
AcDbEntity
  8
CUT
100
AcDbLine
 10
230.60980000000018
 20
438.95045555555583
 30
0.0
 11
336.66397222222224
 21
438.95045555555583
 31
0.0
  0
LINE
  5
1B0
330
17
100
AcDbEntity
  8
CUT
100
AcDbLine
 10
281.1035888888891
 20
381.97437500000024
 30
0.0
 11
282.30021111111125
 21
384.7256888888892
 31
0.0
  0
LINE
  5
1B1
330
17
100
AcDbEntity
  8
CUT
100
AcDbLine
 10
273.76581111111125
 20
385.16454444444474
 30
0.0
 11
281.1035888888891
 21
381.97437500000024
 31
0.0
  0
LINE
  5
1B2
330
17
100
AcDbEntity
  8
CUT
100
AcDbLine
 10
282.30021111111125
 20
384.7256888888892
 30
0.0
 11
274.96208055555564
 21
387.9162111111116
 31
0.0
  0
LINE
  5
1B3
330
17
100
AcDbEntity
  8
CUT
100
AcDbLine
 10
274.96208055555564
 20
387.9162111111116
 30
0.0
 11
273.76581111111125
 21
385.16454444444474
 31
0.0
  0
LINE
  5
1B4
330
17
100
AcDbEntity
  8
CUT
100
AcDbLine
 10
254.28753888888906
 20
393.63332777777794
 30
0.0
 11
255.48416111111123
 21
396.38499444444477
 31
0.0
  0
LINE
  5
1B5
330
17
100
AcDbEntity
  8
CUT
100
AcDbLine
 10
255.48416111111123
 20
396.38499444444477
 30
0.0
 11
248.14603055555568
 21
399.57551666666683
 31
0.0
  0
LINE
  5
1B6
330
17
100
AcDbEntity
  8
CUT
100
AcDbLine
 10
248.14603055555568
 20
399.57551666666683
 30
0.0
 11
246.94976111111123
 21
396.82385000000033
 31
0.0
  0
LINE
  5
1B7
330
17
100
AcDbEntity
  8
CUT
100
AcDbLine
 10
246.94976111111123
 20
396.82385000000033
 30
0.0
 11
254.28753888888906
 21
393.63332777777794
 31
0.0
  0
LINE
  5
1B8
330
17
100
AcDbEntity
  8
CUT
100
AcDbLine
 10
325.76102222222244
 20
393.9691722222225
 30
0.0
 11
333.0991527777778
 21
397.15969444444477
 31
0.0
  0
LINE
  5
1B9
330
17
100
AcDbEntity
  8
CUT
100
AcDbLine
 10
331.9025305555557
 20
399.91136111111143
 30
0.0
 11
324.5647527777779
 21
396.72083888888915
 31
0.0
  0
LINE
  5
1BA
330
17
100
AcDbEntity
  8
CUT
100
AcDbLine
 10
324.5647527777779
 20
396.72083888888915
 30
0.0
 11
325.76102222222244
 21
393.9691722222225
 31
0.0
  0
LINE
  5
1BB
330
17
100
AcDbEntity
  8
CUT
100
AcDbLine
 10
333.0991527777778
 20
397.15969444444477
 30
0.0
 11
331.9025305555557
 21
399.91136111111143
 31
0.0
  0
LINE
  5
1BC
330
17
100
AcDbEntity
  8
CUT
100
AcDbLine
 10
305.51051944444447
 20
385.16454444444474
 30
0.0
 11
304.31389722222224
 21
387.9162111111116
 31
0.0
  0
LINE
  5
1BD
330
17
100
AcDbEntity
  8
CUT
100
AcDbLine
 10
298.17238888888903
 20
381.97437500000024
 30
0.0
 11
305.51051944444447
 21
385.16454444444474
 31
0.0
  0
LINE
  5
1BE
330
17
100
AcDbEntity
  8
CUT
100
AcDbLine
 10
296.9761194444446
 20
384.7256888888892
 30
0.0
 11
298.17238888888903
 21
381.97437500000024
 31
0.0
  0
LINE
  5
1BF
330
17
100
AcDbEntity
  8
CUT
100
AcDbLine
 10
304.31389722222224
 20
387.9162111111116
 30
0.0
 11
296.9761194444446
 21
384.7256888888892
 31
0.0
  0
LINE
  5
1C0
330
17
100
AcDbEntity
  8
CUT
100
AcDbLine
 10
298.620063888889
 20
377.08205277777796
 30
0.0
 11
298.620063888889
 21
371.11446388888925
 31
0.0
  0
LINE
  5
1C1
330
17
100
AcDbEntity
  8
CUT
100
AcDbLine
 10
332.66311944444453
 20
371.11446388888925
 30
0.0
 11
332.66311944444453
 21
377.08205277777796
 31
0.0
  0
LINE
  5
1C2
330
17
100
AcDbEntity
  8
CUT
100
AcDbLine
 10
317.1419555555557
 20
368.11373611111145
 30
0.0
 11
317.1419555555557
 21
371.11446388888925
 31
0.0
  0
LINE
  5
1C3
330
17
100
AcDbEntity
  8
CUT
100
AcDbLine
 10
314.14122777777794
 20
380.082427777778
 30
0.0
 11
314.14122777777794
 21
377.08205277777796
 31
0.0
  0
LINE
  5
1C4
330
17
100
AcDbEntity
  8
CUT
100
AcDbLine
 10
314.14122777777794
 20
371.11446388888925
 30
0.0
 11
314.14122777777794
 21
368.11373611111145
 31
0.0
  0
LINE
  5
1C5
330
17
100
AcDbEntity
  8
CUT
100
AcDbLine
 10
317.1419555555557
 20
377.08205277777796
 30
0.0
 11
317.1419555555557
 21
380.082427777778
 31
0.0
  0
LINE
  5
1C6
330
17
100
AcDbEntity
  8
CUT
100
AcDbLine
 10
317.1419555555557
 20
371.11446388888925
 30
0.0
 11
332.66311944444453
 21
371.11446388888925
 31
0.0
  0
LINE
  5
1C7
330
17
100
AcDbEntity
  8
CUT
100
AcDbLine
 10
298.620063888889
 20
371.11446388888925
 30
0.0
 11
314.14122777777794
 21
371.11446388888925
 31
0.0
  0
LINE
  5
1C8
330
17
100
AcDbEntity
  8
CUT
100
AcDbLine
 10
332.66311944444453
 20
377.08205277777796
 30
0.0
 11
317.1419555555557
 21
377.08205277777796
 31
0.0
  0
LINE
  5
1C9
330
17
100
AcDbEntity
  8
CUT
100
AcDbLine
 10
314.14122777777794
 20
377.08205277777796
 30
0.0
 11
298.620063888889
 21
377.08205277777796
 31
0.0
  0
LINE
  5
1CA
330
17
100
AcDbEntity
  8
CUT
100
AcDbLine
 10
314.14122777777794
 20
368.11373611111145
 30
0.0
 11
317.1419555555557
 21
368.11373611111145
 31
0.0
  0
LINE
  5
1CB
330
17
100
AcDbEntity
  8
CUT
100
AcDbLine
 10
317.1419555555557
 20
380.082427777778
 30
0.0
 11
314.14122777777794
 21
380.082427777778
 31
0.0
  0
CIRCLE
  5
1CC
330
17
100
AcDbEntity
  8
CUT
100
AcDbCircle
 10
288.24938362079786
 20
408.26694631154874
 30
0.0
 40
18.02775637731996
  0
CIRCLE
  5
1CD
330
17
100
AcDbEntity
  8
CUT
100
AcDbCircle
 10
258.24938362079786
 20
418.26694631154874
 30
0.0
 40
2.500000000000006
  0
CIRCLE
  5
1CE
330
17
100
AcDbEntity
  8
CUT
100
AcDbCircle
 10
318.24938362079786
 20
418.26694631154874
 30
0.0
 40
2.49999999999999
  0
LINE
  5
1CF
330
17
100
AcDbEntity
  8
ENGRAVE
100
AcDbLine
 10
254.93787627914014
 20
376.1659742799484
 30
0.0
 11
257.73783355453077
 21
376.1659742799484
 31
0.0
  0
LINE
  5
1D0
330
17
100
AcDbEntity
  8
ENGRAVE
100
AcDbLine
 10
257.73783355453077
 20
376.1659742799484
 30
0.0
 11
258.4378228733784
 21
377.5659529176437
 31
0.0
  0
LINE
  5
1D1
330
17
100
AcDbEntity
  8
ENGRAVE
100
AcDbLine
 10
258.4378228733784
 20
377.5659529176437
 30
0.0
 11
258.4378228733784
 21
381.76588883072964
 31
0.0
  0
LINE
  5
1D2
330
17
100
AcDbEntity
  8
ENGRAVE
100
AcDbLine
 10
258.4378228733784
 20
381.76588883072964
 30
0.0
 11
257.73783355453077
 21
383.16586746842495
 31
0.0
  0
LINE
  5
1D3
330
17
100
AcDbEntity
  8
ENGRAVE
100
AcDbLine
 10
257.73783355453077
 20
383.16586746842495
 30
0.0
 11
254.93787627914014
 21
383.16586746842495
 31
0.0
  0
LINE
  5
1D4
330
17
100
AcDbEntity
  8
ENGRAVE
100
AcDbLine
 10
254.93787627914014
 20
383.16586746842495
 30
0.0
 11
254.23788696029249
 21
381.76588883072964
 31
0.0
  0
LINE
  5
1D5
330
17
100
AcDbEntity
  8
ENGRAVE
100
AcDbLine
 10
254.23788696029249
 20
381.76588883072964
 30
0.0
 11
254.23788696029249
 21
377.5659529176437
 31
0.0
  0
LINE
  5
1D6
330
17
100
AcDbEntity
  8
ENGRAVE
100
AcDbLine
 10
254.23788696029249
 20
377.5659529176437
 30
0.0
 11
254.93787627914014
 21
376.1659742799484
 31
0.0
  0
LINE
  5
1D7
330
17
100
AcDbEntity
  8
ENGRAVE
100
AcDbLine
 10
261.23778014876905
 20
379.66592087418667
 30
0.0
 11
260.5377908299214
 21
380.2259123292648
 31
0.0
  0
LINE
  5
1D8
330
17
100
AcDbEntity
  8
ENGRAVE
100
AcDbLine
 10
260.5377908299214
 20
380.2259123292648
 30
0.0
 11
260.5377908299214
 21
382.4658781495773
 31
0.0
  0
LINE
  5
1D9
330
17
100
AcDbEntity
  8
ENGRAVE
100
AcDbLine
 10
260.5377908299214
 20
382.4658781495773
 30
0.0
 11
261.23778014876905
 21
383.16586746842495
 31
0.0
  0
LINE
  5
1DA
330
17
100
AcDbEntity
  8
ENGRAVE
100
AcDbLine
 10
261.23778014876905
 20
383.16586746842495
 30
0.0
 11
262.63775878646436
 21
383.16586746842495
 31
0.0
  0
LINE
  5
1DB
330
17
100
AcDbEntity
  8
ENGRAVE
100
AcDbLine
 10
262.63775878646436
 20
383.16586746842495
 30
0.0
 11
263.337748105312
 21
382.4658781495773
 31
0.0
  0
LINE
  5
1DC
330
17
100
AcDbEntity
  8
ENGRAVE
100
AcDbLine
 10
263.337748105312
 20
382.4658781495773
 30
0.0
 11
263.337748105312
 21
380.2259123292648
 31
0.0
  0
LINE
  5
1DD
330
17
100
AcDbEntity
  8
ENGRAVE
100
AcDbLine
 10
263.337748105312
 20
380.2259123292648
 30
0.0
 11
262.63775878646436
 21
379.66592087418667
 31
0.0
  0
LINE
  5
1DE
330
17
100
AcDbEntity
  8
ENGRAVE
100
AcDbLine
 10
262.63775878646436
 20
379.66592087418667
 30
0.0
 11
261.23778014876905
 21
379.66592087418667
 31
0.0
  0
LINE
  5
1DF
330
17
100
AcDbEntity
  8
ENGRAVE
100
AcDbLine
 10
261.23778014876905
 20
379.66592087418667
 30
0.0
 11
260.3277940342671
 21
378.965931555339
 31
0.0
  0
LINE
  5
1E0
330
17
100
AcDbEntity
  8
ENGRAVE
100
AcDbLine
 10
260.3277940342671
 20
378.965931555339
 30
0.0
 11
260.3277940342671
 21
376.86596359879604
 31
0.0
  0
LINE
  5
1E1
330
17
100
AcDbEntity
  8
ENGRAVE
100
AcDbLine
 10
260.3277940342671
 20
376.86596359879604
 30
0.0
 11
261.23778014876905
 21
376.1659742799484
 31
0.0
  0
LINE
  5
1E2
330
17
100
AcDbEntity
  8
ENGRAVE
100
AcDbLine
 10
261.23778014876905
 20
376.1659742799484
 30
0.0
 11
262.63775878646436
 21
376.1659742799484
 31
0.0
  0
LINE
  5
1E3
330
17
100
AcDbEntity
  8
ENGRAVE
100
AcDbLine
 10
262.63775878646436
 20
376.1659742799484
 30
0.0
 11
263.54774490096634
 21
376.86596359879604
 31
0.0
  0
LINE
  5
1E4
330
17
100
AcDbEntity
  8
ENGRAVE
100
AcDbLine
 10
263.54774490096634
 20
376.86596359879604
 30
0.0
 11
263.54774490096634
 21
378.965931555339
 31
0.0
  0
LINE
  5
1E5
330
17
100
AcDbEntity
  8
ENGRAVE
100
AcDbLine
 10
263.54774490096634
 20
378.965931555339
 30
0.0
 11
262.63775878646436
 21
379.66592087418667
 31
0.0
  0
LINE
  5
1E6
330
17
100
AcDbEntity
  8
CUT
100
AcDbLine
 10
268.51504444444487
 20
135.460363888889
 30
0.0
 11
268.51504444444487
 21
143.4617166666668
 31
0.0
  0
LINE
  5
1E7
330
17
100
AcDbEntity
  8
CUT
100
AcDbLine
 10
271.5154194444448
 20
143.4617166666668
 30
0.0
 11
271.5154194444448
 21
135.460363888889
 31
0.0
  0
LINE
  5
1E8
330
17
100
AcDbEntity
  8
CUT
100
AcDbLine
 10
271.5154194444448
 20
135.460363888889
 30
0.0
 11
268.51504444444487
 21
135.460363888889
 31
0.0
  0
LINE
  5
1E9
330
17
100
AcDbEntity
  8
CUT
100
AcDbLine
 10
268.51504444444487
 20
143.4617166666668
 30
0.0
 11
271.5154194444448
 21
143.4617166666668
 31
0.0
  0
LINE
  5
1EA
330
17
100
AcDbEntity
  8
CUT
100
AcDbLine
 10
371.5684888888892
 20
102.52291388888901
 30
0.0
 11
371.5684888888892
 21
112.5248694444445
 31
0.0
  0
LINE
  5
1EB
330
17
100
AcDbEntity
  8
CUT
100
AcDbLine
 10
368.5677611111115
 20
112.5248694444445
 30
0.0
 11
368.5677611111115
 21
134.46023888888902
 31
0.0
  0
LINE
  5
1EC
330
17
100
AcDbEntity
  8
CUT
100
AcDbLine
 10
371.5684888888892
 20
134.46023888888902
 30
0.0
 11
371.5684888888892
 21
144.4621944444446
 31
0.0
  0
LINE
  5
1ED
330
17
100
AcDbEntity
  8
CUT
100
AcDbLine
 10
264.56287500000025
 20
161.7292555555556
 30
0.0
 11
264.56287500000025
 21
92.52095833333341
 31
0.0
  0
LINE
  5
1EE
330
17
100
AcDbEntity
  8
CUT
100
AcDbLine
 10
368.5677611111115
 20
92.52095833333341
 30
0.0
 11
368.5677611111115
 21
102.52291388888901
 31
0.0
  0
LINE
  5
1EF
330
17
100
AcDbEntity
  8
CUT
100
AcDbLine
 10
368.5677611111115
 20
144.4621944444446
 30
0.0
 11
368.5677611111115
 21
161.7292555555556
 31
0.0
  0
LINE
  5
1F0
330
17
100
AcDbEntity
  8
CUT
100
AcDbLine
 10
371.5684888888892
 20
144.4621944444446
 30
0.0
 11
368.5677611111115
 21
144.4621944444446
 31
0.0
  0
LINE
  5
1F1
330
17
100
AcDbEntity
  8
CUT
100
AcDbLine
 10
371.5684888888892
 20
112.5248694444445
 30
0.0
 11
368.5677611111115
 21
112.5248694444445
 31
0.0
  0
LINE
  5
1F2
330
17
100
AcDbEntity
  8
CUT
100
AcDbLine
 10
368.5677611111115
 20
161.7292555555556
 30
0.0
 11
264.56287500000025
 21
161.7292555555556
 31
0.0
  0
LINE
  5
1F3
330
17
100
AcDbEntity
  8
CUT
100
AcDbLine
 10
264.56287500000025
 20
92.52095833333341
 30
0.0
 11
368.5677611111115
 21
92.52095833333341
 31
0.0
  0
LINE
  5
1F4
330
17
100
AcDbEntity
  8
CUT
100
AcDbLine
 10
368.5677611111115
 20
102.52291388888901
 30
0.0
 11
371.5684888888892
 21
102.52291388888901
 31
0.0
  0
LINE
  5
1F5
330
17
100
AcDbEntity
  8
CUT
100
AcDbLine
 10
368.5677611111115
 20
134.46023888888902
 30
0.0
 11
371.5684888888892
 21
134.46023888888902
 31
0.0
  0
LINE
  5
1F6
330
17
100
AcDbEntity
  8
CUT
100
AcDbLine
 10
271.5154194444448
 20
108.52401666666671
 30
0.0
 11
271.5154194444448
 21
100.52231111111121
 31
0.0
  0
LINE
  5
1F7
330
17
100
AcDbEntity
  8
CUT
100
AcDbLine
 10
268.51504444444487
 20
100.52231111111121
 30
0.0
 11
268.51504444444487
 21
108.52401666666671
 31
0.0
  0
LINE
  5
1F8
330
17
100
AcDbEntity
  8
CUT
100
AcDbLine
 10
268.51504444444487
 20
108.52401666666671
 30
0.0
 11
271.5154194444448
 21
108.52401666666671
 31
0.0
  0
LINE
  5
1F9
330
17
100
AcDbEntity
  8
CUT
100
AcDbLine
 10
271.5154194444448
 20
100.52231111111121
 30
0.0
 11
268.51504444444487
 21
100.52231111111121
 31
0.0
  0
LINE
  5
1FA
330
17
100
AcDbEntity
  8
ENGRAVE
100
AcDbLine
 10
328.86685065779193
 20
123.02314086490871
 30
0.0
 11
331.66680793318255
 21
123.02314086490871
 31
0.0
  0
LINE
  5
1FB
330
17
100
AcDbEntity
  8
ENGRAVE
100
AcDbLine
 10
331.66680793318255
 20
123.02314086490871
 30
0.0
 11
332.3667972520302
 21
124.42311950260402
 31
0.0
  0
LINE
  5
1FC
330
17
100
AcDbEntity
  8
ENGRAVE
100
AcDbLine
 10
332.3667972520302
 20
124.42311950260402
 30
0.0
 11
332.3667972520302
 21
128.62305541568998
 31
0.0
  0
LINE
  5
1FD
330
17
100
AcDbEntity
  8
ENGRAVE
100
AcDbLine
 10
332.3667972520302
 20
128.62305541568998
 30
0.0
 11
331.66680793318255
 21
130.0230340533853
 31
0.0
  0
LINE
  5
1FE
330
17
100
AcDbEntity
  8
ENGRAVE
100
AcDbLine
 10
331.66680793318255
 20
130.0230340533853
 30
0.0
 11
328.86685065779193
 21
130.0230340533853
 31
0.0
  0
LINE
  5
1FF
330
17
100
AcDbEntity
  8
ENGRAVE
100
AcDbLine
 10
328.86685065779193
 20
130.0230340533853
 30
0.0
 11
328.1668613389443
 21
128.62305541568998
 31
0.0
  0
LINE
  5
200
330
17
100
AcDbEntity
  8
ENGRAVE
100
AcDbLine
 10
328.1668613389443
 20
128.62305541568998
 30
0.0
 11
328.1668613389443
 21
124.42311950260402
 31
0.0
  0
LINE
  5
201
330
17
100
AcDbEntity
  8
ENGRAVE
100
AcDbLine
 10
328.1668613389443
 20
124.42311950260402
 30
0.0
 11
328.86685065779193
 21
123.02314086490871
 31
0.0
  0
LINE
  5
202
330
17
100
AcDbEntity
  8
ENGRAVE
100
AcDbLine
 10
334.4667652085732
 20
123.02314086490871
 30
0.0
 11
336.56673316511615
 21
123.02314086490871
 31
0.0
  0
LINE
  5
203
330
17
100
AcDbEntity
  8
ENGRAVE
100
AcDbLine
 10
336.56673316511615
 20
123.02314086490871
 30
0.0
 11
337.96671180281146
 21
125.12310882145168
 31
0.0
  0
LINE
  5
204
330
17
100
AcDbEntity
  8
ENGRAVE
100
AcDbLine
 10
337.96671180281146
 20
125.12310882145168
 30
0.0
 11
337.96671180281146
 21
128.62305541568998
 31
0.0
  0
LINE
  5
205
330
17
100
AcDbEntity
  8
ENGRAVE
100
AcDbLine
 10
337.96671180281146
 20
128.62305541568998
 30
0.0
 11
337.2667224839638
 21
130.0230340533853
 31
0.0
  0
LINE
  5
206
330
17
100
AcDbEntity
  8
ENGRAVE
100
AcDbLine
 10
337.2667224839638
 20
130.0230340533853
 30
0.0
 11
334.4667652085732
 21
130.0230340533853
 31
0.0
  0
LINE
  5
207
330
17
100
AcDbEntity
  8
ENGRAVE
100
AcDbLine
 10
334.4667652085732
 20
130.0230340533853
 30
0.0
 11
333.7667758897255
 21
128.62305541568998
 31
0.0
  0
LINE
  5
208
330
17
100
AcDbEntity
  8
ENGRAVE
100
AcDbLine
 10
333.7667758897255
 20
128.62305541568998
 30
0.0
 11
333.7667758897255
 21
127.57307143741848
 31
0.0
  0
LINE
  5
209
330
17
100
AcDbEntity
  8
ENGRAVE
100
AcDbLine
 10
333.7667758897255
 20
127.57307143741848
 30
0.0
 11
334.4667652085732
 21
126.52308745914699
 31
0.0
  0
LINE
  5
20A
330
17
100
AcDbEntity
  8
ENGRAVE
100
AcDbLine
 10
334.4667652085732
 20
126.52308745914699
 30
0.0
 11
337.2667224839638
 21
126.52308745914699
 31
0.0
  0
LINE
  5
20B
330
17
100
AcDbEntity
  8
ENGRAVE
100
AcDbLine
 10
337.2667224839638
 20
126.52308745914699
 30
0.0
 11
337.96671180281146
 21
127.57307143741848
 31
0.0
  0
LINE
  5
20C
330
17
100
AcDbEntity
  8
CUT
100
AcDbLine
 10
290.83176666666685
 20
168.68142500000022
 30
0.0
 11
282.83041388888904
 21
168.68142500000022
 31
0.0
  0
LINE
  5
20D
330
17
100
AcDbEntity
  8
CUT
100
AcDbLine
 10
282.83041388888904
 20
171.6818000000001
 30
0.0
 11
290.83176666666685
 21
171.6818000000001
 31
0.0
  0
LINE
  5
20E
330
17
100
AcDbEntity
  8
CUT
100
AcDbLine
 10
290.83176666666685
 20
171.6818000000001
 30
0.0
 11
290.83176666666685
 21
168.68142500000022
 31
0.0
  0
LINE
  5
20F
330
17
100
AcDbEntity
  8
CUT
100
AcDbLine
 10
282.83041388888904
 20
168.68142500000022
 30
0.0
 11
282.83041388888904
 21
171.6818000000001
 31
0.0
  0
LINE
  5
210
330
17
100
AcDbEntity
  8
CUT
100
AcDbLine
 10
323.76921666666686
 20
271.7348694444445
 30
0.0
 11
313.76726111111134
 21
271.7348694444445
 31
0.0
  0
LINE
  5
211
330
17
100
AcDbEntity
  8
CUT
100
AcDbLine
 10
313.76726111111134
 20
268.7341416666669
 30
0.0
 11
291.8318916666668
 21
268.7341416666669
 31
0.0
  0
LINE
  5
212
330
17
100
AcDbEntity
  8
CUT
100
AcDbLine
 10
291.8318916666668
 20
271.7348694444445
 30
0.0
 11
281.82993611111124
 21
271.7348694444445
 31
0.0
  0
LINE
  5
213
330
17
100
AcDbEntity
  8
CUT
100
AcDbLine
 10
264.56287500000025
 20
164.7292555555556
 30
0.0
 11
333.77117222222245
 21
164.7292555555556
 31
0.0
  0
LINE
  5
214
330
17
100
AcDbEntity
  8
CUT
100
AcDbLine
 10
333.77117222222245
 20
268.7341416666669
 30
0.0
 11
323.76921666666686
 21
268.7341416666669
 31
0.0
  0
LINE
  5
215
330
17
100
AcDbEntity
  8
CUT
100
AcDbLine
 10
281.82993611111124
 20
268.7341416666669
 30
0.0
 11
264.56287500000025
 21
268.7341416666669
 31
0.0
  0
LINE
  5
216
330
17
100
AcDbEntity
  8
CUT
100
AcDbLine
 10
281.82993611111124
 20
271.7348694444445
 30
0.0
 11
281.82993611111124
 21
268.7341416666669
 31
0.0
  0
LINE
  5
217
330
17
100
AcDbEntity
  8
CUT
100
AcDbLine
 10
313.76726111111134
 20
271.7348694444445
 30
0.0
 11
313.76726111111134
 21
268.7341416666669
 31
0.0
  0
LINE
  5
218
330
17
100
AcDbEntity
  8
CUT
100
AcDbLine
 10
264.56287500000025
 20
268.7341416666669
 30
0.0
 11
264.56287500000025
 21
164.7292555555556
 31
0.0
  0
LINE
  5
219
330
17
100
AcDbEntity
  8
CUT
100
AcDbLine
 10
333.77117222222245
 20
164.7292555555556
 30
0.0
 11
333.77117222222245
 21
268.7341416666669
 31
0.0
  0
LINE
  5
21A
330
17
100
AcDbEntity
  8
CUT
100
AcDbLine
 10
323.76921666666686
 20
268.7341416666669
 30
0.0
 11
323.76921666666686
 21
271.7348694444445
 31
0.0
  0
LINE
  5
21B
330
17
100
AcDbEntity
  8
CUT
100
AcDbLine
 10
291.8318916666668
 20
268.7341416666669
 30
0.0
 11
291.8318916666668
 21
271.7348694444445
 31
0.0
  0
LINE
  5
21C
330
17
100
AcDbEntity
  8
CUT
100
AcDbLine
 10
317.76811388888916
 20
171.6818000000001
 30
0.0
 11
325.76981944444464
 21
171.6818000000001
 31
0.0
  0
LINE
  5
21D
330
17
100
AcDbEntity
  8
CUT
100
AcDbLine
 10
325.76981944444464
 20
168.68142500000022
 30
0.0
 11
317.76811388888916
 21
168.68142500000022
 31
0.0
  0
LINE
  5
21E
330
17
100
AcDbEntity
  8
CUT
100
AcDbLine
 10
317.76811388888916
 20
168.68142500000022
 30
0.0
 11
317.76811388888916
 21
171.6818000000001
 31
0.0
  0
LINE
  5
21F
330
17
100
AcDbEntity
  8
CUT
100
AcDbLine
 10
325.76981944444464
 20
171.6818000000001
 30
0.0
 11
325.76981944444464
 21
168.68142500000022
 31
0.0
  0
LINE
  5
220
330
17
100
AcDbEntity
  8
ENGRAVE
100
AcDbLine
 10
303.2689896906471
 20
229.03323121334725
 30
0.0
 11
303.2689896906471
 21
231.83318848873787
 31
0.0
  0
LINE
  5
221
330
17
100
AcDbEntity
  8
ENGRAVE
100
AcDbLine
 10
303.2689896906471
 20
231.83318848873787
 30
0.0
 11
301.8690110529518
 21
232.53317780758553
 31
0.0
  0
LINE
  5
222
330
17
100
AcDbEntity
  8
ENGRAVE
100
AcDbLine
 10
301.8690110529518
 20
232.53317780758553
 30
0.0
 11
297.66907513986587
 21
232.53317780758553
 31
0.0
  0
LINE
  5
223
330
17
100
AcDbEntity
  8
ENGRAVE
100
AcDbLine
 10
297.66907513986587
 20
232.53317780758553
 30
0.0
 11
296.26909650217056
 21
231.83318848873787
 31
0.0
  0
LINE
  5
224
330
17
100
AcDbEntity
  8
ENGRAVE
100
AcDbLine
 10
296.26909650217056
 20
231.83318848873787
 30
0.0
 11
296.26909650217056
 21
229.03323121334725
 31
0.0
  0
LINE
  5
225
330
17
100
AcDbEntity
  8
ENGRAVE
100
AcDbLine
 10
296.26909650217056
 20
229.03323121334725
 30
0.0
 11
297.66907513986587
 21
228.3332418944996
 31
0.0
  0
LINE
  5
226
330
17
100
AcDbEntity
  8
ENGRAVE
100
AcDbLine
 10
297.66907513986587
 20
228.3332418944996
 30
0.0
 11
301.8690110529518
 21
228.3332418944996
 31
0.0
  0
LINE
  5
227
330
17
100
AcDbEntity
  8
ENGRAVE
100
AcDbLine
 10
301.8690110529518
 20
228.3332418944996
 30
0.0
 11
303.2689896906471
 21
229.03323121334725
 31
0.0
  0
LINE
  5
228
330
17
100
AcDbEntity
  8
ENGRAVE
100
AcDbLine
 10
303.2689896906471
 20
234.6331457641285
 30
0.0
 11
303.2689896906471
 21
236.73311372067147
 31
0.0
  0
LINE
  5
229
330
17
100
AcDbEntity
  8
ENGRAVE
100
AcDbLine
 10
303.2689896906471
 20
236.73311372067147
 30
0.0
 11
301.16902173410415
 21
238.13309235836678
 31
0.0
  0
LINE
  5
22A
330
17
100
AcDbEntity
  8
ENGRAVE
100
AcDbLine
 10
301.16902173410415
 20
238.13309235836678
 30
0.0
 11
297.66907513986587
 21
238.13309235836678
 31
0.0
  0
LINE
  5
22B
330
17
100
AcDbEntity
  8
ENGRAVE
100
AcDbLine
 10
297.66907513986587
 20
238.13309235836678
 30
0.0
 11
296.26909650217056
 21
237.43310303951912
 31
0.0
  0
LINE
  5
22C
330
17
100
AcDbEntity
  8
ENGRAVE
100
AcDbLine
 10
296.26909650217056
 20
237.43310303951912
 30
0.0
 11
296.26909650217056
 21
234.6331457641285
 31
0.0
  0
LINE
  5
22D
330
17
100
AcDbEntity
  8
ENGRAVE
100
AcDbLine
 10
296.26909650217056
 20
234.6331457641285
 30
0.0
 11
297.66907513986587
 21
233.93315644528084
 31
0.0
  0
LINE
  5
22E
330
17
100
AcDbEntity
  8
ENGRAVE
100
AcDbLine
 10
297.66907513986587
 20
233.93315644528084
 30
0.0
 11
298.71905911813735
 21
233.93315644528084
 31
0.0
  0
LINE
  5
22F
330
17
100
AcDbEntity
  8
ENGRAVE
100
AcDbLine
 10
298.71905911813735
 20
233.93315644528084
 30
0.0
 11
299.76904309640884
 21
234.6331457641285
 31
0.0
  0
LINE
  5
230
330
17
100
AcDbEntity
  8
ENGRAVE
100
AcDbLine
 10
299.76904309640884
 20
234.6331457641285
 30
0.0
 11
299.76904309640884
 21
237.43310303951912
 31
0.0
  0
LINE
  5
231
330
17
100
AcDbEntity
  8
ENGRAVE
100
AcDbLine
 10
299.76904309640884
 20
237.43310303951912
 30
0.0
 11
298.71905911813735
 21
238.13309235836678
 31
0.0
  0
LINE
  5
232
330
17
100
AcDbEntity
  8
CUT
100
AcDbLine
 10
384.0176416666669
 20
271.7345166666667
 30
0.0
 11
374.0156861111112
 21
271.7345166666667
 31
0.0
  0
LINE
  5
233
330
17
100
AcDbEntity
  8
CUT
100
AcDbLine
 10
394.01959722222256
 20
268.733788888889
 30
0.0
 11
384.0176416666669
 21
268.733788888889
 31
0.0
  0
LINE
  5
234
330
17
100
AcDbEntity
  8
CUT
100
AcDbLine
 10
336.77117222222245
 20
164.7292555555556
 30
0.0
 11
394.01959722222256
 21
164.7292555555556
 31
0.0
  0
LINE
  5
235
330
17
100
AcDbEntity
  8
CUT
100
AcDbLine
 10
346.77312777777803
 20
268.733788888889
 30
0.0
 11
336.77117222222245
 21
268.733788888889
 31
0.0
  0
LINE
  5
236
330
17
100
AcDbEntity
  8
CUT
100
AcDbLine
 10
374.0156861111112
 20
268.733788888889
 30
0.0
 11
356.77508333333355
 21
268.733788888889
 31
0.0
  0
LINE
  5
237
330
17
100
AcDbEntity
  8
CUT
100
AcDbLine
 10
356.77508333333355
 20
271.7345166666667
 30
0.0
 11
346.77312777777803
 21
271.7345166666667
 31
0.0
  0
LINE
  5
238
330
17
100
AcDbEntity
  8
CUT
100
AcDbLine
 10
336.77117222222245
 20
268.733788888889
 30
0.0
 11
336.77117222222245
 21
164.7292555555556
 31
0.0
  0
LINE
  5
239
330
17
100
AcDbEntity
  8
CUT
100
AcDbLine
 10
384.0176416666669
 20
268.733788888889
 30
0.0
 11
384.0176416666669
 21
271.7345166666667
 31
0.0
  0
LINE
  5
23A
330
17
100
AcDbEntity
  8
CUT
100
AcDbLine
 10
374.0156861111112
 20
271.7345166666667
 30
0.0
 11
374.0156861111112
 21
268.733788888889
 31
0.0
  0
LINE
  5
23B
330
17
100
AcDbEntity
  8
CUT
100
AcDbLine
 10
346.77312777777803
 20
271.7345166666667
 30
0.0
 11
346.77312777777803
 21
268.733788888889
 31
0.0
  0
LINE
  5
23C
330
17
100
AcDbEntity
  8
CUT
100
AcDbLine
 10
394.01959722222256
 20
164.7292555555556
 30
0.0
 11
394.01959722222256
 21
268.733788888889
 31
0.0
  0
LINE
  5
23D
330
17
100
AcDbEntity
  8
CUT
100
AcDbLine
 10
356.77508333333355
 20
268.733788888889
 30
0.0
 11
356.77508333333355
 21
271.7345166666667
 31
0.0
  0
LINE
  5
23E
330
17
100
AcDbEntity
  8
CUT
100
AcDbLine
 10
375.0158111111113
 20
171.6814472222223
 30
0.0
 11
383.01751666666695
 21
171.6814472222223
 31
0.0
  0
LINE
  5
23F
330
17
100
AcDbEntity
  8
CUT
100
AcDbLine
 10
383.01751666666695
 20
168.68107222222233
 30
0.0
 11
375.0158111111113
 21
168.68107222222233
 31
0.0
  0
LINE
  5
240
330
17
100
AcDbEntity
  8
CUT
100
AcDbLine
 10
375.0158111111113
 20
168.68107222222233
 30
0.0
 11
375.0158111111113
 21
171.6814472222223
 31
0.0
  0
LINE
  5
241
330
17
100
AcDbEntity
  8
CUT
100
AcDbLine
 10
383.01751666666695
 20
171.6814472222223
 30
0.0
 11
383.01751666666695
 21
168.68107222222233
 31
0.0
  0
LINE
  5
242
330
17
100
AcDbEntity
  8
CUT
100
AcDbLine
 10
344.77252500000026
 20
171.6814472222223
 30
0.0
 11
352.7742305555556
 21
171.6814472222223
 31
0.0
  0
LINE
  5
243
330
17
100
AcDbEntity
  8
CUT
100
AcDbLine
 10
352.7742305555556
 20
168.68107222222233
 30
0.0
 11
344.77252500000026
 21
168.68107222222233
 31
0.0
  0
LINE
  5
244
330
17
100
AcDbEntity
  8
CUT
100
AcDbLine
 10
352.7742305555556
 20
171.6814472222223
 30
0.0
 11
352.7742305555556
 21
168.68107222222233
 31
0.0
  0
LINE
  5
245
330
17
100
AcDbEntity
  8
CUT
100
AcDbLine
 10
344.77252500000026
 20
168.68107222222233
 30
0.0
 11
344.77252500000026
 21
171.6814472222223
 31
0.0
  0
LINE
  5
246
330
17
100
AcDbEntity
  8
ENGRAVE
100
AcDbLine
 10
363.9179536295886
 20
236.5327580251709
 30
0.0
 11
362.5179749918933
 21
237.9327366628662
 31
0.0
  0
LINE
  5
247
330
17
100
AcDbEntity
  8
ENGRAVE
100
AcDbLine
 10
362.5179749918933
 20
237.9327366628662
 30
0.0
 11
369.5178681803699
 21
237.9327366628662
 31
0.0
  0
LINE
  5
248
330
17
100
AcDbEntity
  8
ENGRAVE
100
AcDbLine
 10
369.5178681803699
 20
236.5327580251709
 30
0.0
 11
369.5178681803699
 21
239.33271530056152
 31
0.0
  0
LINE
  5
249
330
17
100
AcDbEntity
  8
ENGRAVE
100
AcDbLine
 10
369.5178681803699
 20
242.13267257595214
 30
0.0
 11
369.5178681803699
 21
244.93262985134277
 31
0.0
  0
LINE
  5
24A
330
17
100
AcDbEntity
  8
ENGRAVE
100
AcDbLine
 10
369.5178681803699
 20
244.93262985134277
 30
0.0
 11
368.11788954267456
 21
245.63261917019042
 31
0.0
  0
LINE
  5
24B
330
17
100
AcDbEntity
  8
ENGRAVE
100
AcDbLine
 10
368.11788954267456
 20
245.63261917019042
 30
0.0
 11
363.9179536295886
 21
245.63261917019042
 31
0.0
  0
LINE
  5
24C
330
17
100
AcDbEntity
  8
ENGRAVE
100
AcDbLine
 10
363.9179536295886
 20
245.63261917019042
 30
0.0
 11
362.5179749918933
 21
244.93262985134277
 31
0.0
  0
LINE
  5
24D
330
17
100
AcDbEntity
  8
ENGRAVE
100
AcDbLine
 10
362.5179749918933
 20
244.93262985134277
 30
0.0
 11
362.5179749918933
 21
242.13267257595214
 31
0.0
  0
LINE
  5
24E
330
17
100
AcDbEntity
  8
ENGRAVE
100
AcDbLine
 10
362.5179749918933
 20
242.13267257595214
 30
0.0
 11
363.9179536295886
 21
241.4326832571045
 31
0.0
  0
LINE
  5
24F
330
17
100
AcDbEntity
  8
ENGRAVE
100
AcDbLine
 10
363.9179536295886
 20
241.4326832571045
 30
0.0
 11
368.11788954267456
 21
241.4326832571045
 31
0.0
  0
LINE
  5
250
330
17
100
AcDbEntity
  8
ENGRAVE
100
AcDbLine
 10
368.11788954267456
 20
241.4326832571045
 30
0.0
 11
369.5178681803699
 21
242.13267257595214
 31
0.0
  0
LINE
  5
251
330
17
100
AcDbEntity
  8
CUT
100
AcDbLine
 10
426.46531944444456
 20
381.7397777777778
 30
0.0
 11
416.46336388888886
 21
381.7397777777778
 31
0.0
  0
LINE
  5
252
330
17
100
AcDbEntity
  8
CUT
100
AcDbLine
 10
436.4672750000002
 20
378.73905000000013
 30
0.0
 11
426.46531944444456
 21
378.73905000000013
 31
0.0
  0
LINE
  5
253
330
17
100
AcDbEntity
  8
CUT
100
AcDbLine
 10
379.2188500000001
 20
274.7345166666667
 30
0.0
 11
436.4672750000002
 21
274.7345166666667
 31
0.0
  0
LINE
  5
254
330
17
100
AcDbEntity
  8
CUT
100
AcDbLine
 10
389.22080555555567
 20
378.73905000000013
 30
0.0
 11
379.2188500000001
 21
378.73905000000013
 31
0.0
  0
LINE
  5
255
330
17
100
AcDbEntity
  8
CUT
100
AcDbLine
 10
416.46336388888886
 20
378.73905000000013
 30
0.0
 11
399.2227611111112
 21
378.73905000000013
 31
0.0
  0
LINE
  5
256
330
17
100
AcDbEntity
  8
CUT
100
AcDbLine
 10
399.2227611111112
 20
381.7397777777778
 30
0.0
 11
389.22080555555567
 21
381.7397777777778
 31
0.0
  0
LINE
  5
257
330
17
100
AcDbEntity
  8
CUT
100
AcDbLine
 10
379.2188500000001
 20
378.73905000000013
 30
0.0
 11
379.2188500000001
 21
274.7345166666667
 31
0.0
  0
LINE
  5
258
330
17
100
AcDbEntity
  8
CUT
100
AcDbLine
 10
426.46531944444456
 20
378.73905000000013
 30
0.0
 11
426.46531944444456
 21
381.7397777777778
 31
0.0
  0
LINE
  5
259
330
17
100
AcDbEntity
  8
CUT
100
AcDbLine
 10
416.46336388888886
 20
381.7397777777778
 30
0.0
 11
416.46336388888886
 21
378.73905000000013
 31
0.0
  0
LINE
  5
25A
330
17
100
AcDbEntity
  8
CUT
100
AcDbLine
 10
389.22080555555567
 20
381.7397777777778
 30
0.0
 11
389.22080555555567
 21
378.73905000000013
 31
0.0
  0
LINE
  5
25B
330
17
100
AcDbEntity
  8
CUT
100
AcDbLine
 10
436.4672750000002
 20
274.7345166666667
 30
0.0
 11
436.4672750000002
 21
378.73905000000013
 31
0.0
  0
LINE
  5
25C
330
17
100
AcDbEntity
  8
CUT
100
AcDbLine
 10
399.2227611111112
 20
378.73905000000013
 30
0.0
 11
399.2227611111112
 21
381.7397777777778
 31
0.0
  0
LINE
  5
25D
330
17
100
AcDbEntity
  8
CUT
100
AcDbLine
 10
417.46348888888895
 20
281.6867083333334
 30
0.0
 11
425.4651944444446
 21
281.6867083333334
 31
0.0
  0
LINE
  5
25E
330
17
100
AcDbEntity
  8
CUT
100
AcDbLine
 10
425.4651944444446
 20
278.68633333333344
 30
0.0
 11
417.46348888888895
 21
278.68633333333344
 31
0.0
  0
LINE
  5
25F
330
17
100
AcDbEntity
  8
CUT
100
AcDbLine
 10
417.46348888888895
 20
278.68633333333344
 30
0.0
 11
417.46348888888895
 21
281.6867083333334
 31
0.0
  0
LINE
  5
260
330
17
100
AcDbEntity
  8
CUT
100
AcDbLine
 10
425.4651944444446
 20
281.6867083333334
 30
0.0
 11
425.4651944444446
 21
278.68633333333344
 31
0.0
  0
LINE
  5
261
330
17
100
AcDbEntity
  8
CUT
100
AcDbLine
 10
387.2202027777779
 20
281.6867083333334
 30
0.0
 11
395.22190833333326
 21
281.6867083333334
 31
0.0
  0
LINE
  5
262
330
17
100
AcDbEntity
  8
CUT
100
AcDbLine
 10
395.22190833333326
 20
278.68633333333344
 30
0.0
 11
387.2202027777779
 21
278.68633333333344
 31
0.0
  0
LINE
  5
263
330
17
100
AcDbEntity
  8
CUT
100
AcDbLine
 10
395.22190833333326
 20
281.6867083333334
 30
0.0
 11
395.22190833333326
 21
278.68633333333344
 31
0.0
  0
LINE
  5
264
330
17
100
AcDbEntity
  8
CUT
100
AcDbLine
 10
387.2202027777779
 20
278.68633333333344
 30
0.0
 11
387.2202027777779
 21
281.6867083333334
 31
0.0
  0
LINE
  5
265
330
17
100
AcDbEntity
  8
ENGRAVE
100
AcDbLine
 10
406.36563140736627
 20
346.538019136282
 30
0.0
 11
404.96565276967095
 21
347.9379977739773
 31
0.0
  0
LINE
  5
266
330
17
100
AcDbEntity
  8
ENGRAVE
100
AcDbLine
 10
404.96565276967095
 20
347.9379977739773
 30
0.0
 11
411.9655459581475
 21
347.9379977739773
 31
0.0
  0
LINE
  5
267
330
17
100
AcDbEntity
  8
ENGRAVE
100
AcDbLine
 10
411.9655459581475
 20
346.538019136282
 30
0.0
 11
411.9655459581475
 21
349.3379764116726
 31
0.0
  0
LINE
  5
268
330
17
100
AcDbEntity
  8
ENGRAVE
100
AcDbLine
 10
411.9655459581475
 20
352.13793368706325
 30
0.0
 11
411.9655459581475
 21
354.9378909624539
 31
0.0
  0
LINE
  5
269
330
17
100
AcDbEntity
  8
ENGRAVE
100
AcDbLine
 10
411.9655459581475
 20
354.9378909624539
 30
0.0
 11
410.5655673204522
 21
355.63788028130153
 31
0.0
  0
LINE
  5
26A
330
17
100
AcDbEntity
  8
ENGRAVE
100
AcDbLine
 10
410.5655673204522
 20
355.63788028130153
 30
0.0
 11
406.36563140736627
 21
355.63788028130153
 31
0.0
  0
LINE
  5
26B
330
17
100
AcDbEntity
  8
ENGRAVE
100
AcDbLine
 10
406.36563140736627
 20
355.63788028130153
 30
0.0
 11
404.96565276967095
 21
354.9378909624539
 31
0.0
  0
LINE
  5
26C
330
17
100
AcDbEntity
  8
ENGRAVE
100
AcDbLine
 10
404.96565276967095
 20
354.9378909624539
 30
0.0
 11
404.96565276967095
 21
352.13793368706325
 31
0.0
  0
LINE
  5
26D
330
17
100
AcDbEntity
  8
ENGRAVE
100
AcDbLine
 10
404.96565276967095
 20
352.13793368706325
 30
0.0
 11
406.36563140736627
 21
351.4379443682156
 31
0.0
  0
LINE
  5
26E
330
17
100
AcDbEntity
  8
ENGRAVE
100
AcDbLine
 10
406.36563140736627
 20
351.4379443682156
 30
0.0
 11
410.5655673204522
 21
351.4379443682156
 31
0.0
  0
LINE
  5
26F
330
17
100
AcDbEntity
  8
ENGRAVE
100
AcDbLine
 10
410.5655673204522
 20
351.4379443682156
 30
0.0
 11
411.9655459581475
 21
352.13793368706325
 31
0.0
  0
LINE
  5
270
330
17
100
AcDbEntity
  8
CUT
100
AcDbLine
 10
426.46531944444456
 20
113.50526111111111
 30
0.0
 11
416.46336388888886
 21
113.50526111111111
 31
0.0
  0
LINE
  5
271
330
17
100
AcDbEntity
  8
CUT
100
AcDbLine
 10
436.4672750000002
 20
110.50453333333343
 30
0.0
 11
426.46531944444456
 21
110.50453333333343
 31
0.0
  0
LINE
  5
272
330
17
100
AcDbEntity
  8
CUT
100
AcDbLine
 10
379.2188500000001
 20
6.5
 30
0.0
 11
436.4672750000002
 21
6.5
 31
0.0
  0
LINE
  5
273
330
17
100
AcDbEntity
  8
CUT
100
AcDbLine
 10
389.22080555555567
 20
110.50453333333343
 30
0.0
 11
379.2188500000001
 21
110.50453333333343
 31
0.0
  0
LINE
  5
274
330
17
100
AcDbEntity
  8
CUT
100
AcDbLine
 10
416.46336388888886
 20
110.50453333333343
 30
0.0
 11
399.2227611111112
 21
110.50453333333343
 31
0.0
  0
LINE
  5
275
330
17
100
AcDbEntity
  8
CUT
100
AcDbLine
 10
399.2227611111112
 20
113.50526111111111
 30
0.0
 11
389.22080555555567
 21
113.50526111111111
 31
0.0
  0
LINE
  5
276
330
17
100
AcDbEntity
  8
CUT
100
AcDbLine
 10
379.2188500000001
 20
110.50453333333343
 30
0.0
 11
379.2188500000001
 21
6.5
 31
0.0
  0
LINE
  5
277
330
17
100
AcDbEntity
  8
CUT
100
AcDbLine
 10
426.46531944444456
 20
110.50453333333343
 30
0.0
 11
426.46531944444456
 21
113.50526111111111
 31
0.0
  0
LINE
  5
278
330
17
100
AcDbEntity
  8
CUT
100
AcDbLine
 10
416.46336388888886
 20
113.50526111111111
 30
0.0
 11
416.46336388888886
 21
110.50453333333343
 31
0.0
  0
LINE
  5
279
330
17
100
AcDbEntity
  8
CUT
100
AcDbLine
 10
389.22080555555567
 20
113.50526111111111
 30
0.0
 11
389.22080555555567
 21
110.50453333333343
 31
0.0
  0
LINE
  5
27A
330
17
100
AcDbEntity
  8
CUT
100
AcDbLine
 10
436.4672750000002
 20
6.5
 30
0.0
 11
436.4672750000002
 21
110.50453333333343
 31
0.0
  0
LINE
  5
27B
330
17
100
AcDbEntity
  8
CUT
100
AcDbLine
 10
399.2227611111112
 20
110.50453333333343
 30
0.0
 11
399.2227611111112
 21
113.50526111111111
 31
0.0
  0
LINE
  5
27C
330
17
100
AcDbEntity
  8
CUT
100
AcDbLine
 10
417.46348888888895
 20
13.452191666666693
 30
0.0
 11
425.4651944444446
 21
13.452191666666693
 31
0.0
  0
LINE
  5
27D
330
17
100
AcDbEntity
  8
CUT
100
AcDbLine
 10
425.4651944444446
 20
10.45181666666673
 30
0.0
 11
417.46348888888895
 21
10.45181666666673
 31
0.0
  0
LINE
  5
27E
330
17
100
AcDbEntity
  8
CUT
100
AcDbLine
 10
417.46348888888895
 20
10.45181666666673
 30
0.0
 11
417.46348888888895
 21
13.452191666666693
 31
0.0
  0
LINE
  5
27F
330
17
100
AcDbEntity
  8
CUT
100
AcDbLine
 10
425.4651944444446
 20
13.452191666666693
 30
0.0
 11
425.4651944444446
 21
10.45181666666673
 31
0.0
  0
LINE
  5
280
330
17
100
AcDbEntity
  8
CUT
100
AcDbLine
 10
387.2202027777779
 20
13.452191666666693
 30
0.0
 11
395.22190833333326
 21
13.452191666666693
 31
0.0
  0
LINE
  5
281
330
17
100
AcDbEntity
  8
CUT
100
AcDbLine
 10
395.22190833333326
 20
10.45181666666673
 30
0.0
 11
387.2202027777779
 21
10.45181666666673
 31
0.0
  0
LINE
  5
282
330
17
100
AcDbEntity
  8
CUT
100
AcDbLine
 10
395.22190833333326
 20
13.452191666666693
 30
0.0
 11
395.22190833333326
 21
10.45181666666673
 31
0.0
  0
LINE
  5
283
330
17
100
AcDbEntity
  8
CUT
100
AcDbLine
 10
387.2202027777779
 20
10.45181666666673
 30
0.0
 11
387.2202027777779
 21
13.452191666666693
 31
0.0
  0
LINE
  5
284
330
17
100
AcDbEntity
  8
ENGRAVE
100
AcDbLine
 10
406.36563140736627
 20
78.3035024696153
 30
0.0
 11
404.96565276967095
 21
79.70348110731061
 31
0.0
  0
LINE
  5
285
330
17
100
AcDbEntity
  8
ENGRAVE
100
AcDbLine
 10
404.96565276967095
 20
79.70348110731061
 30
0.0
 11
411.9655459581475
 21
79.70348110731061
 31
0.0
  0
LINE
  5
286
330
17
100
AcDbEntity
  8
ENGRAVE
100
AcDbLine
 10
411.9655459581475
 20
78.3035024696153
 30
0.0
 11
411.9655459581475
 21
81.10345974500592
 31
0.0
  0
LINE
  5
287
330
17
100
AcDbEntity
  8
ENGRAVE
100
AcDbLine
 10
411.9655459581475
 20
83.90341702039655
 30
0.0
 11
411.9655459581475
 21
86.70337429578717
 31
0.0
  0
LINE
  5
288
330
17
100
AcDbEntity
  8
ENGRAVE
100
AcDbLine
 10
411.9655459581475
 20
86.70337429578717
 30
0.0
 11
410.5655673204522
 21
87.40336361463483
 31
0.0
  0
LINE
  5
289
330
17
100
AcDbEntity
  8
ENGRAVE
100
AcDbLine
 10
410.5655673204522
 20
87.40336361463483
 30
0.0
 11
406.36563140736627
 21
87.40336361463483
 31
0.0
  0
LINE
  5
28A
330
17
100
AcDbEntity
  8
ENGRAVE
100
AcDbLine
 10
406.36563140736627
 20
87.40336361463483
 30
0.0
 11
404.96565276967095
 21
86.70337429578717
 31
0.0
  0
LINE
  5
28B
330
17
100
AcDbEntity
  8
ENGRAVE
100
AcDbLine
 10
404.96565276967095
 20
86.70337429578717
 30
0.0
 11
404.96565276967095
 21
83.90341702039655
 31
0.0
  0
LINE
  5
28C
330
17
100
AcDbEntity
  8
ENGRAVE
100
AcDbLine
 10
404.96565276967095
 20
83.90341702039655
 30
0.0
 11
406.36563140736627
 21
83.20342770154889
 31
0.0
  0
LINE
  5
28D
330
17
100
AcDbEntity
  8
ENGRAVE
100
AcDbLine
 10
406.36563140736627
 20
83.20342770154889
 30
0.0
 11
410.5655673204522
 21
83.20342770154889
 31
0.0
  0
LINE
  5
28E
330
17
100
AcDbEntity
  8
ENGRAVE
100
AcDbLine
 10
410.5655673204522
 20
83.20342770154889
 30
0.0
 11
411.9655459581475
 21
83.90341702039655
 31
0.0
  0
LINE
  5
28F
330
17
100
AcDbEntity
  8
CUT
100
AcDbLine
 10
406.1378888888893
 20
422.82460833333334
 30
0.0
 11
406.1378888888893
 21
430.8259611111111
 31
0.0
  0
LINE
  5
290
330
17
100
AcDbEntity
  8
CUT
100
AcDbLine
 10
403.13716111111137
 20
430.8259611111111
 30
0.0
 11
403.13716111111137
 21
442.2944138888889
 31
0.0
  0
LINE
  5
291
330
17
100
AcDbEntity
  8
CUT
100
AcDbLine
 10
403.13716111111137
 20
384.7397777777778
 30
0.0
 11
403.13716111111137
 21
392.7411305555556
 31
0.0
  0
LINE
  5
292
330
17
100
AcDbEntity
  8
CUT
100
AcDbLine
 10
342.66470000000027
 20
442.2944138888889
 30
0.0
 11
342.66470000000027
 21
384.7397777777778
 31
0.0
  0
LINE
  5
293
330
17
100
AcDbEntity
  8
CUT
100
AcDbLine
 10
406.1378888888893
 20
392.7411305555556
 30
0.0
 11
406.1378888888893
 21
400.7428361111111
 31
0.0
  0
LINE
  5
294
330
17
100
AcDbEntity
  8
CUT
100
AcDbLine
 10
403.13716111111137
 20
400.7428361111111
 30
0.0
 11
403.13716111111137
 21
422.82460833333334
 31
0.0
  0
LINE
  5
295
330
17
100
AcDbEntity
  8
CUT
100
AcDbLine
 10
406.1378888888893
 20
430.8259611111111
 30
0.0
 11
403.13716111111137
 21
430.8259611111111
 31
0.0
  0
LINE
  5
296
330
17
100
AcDbEntity
  8
CUT
100
AcDbLine
 10
342.66470000000027
 20
384.7397777777778
 30
0.0
 11
403.13716111111137
 21
384.7397777777778
 31
0.0
  0
LINE
  5
297
330
17
100
AcDbEntity
  8
CUT
100
AcDbLine
 10
403.13716111111137
 20
392.7411305555556
 30
0.0
 11
406.1378888888893
 21
392.7411305555556
 31
0.0
  0
LINE
  5
298
330
17
100
AcDbEntity
  8
CUT
100
AcDbLine
 10
403.13716111111137
 20
422.82460833333334
 30
0.0
 11
406.1378888888893
 21
422.82460833333334
 31
0.0
  0
LINE
  5
299
330
17
100
AcDbEntity
  8
CUT
100
AcDbLine
 10
403.13716111111137
 20
442.2944138888889
 30
0.0
 11
342.66470000000027
 21
442.2944138888889
 31
0.0
  0
LINE
  5
29A
330
17
100
AcDbEntity
  8
CUT
100
AcDbLine
 10
406.1378888888893
 20
400.7428361111111
 30
0.0
 11
403.13716111111137
 21
400.7428361111111
 31
0.0
  0
LINE
  5
29B
330
17
100
AcDbEntity
  8
CUT
100
AcDbLine
 10
349.046802777778
 20
392.7411305555556
 30
0.0
 11
349.046802777778
 21
400.7428361111111
 31
0.0
  0
LINE
  5
29C
330
17
100
AcDbEntity
  8
CUT
100
AcDbLine
 10
352.0471777777782
 20
400.7428361111111
 30
0.0
 11
352.0471777777782
 21
392.7411305555556
 31
0.0
  0
LINE
  5
29D
330
17
100
AcDbEntity
  8
CUT
100
AcDbLine
 10
352.0471777777782
 20
392.7411305555556
 30
0.0
 11
349.046802777778
 21
392.7411305555556
 31
0.0
  0
LINE
  5
29E
330
17
100
AcDbEntity
  8
CUT
100
AcDbLine
 10
349.046802777778
 20
400.7428361111111
 30
0.0
 11
352.0471777777782
 21
400.7428361111111
 31
0.0
  0
LINE
  5
29F
330
17
100
AcDbEntity
  8
CUT
100
AcDbLine
 10
349.046802777778
 20
420.0150861111111
 30
0.0
 11
349.046802777778
 21
428.0164388888889
 31
0.0
  0
LINE
  5
2A0
330
17
100
AcDbEntity
  8
CUT
100
AcDbLine
 10
352.0471777777782
 20
428.0164388888889
 30
0.0
 11
352.0471777777782
 21
420.0150861111111
 31
0.0
  0
LINE
  5
2A1
330
17
100
AcDbEntity
  8
CUT
100
AcDbLine
 10
349.046802777778
 20
428.0164388888889
 30
0.0
 11
352.0471777777782
 21
428.0164388888889
 31
0.0
  0
LINE
  5
2A2
330
17
100
AcDbEntity
  8
CUT
100
AcDbLine
 10
352.0471777777782
 20
420.0150861111111
 30
0.0
 11
349.046802777778
 21
420.0150861111111
 31
0.0
  0
LINE
  5
2A3
330
17
100
AcDbEntity
  8
ENGRAVE
100
AcDbLine
 10
372.8358941279191
 20
414.1854475573306
 30
0.0
 11
374.23587276561443
 21
415.5854261950259
 31
0.0
  0
LINE
  5
2A4
330
17
100
AcDbEntity
  8
ENGRAVE
100
AcDbLine
 10
374.23587276561443
 20
415.5854261950259
 30
0.0
 11
374.23587276561443
 21
408.5855330065493
 31
0.0
  0
LINE
  5
2A5
330
17
100
AcDbEntity
  8
ENGRAVE
100
AcDbLine
 10
372.8358941279191
 20
408.5855330065493
 30
0.0
 11
375.63585140330974
 21
408.5855330065493
 31
0.0
  0
LINE
  5
2A6
330
17
100
AcDbEntity
  8
ENGRAVE
100
AcDbLine
 10
377.7358193598527
 20
414.88543687617823
 30
0.0
 11
378.43580867870037
 21
415.5854261950259
 31
0.0
  0
LINE
  5
2A7
330
17
100
AcDbEntity
  8
ENGRAVE
100
AcDbLine
 10
378.43580867870037
 20
415.5854261950259
 30
0.0
 11
381.235765954091
 21
415.5854261950259
 31
0.0
  0
LINE
  5
2A8
330
17
100
AcDbEntity
  8
ENGRAVE
100
AcDbLine
 10
381.235765954091
 20
415.5854261950259
 30
0.0
 11
381.93575527293865
 21
414.88543687617823
 31
0.0
  0
LINE
  5
2A9
330
17
100
AcDbEntity
  8
ENGRAVE
100
AcDbLine
 10
381.93575527293865
 20
414.88543687617823
 30
0.0
 11
381.93575527293865
 21
413.20546251094385
 31
0.0
  0
LINE
  5
2AA
330
17
100
AcDbEntity
  8
ENGRAVE
100
AcDbLine
 10
381.93575527293865
 20
413.20546251094385
 30
0.0
 11
381.235765954091
 21
412.5054731920962
 31
0.0
  0
LINE
  5
2AB
330
17
100
AcDbEntity
  8
ENGRAVE
100
AcDbLine
 10
381.235765954091
 20
412.5054731920962
 30
0.0
 11
379.135797997548
 21
412.5054731920962
 31
0.0
  0
LINE
  5
2AC
330
17
100
AcDbEntity
  8
ENGRAVE
100
AcDbLine
 10
381.235765954091
 20
412.5054731920962
 30
0.0
 11
381.93575527293865
 21
411.80548387324853
 31
0.0
  0
LINE
  5
2AD
330
17
100
AcDbEntity
  8
ENGRAVE
100
AcDbLine
 10
381.93575527293865
 20
411.80548387324853
 30
0.0
 11
381.93575527293865
 21
409.285522325397
 31
0.0
  0
LINE
  5
2AE
330
17
100
AcDbEntity
  8
ENGRAVE
100
AcDbLine
 10
381.93575527293865
 20
409.285522325397
 30
0.0
 11
381.235765954091
 21
408.5855330065493
 31
0.0
  0
LINE
  5
2AF
330
17
100
AcDbEntity
  8
ENGRAVE
100
AcDbLine
 10
381.235765954091
 20
408.5855330065493
 30
0.0
 11
378.43580867870037
 21
408.5855330065493
 31
0.0
  0
LINE
  5
2B0
330
17
100
AcDbEntity
  8
ENGRAVE
100
AcDbLine
 10
378.43580867870037
 20
408.5855330065493
 30
0.0
 11
377.7358193598527
 21
409.285522325397
 31
0.0
  0
LINE
  5
2B1
330
17
100
AcDbEntity
  8
CUT
100
AcDbLine
 10
400.02032500000024
 20
116.50526111111111
 30
0.0
 11
400.02032500000024
 21
120.50611388888892
 31
0.0
  0
LINE
  5
2B2
330
17
100
AcDbEntity
  8
CUT
100
AcDbLine
 10
429.60285833333364
 20
120.50611388888892
 30
0.0
 11
429.60285833333364
 21
215.5582055555555
 31
0.0
  0
LINE
  5
2B3
330
17
100
AcDbEntity
  8
CUT
100
AcDbLine
 10
400.02032500000024
 20
215.5582055555555
 30
0.0
 11
400.02032500000024
 21
219.5590583333333
 31
0.0
  0
LINE
  5
2B4
330
17
100
AcDbEntity
  8
CUT
100
AcDbLine
 10
397.01959722222256
 20
219.5590583333333
 30
0.0
 11
397.01959722222256
 21
116.50526111111111
 31
0.0
  0
LINE
  5
2B5
330
17
100
AcDbEntity
  8
CUT
100
AcDbLine
 10
397.01959722222256
 20
116.50526111111111
 30
0.0
 11
400.02032500000024
 21
116.50526111111111
 31
0.0
  0
LINE
  5
2B6
330
17
100
AcDbEntity
  8
CUT
100
AcDbLine
 10
400.02032500000024
 20
219.5590583333333
 30
0.0
 11
397.01959722222256
 21
219.5590583333333
 31
0.0
  0
LINE
  5
2B7
330
17
100
AcDbEntity
  8
CUT
100
AcDbLine
 10
429.60285833333364
 20
215.5582055555555
 30
0.0
 11
400.02032500000024
 21
215.5582055555555
 31
0.0
  0
LINE
  5
2B8
330
17
100
AcDbEntity
  8
CUT
100
AcDbLine
 10
400.02032500000024
 20
120.50611388888892
 30
0.0
 11
429.60285833333364
 21
120.50611388888892
 31
0.0
  0
LINE
  5
2B9
330
17
100
AcDbEntity
  8
CUT
100
AcDbLine
 10
414.31135277777804
 20
215.5582055555555
 30
0.0
 11
414.31135277777804
 21
120.50611388888892
 31
0.0
  0
LINE
  5
2BA
330
17
100
AcDbEntity
  8
CUT
100
AcDbLine
 10
404.11748611111136
 20
215.5582055555555
 30
0.0
 11
404.11748611111136
 21
120.50611388888892
 31
0.0
  0
LINE
  5
2BB
330
17
100
AcDbEntity
  8
CUT
100
AcDbLine
 10
409.21441944444473
 20
215.5582055555555
 30
0.0
 11
409.21441944444473
 21
120.50611388888892
 31
0.0
  0
LINE
  5
2BC
330
17
100
AcDbEntity
  8
CUT
100
AcDbLine
 10
419.40863888888913
 20
215.5582055555555
 30
0.0
 11
419.40863888888913
 21
120.50611388888892
 31
0.0
  0
LINE
  5
2BD
330
17
100
AcDbEntity
  8
CUT
100
AcDbLine
 10
399.0202000000002
 20
215.5582055555555
 30
0.0
 11
399.0202000000002
 21
120.50611388888892
 31
0.0
  0
LINE
  5
2BE
330
17
100
AcDbEntity
  8
CUT
100
AcDbLine
 10
424.5059250000002
 20
215.5582055555555
 30
0.0
 11
424.5059250000002
 21
120.50611388888892
 31
0.0
  0
LINE
  5
2BF
330
17
100
AcDbEntity
  8
ENGRAVE
100
AcDbLine
 10
405.76117419499997
 20
209.50147108338
 30
0.0
 11
405.1478837897265
 21
210.11476148865347
 31
0.0
  0
LINE
  5
2C0
330
17
100
AcDbEntity
  8
ENGRAVE
100
AcDbLine
 10
405.1478837897265
 20
210.11476148865347
 30
0.0
 11
408.2143358160937
 21
210.11476148865347
 31
0.0
  0
LINE
  5
2C1
330
17
100
AcDbEntity
  8
ENGRAVE
100
AcDbLine
 10
408.2143358160937
 20
209.50147108338
 30
0.0
 11
408.2143358160937
 21
210.7280518939269
 31
0.0
  0
LINE
  5
2C2
330
17
100
AcDbEntity
  8
ENGRAVE
100
AcDbLine
 10
405.1478837897265
 20
213.48785871765736
 30
0.0
 11
405.1478837897265
 21
211.95463270447377
 31
0.0
  0
LINE
  5
2C3
330
17
100
AcDbEntity
  8
ENGRAVE
100
AcDbLine
 10
405.1478837897265
 20
211.95463270447377
 30
0.0
 11
406.37446460027337
 21
211.95463270447377
 31
0.0
  0
LINE
  5
2C4
330
17
100
AcDbEntity
  8
ENGRAVE
100
AcDbLine
 10
406.37446460027337
 20
211.95463270447377
 30
0.0
 11
406.37446460027337
 21
213.18121351502066
 31
0.0
  0
LINE
  5
2C5
330
17
100
AcDbEntity
  8
ENGRAVE
100
AcDbLine
 10
406.37446460027337
 20
213.18121351502066
 30
0.0
 11
406.6811098029101
 21
213.48785871765736
 31
0.0
  0
LINE
  5
2C6
330
17
100
AcDbEntity
  8
ENGRAVE
100
AcDbLine
 10
406.6811098029101
 20
213.48785871765736
 30
0.0
 11
407.90769061345696
 21
213.48785871765736
 31
0.0
  0
LINE
  5
2C7
330
17
100
AcDbEntity
  8
ENGRAVE
100
AcDbLine
 10
407.90769061345696
 20
213.48785871765736
 30
0.0
 11
408.2143358160937
 21
213.18121351502066
 31
0.0
  0
LINE
  5
2C8
330
17
100
AcDbEntity
  8
ENGRAVE
100
AcDbLine
 10
408.2143358160937
 20
213.18121351502066
 30
0.0
 11
408.2143358160937
 21
211.95463270447377
 31
0.0
  0
LINE
  5
2C9
330
17
100
AcDbEntity
  8
ENGRAVE
100
AcDbLine
 10
408.2143358160937
 20
211.95463270447377
 30
0.0
 11
407.90769061345696
 21
211.64798750183706
 31
0.0
  0
LINE
  5
2CA
330
17
100
AcDbEntity
  8
CUT
100
AcDbLine
 10
419.874680555556
 20
408.799575
 30
0.0
 11
419.874680555556
 21
418.80153055555564
 31
0.0
  0
LINE
  5
2CB
330
17
100
AcDbEntity
  8
CUT
100
AcDbLine
 10
422.8754083333337
 20
418.80153055555564
 30
0.0
 11
422.8754083333337
 21
408.799575
 31
0.0
  0
LINE
  5
2CC
330
17
100
AcDbEntity
  8
CUT
100
AcDbLine
 10
419.874680555556
 20
418.80153055555564
 30
0.0
 11
422.8754083333337
 21
418.80153055555564
 31
0.0
  0
LINE
  5
2CD
330
17
100
AcDbEntity
  8
CUT
100
AcDbLine
 10
422.8754083333337
 20
408.799575
 30
0.0
 11
419.874680555556
 21
408.799575
 31
0.0
  0
LINE
  5
2CE
330
17
100
AcDbEntity
  8
CUT
100
AcDbLine
 10
413.8732250000005
 20
390.74088055555563
 30
0.0
 11
413.9476611111117
 21
389.8021388888889
 31
0.0
  0
LINE
  5
2CF
330
17
100
AcDbEntity
  8
CUT
100
AcDbLine
 10
413.9476611111117
 20
389.8021388888889
 30
0.0
 11
414.1674416666671
 21
388.8863277777778
 31
0.0
  0
LINE
  5
2D0
330
17
100
AcDbEntity
  8
CUT
100
AcDbLine
 10
413.8732250000005
 20
396.95400277777793
 30
0.0
 11
413.8732250000005
 21
390.74088055555563
 31
0.0
  0
LINE
  5
2D1
330
17
100
AcDbEntity
  8
CUT
100
AcDbLine
 10
409.8392111111115
 20
420.502625
 30
0.0
 11
410.345094444445
 21
419.70852222222214
 31
0.0
  0
LINE
  5
2D2
330
17
100
AcDbEntity
  8
CUT
100
AcDbLine
 10
409.8392111111115
 20
407.0984805555555
 30
0.0
 11
409.463855555556
 21
406.2352333333333
 31
0.0
  0
LINE
  5
2D3
330
17
100
AcDbEntity
  8
CUT
100
AcDbLine
 10
409.1378888888893
 20
423.21548611111115
 30
0.0
 11
409.2282000000005
 21
422.27815555555566
 31
0.0
  0
LINE
  5
2D4
330
17
100
AcDbEntity
  8
CUT
100
AcDbLine
 10
409.1953916666673
 20
424.1552861111111
 30
0.0
 11
409.1378888888893
 21
423.21548611111115
 31
0.0
  0
LINE
  5
2D5
330
17
100
AcDbEntity
  8
CUT
100
AcDbLine
 10
410.9691583333337
 20
408.5981388888889
 30
0.0
 11
410.345094444445
 21
407.8929361111111
 31
0.0
  0
LINE
  5
2D6
330
17
100
AcDbEntity
  8
CUT
100
AcDbLine
 10
411.9047250000006
 20
409.5016027777778
 30
0.0
 11
410.9691583333337
 21
408.5981388888889
 31
0.0
  0
LINE
  5
2D7
330
17
100
AcDbEntity
  8
CUT
100
AcDbLine
 10
410.2226805555561
 20
400.8391444444445
 30
0.0
 11
410.8216972222228
 21
400.1124222222222
 31
0.0
  0
LINE
  5
2D8
330
17
100
AcDbEntity
  8
CUT
100
AcDbLine
 10
409.74466666666723
 20
425.950925
 30
0.0
 11
409.3992972222227
 21
425.074625
 31
0.0
  0
LINE
  5
2D9
330
17
100
AcDbEntity
  8
CUT
100
AcDbLine
 10
415.6311166666672
 20
386.49731666666673
 30
0.0
 11
416.347255555556
 21
385.8856
 31
0.0
  0
LINE
  5
2DA
330
17
100
AcDbEntity
  8
CUT
100
AcDbLine
 10
409.2282000000005
 20
405.3233027777778
 30
0.0
 11
409.1378888888893
 21
404.3859722222222
 31
0.0
  0
LINE
  5
2DB
330
17
100
AcDbEntity
  8
CUT
100
AcDbLine
 10
414.1674416666671
 20
438.7151305555556
 30
0.0
 11
413.9476611111117
 21
437.7993194444445
 31
0.0
  0
LINE
  5
2DC
330
17
100
AcDbEntity
  8
CUT
100
AcDbLine
 10
433.3497333333337
 20
400.85784166666673
 30
0.0
 11
433.3497333333337
 21
426.7436166666667
 31
0.0
  0
LINE
  5
2DD
330
17
100
AcDbEntity
  8
CUT
100
AcDbLine
 10
410.2226805555561
 20
426.7623138888889
 30
0.0
 11
409.74466666666723
 21
425.950925
 31
0.0
  0
LINE
  5
2DE
330
17
100
AcDbEntity
  8
CUT
100
AcDbLine
 10
415.0197527777782
 20
387.2134555555555
 30
0.0
 11
415.6311166666672
 21
386.49731666666673
 31
0.0
  0
LINE
  5
2DF
330
17
100
AcDbEntity
  8
CUT
100
AcDbLine
 10
416.8739527777782
 20
415.30126944444453
 30
0.0
 11
416.8739527777782
 21
412.30054166666673
 31
0.0
  0
LINE
  5
2E0
330
17
100
AcDbEntity
  8
CUT
100
AcDbLine
 10
409.1378888888893
 20
404.3859722222222
 30
0.0
 11
409.1953916666673
 21
403.44617222222234
 31
0.0
  0
LINE
  5
2E1
330
17
100
AcDbEntity
  8
CUT
100
AcDbLine
 10
409.1953916666673
 20
403.44617222222234
 30
0.0
 11
409.3992972222227
 21
402.5268333333334
 31
0.0
  0
LINE
  5
2E2
330
17
100
AcDbEntity
  8
CUT
100
AcDbLine
 10
413.8732250000005
 20
430.64745555555567
 30
0.0
 11
410.8216972222228
 21
427.4886833333334
 31
0.0
  0
LINE
  5
2E3
330
17
100
AcDbEntity
  8
CUT
100
AcDbLine
 10
433.3497333333337
 20
426.7436166666667
 30
0.0
 11
422.8754083333337
 21
436.8605777777778
 31
0.0
  0
LINE
  5
2E4
330
17
100
AcDbEntity
  8
CUT
100
AcDbLine
 10
410.8216972222228
 20
400.1124222222222
 30
0.0
 11
413.8732250000005
 21
396.95400277777793
 31
0.0
  0
LINE
  5
2E5
330
17
100
AcDbEntity
  8
CUT
100
AcDbLine
 10
410.345094444445
 20
419.70852222222214
 30
0.0
 11
410.9691583333337
 21
419.0033194444445
 31
0.0
  0
LINE
  5
2E6
330
17
100
AcDbEntity
  8
CUT
100
AcDbLine
 10
419.874680555556
 20
405.5698944444445
 30
0.0
 11
417.7167388888894
 21
403.4853305555556
 31
0.0
  0
LINE
  5
2E7
330
17
100
AcDbEntity
  8
CUT
100
AcDbLine
 10
417.1501777777783
 20
385.393475
 30
0.0
 11
418.0201277777783
 21
385.03328888888893
 31
0.0
  0
LINE
  5
2E8
330
17
100
AcDbEntity
  8
CUT
100
AcDbLine
 10
410.345094444445
 20
407.8929361111111
 30
0.0
 11
409.8392111111115
 21
407.0984805555555
 31
0.0
  0
LINE
  5
2E9
330
17
100
AcDbEntity
  8
CUT
100
AcDbLine
 10
418.9359388888894
 20
442.86203333333333
 30
0.0
 11
418.0201277777783
 21
442.56816944444455
 31
0.0
  0
LINE
  5
2EA
330
17
100
AcDbEntity
  8
CUT
100
AcDbLine
 10
409.463855555556
 20
421.36622500000004
 30
0.0
 11
409.8392111111115
 21
420.502625
 31
0.0
  0
LINE
  5
2EB
330
17
100
AcDbEntity
  8
CUT
100
AcDbLine
 10
414.063019444445
 20
416.0152916666667
 30
0.0
 11
414.063019444445
 21
415.30126944444453
 31
0.0
  0
LINE
  5
2EC
330
17
100
AcDbEntity
  8
CUT
100
AcDbLine
 10
410.9691583333337
 20
419.0033194444445
 30
0.0
 11
411.9047250000006
 21
418.09950277777784
 31
0.0
  0
LINE
  5
2ED
330
17
100
AcDbEntity
  8
CUT
100
AcDbLine
 10
415.0197527777782
 20
440.38800277777796
 30
0.0
 11
414.5276277777782
 21
439.58508055555563
 31
0.0
  0
LINE
  5
2EE
330
17
100
AcDbEntity
  8
CUT
100
AcDbLine
 10
414.5276277777782
 20
388.016025
 30
0.0
 11
415.0197527777782
 21
387.2134555555555
 31
0.0
  0
LINE
  5
2EF
330
17
100
AcDbEntity
  8
CUT
100
AcDbLine
 10
414.063019444445
 20
412.30054166666673
 30
0.0
 11
414.063019444445
 21
411.5861666666667
 31
0.0
  0
LINE
  5
2F0
330
17
100
AcDbEntity
  8
CUT
100
AcDbLine
 10
413.8732250000005
 20
436.8605777777778
 30
0.0
 11
413.8732250000005
 21
430.64745555555567
 31
0.0
  0
LINE
  5
2F1
330
17
100
AcDbEntity
  8
CUT
100
AcDbLine
 10
419.874680555556
 20
422.0315638888889
 30
0.0
 11
414.063019444445
 21
416.0152916666667
 31
0.0
  0
LINE
  5
2F2
330
17
100
AcDbEntity
  8
CUT
100
AcDbLine
 10
413.9476611111117
 20
437.7993194444445
 30
0.0
 11
413.8732250000005
 21
436.8605777777778
 31
0.0
  0
LINE
  5
2F3
330
17
100
AcDbEntity
  8
CUT
100
AcDbLine
 10
416.347255555556
 20
385.8856
 30
0.0
 11
417.1501777777783
 21
385.393475
 31
0.0
  0
LINE
  5
2F4
330
17
100
AcDbEntity
  8
CUT
100
AcDbLine
 10
416.347255555556
 20
441.7158583333334
 30
0.0
 11
415.6311166666672
 21
441.10414166666675
 31
0.0
  0
LINE
  5
2F5
330
17
100
AcDbEntity
  8
CUT
100
AcDbLine
 10
419.874680555556
 20
384.7397777777778
 30
0.0
 11
419.874680555556
 21
390.74088055555563
 31
0.0
  0
LINE
  5
2F6
330
17
100
AcDbEntity
  8
CUT
100
AcDbLine
 10
419.874680555556
 20
436.8605777777778
 30
0.0
 11
419.874680555556
 21
442.86203333333333
 31
0.0
  0
LINE
  5
2F7
330
17
100
AcDbEntity
  8
CUT
100
AcDbLine
 10
409.463855555556
 20
406.2352333333333
 30
0.0
 11
409.2282000000005
 21
405.3233027777778
 31
0.0
  0
LINE
  5
2F8
330
17
100
AcDbEntity
  8
CUT
100
AcDbLine
 10
411.9047250000006
 20
418.09950277777784
 30
0.0
 11
417.7167388888894
 21
424.1161277777778
 31
0.0
  0
LINE
  5
2F9
330
17
100
AcDbEntity
  8
CUT
100
AcDbLine
 10
414.1674416666671
 20
388.8863277777778
 30
0.0
 11
414.5276277777782
 21
388.016025
 31
0.0
  0
LINE
  5
2FA
330
17
100
AcDbEntity
  8
CUT
100
AcDbLine
 10
414.063019444445
 20
411.5861666666667
 30
0.0
 11
419.874680555556
 21
405.5698944444445
 31
0.0
  0
LINE
  5
2FB
330
17
100
AcDbEntity
  8
CUT
100
AcDbLine
 10
409.3992972222227
 20
402.5268333333334
 30
0.0
 11
409.74466666666723
 21
401.6505333333333
 31
0.0
  0
LINE
  5
2FC
330
17
100
AcDbEntity
  8
CUT
100
AcDbLine
 10
417.7167388888894
 20
403.4853305555556
 30
0.0
 11
411.9047250000006
 21
409.5016027777778
 31
0.0
  0
LINE
  5
2FD
330
17
100
AcDbEntity
  8
CUT
100
AcDbLine
 10
418.0201277777783
 20
385.03328888888893
 30
0.0
 11
418.9359388888894
 21
384.81350833333346
 31
0.0
  0
LINE
  5
2FE
330
17
100
AcDbEntity
  8
CUT
100
AcDbLine
 10
418.0201277777783
 20
442.56816944444455
 30
0.0
 11
417.1501777777783
 21
442.2076305555556
 31
0.0
  0
LINE
  5
2FF
330
17
100
AcDbEntity
  8
CUT
100
AcDbLine
 10
410.8216972222228
 20
427.4886833333334
 30
0.0
 11
410.2226805555561
 21
426.7623138888889
 31
0.0
  0
LINE
  5
300
330
17
100
AcDbEntity
  8
CUT
100
AcDbLine
 10
414.5276277777782
 20
439.58508055555563
 30
0.0
 11
414.1674416666671
 21
438.7151305555556
 31
0.0
  0
LINE
  5
301
330
17
100
AcDbEntity
  8
CUT
100
AcDbLine
 10
417.1501777777783
 20
442.2076305555556
 30
0.0
 11
416.347255555556
 21
441.7158583333334
 31
0.0
  0
LINE
  5
302
330
17
100
AcDbEntity
  8
CUT
100
AcDbLine
 10
409.2282000000005
 20
422.27815555555566
 30
0.0
 11
409.463855555556
 21
421.36622500000004
 31
0.0
  0
LINE
  5
303
330
17
100
AcDbEntity
  8
CUT
100
AcDbLine
 10
415.6311166666672
 20
441.10414166666675
 30
0.0
 11
415.0197527777782
 21
440.38800277777796
 31
0.0
  0
LINE
  5
304
330
17
100
AcDbEntity
  8
CUT
100
AcDbLine
 10
409.3992972222227
 20
425.074625
 30
0.0
 11
409.1953916666673
 21
424.1552861111111
 31
0.0
  0
LINE
  5
305
330
17
100
AcDbEntity
  8
CUT
100
AcDbLine
 10
417.7167388888894
 20
424.1161277777778
 30
0.0
 11
419.874680555556
 21
422.0315638888889
 31
0.0
  0
LINE
  5
306
330
17
100
AcDbEntity
  8
CUT
100
AcDbLine
 10
409.74466666666723
 20
401.6505333333333
 30
0.0
 11
410.2226805555561
 21
400.8391444444445
 31
0.0
  0
LINE
  5
307
330
17
100
AcDbEntity
  8
CUT
100
AcDbLine
 10
422.8754083333337
 20
390.74088055555563
 30
0.0
 11
433.3497333333337
 21
400.85784166666673
 31
0.0
  0
LINE
  5
308
330
17
100
AcDbEntity
  8
CUT
100
AcDbLine
 10
416.8739527777782
 20
412.30054166666673
 30
0.0
 11
414.063019444445
 21
412.30054166666673
 31
0.0
  0
LINE
  5
309
330
17
100
AcDbEntity
  8
CUT
100
AcDbLine
 10
419.874680555556
 20
390.74088055555563
 30
0.0
 11
422.8754083333337
 21
390.74088055555563
 31
0.0
  0
LINE
  5
30A
330
17
100
AcDbEntity
  8
CUT
100
AcDbLine
 10
422.8754083333337
 20
436.8605777777778
 30
0.0
 11
419.874680555556
 21
436.8605777777778
 31
0.0
  0
LINE
  5
30B
330
17
100
AcDbEntity
  8
CUT
100
AcDbLine
 10
414.063019444445
 20
415.30126944444453
 30
0.0
 11
416.8739527777782
 21
415.30126944444453
 31
0.0
  0
LINE
  5
30C
330
17
100
AcDbEntity
  8
CUT
100
AcDbLine
 10
418.9359388888894
 20
384.81350833333346
 30
0.0
 11
419.874680555556
 21
384.81350833333346
 31
0.0
  0
LINE
  5
30D
330
17
100
AcDbEntity
  8
CUT
100
AcDbLine
 10
419.874680555556
 20
442.86203333333333
 30
0.0
 11
418.9359388888894
 21
442.86203333333333
 31
0.0
  0
LINE
  5
30E
330
17
100
AcDbEntity
  8
ENGRAVE
100
AcDbLine
 10
421.2609994981537
 20
405.5199524615724
 30
0.0
 11
421.9555307481537
 21
406.90901496157244
 31
0.0
  0
LINE
  5
30F
330
17
100
AcDbEntity
  8
ENGRAVE
100
AcDbLine
 10
421.9555307481537
 20
406.90901496157244
 30
0.0
 11
424.7336557481537
 21
406.90901496157244
 31
0.0
  0
LINE
  5
310
330
17
100
AcDbEntity
  8
ENGRAVE
100
AcDbLine
 10
424.7336557481537
 20
406.90901496157244
 30
0.0
 11
425.4281869981537
 21
405.5199524615724
 31
0.0
  0
LINE
  5
311
330
17
100
AcDbEntity
  8
ENGRAVE
100
AcDbLine
 10
425.4281869981537
 20
405.5199524615724
 30
0.0
 11
425.4281869981537
 21
404.5476087115724
 31
0.0
  0
LINE
  5
312
330
17
100
AcDbEntity
  8
ENGRAVE
100
AcDbLine
 10
425.4281869981537
 20
404.5476087115724
 30
0.0
 11
421.2609994981537
 21
399.96370246157244
 31
0.0
  0
LINE
  5
313
330
17
100
AcDbEntity
  8
ENGRAVE
100
AcDbLine
 10
421.2609994981537
 20
399.96370246157244
 30
0.0
 11
425.4281869981537
 21
399.96370246157244
 31
0.0
  0
LINE
  5
314
330
17
100
AcDbEntity
  8
ENGRAVE
100
AcDbLine
 10
427.51178074815374
 20
399.96370246157244
 30
0.0
 11
430.2899057481537
 21
399.96370246157244
 31
0.0
  0
LINE
  5
315
330
17
100
AcDbEntity
  8
ENGRAVE
100
AcDbLine
 10
430.2899057481537
 20
399.96370246157244
 30
0.0
 11
430.98443699815374
 21
401.35276496157246
 31
0.0
  0
LINE
  5
316
330
17
100
AcDbEntity
  8
ENGRAVE
100
AcDbLine
 10
430.98443699815374
 20
401.35276496157246
 30
0.0
 11
430.98443699815374
 21
405.5199524615724
 31
0.0
  0
LINE
  5
317
330
17
100
AcDbEntity
  8
ENGRAVE
100
AcDbLine
 10
430.98443699815374
 20
405.5199524615724
 30
0.0
 11
430.2899057481537
 21
406.90901496157244
 31
0.0
  0
LINE
  5
318
330
17
100
AcDbEntity
  8
ENGRAVE
100
AcDbLine
 10
430.2899057481537
 20
406.90901496157244
 30
0.0
 11
427.51178074815374
 21
406.90901496157244
 31
0.0
  0
LINE
  5
319
330
17
100
AcDbEntity
  8
ENGRAVE
100
AcDbLine
 10
427.51178074815374
 20
406.90901496157244
 30
0.0
 11
426.8172494981537
 21
405.5199524615724
 31
0.0
  0
LINE
  5
31A
330
17
100
AcDbEntity
  8
ENGRAVE
100
AcDbLine
 10
426.8172494981537
 20
405.5199524615724
 30
0.0
 11
426.8172494981537
 21
401.35276496157246
 31
0.0
  0
LINE
  5
31B
330
17
100
AcDbEntity
  8
ENGRAVE
100
AcDbLine
 10
426.8172494981537
 20
401.35276496157246
 30
0.0
 11
427.51178074815374
 21
399.96370246157244
 31
0.0
  0
LINE
  5
31C
330
17
100
AcDbEntity
  8
CUT
100
AcDbLine
 10
409.598241666667
 20
243.674925
 30
0.0
 11
409.598241666667
 21
240.67455
 31
0.0
  0
LINE
  5
31D
330
17
100
AcDbEntity
  8
CUT
100
AcDbLine
 10
411.59849166666703
 20
240.67455
 30
0.0
 11
411.59849166666703
 21
243.674925
 31
0.0
  0
LINE
  5
31E
330
17
100
AcDbEntity
  8
CUT
100
AcDbLine
 10
400.5741861111116
 20
245.8550916666667
 30
0.0
 11
402.6365250000003
 21
243.674925
 31
0.0
  0
LINE
  5
31F
330
17
100
AcDbEntity
  8
CUT
100
AcDbLine
 10
418.5602083333337
 20
240.67455
 30
0.0
 11
418.5602083333337
 21
243.674925
 31
0.0
  0
LINE
  5
320
330
17
100
AcDbEntity
  8
CUT
100
AcDbLine
 10
423.52167500000036
 20
243.674925
 30
0.0
 11
423.52167500000036
 21
240.67455
 31
0.0
  0
LINE
  5
321
330
17
100
AcDbEntity
  8
CUT
100
AcDbLine
 10
408.4951055555559
 20
226.92327222222218
 30
0.0
 11
408.4951055555559
 21
222.5590583333333
 31
0.0
  0
LINE
  5
322
330
17
100
AcDbEntity
  8
CUT
100
AcDbLine
 10
397.01959722222256
 20
222.5590583333333
 30
0.0
 11
397.01959722222256
 21
238.3620916666666
 31
0.0
  0
LINE
  5
323
330
17
100
AcDbEntity
  8
CUT
100
AcDbLine
 10
397.01959722222256
 20
238.3620916666666
 30
0.0
 11
399.7299888888892
 21
240.9257277777778
 31
0.0
  0
LINE
  5
324
330
17
100
AcDbEntity
  8
CUT
100
AcDbLine
 10
438.9754583333335
 20
230.924125
 30
0.0
 11
438.9754583333335
 21
222.5590583333333
 31
0.0
  0
LINE
  5
325
330
17
100
AcDbEntity
  8
CUT
100
AcDbLine
 10
402.6365250000003
 20
243.674925
 30
0.0
 11
402.6365250000003
 21
240.67455
 31
0.0
  0
LINE
  5
326
330
17
100
AcDbEntity
  8
CUT
100
AcDbLine
 10
416.55995833333367
 20
243.674925
 30
0.0
 11
416.55995833333367
 21
240.67455
 31
0.0
  0
LINE
  5
327
330
17
100
AcDbEntity
  8
CUT
100
AcDbLine
 10
425.5219250000003
 20
240.67455
 30
0.0
 11
425.5219250000003
 21
230.924125
 31
0.0
  0
LINE
  5
328
330
17
100
AcDbEntity
  8
CUT
100
AcDbLine
 10
404.6367750000002
 20
240.67455
 30
0.0
 11
404.6367750000002
 21
243.674925
 31
0.0
  0
LINE
  5
329
330
17
100
AcDbEntity
  8
CUT
100
AcDbLine
 10
399.7299888888892
 20
240.9257277777778
 30
0.0
 11
397.6680027777781
 21
243.1055416666667
 31
0.0
  0
LINE
  5
32A
330
17
100
AcDbEntity
  8
CUT
100
AcDbLine
 10
397.6680027777781
 20
243.1055416666667
 30
0.0
 11
400.5741861111116
 21
245.8550916666667
 31
0.0
  0
LINE
  5
32B
330
17
100
AcDbEntity
  8
CUT
100
AcDbLine
 10
411.49548055555584
 20
222.5590583333333
 30
0.0
 11
411.49548055555584
 21
226.92327222222218
 31
0.0
  0
LINE
  5
32C
330
17
100
AcDbEntity
  8
CUT
100
AcDbLine
 10
404.6367750000002
 20
243.674925
 30
0.0
 11
409.598241666667
 21
243.674925
 31
0.0
  0
LINE
  5
32D
330
17
100
AcDbEntity
  8
CUT
100
AcDbLine
 10
418.5602083333337
 20
243.674925
 30
0.0
 11
423.52167500000036
 21
243.674925
 31
0.0
  0
LINE
  5
32E
330
17
100
AcDbEntity
  8
CUT
100
AcDbLine
 10
411.59849166666703
 20
243.674925
 30
0.0
 11
416.55995833333367
 21
243.674925
 31
0.0
  0
LINE
  5
32F
330
17
100
AcDbEntity
  8
CUT
100
AcDbLine
 10
402.6365250000003
 20
240.67455
 30
0.0
 11
404.6367750000002
 21
240.67455
 31
0.0
  0
LINE
  5
330
330
17
100
AcDbEntity
  8
CUT
100
AcDbLine
 10
409.598241666667
 20
240.67455
 30
0.0
 11
411.59849166666703
 21
240.67455
 31
0.0
  0
LINE
  5
331
330
17
100
AcDbEntity
  8
CUT
100
AcDbLine
 10
423.52167500000036
 20
240.67455
 30
0.0
 11
425.5219250000003
 21
240.67455
 31
0.0
  0
LINE
  5
332
330
17
100
AcDbEntity
  8
CUT
100
AcDbLine
 10
416.55995833333367
 20
240.67455
 30
0.0
 11
418.5602083333337
 21
240.67455
 31
0.0
  0
LINE
  5
333
330
17
100
AcDbEntity
  8
CUT
100
AcDbLine
 10
408.4951055555559
 20
222.5590583333333
 30
0.0
 11
397.01959722222256
 21
222.5590583333333
 31
0.0
  0
LINE
  5
334
330
17
100
AcDbEntity
  8
CUT
100
AcDbLine
 10
438.9754583333335
 20
222.5590583333333
 30
0.0
 11
411.49548055555584
 21
222.5590583333333
 31
0.0
  0
LINE
  5
335
330
17
100
AcDbEntity
  8
CUT
100
AcDbLine
 10
425.5219250000003
 20
230.924125
 30
0.0
 11
438.9754583333335
 21
230.924125
 31
0.0
  0
LINE
  5
336
330
17
100
AcDbEntity
  8
CUT
100
AcDbLine
 10
411.49548055555584
 20
226.92327222222218
 30
0.0
 11
408.4951055555559
 21
226.92327222222218
 31
0.0
  0
LINE
  5
337
330
17
100
AcDbEntity
  8
ENGRAVE
100
AcDbLine
 10
412.52689092018153
 20
234.79190033510835
 30
0.0
 11
413.2268802390292
 21
236.19187897280366
 31
0.0
  0
LINE
  5
338
330
17
100
AcDbEntity
  8
ENGRAVE
100
AcDbLine
 10
413.2268802390292
 20
236.19187897280366
 30
0.0
 11
416.0268375144198
 21
236.19187897280366
 31
0.0
  0
LINE
  5
339
330
17
100
AcDbEntity
  8
ENGRAVE
100
AcDbLine
 10
416.0268375144198
 20
236.19187897280366
 30
0.0
 11
416.72682683326747
 21
234.79190033510835
 31
0.0
  0
LINE
  5
33A
330
17
100
AcDbEntity
  8
ENGRAVE
100
AcDbLine
 10
416.72682683326747
 20
234.79190033510835
 30
0.0
 11
416.72682683326747
 21
233.81191528872162
 31
0.0
  0
LINE
  5
33B
330
17
100
AcDbEntity
  8
ENGRAVE
100
AcDbLine
 10
416.72682683326747
 20
233.81191528872162
 30
0.0
 11
412.52689092018153
 21
229.1919857843271
 31
0.0
  0
LINE
  5
33C
330
17
100
AcDbEntity
  8
ENGRAVE
100
AcDbLine
 10
412.52689092018153
 20
229.1919857843271
 30
0.0
 11
416.72682683326747
 21
229.1919857843271
 31
0.0
  0
LINE
  5
33D
330
17
100
AcDbEntity
  8
ENGRAVE
100
AcDbLine
 10
418.82679478981044
 20
234.79190033510835
 30
0.0
 11
420.22677342750575
 21
236.19187897280366
 31
0.0
  0
LINE
  5
33E
330
17
100
AcDbEntity
  8
ENGRAVE
100
AcDbLine
 10
420.22677342750575
 20
236.19187897280366
 30
0.0
 11
420.22677342750575
 21
229.1919857843271
 31
0.0
  0
LINE
  5
33F
330
17
100
AcDbEntity
  8
ENGRAVE
100
AcDbLine
 10
418.82679478981044
 20
229.1919857843271
 30
0.0
 11
421.62675206520106
 21
229.1919857843271
 31
0.0
  0
LINE
  5
340
330
17
100
AcDbEntity
  8
CUT
100
AcDbLine
 10
397.01959722222256
 20
269.72860000000026
 30
0.0
 11
397.01959722222256
 21
248.8550916666667
 31
0.0
  0
LINE
  5
341
330
17
100
AcDbEntity
  8
CUT
100
AcDbLine
 10
436.026941666667
 20
248.8550916666667
 30
0.0
 11
436.026941666667
 21
269.72860000000026
 31
0.0
  0
LINE
  5
342
330
17
100
AcDbEntity
  8
CUT
100
AcDbLine
 10
397.01959722222256
 20
248.8550916666667
 30
0.0
 11
436.026941666667
 21
248.8550916666667
 31
0.0
  0
LINE
  5
343
330
17
100
AcDbEntity
  8
CUT
100
AcDbLine
 10
436.026941666667
 20
269.72860000000026
 30
0.0
 11
397.01959722222256
 21
269.72860000000026
 31
0.0
  0
LINE
  5
344
330
17
100
AcDbEntity
  8
CUT
100
AcDbLine
 10
433.02656666666707
 20
266.7282250000002
 30
0.0
 11
433.02656666666707
 21
251.85581944444462
 31
0.0
  0
LINE
  5
345
330
17
100
AcDbEntity
  8
CUT
100
AcDbLine
 10
400.02032500000035
 20
251.85581944444462
 30
0.0
 11
400.02032500000035
 21
266.7282250000002
 31
0.0
  0
LINE
  5
346
330
17
100
AcDbEntity
  8
CUT
100
AcDbLine
 10
433.02656666666707
 20
251.85581944444462
 30
0.0
 11
400.02032500000035
 21
251.85581944444462
 31
0.0
  0
LINE
  5
347
330
17
100
AcDbEntity
  8
CUT
100
AcDbLine
 10
400.02032500000035
 20
266.7282250000002
 30
0.0
 11
433.02656666666707
 21
266.7282250000002
 31
0.0
  0
LINE
  5
348
330
17
100
AcDbEntity
  8
ENGRAVE
100
AcDbLine
 10
433.89229428198945
 20
266.5350841100965
 30
0.0
 11
433.5262725534738
 21
266.7180949743543
 31
0.0
  0
LINE
  5
349
330
17
100
AcDbEntity
  8
ENGRAVE
100
AcDbLine
 10
433.5262725534738
 20
266.7180949743543
 30
0.0
 11
433.5262725534738
 21
267.45013843138554
 31
0.0
  0
LINE
  5
34A
330
17
100
AcDbEntity
  8
ENGRAVE
100
AcDbLine
 10
433.5262725534738
 20
267.45013843138554
 30
0.0
 11
433.89229428198945
 21
267.63314929564336
 31
0.0
  0
LINE
  5
34B
330
17
100
AcDbEntity
  8
ENGRAVE
100
AcDbLine
 10
433.89229428198945
 20
267.63314929564336
 30
0.0
 11
434.1485094919504
 21
267.63314929564336
 31
0.0
  0
LINE
  5
34C
330
17
100
AcDbEntity
  8
ENGRAVE
100
AcDbLine
 10
434.1485094919504
 20
267.63314929564336
 30
0.0
 11
435.3563811960519
 21
266.5350841100965
 31
0.0
  0
LINE
  5
34D
330
17
100
AcDbEntity
  8
ENGRAVE
100
AcDbLine
 10
435.3563811960519
 20
266.5350841100965
 30
0.0
 11
435.3563811960519
 21
267.63314929564336
 31
0.0
  0
LINE
  5
34E
330
17
100
AcDbEntity
  8
ENGRAVE
100
AcDbLine
 10
433.5262725534738
 20
268.9142253454481
 30
0.0
 11
433.5262725534738
 21
268.3651927526746
 31
0.0
  0
LINE
  5
34F
330
17
100
AcDbEntity
  8
ENGRAVE
100
AcDbLine
 10
433.5262725534738
 20
268.3651927526746
 30
0.0
 11
434.0753051462472
 21
267.999171024159
 31
0.0
  0
LINE
  5
350
330
17
100
AcDbEntity
  8
ENGRAVE
100
AcDbLine
 10
434.0753051462472
 20
267.999171024159
 30
0.0
 11
434.9903594675363
 21
267.999171024159
 31
0.0
  0
LINE
  5
351
330
17
100
AcDbEntity
  8
ENGRAVE
100
AcDbLine
 10
434.9903594675363
 20
267.999171024159
 30
0.0
 11
435.3563811960519
 21
268.18218188841684
 31
0.0
  0
LINE
  5
352
330
17
100
AcDbEntity
  8
ENGRAVE
100
AcDbLine
 10
435.3563811960519
 20
268.18218188841684
 30
0.0
 11
435.3563811960519
 21
268.9142253454481
 31
0.0
  0
LINE
  5
353
330
17
100
AcDbEntity
  8
ENGRAVE
100
AcDbLine
 10
435.3563811960519
 20
268.9142253454481
 30
0.0
 11
434.9903594675363
 21
269.0972362097059
 31
0.0
  0
LINE
  5
354
330
17
100
AcDbEntity
  8
ENGRAVE
100
AcDbLine
 10
434.9903594675363
 20
269.0972362097059
 30
0.0
 11
434.7158431711496
 21
269.0972362097059
 31
0.0
  0
LINE
  5
355
330
17
100
AcDbEntity
  8
ENGRAVE
100
AcDbLine
 10
434.7158431711496
 20
269.0972362097059
 30
0.0
 11
434.44132687476286
 21
268.9142253454481
 31
0.0
  0
LINE
  5
356
330
17
100
AcDbEntity
  8
ENGRAVE
100
AcDbLine
 10
434.44132687476286
 20
268.9142253454481
 30
0.0
 11
434.44132687476286
 21
268.18218188841684
 31
0.0
  0
LINE
  5
357
330
17
100
AcDbEntity
  8
ENGRAVE
100
AcDbLine
 10
434.44132687476286
 20
268.18218188841684
 30
0.0
 11
434.7158431711496
 21
267.999171024159
 31
0.0
  0
LINE
  5
358
330
17
100
AcDbEntity
  8
CUT
100
AcDbLine
 10
375.41127500000033
 20
145.17974444444448
 30
0.0
 11
374.9487833333336
 21
144.31508611111101
 31
0.0
  0
LINE
  5
359
330
17
100
AcDbEntity
  8
CUT
100
AcDbLine
 10
377.6556472222225
 20
147.02159722222217
 30
0.0
 11
376.7909888888892
 21
146.55945833333328
 31
0.0
  0
LINE
  5
35A
330
17
100
AcDbEntity
  8
CUT
100
AcDbLine
 10
376.7909888888892
 20
146.55945833333328
 30
0.0
 11
376.0332222222225
 21
145.93751111111095
 31
0.0
  0
LINE
  5
35B
330
17
100
AcDbEntity
  8
CUT
100
AcDbLine
 10
393.744077777778
 20
126.50756944444451
 30
0.0
 11
393.744077777778
 21
136.50917222222222
 31
0.0
  0
LINE
  5
35C
330
17
100
AcDbEntity
  8
CUT
100
AcDbLine
 10
383.569966666667
 20
158.2953166666667
 30
0.0
 11
383.569966666667
 21
137.4002888888889
 31
0.0
  0
LINE
  5
35D
330
17
100
AcDbEntity
  8
CUT
100
AcDbLine
 10
390.7437027777781
 20
116.50526111111111
 30
0.0
 11
390.7437027777781
 21
126.50756944444451
 31
0.0
  0
LINE
  5
35E
330
17
100
AcDbEntity
  8
CUT
100
AcDbLine
 10
376.0332222222225
 20
145.93751111111095
 30
0.0
 11
375.41127500000033
 21
145.17974444444448
 31
0.0
  0
LINE
  5
35F
330
17
100
AcDbEntity
  8
CUT
100
AcDbLine
 10
380.5695916666669
 20
137.4002888888889
 30
0.0
 11
380.5695916666669
 21
147.40224444444436
 31
0.0
  0
LINE
  5
360
330
17
100
AcDbEntity
  8
CUT
100
AcDbLine
 10
390.7437027777781
 20
136.50917222222222
 30
0.0
 11
390.7437027777781
 21
148.29336111111098
 31
0.0
  0
LINE
  5
361
330
17
100
AcDbEntity
  8
CUT
100
AcDbLine
 10
378.5936833333336
 20
147.30593611111107
 30
0.0
 11
377.6556472222225
 21
147.02159722222217
 31
0.0
  0
LINE
  5
362
330
17
100
AcDbEntity
  8
CUT
100
AcDbLine
 10
393.744077777778
 20
148.29336111111098
 30
0.0
 11
393.744077777778
 21
158.2953166666667
 31
0.0
  0
LINE
  5
363
330
17
100
AcDbEntity
  8
CUT
100
AcDbLine
 10
374.6644444444448
 20
143.37705
 30
0.0
 11
374.5684888888892
 21
142.40126666666671
 31
0.0
  0
LINE
  5
364
330
17
100
AcDbEntity
  8
CUT
100
AcDbLine
 10
374.5684888888892
 20
142.40126666666671
 30
0.0
 11
374.5684888888892
 21
116.50526111111111
 31
0.0
  0
LINE
  5
365
330
17
100
AcDbEntity
  8
CUT
100
AcDbLine
 10
374.9487833333336
 20
144.31508611111101
 30
0.0
 11
374.6644444444448
 21
143.37705
 31
0.0
  0
LINE
  5
366
330
17
100
AcDbEntity
  8
CUT
100
AcDbLine
 10
393.744077777778
 20
158.2953166666667
 30
0.0
 11
383.569966666667
 21
158.2953166666667
 31
0.0
  0
LINE
  5
367
330
17
100
AcDbEntity
  8
CUT
100
AcDbLine
 10
379.569466666667
 20
147.40224444444436
 30
0.0
 11
378.5936833333336
 21
147.30593611111107
 31
0.0
  0
LINE
  5
368
330
17
100
AcDbEntity
  8
CUT
100
AcDbLine
 10
380.5695916666669
 20
147.40224444444436
 30
0.0
 11
379.569466666667
 21
147.40224444444436
 31
0.0
  0
LINE
  5
369
330
17
100
AcDbEntity
  8
CUT
100
AcDbLine
 10
393.744077777778
 20
136.50917222222222
 30
0.0
 11
390.7437027777781
 21
136.50917222222222
 31
0.0
  0
LINE
  5
36A
330
17
100
AcDbEntity
  8
CUT
100
AcDbLine
 10
390.7437027777781
 20
126.50756944444451
 30
0.0
 11
393.744077777778
 21
126.50756944444451
 31
0.0
  0
LINE
  5
36B
330
17
100
AcDbEntity
  8
CUT
100
AcDbLine
 10
374.5684888888892
 20
116.50526111111111
 30
0.0
 11
390.7437027777781
 21
116.50526111111111
 31
0.0
  0
LINE
  5
36C
330
17
100
AcDbEntity
  8
CUT
100
AcDbLine
 10
383.569966666667
 20
137.4002888888889
 30
0.0
 11
380.5695916666669
 21
137.4002888888889
 31
0.0
  0
LINE
  5
36D
330
17
100
AcDbEntity
  8
CUT
100
AcDbLine
 10
390.7437027777781
 20
148.29336111111098
 30
0.0
 11
393.744077777778
 21
148.29336111111098
 31
0.0
  0
LINE
  5
36E
330
17
100
AcDbEntity
  8
ENGRAVE
100
AcDbLine
 10
378.058315126532
 20
130.97360509701306
 30
0.0
 11
378.7583044453797
 21
132.37358373470838
 31
0.0
  0
LINE
  5
36F
330
17
100
AcDbEntity
  8
ENGRAVE
100
AcDbLine
 10
378.7583044453797
 20
132.37358373470838
 30
0.0
 11
381.5582617207703
 21
132.37358373470838
 31
0.0
  0
LINE
  5
370
330
17
100
AcDbEntity
  8
ENGRAVE
100
AcDbLine
 10
381.5582617207703
 20
132.37358373470838
 30
0.0
 11
382.25825103961796
 21
130.97360509701306
 31
0.0
  0
LINE
  5
371
330
17
100
AcDbEntity
  8
ENGRAVE
100
AcDbLine
 10
382.25825103961796
 20
130.97360509701306
 30
0.0
 11
382.25825103961796
 21
129.99362005062633
 31
0.0
  0
LINE
  5
372
330
17
100
AcDbEntity
  8
ENGRAVE
100
AcDbLine
 10
382.25825103961796
 20
129.99362005062633
 30
0.0
 11
378.058315126532
 21
125.37369054623181
 31
0.0
  0
LINE
  5
373
330
17
100
AcDbEntity
  8
ENGRAVE
100
AcDbLine
 10
378.058315126532
 20
125.37369054623181
 30
0.0
 11
382.25825103961796
 21
125.37369054623181
 31
0.0
  0
LINE
  5
374
330
17
100
AcDbEntity
  8
ENGRAVE
100
AcDbLine
 10
385.0582083150086
 20
128.8736371404701
 30
0.0
 11
384.35821899616093
 21
129.4336285955482
 31
0.0
  0
LINE
  5
375
330
17
100
AcDbEntity
  8
ENGRAVE
100
AcDbLine
 10
384.35821899616093
 20
129.4336285955482
 30
0.0
 11
384.35821899616093
 21
131.67359441586072
 31
0.0
  0
LINE
  5
376
330
17
100
AcDbEntity
  8
ENGRAVE
100
AcDbLine
 10
384.35821899616093
 20
131.67359441586072
 30
0.0
 11
385.0582083150086
 21
132.37358373470838
 31
0.0
  0
LINE
  5
377
330
17
100
AcDbEntity
  8
ENGRAVE
100
AcDbLine
 10
385.0582083150086
 20
132.37358373470838
 30
0.0
 11
386.4581869527039
 21
132.37358373470838
 31
0.0
  0
LINE
  5
378
330
17
100
AcDbEntity
  8
ENGRAVE
100
AcDbLine
 10
386.4581869527039
 20
132.37358373470838
 30
0.0
 11
387.15817627155155
 21
131.67359441586072
 31
0.0
  0
LINE
  5
379
330
17
100
AcDbEntity
  8
ENGRAVE
100
AcDbLine
 10
387.15817627155155
 20
131.67359441586072
 30
0.0
 11
387.15817627155155
 21
129.4336285955482
 31
0.0
  0
LINE
  5
37A
330
17
100
AcDbEntity
  8
ENGRAVE
100
AcDbLine
 10
387.15817627155155
 20
129.4336285955482
 30
0.0
 11
386.4581869527039
 21
128.8736371404701
 31
0.0
  0
LINE
  5
37B
330
17
100
AcDbEntity
  8
ENGRAVE
100
AcDbLine
 10
386.4581869527039
 20
128.8736371404701
 30
0.0
 11
385.0582083150086
 21
128.8736371404701
 31
0.0
  0
LINE
  5
37C
330
17
100
AcDbEntity
  8
ENGRAVE
100
AcDbLine
 10
385.0582083150086
 20
128.8736371404701
 30
0.0
 11
384.1482222005066
 21
128.17364782162244
 31
0.0
  0
LINE
  5
37D
330
17
100
AcDbEntity
  8
ENGRAVE
100
AcDbLine
 10
384.1482222005066
 20
128.17364782162244
 30
0.0
 11
384.1482222005066
 21
126.07367986507947
 31
0.0
  0
LINE
  5
37E
330
17
100
AcDbEntity
  8
ENGRAVE
100
AcDbLine
 10
384.1482222005066
 20
126.07367986507947
 30
0.0
 11
385.0582083150086
 21
125.37369054623181
 31
0.0
  0
LINE
  5
37F
330
17
100
AcDbEntity
  8
ENGRAVE
100
AcDbLine
 10
385.0582083150086
 20
125.37369054623181
 30
0.0
 11
386.4581869527039
 21
125.37369054623181
 31
0.0
  0
LINE
  5
380
330
17
100
AcDbEntity
  8
ENGRAVE
100
AcDbLine
 10
386.4581869527039
 20
125.37369054623181
 30
0.0
 11
387.3681730672059
 21
126.07367986507947
 31
0.0
  0
LINE
  5
381
330
17
100
AcDbEntity
  8
ENGRAVE
100
AcDbLine
 10
387.3681730672059
 20
126.07367986507947
 30
0.0
 11
387.3681730672059
 21
128.17364782162244
 31
0.0
  0
LINE
  5
382
330
17
100
AcDbEntity
  8
ENGRAVE
100
AcDbLine
 10
387.3681730672059
 20
128.17364782162244
 30
0.0
 11
386.4581869527039
 21
128.8736371404701
 31
0.0
  0
LINE
  5
383
330
17
100
AcDbEntity
  8
CUT
100
AcDbLine
 10
354.10740000000015
 20
371.76851388888923
 30
0.0
 11
357.1077750000002
 21
371.76851388888923
 31
0.0
  0
LINE
  5
384
330
17
100
AcDbEntity
  8
CUT
100
AcDbLine
 10
346.5921750000002
 20
379.8605305555557
 30
0.0
 11
342.66470000000027
 21
364.90134166666684
 31
0.0
  0
LINE
  5
385
330
17
100
AcDbEntity
  8
CUT
100
AcDbLine
 10
342.66470000000027
 20
364.90134166666684
 30
0.0
 11
354.10740000000015
 21
364.90134166666684
 31
0.0
  0
LINE
  5
386
330
17
100
AcDbEntity
  8
CUT
100
AcDbLine
 10
368.5504750000003
 20
364.90134166666684
 30
0.0
 11
364.62264722222244
 21
379.8605305555557
 31
0.0
  0
LINE
  5
387
330
17
100
AcDbEntity
  8
CUT
100
AcDbLine
 10
357.1077750000002
 20
364.90134166666684
 30
0.0
 11
368.5504750000003
 21
364.90134166666684
 31
0.0
  0
LINE
  5
388
330
17
100
AcDbEntity
  8
CUT
100
AcDbLine
 10
364.62264722222244
 20
379.8605305555557
 30
0.0
 11
346.5921750000002
 21
379.8605305555557
 31
0.0
  0
LINE
  5
389
330
17
100
AcDbEntity
  8
CUT
100
AcDbLine
 10
354.10740000000015
 20
364.90134166666684
 30
0.0
 11
354.10740000000015
 21
371.76851388888923
 31
0.0
  0
LINE
  5
38A
330
17
100
AcDbEntity
  8
CUT
100
AcDbLine
 10
357.1077750000002
 20
371.76851388888923
 30
0.0
 11
357.1077750000002
 21
364.90134166666684
 31
0.0
  0
LINE
  5
38B
330
17
100
AcDbEntity
  8
ENGRAVE
100
AcDbLine
 10
346.83500654264907
 20
365.9398273730414
 30
0.0
 11
346.2225279049538
 21
366.55230601073674
 31
0.0
  0
LINE
  5
38C
330
17
100
AcDbEntity
  8
ENGRAVE
100
AcDbLine
 10
346.2225279049538
 20
366.55230601073674
 30
0.0
 11
346.2225279049538
 21
369.00222056151796
 31
0.0
  0
LINE
  5
38D
330
17
100
AcDbEntity
  8
ENGRAVE
100
AcDbLine
 10
346.2225279049538
 20
369.00222056151796
 30
0.0
 11
346.83500654264907
 21
369.6146991992133
 31
0.0
  0
LINE
  5
38E
330
17
100
AcDbEntity
  8
ENGRAVE
100
AcDbLine
 10
346.83500654264907
 20
369.6146991992133
 30
0.0
 11
348.30495527311786
 21
369.6146991992133
 31
0.0
  0
LINE
  5
38F
330
17
100
AcDbEntity
  8
ENGRAVE
100
AcDbLine
 10
348.30495527311786
 20
369.6146991992133
 30
0.0
 11
348.91743391081314
 21
369.00222056151796
 31
0.0
  0
LINE
  5
390
330
17
100
AcDbEntity
  8
ENGRAVE
100
AcDbLine
 10
348.91743391081314
 20
369.00222056151796
 30
0.0
 11
348.91743391081314
 21
367.16478464843203
 31
0.0
  0
LINE
  5
391
330
17
100
AcDbEntity
  8
ENGRAVE
100
AcDbLine
 10
348.91743391081314
 20
369.00222056151796
 30
0.0
 11
349.5299125485085
 21
369.6146991992133
 31
0.0
  0
LINE
  5
392
330
17
100
AcDbEntity
  8
ENGRAVE
100
AcDbLine
 10
349.5299125485085
 20
369.6146991992133
 30
0.0
 11
351.7348356442116
 21
369.6146991992133
 31
0.0
  0
LINE
  5
393
330
17
100
AcDbEntity
  8
ENGRAVE
100
AcDbLine
 10
351.7348356442116
 20
369.6146991992133
 30
0.0
 11
352.3473142819069
 21
369.00222056151796
 31
0.0
  0
LINE
  5
394
330
17
100
AcDbEntity
  8
ENGRAVE
100
AcDbLine
 10
352.3473142819069
 20
369.00222056151796
 30
0.0
 11
352.3473142819069
 21
366.55230601073674
 31
0.0
  0
LINE
  5
395
330
17
100
AcDbEntity
  8
ENGRAVE
100
AcDbLine
 10
352.3473142819069
 20
366.55230601073674
 30
0.0
 11
351.7348356442116
 21
365.9398273730414
 31
0.0
  0
LINE
  5
396
330
17
100
AcDbEntity
  8
ENGRAVE
100
AcDbLine
 10
346.2225279049538
 20
370.8396564746039
 30
0.0
 11
346.2225279049538
 21
374.5145283007758
 31
0.0
  0
LINE
  5
397
330
17
100
AcDbEntity
  8
ENGRAVE
100
AcDbLine
 10
346.2225279049538
 20
374.5145283007758
 30
0.0
 11
352.3473142819069
 21
372.0646137499945
 31
0.0
  0
ENDSEC
  0
SECTION
  2
OBJECTS
  0
DICTIONARY
  5
A
330
0
100
AcDbDictionary
281
1
  3
ACAD_COLOR
350
B
  3
ACAD_GROUP
350
C
  3
ACAD_LAYOUT
350
D
  3
ACAD_MATERIAL
350
E
  3
ACAD_MLEADERSTYLE
350
F
  3
ACAD_MLINESTYLE
350
10
  3
ACAD_PLOTSETTINGS
350
11
  3
ACAD_PLOTSTYLENAME
350
12
  3
ACAD_SCALELIST
350
14
  3
ACAD_TABLESTYLE
350
15
  3
ACAD_VISUALSTYLE
350
16
  3
EZDXF_META
350
2D
  0
DICTIONARY
  5
B
330
A
100
AcDbDictionary
281
1
  0
DICTIONARY
  5
C
330
A
100
AcDbDictionary
281
1
  0
DICTIONARY
  5
D
330
A
100
AcDbDictionary
281
1
  3
Model
350
1A
  3
Layout1
350
1E
  0
DICTIONARY
  5
E
330
A
100
AcDbDictionary
281
1
  3
ByBlock
350
1F
  3
ByLayer
350
20
  3
Global
350
21
  0
DICTIONARY
  5
F
330
A
100
AcDbDictionary
281
1
  3
Standard
350
2C
  0
DICTIONARY
  5
10
330
A
100
AcDbDictionary
281
1
  3
Standard
350
22
  0
DICTIONARY
  5
11
330
A
100
AcDbDictionary
281
1
  0
ACDBDICTIONARYWDFLT
  5
12
330
A
100
AcDbDictionary
281
1
  3
Normal
350
13
100
AcDbDictionaryWithDefault
340
13
  0
ACDBPLACEHOLDER
  5
13
330
12
  0
DICTIONARY
  5
14
330
A
100
AcDbDictionary
281
1
  0
DICTIONARY
  5
15
330
A
100
AcDbDictionary
281
1
  0
DICTIONARY
  5
16
330
A
100
AcDbDictionary
281
1
  0
LAYOUT
  5
1A
330
D
100
AcDbPlotSettings
  1

  4
A3
  6

 40
7.5
 41
20.0
 42
7.5
 43
20.0
 44
420.0
 45
297.0
 46
0.0
 47
0.0
 48
0.0
 49
0.0
140
0.0
141
0.0
142
1.0
143
1.0
 70
1024
 72
1
 73
0
 74
5
  7

 75
16
 76
0
 77
2
 78
300
147
1.0
148
0.0
149
0.0
100
AcDbLayout
  1
Model
 70
1
 71
0
 10
0.0
 20
0.0
 11
420.0
 21
297.0
 12
0.0
 22
0.0
 32
0.0
 14
1e+20
 24
1e+20
 34
1e+20
 15
-1e+20
 25
-1e+20
 35
-1e+20
146
0.0
 13
0.0
 23
0.0
 33
0.0
 16
1.0
 26
0.0
 36
0.0
 17
0.0
 27
1.0
 37
0.0
 76
1
330
17
  0
LAYOUT
  5
1E
330
D
100
AcDbPlotSettings
  1

  4
A3
  6

 40
7.5
 41
20.0
 42
7.5
 43
20.0
 44
420.0
 45
297.0
 46
0.0
 47
0.0
 48
0.0
 49
0.0
140
0.0
141
0.0
142
1.0
143
1.0
 70
0
 72
1
 73
0
 74
5
  7

 75
16
 76
0
 77
2
 78
300
147
1.0
148
0.0
149
0.0
100
AcDbLayout
  1
Layout1
 70
1
 71
1
 10
0.0
 20
0.0
 11
420.0
 21
297.0
 12
0.0
 22
0.0
 32
0.0
 14
1e+20
 24
1e+20
 34
1e+20
 15
-1e+20
 25
-1e+20
 35
-1e+20
146
0.0
 13
0.0
 23
0.0
 33
0.0
 16
1.0
 26
0.0
 36
0.0
 17
0.0
 27
1.0
 37
0.0
 76
1
330
1B
  0
MATERIAL
  5
1F
102
{ACAD_REACTORS
330
E
102
}
330
E
100
AcDbMaterial
  1
ByBlock
  2

 70
0
 40
1.0
 71
1
 41
1.0
 91
-1023410177
 42
1.0
 72
1
  3

 73
1
 74
1
 75
1
 44
0.5
 73
0
 45
1.0
 46
1.0
 77
1
  4

 78
1
 79
1
170
1
 48
1.0
171
1
  6

172
1
173
1
174
1
140
1.0
141
1.0
175
1
  7

176
1
177
1
178
1
143
1.0
179
1
  8

270
1
271
1
272
1
145
1.0
146
1.0
273
1
  9

274
1
275
1
276
1
 42
1.0
 72
1
  3

 73
1
 74
1
 75
1
 94
63
  0
MATERIAL
  5
20
102
{ACAD_REACTORS
330
E
102
}
330
E
100
AcDbMaterial
  1
ByLayer
  2

 70
0
 40
1.0
 71
1
 41
1.0
 91
-1023410177
 42
1.0
 72
1
  3

 73
1
 74
1
 75
1
 44
0.5
 73
0
 45
1.0
 46
1.0
 77
1
  4

 78
1
 79
1
170
1
 48
1.0
171
1
  6

172
1
173
1
174
1
140
1.0
141
1.0
175
1
  7

176
1
177
1
178
1
143
1.0
179
1
  8

270
1
271
1
272
1
145
1.0
146
1.0
273
1
  9

274
1
275
1
276
1
 42
1.0
 72
1
  3

 73
1
 74
1
 75
1
 94
63
  0
MATERIAL
  5
21
102
{ACAD_REACTORS
330
E
102
}
330
E
100
AcDbMaterial
  1
Global
  2

 70
0
 40
1.0
 71
1
 41
1.0
 91
-1023410177
 42
1.0
 72
1
  3

 73
1
 74
1
 75
1
 44
0.5
 73
0
 45
1.0
 46
1.0
 77
1
  4

 78
1
 79
1
170
1
 48
1.0
171
1
  6

172
1
173
1
174
1
140
1.0
141
1.0
175
1
  7

176
1
177
1
178
1
143
1.0
179
1
  8

270
1
271
1
272
1
145
1.0
146
1.0
273
1
  9

274
1
275
1
276
1
 42
1.0
 72
1
  3

 73
1
 74
1
 75
1
 94
63
  0
MLINESTYLE
  5
22
102
{ACAD_REACTORS
330
10
102
}
330
10
100
AcDbMlineStyle
  2
Standard
 70
0
  3

 62
256
 51
90.0
 52
90.0
 71
2
 49
0.5
 62
256
  6
BYLAYER
 49
-0.5
 62
256
  6
BYLAYER
  0
MLEADERSTYLE
  5
2C
102
{ACAD_REACTORS
330
F
102
}
330
F
100
AcDbMLeaderStyle
179
2
170
2
171
1
172
0
 90
2
 40
0.0
 41
0.0
173
1
 91
-1056964608
 92
-2
290
1
 42
2.0
291
1
 43
8.0
  3
Standard
 44
4.0
300

342
29
174
1
175
1
176
0
178
1
 93
-1056964608
 45
4.0
292
0
297
0
 46
4.0
 94
-1056964608
 47
1.0
 49
1.0
140
1.0
294
1
141
0.0
177
0
142
1.0
295
0
296
0
143
3.75
271
0
272
9
273
9
  0
DICTIONARY
  5
2D
330
A
100
AcDbDictionary
280
1
281
1
  3
CREATED_BY_EZDXF
350
2E
  3
WRITTEN_BY_EZDXF
350
39A
  0
DICTIONARYVAR
  5
2E
330
2D
100
DictionaryVariables
280
0
  1
1.4.4 @ 2026-08-21T00:33:10.314424+00:00
  0
DICTIONARYVAR
  5
39A
330
2D
100
DictionaryVariables
280
0
  1
1.4.4 @ 2026-08-21T00:33:10.322912+00:00
  0
ENDSEC
  0
EOF
